<?xml version="1.0" encoding="utf-8"?>
<!-- Generator: Adobe Illustrator 17.0.0, SVG Export Plug-In . SVG Version: 6.00 Build 0)  -->
<!DOCTYPE svg PUBLIC "-//W3C//DTD SVG 1.1//EN" "http://www.w3.org/Graphics/SVG/1.1/DTD/svg11.dtd">
<svg version="1.1" id="Слой_1" xmlns="http://www.w3.org/2000/svg" xmlns:xlink="http://www.w3.org/1999/xlink" x="0px" y="0px"
	 width="150px" height="30px" viewBox="0 0 150 30" enable-background="new 0 0 150 30" xml:space="preserve">
<g>
	<path fill="#D68271" d="M17.521,20.35h-6.616l-1.451,3.443H5.986l7.06-16.406h2.509l6.863,16.406h-3.444L17.521,20.35z
		 M16.586,17.743l-2.337-5.903l-2.336,5.903H16.586z"/>
	<path fill="#D68271" d="M32.06,5.862h3.001v17.931H32.06v-1.378c-1.082,1.55-2.509,1.722-3.271,1.722
		c-3.272,0-5.436-2.558-5.436-5.682c0-3.148,2.14-5.658,5.288-5.658c0.811,0,2.41,0.148,3.419,1.722V5.862z M26.451,18.455
		c0,1.697,1.23,3.025,2.952,3.025s2.951-1.329,2.951-3.025c0-1.697-1.229-3.001-2.951-3.001
		C27.682,15.455,26.451,16.759,26.451,18.455z"/>
	<path fill="#D68271" d="M46.081,5.862h3.001v17.931h-3.001v-1.378c-1.082,1.55-2.509,1.722-3.271,1.722
		c-3.272,0-5.436-2.558-5.436-5.682c0-3.148,2.14-5.658,5.288-5.658c0.811,0,2.41,0.148,3.419,1.722V5.862z M40.473,18.455
		c0,1.697,1.23,3.025,2.952,3.025s2.951-1.329,2.951-3.025c0-1.697-1.229-3.001-2.951-3.001S40.473,16.759,40.473,18.455z"/>
	<path fill="#D68271" d="M63.179,23.794h-1.476l-5.412-10.65h3.346l2.804,6.149l2.854-6.149h1.378l2.853,6.149l2.805-6.149h3.345
		l-5.411,10.65h-1.476l-2.805-6.272L63.179,23.794z"/>
	<path fill="#D68271" d="M86.745,14.299c1.058,0.96,1.796,2.435,1.796,4.182c0,1.722-0.738,3.198-1.796,4.157
		c-0.91,0.836-2.287,1.5-4.305,1.5c-2.017,0-3.395-0.664-4.305-1.5c-1.058-0.959-1.795-2.435-1.795-4.157
		c0-1.747,0.737-3.222,1.795-4.182c0.91-0.836,2.288-1.5,4.305-1.5C84.458,12.799,85.835,13.463,86.745,14.299z M85.442,18.481
		c0-1.672-1.279-3.025-3.001-3.025c-1.722,0-3.001,1.353-3.001,3.025c0,1.624,1.255,3.001,3.001,3.001
		C84.188,21.481,85.442,20.104,85.442,18.481z"/>
	<path fill="#D68271" d="M90.855,13.143h3.001v1.599c0.467-0.91,1.106-1.353,1.328-1.476c0.467-0.295,1.058-0.468,1.771-0.468
		c0.517,0,0.935,0.123,1.279,0.246l-0.394,2.804c-0.394-0.271-0.787-0.394-1.402-0.394c-0.565,0-1.401,0.123-1.992,0.861
		c-0.565,0.713-0.59,1.624-0.59,2.361v5.116h-3.001L90.855,13.143L90.855,13.143z"/>
	<path fill="#D68271" d="M102.711,5.862V17.03l3.984-3.886h3.887l-4.993,4.673l5.387,5.977h-3.985l-3.96-4.55l-0.319,0.295v4.255
		h-3.001V5.863L102.711,5.862L102.711,5.862z"/>
	<path fill="#D68271" d="M121.653,14.299c1.058,0.96,1.796,2.435,1.796,4.182c0,1.722-0.738,3.198-1.796,4.157
		c-0.91,0.836-2.287,1.5-4.305,1.5c-2.017,0-3.395-0.664-4.305-1.5c-1.058-0.959-1.795-2.435-1.795-4.157
		c0-1.747,0.737-3.222,1.795-4.182c0.91-0.836,2.288-1.5,4.305-1.5S120.742,13.463,121.653,14.299z M120.349,18.481
		c0-1.672-1.279-3.025-3.001-3.025c-1.722,0-3.001,1.353-3.001,3.025c0,1.624,1.255,3.001,3.001,3.001
		C119.095,21.481,120.349,20.104,120.349,18.481z"/>
	<path fill="#D68271" d="M128.763,13.143v6.026c0,0.565,0.049,1.328,0.64,1.869c0.368,0.32,0.959,0.541,1.524,0.541
		c0.566,0,1.156-0.221,1.525-0.541c0.59-0.541,0.64-1.304,0.64-1.869v-6.026h3.001v6.518c0,0.959-0.123,2.238-1.304,3.271
		c-0.984,0.861-2.559,1.205-3.862,1.205c-1.304,0-2.878-0.344-3.861-1.205c-1.181-1.033-1.304-2.312-1.304-3.271v-6.518H128.763z"/>
	<path fill="#D68271" d="M141.948,15.701v8.092h-3.001v-8.092h-1.181v-2.558h1.181V9.502h3.001v3.641h2.066v2.558H141.948z"/>
</g>
</svg>
