<?xml version="1.0" encoding="utf-8"?>
<!-- Generator: Adobe Illustrator 17.0.0, SVG Export Plug-In . SVG Version: 6.00 Build 0)  -->
<!DOCTYPE svg PUBLIC "-//W3C//DTD SVG 1.1//EN" "http://www.w3.org/Graphics/SVG/1.1/DTD/svg11.dtd">
<svg version="1.1" id="Слой_1" xmlns="http://www.w3.org/2000/svg" xmlns:xlink="http://www.w3.org/1999/xlink" x="0px" y="0px"
	 width="180px" height="180px" viewBox="0 0 180 180" enable-background="new 0 0 180 180" xml:space="preserve">
<path fill="#43505B" d="M89.509,1.204c-49.206,0-89.096,39.89-89.096,89.096c0,49.206,39.89,89.096,89.096,89.096
	c49.206,0,89.096-39.89,89.096-89.096C178.604,41.094,138.715,1.204,89.509,1.204z M89.51,142.376
	c-28.762,0-52.077-23.316-52.077-52.077c0-28.761,23.315-52.076,52.077-52.076c28.761,0,52.076,23.315,52.076,52.076
	C141.586,119.061,118.27,142.376,89.51,142.376z"/>
<circle fill="#354351" cx="89.51" cy="90.299" r="52.077"/>
<path display="none" fill="#4CA6DB" d="M89.509,179.395c49.206,0,89.096-39.89,89.096-89.096h-37.019
	c-0.001,28.762-23.315,52.076-52.076,52.076c-28.762,0-52.077-23.315-52.077-52.076H0.413
	C0.413,139.506,40.303,179.395,89.509,179.395z"/>
<g>
	
		<rect x="66.977" y="88.07" transform="matrix(-1 8.231718e-004 -8.231718e-004 -1 156.6297 198.8964)" fill="#4C7D98" width="22.594" height="22.821"/>
	
		<rect x="89.467" y="88.05" transform="matrix(-1 9.073336e-004 -9.073336e-004 -1 201.6165 198.8313)" fill="#4C7D98" width="22.593" height="22.822"/>
	<polygon fill="#56A5CF" points="89.581,110.882 66.974,96.331 66.949,69.734 89.558,84.287 	"/>
	<polygon fill="#6BB8B5" points="89.476,110.883 112.057,96.292 112.033,69.698 89.452,84.29 	"/>
</g>
</svg>
