<?xml version="1.0" encoding="utf-8"?>
<!-- Generator: Adobe Illustrator 17.0.0, SVG Export Plug-In . SVG Version: 6.00 Build 0)  -->
<!DOCTYPE svg PUBLIC "-//W3C//DTD SVG 1.1//EN" "http://www.w3.org/Graphics/SVG/1.1/DTD/svg11.dtd">
<svg version="1.1" xmlns="http://www.w3.org/2000/svg" xmlns:xlink="http://www.w3.org/1999/xlink" x="0px" y="0px" width="180px"
	 height="180px" viewBox="0 0 180 180" enable-background="new 0 0 180 180" xml:space="preserve">
<g id="Слой_1">
	<path fill="#4CA6DB" d="M89.509,1.204c-49.206,0-89.096,39.89-89.096,89.096s39.89,89.096,89.096,89.096
		s89.096-39.89,89.096-89.096C178.604,41.094,138.715,1.204,89.509,1.204z M89.51,142.376c-28.762,0-52.077-23.316-52.077-52.077
		S60.748,38.223,89.51,38.223c28.761,0,52.076,23.315,52.076,52.076C141.586,119.061,118.27,142.376,89.51,142.376z"/>
	<circle fill="#354351" cx="89.51" cy="90.299" r="52.077"/>
	<path display="none" fill="#4CA6DB" d="M89.509,179.395c49.206,0,89.096-39.89,89.096-89.096h-37.019
		c-0.001,28.762-23.315,52.076-52.076,52.076c-28.762,0-52.077-23.315-52.077-52.076H0.413
		C0.413,139.506,40.303,179.395,89.509,179.395z"/>
	<g>
		<rect x="66.977" y="88.07" fill="#4C7D98" width="22.594" height="22.821"/>
		<rect x="89.466" y="88.051" fill="#4C7D98" width="22.593" height="22.822"/>
		<polygon fill="#56A5CF" points="89.581,110.882 66.974,96.331 66.949,69.734 89.558,84.287 		"/>
		<polygon fill="#6BB8B5" points="89.476,110.883 112.057,96.292 112.033,69.698 89.452,84.29 		"/>
	</g>
</g>
<g id="Слой_2">
	<path fill="#40AEEB" d="M90,0C40.294,0,0,40.295,0,90c0,49.706,40.294,90,90,90c49.705,0,90-40.294,90-90
		C180,40.295,139.705,0,90,0z M90.001,142.605c-29.054,0-52.606-23.552-52.606-52.606c0-29.053,23.552-52.605,52.606-52.605
		c29.053,0,52.605,23.552,52.605,52.605C142.606,119.053,119.054,142.605,90.001,142.605z"/>
	<circle fill="#354452" cx="90.001" cy="90" r="52.605"/>
	<g>
		
			<rect x="67.24" y="87.747" transform="matrix(-1 8.231718e-004 -8.231718e-004 -1 157.3839 198.4829)" fill="#287FA1" width="22.823" height="23.053"/>
		
			<rect x="89.958" y="87.728" transform="matrix(-1 9.073336e-004 -9.073336e-004 -1 202.8272 198.4172)" fill="#287FA1" width="22.822" height="23.054"/>
		<polygon fill="#50ABDB" points="90.073,110.791 67.236,96.093 67.211,69.226 90.049,83.926 		"/>
		<polygon fill="#69C0BC" points="89.966,110.792 112.777,96.053 112.753,69.189 89.943,83.929 		"/>
	</g>
</g>
</svg>
