<?xml version="1.0" encoding="utf-8"?>
<!-- Generator: Adobe Illustrator 17.0.0, SVG Export Plug-In . SVG Version: 6.00 Build 0)  -->
<!DOCTYPE svg PUBLIC "-//W3C//DTD SVG 1.1//EN" "http://www.w3.org/Graphics/SVG/1.1/DTD/svg11.dtd">
<svg version="1.1" id="Слой_2" xmlns="http://www.w3.org/2000/svg" xmlns:xlink="http://www.w3.org/1999/xlink" x="0px" y="0px"
	 width="180px" height="180px" viewBox="0 0 180 180" enable-background="new 0 0 180 180" xml:space="preserve">
<path fill="#44515C" d="M90,0C40.294,0,0,40.295,0,90c0,49.706,40.294,90,90,90c49.705,0,90-40.294,90-90C180,40.295,139.705,0,90,0
	z M90.001,142.605c-29.054,0-52.606-23.552-52.606-52.606c0-29.053,23.552-52.605,52.606-52.605
	c29.053,0,52.605,23.552,52.605,52.605C142.606,119.053,119.054,142.605,90.001,142.605z"/>
<circle fill="#354452" cx="90.001" cy="90" r="52.605"/>
<g>
	
		<rect x="67.24" y="87.747" transform="matrix(-1 8.231718e-004 -8.231718e-004 -1 157.3839 198.4829)" fill="#287FA1" width="22.823" height="23.053"/>
	
		<rect x="89.958" y="87.728" transform="matrix(-1 9.073336e-004 -9.073336e-004 -1 202.8272 198.4172)" fill="#287FA1" width="22.822" height="23.054"/>
	<polygon fill="#50ABDB" points="90.073,110.791 67.236,96.093 67.211,69.226 90.049,83.926 	"/>
	<polygon fill="#69C0BC" points="89.966,110.792 112.777,96.053 112.753,69.189 89.943,83.929 	"/>
</g>
</svg>
