<?xml version="1.0" encoding="utf-8"?>
<!-- Generator: Adobe Illustrator 17.0.0, SVG Export Plug-In . SVG Version: 6.00 Build 0)  -->
<!DOCTYPE svg PUBLIC "-//W3C//DTD SVG 1.1//EN" "http://www.w3.org/Graphics/SVG/1.1/DTD/svg11.dtd">
<svg version="1.1" id="Слой_2" xmlns="http://www.w3.org/2000/svg" xmlns:xlink="http://www.w3.org/1999/xlink" x="0px" y="0px"
	 width="680px" height="400px" viewBox="0 0 680 400" enable-background="new 0 0 680 400" xml:space="preserve">
<g>
	<rect x="20.154" y="53.822" fill="#E27A66" width="66.531" height="99.958"/>
	<rect x="20.154" y="114.743" fill="#A5574C" width="66.531" height="39.037"/>
	<rect x="28.269" y="119.314" fill="#73241C" width="58.416" height="5.349"/>
	<polygon fill="#9D312C" points="62.709,102.638 58.588,89.231 53.906,83.04 50.314,81.831 48.484,88.364 52.883,102.665 
		52.842,109.745 51.678,117.47 46.164,118.117 41.34,120.908 41.34,121.969 55.918,121.969 55.918,118.175 60.428,109.745 	"/>
	<polygon fill="#EFE5BE" points="55.119,77.739 62.711,79.828 74.67,86.533 86.685,91.063 86.685,103.55 74.215,101.417 
		64.271,101.417 52.896,98.618 48.053,83.383 	"/>
	<polygon fill="#88B5CD" points="86.576,103.674 86.576,96.132 48.162,84.197 52.787,98.742 64.162,101.54 74.105,101.54 	"/>
	<polygon fill="#F09A9C" points="53.309,82.725 53.309,79.828 45.174,80.344 41.365,75.767 33.863,74.987 29.887,79.574 
		29.887,86.301 38.935,92.419 40.277,90.592 45.971,91.823 45.935,88.043 50.385,88.063 52.732,95.596 53.309,95.596 	"/>
	<polygon fill="#F09A9C" points="68.766,101.417 59.103,101.417 54.822,85.924 54.822,79.228 62.131,81.236 64.24,86.7 	"/>
	<polygon fill="#AC4444" points="55.559,88.585 66.353,93.573 68.766,101.417 61.297,118.496 61.31,122.637 45.307,122.637 
		45.307,121.473 50.603,118.41 56.656,117.699 59.103,101.417 	"/>
	<polygon fill="#AC4444" points="31.244,87.219 38.935,92.419 40.277,90.592 45.971,91.823 45.935,88.043 50.385,88.063 
		52.732,95.596 53.309,95.596 53.309,85.796 45.324,85.779 41.34,83.729 34.012,83.729 29.887,85.747 	"/>
	<polygon fill="#874A31" points="45.307,80.336 40.949,74.987 33.863,74.987 29.887,74.987 29.887,86.87 30.947,87.594 
		34.012,83.729 41.34,83.729 	"/>
</g>
<g>
	<path fill="#FFFFFF" d="M32.783,147.919h-1.902V145.7h4.476v13.21h-2.574V147.919z"/>
	<path fill="#FFFFFF" d="M38.25,149.146c0.238-2.396,2.041-3.744,4.299-3.744c2.535,0,4.139,1.426,4.139,3.645
		c0,0.693-0.139,2.001-1.525,2.773c0.535,0.218,2.021,0.97,2.021,3.149c0,2.713-2.1,4.238-4.715,4.238
		c-2.535,0-4.535-1.564-4.752-4.1h2.574c0.158,1.089,0.932,1.881,2.199,1.881c1.484,0,2.119-1.089,2.119-2.099
		c0-0.971-0.596-2.06-2.199-2.06h-0.336v-1.862h0.355c1.268,0,1.803-0.891,1.803-1.802c0-1.05-0.693-1.743-1.742-1.743
		c-0.912,0-1.764,0.594-1.822,1.723L38.25,149.146L38.25,149.146z"/>
	<path fill="#FFFFFF" d="M50.988,150.058c0.871,0,1.545,0.673,1.545,1.544c0,0.872-0.674,1.545-1.545,1.545
		s-1.545-0.673-1.545-1.545C49.443,150.731,50.117,150.058,50.988,150.058z M50.988,156.098c0.871,0,1.545,0.673,1.545,1.545
		s-0.674,1.545-1.545,1.545s-1.545-0.673-1.545-1.545C49.443,156.771,50.117,156.098,50.988,156.098z"/>
	<path fill="#FFFFFF" d="M53.998,152.295c0-4.536,2.477-6.893,5.111-6.893c2.633,0,5.109,2.357,5.109,6.913
		c0,4.535-2.477,6.892-5.109,6.892C56.475,159.208,53.998,156.851,53.998,152.295z M56.574,152.295c0,3.446,1.406,4.694,2.535,4.694
		s2.535-1.248,2.535-4.694c0-3.426-1.426-4.674-2.535-4.674S56.574,148.869,56.574,152.295z"/>
	<path fill="#FFFFFF" d="M65.25,152.295c0-4.536,2.477-6.893,5.111-6.893c2.633,0,5.109,2.357,5.109,6.913
		c0,4.535-2.477,6.892-5.109,6.892C67.727,159.208,65.25,156.851,65.25,152.295z M67.826,152.295c0,3.446,1.406,4.694,2.535,4.694
		s2.535-1.248,2.535-4.694c0-3.426-1.426-4.674-2.535-4.674S67.826,148.869,67.826,152.295z"/>
</g>
<g>
	<rect x="405.722" y="53.822" fill="#E27A66" width="66.531" height="99.958"/>
	<rect x="405.722" y="114.743" fill="#A5574C" width="66.531" height="39.037"/>
	<rect x="413.837" y="119.314" fill="#73241C" width="58.416" height="5.349"/>
	<polygon fill="#9D312C" points="448.276,102.638 444.155,89.231 439.474,83.04 435.882,81.831 434.052,88.364 438.45,102.665 
		438.409,109.745 437.245,117.47 431.731,118.117 426.907,120.908 426.907,121.969 441.485,121.969 441.485,118.175 
		445.995,109.745 	"/>
	<polygon fill="#EFE5BE" points="440.686,77.739 448.278,79.828 460.237,86.533 472.253,91.063 472.253,103.55 459.782,101.417 
		449.839,101.417 438.464,98.618 433.62,83.383 	"/>
	<polygon fill="#88B5CD" points="472.144,103.674 472.144,96.132 433.729,84.197 438.354,98.742 449.729,101.54 459.673,101.54 	"/>
	<polygon fill="#F09A9C" points="438.876,82.725 438.876,79.828 430.741,80.344 426.933,75.767 419.431,74.987 415.454,79.574 
		415.454,86.301 424.503,92.419 425.845,90.592 431.538,91.823 431.503,88.043 435.952,88.063 438.3,95.596 438.876,95.596 	"/>
	<polygon fill="#F09A9C" points="454.333,101.417 444.671,101.417 440.39,85.924 440.39,79.228 447.698,81.236 449.808,86.7 	"/>
	<polygon fill="#AC4444" points="441.126,88.585 451.921,93.573 454.333,101.417 446.864,118.496 446.878,122.637 430.874,122.637 
		430.874,121.473 436.171,118.41 442.224,117.699 444.671,101.417 	"/>
	<polygon fill="#AC4444" points="416.811,87.219 424.503,92.419 425.845,90.592 431.538,91.823 431.503,88.043 435.952,88.063 
		438.3,95.596 438.876,95.596 438.876,85.796 430.892,85.779 426.907,83.729 419.579,83.729 415.454,85.747 	"/>
	<polygon fill="#874A31" points="430.874,80.336 426.517,74.987 419.431,74.987 415.454,74.987 415.454,86.87 416.515,87.594 
		419.579,83.729 426.907,83.729 	"/>
</g>
<g>
	<path fill="#FFFFFF" d="M419.351,147.919h-1.901V145.7h4.477v13.21h-2.575L419.351,147.919L419.351,147.919z"/>
	<path fill="#FFFFFF" d="M426.957,147.919h-1.901V145.7h4.477v13.21h-2.575L426.957,147.919L426.957,147.919z"/>
	<path fill="#FFFFFF" d="M436.188,150.058c0.872,0,1.545,0.673,1.545,1.544c0,0.872-0.673,1.545-1.545,1.545
		c-0.871,0-1.544-0.673-1.544-1.545C434.644,150.731,435.317,150.058,436.188,150.058z M436.188,156.098
		c0.872,0,1.545,0.673,1.545,1.545s-0.673,1.545-1.545,1.545c-0.871,0-1.544-0.673-1.544-1.545
		C434.644,156.771,435.317,156.098,436.188,156.098z"/>
	<path fill="#FFFFFF" d="M439.2,152.295c0-4.536,2.476-6.893,5.11-6.893c2.634,0,5.109,2.357,5.109,6.913
		c0,4.535-2.476,6.892-5.109,6.892C441.676,159.208,439.2,156.851,439.2,152.295z M441.775,152.295c0,3.446,1.406,4.694,2.535,4.694
		s2.535-1.248,2.535-4.694c0-3.426-1.426-4.674-2.535-4.674S441.775,148.869,441.775,152.295z"/>
	<path fill="#FFFFFF" d="M450.451,152.295c0-4.536,2.476-6.893,5.11-6.893c2.634,0,5.109,2.357,5.109,6.913
		c0,4.535-2.476,6.892-5.109,6.892C452.927,159.208,450.451,156.851,450.451,152.295z M453.026,152.295
		c0,3.446,1.406,4.694,2.535,4.694s2.535-1.248,2.535-4.694c0-3.426-1.426-4.674-2.535-4.674S453.026,148.869,453.026,152.295z"/>
</g>
<g>
	<path fill="#FFFFFF" d="M26.555,15.367h1.861l3.506,8.397l3.664-8.397h1.861l2.219,13.21h-2.615l-1.188-8.14l-3.545,8.14h-0.873
		l-3.387-8.14l-1.346,8.14h-2.615L26.555,15.367z"/>
	<path fill="#FFFFFF" d="M49.592,20.933c0.852,0.772,1.445,1.961,1.445,3.367c0,1.386-0.594,2.575-1.445,3.347
		c-0.732,0.673-1.842,1.208-3.467,1.208c-1.623,0-2.732-0.535-3.465-1.208c-0.852-0.772-1.447-1.961-1.447-3.347
		c0-1.406,0.596-2.595,1.447-3.367c0.732-0.673,1.842-1.208,3.465-1.208C47.75,19.725,48.859,20.259,49.592,20.933z M48.541,24.3
		c0-1.347-1.029-2.437-2.416-2.437s-2.416,1.089-2.416,2.437c0,1.307,1.01,2.416,2.416,2.416
		C47.531,26.716,48.541,25.607,48.541,24.3z"/>
	<path fill="#FFFFFF" d="M52.9,20.001h2.416v1.109c0.455-0.634,1.268-1.386,2.654-1.386c0.752,0,1.861,0.218,2.535,1.049
		c0.594,0.733,0.674,1.585,0.674,2.417v5.387h-2.416v-4.674c0-0.475-0.021-1.228-0.457-1.684c-0.375-0.396-0.891-0.435-1.129-0.435
		c-0.633,0-1.129,0.218-1.484,0.752c-0.358,0.555-0.377,1.169-0.377,1.664v4.377H52.9V20.001z"/>
	<path fill="#FFFFFF" d="M64.508,25.844l2.219,0.258l-2.793,5.248l-1.525-0.178L64.508,25.844z"/>
	<path fill="#FFFFFF" d="M81.662,16.021L78.453,20.2c0.396-0.178,0.871-0.317,1.445-0.317c0.971,0,2.139,0.377,2.912,1.129
		c0.693,0.654,1.248,1.783,1.248,3.169c0,1.109-0.318,2.218-1.209,3.189c-1.129,1.228-2.416,1.505-3.764,1.505
		c-1.406,0-2.674-0.257-3.762-1.347c-0.713-0.713-1.289-1.723-1.289-3.208c0-1.604,0.734-2.892,1.664-4.12l3.883-5.189
		L81.662,16.021z M80.769,26.142c0.318-0.317,0.713-0.872,0.713-1.743c0-0.792-0.277-1.386-0.732-1.822
		c-0.494-0.476-1.049-0.634-1.703-0.634c-0.771,0-1.287,0.257-1.723,0.713c-0.477,0.495-0.713,0.99-0.713,1.723
		s0.236,1.327,0.732,1.782c0.336,0.317,0.91,0.654,1.703,0.654C79.879,26.815,80.434,26.478,80.769,26.142z"/>
</g>
<g>
	<path fill="#FFFFFF" d="M128.93,17.585v10.992h-2.574V17.585h-2.971v-2.218h8.517v2.218H128.93z"/>
	<path fill="#FFFFFF" d="M134.755,20.001v4.853c0,0.456,0.039,1.07,0.515,1.505c0.297,0.257,0.773,0.435,1.228,0.435
		c0.456,0,0.932-0.178,1.229-0.435c0.476-0.436,0.515-1.05,0.515-1.505v-4.853h2.416v5.249c0,0.772-0.099,1.803-1.049,2.634
		c-0.793,0.693-2.061,0.971-3.11,0.971s-2.317-0.277-3.109-0.971c-0.95-0.832-1.05-1.862-1.05-2.634v-5.249H134.755z"/>
	<path fill="#FFFFFF" d="M151.373,26.181c-0.258,0.634-1.229,2.674-4.219,2.674c-1.387,0-2.436-0.396-3.288-1.208
		c-0.95-0.892-1.347-2-1.347-3.347c0-1.704,0.693-2.753,1.308-3.367c1.01-0.99,2.198-1.208,3.229-1.208
		c1.742,0,2.753,0.693,3.347,1.406c0.911,1.089,1.03,2.436,1.03,3.367v0.198h-6.417c0,0.515,0.139,1.069,0.415,1.446
		c0.258,0.357,0.793,0.812,1.724,0.812c0.911,0,1.605-0.436,2-1.129L151.373,26.181z M149.154,23.15
		c-0.197-1.169-1.148-1.723-2.04-1.723c-0.891,0-1.822,0.574-2.02,1.723H149.154z"/>
	<path fill="#FFFFFF" d="M154.741,25.844l2.218,0.258l-2.792,5.248l-1.525-0.178L154.741,25.844z"/>
	<path fill="#FFFFFF" d="M170.727,17.585h-6.14v-2.218h10.18l-7.941,13.606l-2.179-0.97L170.727,17.585z"/>
</g>
<g>
	<path fill="#FFFFFF" d="M322.262,17.585v10.992h-2.574V17.585h-2.971v-2.218h8.518v2.218H322.262z"/>
	<path fill="#FFFFFF" d="M325.67,14.139h2.418v6.972c0.455-0.634,1.268-1.386,2.652-1.386c0.754,0,1.863,0.218,2.535,1.049
		c0.596,0.733,0.674,1.585,0.674,2.417v5.387h-2.416v-4.674c0-0.475-0.02-1.228-0.455-1.684c-0.377-0.396-0.893-0.435-1.129-0.435
		c-0.635,0-1.129,0.218-1.486,0.752c-0.355,0.555-0.375,1.169-0.375,1.664v4.377h-2.418L325.67,14.139L325.67,14.139z"/>
	<path fill="#FFFFFF" d="M338.447,20.001v4.853c0,0.456,0.039,1.07,0.516,1.505c0.297,0.257,0.771,0.435,1.227,0.435
		c0.457,0,0.932-0.178,1.229-0.435c0.476-0.436,0.516-1.05,0.516-1.505v-4.853h2.416v5.249c0,0.772-0.1,1.803-1.049,2.634
		c-0.793,0.693-2.061,0.971-3.111,0.971c-1.049,0-2.316-0.277-3.109-0.971c-0.949-0.832-1.049-1.862-1.049-2.634v-5.249H338.447z"/>
	<path fill="#FFFFFF" d="M347.678,25.844l2.219,0.258l-2.793,5.248l-1.525-0.178L347.678,25.844z"/>
	<path fill="#FFFFFF" d="M359.643,27.923l3.148-4.12c-0.416,0.139-0.93,0.258-1.406,0.258c-0.93,0-2.119-0.376-2.891-1.129
		c-0.693-0.654-1.248-1.783-1.248-3.169c0-1.109,0.316-2.218,1.207-3.189c1.129-1.228,2.416-1.505,3.764-1.505
		c1.406,0,2.674,0.258,3.764,1.347c0.713,0.713,1.287,1.723,1.287,3.208c0,1.604-0.732,2.892-1.664,4.12l-3.881,5.189
		L359.643,27.923z M360.533,17.803c-0.316,0.317-0.713,0.872-0.713,1.743c0,0.792,0.277,1.387,0.732,1.822
		c0.496,0.476,1.051,0.634,1.703,0.634c0.713,0,1.248-0.218,1.725-0.713c0.475-0.495,0.713-1.05,0.713-1.723
		c0-0.832-0.338-1.406-0.734-1.783c-0.336-0.317-0.91-0.653-1.703-0.653C361.424,17.129,360.869,17.466,360.533,17.803z"/>
</g>
<g>
	<path fill="#FFFFFF" d="M419.781,17.585h-4.437v2.951h4.159v2.218h-4.159v5.823h-2.575v-13.21h7.012L419.781,17.585L419.781,17.585
		z"/>
	<path fill="#FFFFFF" d="M421.228,20.001h2.417v1.288c0.376-0.733,0.891-1.089,1.069-1.189c0.376-0.237,0.852-0.376,1.426-0.376
		c0.416,0,0.753,0.099,1.03,0.198l-0.317,2.258c-0.316-0.218-0.634-0.317-1.129-0.317c-0.455,0-1.129,0.099-1.604,0.693
		c-0.455,0.574-0.475,1.307-0.475,1.901v4.12h-2.417V20.001z"/>
	<path fill="#FFFFFF" d="M429.567,14.931c0.793,0,1.446,0.654,1.446,1.446c0,0.792-0.653,1.446-1.446,1.446
		c-0.792,0-1.445-0.654-1.445-1.446C428.122,15.585,428.775,14.931,429.567,14.931z M430.776,20.001v8.576h-2.417v-8.576H430.776z"
		/>
	<path fill="#FFFFFF" d="M434.103,25.844l2.218,0.258l-2.792,5.248l-1.525-0.178L434.103,25.844z"/>
	<path fill="#FFFFFF" d="M447.553,17.585h-1.901v-2.218h4.477v13.21h-2.575L447.553,17.585L447.553,17.585z"/>
	<path fill="#FFFFFF" d="M453.417,21.962c0-4.536,2.476-6.893,5.11-6.893c2.634,0,5.109,2.357,5.109,6.913
		c0,4.535-2.476,6.892-5.109,6.892C455.893,28.874,453.417,26.517,453.417,21.962z M455.992,21.962c0,3.446,1.406,4.694,2.535,4.694
		s2.535-1.248,2.535-4.694c0-3.426-1.426-4.674-2.535-4.674S455.992,18.536,455.992,21.962z"/>
</g>
<g>
	<path fill="#FFFFFF" d="M513.6,18.377c-0.772-1.03-1.684-1.129-2.159-1.129c-1.387,0-1.822,0.872-1.822,1.545
		c0,0.317,0.1,0.614,0.416,0.891c0.316,0.297,0.753,0.456,1.584,0.753c1.03,0.357,2.001,0.713,2.674,1.327
		c0.595,0.535,1.129,1.426,1.129,2.772c0,2.575-1.861,4.337-4.595,4.337c-2.436,0-3.862-1.485-4.555-2.495l1.683-1.604
		c0.634,1.288,1.843,1.763,2.773,1.763c1.168,0,2.04-0.713,2.04-1.822c0-0.475-0.158-0.851-0.515-1.188
		c-0.496-0.456-1.288-0.713-2.04-0.971c-0.693-0.238-1.525-0.555-2.199-1.149c-0.436-0.376-1.05-1.109-1.05-2.455
		c0-1.941,1.308-3.882,4.239-3.882c0.831,0,2.396,0.159,3.743,1.545L513.6,18.377z"/>
	<path fill="#FFFFFF" d="M523.9,20.001h2.416v8.576H523.9v-1.109c-0.872,1.247-2.021,1.386-2.635,1.386
		c-2.634,0-4.377-2.06-4.377-4.575c0-2.535,1.724-4.555,4.259-4.555c0.653,0,1.94,0.119,2.753,1.386L523.9,20.001L523.9,20.001z
		 M519.385,24.279c0,1.367,0.99,2.436,2.376,2.436c1.387,0,2.377-1.069,2.377-2.436s-0.99-2.417-2.377-2.417
		C520.375,21.863,519.385,22.913,519.385,24.279z"/>
	<path fill="#FFFFFF" d="M531.032,22.061v6.516h-2.417v-6.516h-0.95v-2.06h0.95V17.07h2.417v2.931h1.663v2.06
		C532.695,22.061,531.032,22.061,531.032,22.061z"/>
	<path fill="#FFFFFF" d="M534.994,25.844l2.218,0.258l-2.792,5.248l-1.525-0.178L534.994,25.844z"/>
	<path fill="#FFFFFF" d="M548.443,17.585h-1.901v-2.218h4.477v13.21h-2.575L548.443,17.585L548.443,17.585z"/>
	<path fill="#FFFFFF" d="M556.05,17.585h-1.901v-2.218h4.477v13.21h-2.575L556.05,17.585L556.05,17.585z"/>
</g>
<g>
	<path fill="#FFFFFF" d="M606.6,18.377c-0.773-1.03-1.684-1.129-2.159-1.129c-1.387,0-1.822,0.872-1.822,1.545
		c0,0.317,0.1,0.614,0.416,0.891c0.316,0.297,0.753,0.456,1.584,0.753c1.03,0.357,2.001,0.713,2.674,1.327
		c0.595,0.535,1.129,1.426,1.129,2.772c0,2.575-1.861,4.337-4.595,4.337c-2.436,0-3.862-1.485-4.555-2.495l1.683-1.604
		c0.634,1.288,1.843,1.763,2.773,1.763c1.168,0,2.04-0.713,2.04-1.822c0-0.475-0.158-0.851-0.515-1.188
		c-0.496-0.456-1.288-0.713-2.04-0.971c-0.693-0.238-1.525-0.555-2.199-1.149c-0.436-0.376-1.05-1.109-1.05-2.455
		c0-1.941,1.308-3.882,4.239-3.882c0.831,0,2.396,0.159,3.743,1.545L606.6,18.377z"/>
	<path fill="#FFFFFF" d="M612.741,20.001v4.853c0,0.456,0.039,1.07,0.515,1.505c0.297,0.257,0.772,0.435,1.227,0.435
		c0.456,0,0.932-0.178,1.229-0.435c0.476-0.436,0.515-1.05,0.515-1.505v-4.853h2.416v5.249c0,0.772-0.099,1.803-1.049,2.634
		c-0.793,0.693-2.061,0.971-3.11,0.971s-2.317-0.277-3.109-0.971c-0.95-0.832-1.05-1.862-1.05-2.634v-5.249H612.741z"/>
	<path fill="#FFFFFF" d="M620.941,20.001h2.417v1.109c0.455-0.634,1.268-1.386,2.653-1.386c0.753,0,1.862,0.218,2.535,1.049
		c0.595,0.733,0.674,1.585,0.674,2.417v5.387h-2.416v-4.674c0-0.475-0.021-1.228-0.456-1.684c-0.376-0.396-0.892-0.435-1.129-0.435
		c-0.634,0-1.129,0.218-1.485,0.752c-0.356,0.555-0.376,1.169-0.376,1.664v4.377h-2.417V20.001z"/>
	<path fill="#FFFFFF" d="M632.55,25.844l2.218,0.258l-2.792,5.248l-1.525-0.178L632.55,25.844z"/>
	<path fill="#FFFFFF" d="M645.999,17.585h-1.901v-2.218h4.477v13.21H646L645.999,17.585L645.999,17.585z"/>
	<path fill="#FFFFFF" d="M654.695,24.161c0.238-0.277,1.782-2.04,2.258-2.753c0.356-0.535,0.772-1.347,0.772-2.119
		c0-1.188-0.852-2-1.961-2c-1.347,0-2.06,1.07-2.099,2.199h-2.654c0.119-2.694,2.021-4.417,4.635-4.417
		c3.069,0,4.654,2.1,4.654,4.199c0,2.04-1.367,3.505-2.396,4.615l-2.278,2.476h4.773v2.218h-9.586L654.695,24.161z"/>
</g>
<g>
	<path fill="#F07C61" d="M220.508,28.577h-1.941l-4.594-13.21h2.732l2.951,8.992l3.229-9.111h1.426l3.051,9.111l3.168-8.992h2.734
		l-4.893,13.21h-1.941l-2.893-8.378L220.508,28.577z"/>
	<path fill="#F07C61" d="M242.258,26.181c-0.258,0.634-1.229,2.674-4.219,2.674c-1.387,0-2.436-0.396-3.287-1.208
		c-0.951-0.892-1.348-2-1.348-3.347c0-1.704,0.693-2.753,1.309-3.367c1.01-0.99,2.197-1.208,3.229-1.208
		c1.742,0,2.752,0.693,3.346,1.406c0.912,1.089,1.031,2.436,1.031,3.367v0.198H235.9c0,0.515,0.139,1.069,0.416,1.446
		c0.258,0.357,0.793,0.812,1.723,0.812c0.912,0,1.605-0.436,2-1.129L242.258,26.181z M240.039,23.15
		c-0.197-1.169-1.148-1.723-2.039-1.723s-1.822,0.574-2.02,1.723H240.039z"/>
	<path fill="#F07C61" d="M250.756,14.139h2.416v14.438h-2.416v-1.109c-0.871,1.247-2.02,1.386-2.635,1.386
		c-2.633,0-4.377-2.06-4.377-4.575c0-2.535,1.725-4.555,4.26-4.555c0.652,0,1.939,0.119,2.752,1.386V14.139z M246.24,24.279
		c0,1.367,0.99,2.436,2.377,2.436s2.377-1.069,2.377-2.436s-0.99-2.417-2.377-2.417S246.24,22.913,246.24,24.279z"/>
	<path fill="#F07C61" d="M256.502,25.844l2.217,0.258l-2.791,5.248l-1.525-0.178L256.502,25.844z"/>
	<path fill="#F07C61" d="M275.654,24.973c0,2.178-1.742,3.901-4.594,3.901c-2.853,0-4.596-1.723-4.596-3.901
		c0-1.525,0.891-2.813,2.358-3.288c-1.01-0.495-1.902-1.465-1.902-2.931c0-1.921,1.387-3.684,4.141-3.684
		c2.752,0,4.139,1.763,4.139,3.684c0,1.466-0.891,2.436-1.9,2.931C274.764,22.16,275.654,23.447,275.654,24.973z M273.08,24.794
		c0-1.208-0.871-2.06-2.02-2.06c-1.148,0-2.021,0.851-2.021,2.06c0,1.208,0.873,2.06,2.021,2.06
		C272.209,26.854,273.08,26.002,273.08,24.794z M272.902,18.773c0-1.089-0.754-1.842-1.842-1.842c-1.09,0-1.842,0.753-1.842,1.842
		c0,1.089,0.752,1.842,1.842,1.842C272.148,20.615,272.902,19.863,272.902,18.773z"/>
</g>
<g opacity="0.7">
	<g>
		<g>
			<rect x="100.822" y="40.114" fill="#55606A" width="1" height="345.667"/>
		</g>
	</g>
</g>
<g opacity="0.7">
	<g>
		<g>
			<rect x="197.989" y="40.114" fill="#55606A" width="1" height="345.667"/>
		</g>
	</g>
</g>
<g opacity="0.7">
	<g>
		<g>
			<rect x="294.155" y="40.114" fill="#55606A" width="1" height="345.667"/>
		</g>
	</g>
</g>
<g>
	<rect x="502.255" y="53.171" fill="#6EC3CB" width="66.801" height="100.354"/>
	<rect x="502.255" y="94.596" fill="#008068" width="66.801" height="58.929"/>
	<path fill="#578F91" d="M569.056,153.525v-33.46c-1.219-1.897-2.135-3.109-2.135-3.109c-5.031-6.776-2.92-11.116-2.92-11.116
		c0.402-1.379,3.471-5.781,3.471-12.578c0-11.307-10.043-18.771-26.592-18.771c-16.547,0-26.592,7.464-26.592,18.771
		c0,6.797,3.066,11.198,3.471,12.578c0,0,2.111,4.34-2.92,11.116c0,0-0.039,0.053-0.098,0.131l-0.086-0.014
		c-2.111,2.937-6.135,8.647-8.061,15.716c-1.973,7.241-1.27,14.285,3.643,20.735h58.819V153.525z"/>
	<path fill="#005041" d="M564.001,105.84c0.375-1.288,3.07-5.207,3.43-11.245h-33.26v58.929h34.885v-33.46
		c-1.219-1.897-2.135-3.109-2.135-3.109C561.89,110.18,564.001,105.84,564.001,105.84z"/>
	<rect x="540.472" y="53.171" fill="#578F91" width="6.416" height="22.815"/>
	<path fill="#F9EBA6" d="M569.056,131.462c-0.563-1.785-1.238-3.481-1.975-5.058v-0.093c-2.422-5.102-5.65-9.355-5.65-9.355
		c-5.029-6.776-2.92-11.116-2.92-11.116c0.404-1.379,3.473-5.781,3.473-12.578c0-11.307-10.043-18.771-26.592-18.771
		c-16.549,0-26.594,7.464-26.594,18.771c0,6.797,3.068,11.198,3.473,12.578c0,0,2.109,4.34-2.92,11.116c0,0-0.041,0.053-0.1,0.131
		l-0.086-0.014c-1.75,2.436-4.814,6.786-6.91,12.232v20.191c0.666,1.365,1.496,2.71,2.498,4.028h61.059
		c1.428-1.876,2.488-3.804,3.244-5.77L569.056,131.462L569.056,131.462z"/>
	<ellipse fill="#D0B390" cx="535.09" cy="105.569" rx="11.155" ry="11.217"/>
	<path fill="#D5C476" d="M567.081,126.224c-1.133-2.388-2.439-4.581-3.512-6.248h-56.471c-1.592,2.422-3.435,5.582-4.844,9.241
		v20.191c0.666,1.365,1.496,2.708,2.498,4.027h61.059c1.428-1.876,2.488-3.803,3.244-5.769v-16.294
		c-0.563-1.784-1.238-3.481-1.975-5.057L567.081,126.224L567.081,126.224z"/>
	<polygon fill="#A68E76" points="540.817,53.171 529.36,53.171 528.712,100.729 541.466,100.729 	"/>
	<ellipse fill="#F9EBA6" cx="535.09" cy="105.569" rx="8.829" ry="8.878"/>
	<rect x="529.077" y="92.873" fill="#D0B390" width="12.043" height="0.976"/>
	<rect x="529.186" y="89.528" fill="#D0B390" width="11.826" height="0.977"/>
	<rect x="529.294" y="86.185" fill="#D0B390" width="11.609" height="0.976"/>
	<rect x="529.431" y="81.082" fill="#D0B390" width="11.338" height="0.977"/>
	<rect x="529.431" y="75.983" fill="#D0B390" width="11.338" height="0.976"/>
	<rect x="529.618" y="70.882" fill="#D0B390" width="10.959" height="0.976"/>
	<ellipse fill="#313233" cx="535.089" cy="105.569" rx="8.342" ry="8.389"/>
	<g>
		<rect x="530.224" y="53.3" fill="#313233" width="0.539" height="66.658"/>
		<rect x="532.06" y="53.3" fill="#313233" width="0.541" height="66.658"/>
		<rect x="533.899" y="53.3" fill="#313233" width="0.541" height="66.658"/>
		<rect x="535.737" y="53.3" fill="#313233" width="0.543" height="66.658"/>
		<rect x="537.577" y="53.3" fill="#313233" width="0.541" height="66.658"/>
		<rect x="539.417" y="53.3" fill="#313233" width="0.539" height="66.658"/>
	</g>
	<g>
		<rect x="530.231" y="119.848" fill="#313233" width="0.543" height="18.462"/>
		<rect x="532.071" y="119.848" fill="#313233" width="0.541" height="18.462"/>
		<rect x="533.909" y="119.848" fill="#313233" width="0.541" height="18.462"/>
		<rect x="535.747" y="119.848" fill="#313233" width="0.541" height="18.462"/>
		<rect x="537.587" y="119.848" fill="#313233" width="0.541" height="18.462"/>
		<rect x="539.425" y="119.848" fill="#313233" width="0.543" height="18.462"/>
	</g>
	<rect x="527.524" y="138.31" fill="#313233" width="15.131" height="3.355"/>
</g>
<g opacity="0.7">
	<g>
		<g>
			<rect x="390.571" y="40.114" fill="#55606A" width="1" height="345.667"/>
		</g>
	</g>
</g>
<g opacity="0.7">
	<g>
		<g>
			<rect x="486.821" y="40.114" fill="#55606A" width="1" height="345.667"/>
		</g>
	</g>
</g>
<g opacity="0.7">
	<g>
		<g>
			<rect x="583.989" y="40.114" fill="#55606A" width="1" height="345.667"/>
		</g>
	</g>
</g>
<g>
	<rect x="20.154" y="191.443" fill="#348375" width="66.531" height="99.95"/>
	<polygon fill="#29AD92" points="20.154,268.04 55.611,268.04 86.685,211.951 86.685,191.443 20.154,191.443 	"/>
	<rect x="39.822" y="234.646" fill="#222222" width="26.449" height="20.333"/>
	<polygon fill="#464646" points="82.4,234.646 53.047,249.987 23.693,234.646 53.047,219.305 	"/>
	<polygon fill="#222222" points="64.088,264.352 72.637,264.352 69.191,258.404 69.191,241.461 53.406,233.898 52.687,235.394 
		67.533,242.506 67.533,258.404 	"/>
	<polygon fill="#666666" points="35.791,240.969 60.705,223.307 53.047,219.305 23.693,234.646 	"/>
</g>
<g>
	<rect x="213.39" y="53.576" fill="#E75659" width="66.529" height="85.347"/>
	<rect x="213.39" y="86.759" fill="#802D64" width="66.529" height="66.766"/>
	<polygon fill="#FDE4B8" points="213.39,53.576 244.061,53.576 272.665,153.525 265.513,153.525 260.249,134.692 213.39,144.227 
		213.39,138.923 	"/>
	<polygon fill="#487527" points="245.624,80.437 258.806,128.255 213.39,136.18 213.39,80.437 	"/>
	<polygon fill="#00A0CC" points="238.532,53.576 213.39,53.576 213.39,105.145 251.079,100.23 	"/>
	<polygon fill="#E5C57E" points="258.714,128.555 252.587,124.733 247.612,107.115 250.507,100.953 253.669,101.982 
		261.069,107.394 262.632,113.92 264.722,122.114 279.919,134.675 279.919,140.425 	"/>
	<path fill="#262C2D" d="M249.411,103.755l-7.361-13.217l-0.785-3.779l2.971,2.188l7.076,13.003
		C251.311,101.95,250.839,102.418,249.411,103.755z"/>
	<polygon fill="#A3916F" points="259.755,121.372 252.999,119.326 253.347,114.753 250.218,106.499 251.726,102.661 255.29,108.774 
		258.261,110.331 251.913,101.41 250.823,101.056 251.31,101.948 249.411,103.755 249.311,103.498 247.612,107.115 252.587,124.733 
		258.573,128.593 279.919,153.525 279.919,142.663 279.919,140.425 	"/>
	<polygon fill="#FFFFFF" points="241.852,89.585 243.499,88.405 241.265,86.759 	"/>
	<path fill="#FFFFFF" d="M224.644,90.09l14.525-2.611c0,0-1.719-4.773-4.732-3.356c0,0-1.822-3.133-5.473-1.865
		c0,0-2.234,0.667-2.682,3.764c0,0-3.352-0.366-3.725,2.149C222.558,88.172,222.335,90.09,224.644,90.09z"/>
	<path fill="#FFFFFF" d="M213.485,81.956l12.65-1.182c0,0-1.398-5.234-4.732-3.999c0,0-1.656-3.498-5.656-2.479
		c0,0-1.279,0.273-2.271,1.66L213.485,81.956z"/>
	<polygon opacity="0.3" fill="#131618" enable-background="new    " points="240.235,88.172 237.669,90.935 231.21,100.687 
		222.763,106.831 213.403,119.963 213.39,133.201 221.837,119.326 229.311,112.565 231.905,104.17 238.991,92.029 	"/>
</g>
<g>
	<path fill="#FFFFFF" d="M32.783,286.418h-1.902V284.2h4.476v13.21h-2.574V286.418z"/>
	<path fill="#FFFFFF" d="M38.25,287.647c0.238-2.397,2.041-3.744,4.299-3.744c2.535,0,4.139,1.426,4.139,3.645
		c0,0.693-0.139,2.001-1.525,2.773c0.535,0.218,2.021,0.97,2.021,3.149c0,2.713-2.1,4.238-4.715,4.238
		c-2.535,0-4.535-1.564-4.752-4.1h2.574c0.158,1.089,0.932,1.881,2.199,1.881c1.484,0,2.119-1.089,2.119-2.099
		c0-0.971-0.596-2.06-2.199-2.06h-0.336v-1.862h0.355c1.268,0,1.803-0.891,1.803-1.802c0-1.05-0.693-1.743-1.742-1.743
		c-0.912,0-1.764,0.594-1.822,1.723H38.25V287.647z"/>
	<path fill="#FFFFFF" d="M50.988,288.558c0.871,0,1.545,0.673,1.545,1.545c0,0.871-0.674,1.545-1.545,1.545
		s-1.545-0.673-1.545-1.545C49.443,289.231,50.117,288.558,50.988,288.558z M50.988,294.598c0.871,0,1.545,0.673,1.545,1.545
		c0,0.871-0.674,1.545-1.545,1.545s-1.545-0.673-1.545-1.545C49.443,295.272,50.117,294.598,50.988,294.598z"/>
	<path fill="#FFFFFF" d="M62.832,286.418h-4.397l-0.475,2.079c0.256-0.039,0.553-0.079,0.891-0.079c1.406,0,2.654,0.554,3.406,1.327
		c1.049,1.07,1.168,2.377,1.168,3.169c0,1.426-0.436,2.535-1.346,3.446c-1.051,1.05-2.219,1.347-3.625,1.347
		c-0.713,0-1.842-0.059-2.852-0.554c-0.535-0.258-1.129-0.673-1.605-1.129l0.852-2.218c0.357,0.475,0.773,0.871,1.367,1.188
		c0.654,0.356,1.287,0.495,1.922,0.495c1.09,0,1.703-0.455,2.02-0.792c0.377-0.396,0.693-1.069,0.693-1.921
		c0-0.753-0.217-1.327-0.771-1.822c-0.674-0.594-1.428-0.674-2.061-0.674c-0.932,0-1.861,0.258-2.851,0.852l1.564-6.932h6.1
		C62.832,284.2,62.832,286.418,62.832,286.418z"/>
	<path fill="#FFFFFF" d="M65.25,290.795c0-4.536,2.477-6.893,5.111-6.893c2.633,0,5.109,2.357,5.109,6.913
		c0,4.535-2.477,6.892-5.109,6.892C67.727,297.707,65.25,295.351,65.25,290.795z M67.826,290.795c0,3.446,1.406,4.694,2.535,4.694
		s2.535-1.248,2.535-4.694c0-3.426-1.426-4.674-2.535-4.674S67.826,287.369,67.826,290.795z"/>
</g>
<polygon fill="#FFFFFF" points="59.016,368.685 54.998,368.685 54.998,364.668 51.998,364.668 51.998,368.685 47.98,368.685 
	47.98,371.685 51.998,371.685 51.998,375.702 54.998,375.702 54.998,371.685 59.016,371.685 "/>
<polygon fill="#FFFFFF" points="348.007,102.174 343.989,102.174 343.989,98.157 340.989,98.157 340.989,102.174 336.972,102.174 
	336.972,105.174 340.989,105.174 340.989,109.191 343.989,109.191 343.989,105.174 348.007,105.174 "/>
<polygon fill="#FFFFFF" points="155.005,102.174 150.987,102.174 150.987,98.157 147.987,98.157 147.987,102.174 143.97,102.174 
	143.97,105.174 147.987,105.174 147.987,109.191 150.987,109.191 150.987,105.174 155.005,105.174 "/>
<polygon fill="#FFFFFF" points="638.339,102.174 634.321,102.174 634.321,98.157 631.321,98.157 631.321,102.174 627.304,102.174 
	627.304,105.174 631.321,105.174 631.321,109.191 634.321,109.191 634.321,105.174 638.339,105.174 "/>
<polygon fill="#FFFFFF" points="252.173,240.63 248.155,240.63 248.155,236.613 245.155,236.613 245.155,240.63 241.138,240.63 
	241.138,243.63 245.155,243.63 245.155,247.648 248.155,247.648 248.155,243.63 252.173,243.63 "/>
<g>
	<path fill="#FFFFFF" d="M516.018,147.919h-1.901V145.7h4.477v13.21h-2.575L516.018,147.919L516.018,147.919z"/>
	<path fill="#FFFFFF" d="M521.485,149.146c0.238-2.396,2.04-3.744,4.298-3.744c2.535,0,4.14,1.426,4.14,3.645
		c0,0.693-0.139,2.001-1.525,2.773c0.535,0.218,2.021,0.97,2.021,3.149c0,2.713-2.1,4.238-4.714,4.238
		c-2.535,0-4.535-1.564-4.753-4.1h2.574c0.159,1.089,0.932,1.881,2.199,1.881c1.485,0,2.119-1.089,2.119-2.099
		c0-0.971-0.595-2.06-2.199-2.06h-0.336v-1.862h0.356c1.268,0,1.802-0.891,1.802-1.802c0-1.05-0.693-1.743-1.742-1.743
		c-0.911,0-1.763,0.594-1.822,1.723L521.485,149.146L521.485,149.146z"/>
	<path fill="#FFFFFF" d="M534.223,150.058c0.872,0,1.545,0.673,1.545,1.544c0,0.872-0.673,1.545-1.545,1.545
		c-0.871,0-1.544-0.673-1.544-1.545C532.679,150.731,533.352,150.058,534.223,150.058z M534.223,156.098
		c0.872,0,1.545,0.673,1.545,1.545s-0.673,1.545-1.545,1.545c-0.871,0-1.544-0.673-1.544-1.545
		C532.679,156.771,533.352,156.098,534.223,156.098z"/>
	<path fill="#FFFFFF" d="M546.067,147.919h-4.398l-0.475,2.079c0.257-0.04,0.554-0.079,0.891-0.079c1.406,0,2.654,0.554,3.407,1.327
		c1.049,1.07,1.168,2.377,1.168,3.169c0,1.426-0.435,2.535-1.347,3.446c-1.05,1.05-2.218,1.347-3.624,1.347
		c-0.714,0-1.843-0.059-2.852-0.554c-0.534-0.258-1.129-0.673-1.604-1.129l0.852-2.218c0.356,0.475,0.772,0.871,1.367,1.188
		c0.653,0.357,1.287,0.495,1.921,0.495c1.09,0,1.703-0.455,2.021-0.792c0.376-0.396,0.693-1.069,0.693-1.921
		c0-0.752-0.218-1.327-0.772-1.822c-0.674-0.594-1.427-0.674-2.061-0.674c-0.931,0-1.861,0.258-2.852,0.852l1.565-6.932h6.101v2.218
		H546.067z"/>
	<path fill="#FFFFFF" d="M548.485,152.295c0-4.536,2.476-6.893,5.11-6.893s5.109,2.357,5.109,6.913c0,4.535-2.476,6.892-5.109,6.892
		C550.961,159.208,548.485,156.851,548.485,152.295z M551.06,152.295c0,3.446,1.406,4.694,2.535,4.694
		c1.129,0,2.535-1.248,2.535-4.694c0-3.426-1.426-4.674-2.535-4.674S551.06,148.869,551.06,152.295z"/>
</g>
<polygon fill="#FFFFFF" points="541.173,240.63 537.155,240.63 537.155,236.613 534.155,236.613 534.155,240.63 530.138,240.63 
	530.138,243.63 534.155,243.63 534.155,247.648 537.155,247.648 537.155,243.63 541.173,243.63 "/>
<g>
	<path fill="#FFFFFF" d="M224.625,150.335h2.416v8.576h-2.416v-1.109c-0.871,1.247-2.02,1.386-2.635,1.386
		c-2.633,0-4.377-2.06-4.377-4.575c0-2.535,1.725-4.555,4.26-4.555c0.652,0,1.939,0.119,2.752,1.386V150.335z M220.109,154.613
		c0,1.367,0.99,2.436,2.377,2.436s2.377-1.069,2.377-2.436s-0.99-2.416-2.377-2.416C221.1,152.196,220.109,153.246,220.109,154.613z
		"/>
	<path fill="#FFFFFF" d="M231.758,144.472v14.438h-2.418v-14.438H231.758z"/>
	<path fill="#FFFFFF" d="M236.473,144.472v14.438h-2.418v-14.438H236.473z"/>
	<path fill="#FFFFFF" d="M249.961,144.472h2.416v14.438h-2.416v-1.109c-0.873,1.247-2.021,1.386-2.635,1.386
		c-2.635,0-4.377-2.06-4.377-4.575c0-2.535,1.723-4.555,4.258-4.555c0.654,0,1.941,0.119,2.754,1.386V144.472z M245.445,154.613
		c0,1.367,0.99,2.436,2.375,2.436c1.387,0,2.377-1.069,2.377-2.436s-0.99-2.416-2.377-2.416
		C246.435,152.196,245.445,153.246,245.445,154.613z"/>
	<path fill="#FFFFFF" d="M261.252,150.335h2.416v8.576h-2.416v-1.109c-0.873,1.247-2.022,1.386-2.635,1.386
		c-2.635,0-4.377-2.06-4.377-4.575c0-2.535,1.723-4.555,4.258-4.555c0.654,0,1.941,0.119,2.754,1.386V150.335z M256.736,154.613
		c0,1.367,0.99,2.436,2.375,2.436c1.387,0,2.377-1.069,2.377-2.436s-0.99-2.416-2.377-2.416
		C257.727,152.196,256.736,153.246,256.736,154.613z"/>
	<path fill="#FFFFFF" d="M268.937,157.623l-4.08-7.288h2.813l2.654,4.872l2.377-4.872h2.732l-6.912,13.112h-2.732L268.937,157.623z"
		/>
</g>
<g>
	<path fill="#D4684F" d="M660.024,347.911c0,11.065-8.971,20.035-20.035,20.035h-43.668c-11.065,0-20.033-8.97-20.033-20.035l0,0
		c0-11.065,8.969-20.035,20.033-20.035h43.668C651.054,327.876,660.024,336.846,660.024,347.911L660.024,347.911z"/>
	<g>
		<path fill="#FFFFFF" d="M610.733,342.919h-4.753v2.951h4.556v2.218h-4.556v3.604h4.753v2.218h-7.328V340.7h7.328V342.919z"/>
		<path fill="#FFFFFF" d="M619.252,339.472h2.416v14.438h-2.416v-1.109c-0.872,1.247-2.021,1.386-2.635,1.386
			c-2.634,0-4.377-2.06-4.377-4.575c0-2.535,1.724-4.555,4.259-4.555c0.653,0,1.94,0.119,2.753,1.386L619.252,339.472
			L619.252,339.472z M614.736,349.613c0,1.367,0.99,2.436,2.376,2.436c1.387,0,2.377-1.069,2.377-2.436s-0.99-2.417-2.377-2.417
			C615.727,347.196,614.736,348.246,614.736,349.613z"/>
		<path fill="#FFFFFF" d="M625.175,340.264c0.793,0,1.446,0.654,1.446,1.446c0,0.792-0.653,1.446-1.446,1.446
			c-0.792,0-1.445-0.654-1.445-1.446C623.729,340.918,624.383,340.264,625.175,340.264z M626.384,345.335v8.576h-2.417v-8.576
			H626.384z"/>
		<path fill="#FFFFFF" d="M631.099,347.395v6.516h-2.417v-6.516h-0.95v-2.06h0.95v-2.931h2.417v2.931h1.663v2.06H631.099z"/>
	</g>
</g>
<g>
	<path fill="#D4684F" d="M414.655,347.911c0,11.065-8.969,20.035-20.035,20.035H291.321c-11.065,0-20.033-8.97-20.033-20.035l0,0
		c0-11.065,8.969-20.035,20.033-20.035H394.62C405.686,327.876,414.655,336.846,414.655,347.911L414.655,347.911z"/>
	<g>
		<path fill="#FFFFFF" d="M290.906,353.911V340.7h1.783l8.041,8.814V340.7h2.574v13.21h-1.783l-8.041-8.833v8.833h-2.574V353.911z"
			/>
		<path fill="#FFFFFF" d="M314.379,351.514c-0.258,0.634-1.228,2.674-4.219,2.674c-1.387,0-2.438-0.396-3.289-1.208
			c-0.949-0.892-1.346-2-1.346-3.347c0-1.704,0.693-2.753,1.307-3.367c1.01-0.99,2.199-1.208,3.228-1.208
			c1.742,0,2.754,0.693,3.348,1.406c0.91,1.089,1.029,2.436,1.029,3.367v0.198h-6.416c0,0.515,0.139,1.069,0.414,1.446
			c0.258,0.357,0.793,0.812,1.725,0.812c0.91,0,1.603-0.436,2-1.129L314.379,351.514z M312.16,348.484
			c-0.197-1.168-1.148-1.723-2.041-1.723c-0.891,0-1.82,0.574-2.02,1.723H312.16z"/>
		<path fill="#FFFFFF" d="M318.857,349.236l-3.289-3.902h3.051l1.742,2.218l1.783-2.218h3.051l-3.348,3.902l4.06,4.674h-3.09
			l-2.457-2.991l-2.496,2.991h-3.088L318.857,349.236z"/>
		<path fill="#FFFFFF" d="M329.514,347.395v6.516h-2.416v-6.516h-0.951v-2.06h0.951v-2.931h2.416v2.931h1.664v2.06H329.514z"/>
		<path fill="#FFFFFF" d="M341.496,353.911h-1.188l-4.357-8.576h2.693l2.258,4.952l2.299-4.952h1.107l2.299,4.952l2.258-4.952h2.693
			l-4.357,8.576h-1.189l-2.258-5.05L341.496,353.911z"/>
		<path fill="#FFFFFF" d="M360.949,351.514c-0.258,0.634-1.229,2.674-4.219,2.674c-1.387,0-2.436-0.396-3.287-1.208
			c-0.951-0.892-1.348-2-1.348-3.347c0-1.704,0.693-2.753,1.309-3.367c1.01-0.99,2.197-1.208,3.229-1.208
			c1.742,0,2.752,0.693,3.346,1.406c0.912,1.089,1.031,2.436,1.031,3.367v0.198h-6.418c0,0.515,0.139,1.069,0.416,1.446
			c0.258,0.357,0.793,0.812,1.723,0.812c0.912,0,1.605-0.436,2-1.129L360.949,351.514z M358.73,348.484
			c-0.197-1.168-1.148-1.723-2.039-1.723s-1.822,0.574-2.02,1.723H358.73z"/>
		<path fill="#FFFFFF" d="M371.289,351.514c-0.258,0.634-1.229,2.674-4.219,2.674c-1.387,0-2.436-0.396-3.287-1.208
			c-0.951-0.892-1.348-2-1.348-3.347c0-1.704,0.693-2.753,1.309-3.367c1.01-0.99,2.197-1.208,3.229-1.208
			c1.742,0,2.752,0.693,3.346,1.406c0.912,1.089,1.031,2.436,1.031,3.367v0.198h-6.418c0,0.515,0.139,1.069,0.416,1.446
			c0.258,0.357,0.793,0.812,1.723,0.812c0.912,0,1.605-0.436,2-1.129L371.289,351.514z M369.07,348.484
			c-0.197-1.168-1.148-1.723-2.039-1.723s-1.822,0.574-2.02,1.723H369.07z"/>
		<path fill="#FFFFFF" d="M375.629,339.472v8.992l3.209-3.129h3.129l-4.02,3.763l4.336,4.813h-3.207l-3.189-3.664l-0.258,0.238
			v3.426h-2.416v-14.438h2.416V339.472z"/>
	</g>
	<path fill="#FFFFFF" d="M396.673,343.58c-0.318-0.303-0.738-0.344-1.086-0.104s-0.566,0.72-0.566,1.243v4.192v4.192
		c0,0.523,0.219,1.003,0.566,1.243c0.348,0.24,0.768,0.2,1.086-0.104l4.623-4.401c0.227-0.214,0.359-0.561,0.359-0.93
		s-0.133-0.715-0.359-0.93L396.673,343.58z"/>
</g>
</svg>
