<?xml version="1.0" encoding="utf-8"?>
<!-- Generator: Adobe Illustrator 17.0.0, SVG Export Plug-In . SVG Version: 6.00 Build 0)  -->
<!DOCTYPE svg PUBLIC "-//W3C//DTD SVG 1.1//EN" "http://www.w3.org/Graphics/SVG/1.1/DTD/svg11.dtd">
<svg version="1.1" id="Слой_2" xmlns="http://www.w3.org/2000/svg" xmlns:xlink="http://www.w3.org/1999/xlink" x="0px" y="0px"
	 width="700px" height="300px" viewBox="0 0 700 300" enable-background="new 0 0 700 300" xml:space="preserve">
<g>
	<rect x="9.098" y="14.967" fill="#33414F" width="681" height="270"/>
	<g>
		<rect x="38.464" y="88.094" fill="#E27A66" width="66.532" height="99.958"/>
		<rect x="38.464" y="149.015" fill="#A5574C" width="66.532" height="39.037"/>
		<rect x="46.579" y="153.585" fill="#73241C" width="58.417" height="5.35"/>
		<polygon fill="#9D312C" points="81.019,136.909 76.898,123.503 72.217,117.312 68.625,116.103 66.794,122.636 71.193,136.937 
			71.152,144.017 69.987,151.741 64.475,152.389 59.649,155.179 59.649,156.24 74.228,156.24 74.228,152.446 78.737,144.017 		"/>
		<polygon fill="#EFE5BE" points="73.43,112.011 81.02,114.1 92.979,120.804 104.996,125.335 104.996,137.821 92.525,135.689 
			82.581,135.689 71.207,132.89 66.362,117.654 		"/>
		<polygon fill="#88B5CD" points="104.887,137.946 104.887,130.403 66.473,118.469 71.098,133.014 82.472,135.812 92.416,135.812 		
			"/>
		<polygon fill="#F09A9C" points="71.618,116.996 71.618,114.1 63.484,114.616 59.676,110.038 52.173,109.259 48.197,113.846 
			48.197,120.572 57.245,126.69 58.588,124.863 64.28,126.095 64.245,122.315 68.694,122.334 71.043,129.868 71.618,129.868 		"/>
		<polygon fill="#F09A9C" points="87.076,135.689 77.413,135.689 73.132,120.195 73.132,113.499 80.441,115.508 82.551,120.972 		
			"/>
		<polygon fill="#AC4444" points="73.868,122.856 84.664,127.845 87.076,135.689 79.606,152.767 79.62,156.909 63.616,156.909 
			63.616,155.744 68.914,152.681 74.966,151.971 77.413,135.689 		"/>
		<polygon fill="#AC4444" points="49.554,121.49 57.245,126.69 58.588,124.863 64.28,126.095 64.245,122.315 68.694,122.334 
			71.043,129.868 71.618,129.868 71.618,120.067 63.635,120.051 59.649,118 52.322,118 48.197,120.019 		"/>
		<polygon fill="#874A31" points="63.616,114.607 59.259,109.259 52.173,109.259 48.197,109.259 48.197,121.142 49.257,121.866 
			52.322,118 59.649,118 		"/>
	</g>
	<g>
		<rect x="352.614" y="88.094" fill="#6EC3CB" width="66.8" height="100.354"/>
		<rect x="352.614" y="129.519" fill="#008068" width="66.8" height="58.929"/>
		<path fill="#578F91" d="M419.414,188.447v-33.46c-1.219-1.896-2.134-3.108-2.134-3.108c-5.031-6.776-2.921-11.116-2.921-11.116
			c0.402-1.379,3.471-5.781,3.471-12.578c0-11.307-10.043-18.771-26.591-18.771s-26.592,7.464-26.592,18.771
			c0,6.797,3.066,11.199,3.47,12.578c0,0,2.111,4.34-2.92,11.116c0,0-0.039,0.054-0.098,0.131l-0.086-0.015
			c-2.11,2.938-6.134,8.646-8.061,15.717c-1.973,7.241-1.27,14.285,3.643,20.735L419.414,188.447L419.414,188.447z"/>
		<path fill="#005041" d="M414.359,140.763c0.375-1.287,3.071-5.207,3.43-11.244h-33.26v58.929h34.885v-33.46
			c-1.219-1.896-2.134-3.108-2.134-3.108C412.249,145.103,414.359,140.763,414.359,140.763z"/>
		<rect x="390.83" y="88.094" fill="#578F91" width="6.416" height="22.816"/>
		<path fill="#F9EBA6" d="M419.414,166.384c-0.562-1.784-1.237-3.48-1.974-5.057v-0.094c-2.423-5.102-5.651-9.354-5.651-9.354
			c-5.028-6.776-2.919-11.116-2.919-11.116c0.404-1.379,3.472-5.781,3.472-12.578c0-11.307-10.043-18.771-26.592-18.771
			s-26.593,7.464-26.593,18.771c0,6.797,3.068,11.199,3.473,12.578c0,0,2.108,4.34-2.921,11.116c0,0-0.041,0.054-0.099,0.131
			l-0.086-0.015c-1.751,2.436-4.815,6.786-6.91,12.232v20.191c0.666,1.365,1.496,2.709,2.497,4.028h61.06
			c1.427-1.876,2.488-3.804,3.243-5.77V166.384z"/>
		<ellipse fill="#D0B390" cx="385.449" cy="140.491" rx="11.156" ry="11.217"/>
		<path fill="#D5C476" d="M417.44,161.146c-1.134-2.387-2.439-4.58-3.512-6.248h-56.472c-1.592,2.422-3.435,5.583-4.843,9.242
			v20.191c0.666,1.365,1.496,2.708,2.497,4.027h61.06c1.427-1.877,2.488-3.803,3.243-5.77v-16.294
			c-0.562-1.784-1.237-3.48-1.974-5.057L417.44,161.146L417.44,161.146z"/>
		<polygon fill="#A68E76" points="391.176,88.094 379.719,88.094 379.07,135.651 391.825,135.651 		"/>
		<ellipse fill="#F9EBA6" cx="385.449" cy="140.491" rx="8.829" ry="8.879"/>
		<rect x="379.435" y="127.796" fill="#D0B390" width="12.043" height="0.975"/>
		<rect x="379.545" y="124.45" fill="#D0B390" width="11.826" height="0.977"/>
		<rect x="379.652" y="121.106" fill="#D0B390" width="11.61" height="0.977"/>
		<rect x="379.789" y="116.005" fill="#D0B390" width="11.338" height="0.976"/>
		<rect x="379.789" y="110.905" fill="#D0B390" width="11.338" height="0.976"/>
		<rect x="379.977" y="105.805" fill="#D0B390" width="10.959" height="0.976"/>
		<ellipse fill="#313233" cx="385.448" cy="140.491" rx="8.342" ry="8.389"/>
		<g>
			<rect x="380.582" y="88.222" fill="#313233" width="0.539" height="66.658"/>
			<rect x="382.419" y="88.222" fill="#313233" width="0.541" height="66.658"/>
			<rect x="384.258" y="88.222" fill="#313233" width="0.542" height="66.658"/>
			<rect x="386.097" y="88.222" fill="#313233" width="0.542" height="66.658"/>
			<rect x="387.936" y="88.222" fill="#313233" width="0.541" height="66.658"/>
			<rect x="389.775" y="88.222" fill="#313233" width="0.539" height="66.658"/>
		</g>
		<g>
			<rect x="380.591" y="154.771" fill="#313233" width="0.542" height="18.461"/>
			<rect x="382.43" y="154.771" fill="#313233" width="0.542" height="18.461"/>
			<rect x="384.268" y="154.771" fill="#313233" width="0.541" height="18.461"/>
			<rect x="386.106" y="154.771" fill="#313233" width="0.541" height="18.461"/>
			<rect x="387.945" y="154.771" fill="#313233" width="0.542" height="18.461"/>
			<rect x="389.784" y="154.771" fill="#313233" width="0.542" height="18.461"/>
		</g>
		<rect x="377.883" y="173.231" fill="#313233" width="15.131" height="3.355"/>
	</g>
	<g>
		<rect x="457.331" y="88.094" fill="#348375" width="66.532" height="99.95"/>
		<polygon fill="#29AD92" points="457.331,164.691 492.788,164.691 523.863,108.603 523.863,88.094 457.331,88.094 		"/>
		<rect x="476.999" y="131.297" fill="#222222" width="26.45" height="20.333"/>
		<polygon fill="#464646" points="519.578,131.297 490.224,146.638 460.87,131.297 490.224,115.956 		"/>
		<polygon fill="#222222" points="501.265,161.003 509.813,161.003 506.368,155.056 506.368,138.112 490.583,130.549 
			489.865,132.045 504.71,139.157 504.71,155.056 		"/>
		<polygon fill="#666666" points="472.969,137.62 497.882,119.958 490.224,115.956 460.87,131.297 		"/>
	</g>
	<g>
		<rect x="247.897" y="88.094" fill="#E75659" width="66.53" height="85.347"/>
		<rect x="247.897" y="121.276" fill="#802D64" width="66.53" height="66.767"/>
		<polygon fill="#FDE4B8" points="247.897,88.094 278.569,88.094 307.173,188.043 300.021,188.043 294.757,169.21 247.897,178.745 
			247.897,173.44 		"/>
		<polygon fill="#487527" points="280.132,114.955 293.313,162.773 247.897,170.698 247.897,114.955 		"/>
		<polygon fill="#00A0CC" points="273.04,88.094 247.897,88.094 247.897,139.663 285.588,134.749 		"/>
		<polygon fill="#E5C57E" points="293.222,163.073 287.096,159.251 282.12,141.634 285.016,135.472 288.178,136.5 295.577,141.912 
			297.141,148.439 299.23,156.632 314.428,169.193 314.428,174.943 		"/>
		<path fill="#262C2D" d="M283.919,138.273l-7.361-13.217l-0.785-3.779l2.971,2.188l7.076,13.003
			C285.819,136.468,285.347,136.937,283.919,138.273z"/>
		<polygon fill="#A3916F" points="294.264,155.89 287.507,153.844 287.854,149.272 284.726,141.017 286.233,137.179 
			289.798,143.292 292.769,144.849 286.421,135.928 285.332,135.574 285.818,136.466 283.919,138.273 283.82,138.017 
			282.12,141.634 287.096,159.251 293.082,163.11 314.428,188.043 314.428,177.181 314.428,174.943 		"/>
		<polygon fill="#FFFFFF" points="276.36,124.104 278.007,122.923 275.772,121.276 		"/>
		<path fill="#FFFFFF" d="M259.151,124.608l14.525-2.611c0,0-1.718-4.773-4.733-3.355c0,0-1.822-3.133-5.473-1.865
			c0,0-2.234,0.668-2.682,3.765c0,0-3.352-0.366-3.724,2.149C257.066,122.69,256.843,124.608,259.151,124.608z"/>
		<path fill="#FFFFFF" d="M247.994,116.474l12.65-1.182c0,0-1.398-5.234-4.733-3.998c0,0-1.656-3.498-5.655-2.479
			c0,0-1.279,0.273-2.271,1.66L247.994,116.474z"/>
		<polygon opacity="0.3" fill="#131618" enable-background="new    " points="274.744,122.69 272.178,125.453 265.719,135.204 
			257.27,141.349 247.911,154.481 247.897,167.719 256.345,153.844 263.82,147.083 266.413,138.689 273.5,126.548 		"/>
	</g>
	<g>
		<path fill="#FFFFFF" d="M451.314,182.098h1.459l2.746,6.579l2.871-6.579h1.459l1.737,10.35h-2.048l-0.932-6.378l-2.777,6.378
			h-0.683l-2.653-6.378l-1.056,6.378h-2.049L451.314,182.098z"/>
		<path fill="#FFFFFF" d="M468.296,185.729h1.894v6.719h-1.894v-0.869c-0.683,0.977-1.583,1.086-2.063,1.086
			c-2.064,0-3.43-1.614-3.43-3.585c0-1.986,1.351-3.569,3.337-3.569c0.512,0,1.521,0.093,2.156,1.086L468.296,185.729
			L468.296,185.729z M464.758,189.081c0,1.071,0.776,1.909,1.862,1.909c1.087,0,1.862-0.838,1.862-1.909
			c0-1.07-0.775-1.893-1.862-1.893C465.534,187.188,464.758,188.01,464.758,189.081z"/>
		<path fill="#FFFFFF" d="M473.885,187.343v5.105h-1.893v-5.105h-0.745v-1.614h0.745v-2.297h1.893v2.297h1.304v1.614H473.885z"/>
		<path fill="#FFFFFF" d="M476.184,181.135h1.893v5.462c0.357-0.497,0.993-1.086,2.08-1.086c0.59,0,1.458,0.17,1.986,0.822
			c0.465,0.574,0.527,1.242,0.527,1.893v4.221h-1.894v-3.662c0-0.372-0.016-0.962-0.356-1.319c-0.295-0.31-0.698-0.341-0.885-0.341
			c-0.496,0-0.885,0.171-1.164,0.59c-0.279,0.435-0.295,0.916-0.295,1.303v3.43h-1.893v-11.313H476.184z"/>
		<path fill="#FFFFFF" d="M490.897,190.57c-0.201,0.497-0.962,2.095-3.306,2.095c-1.086,0-1.908-0.311-2.575-0.947
			c-0.745-0.698-1.056-1.567-1.056-2.623c0-1.334,0.543-2.157,1.025-2.638c0.791-0.776,1.723-0.946,2.529-0.946
			c1.365,0,2.157,0.543,2.623,1.102c0.714,0.854,0.807,1.909,0.807,2.638v0.155h-5.028c0,0.403,0.109,0.838,0.326,1.133
			c0.202,0.279,0.621,0.636,1.35,0.636c0.714,0,1.258-0.341,1.567-0.885L490.897,190.57z M489.159,188.196
			c-0.154-0.916-0.899-1.35-1.598-1.35c-0.698,0-1.428,0.45-1.583,1.35H489.159z"/>
		<path fill="#FFFFFF" d="M492.406,185.729h1.892v0.76c0.714-0.9,1.599-0.978,2.002-0.978c1.412,0,1.955,0.884,2.126,1.226
			c0.326-0.528,0.993-1.226,2.157-1.226c1.04,0,1.552,0.481,1.815,0.822c0.435,0.574,0.466,1.148,0.466,1.893v4.221h-1.893v-3.662
			c0-0.792-0.171-1.148-0.311-1.319c-0.248-0.31-0.589-0.341-0.775-0.341c-0.512,0-0.838,0.233-1.04,0.59
			c-0.248,0.403-0.264,0.946-0.264,1.303v3.43h-1.894v-3.662c0-0.792-0.17-1.148-0.31-1.319c-0.249-0.31-0.59-0.341-0.776-0.341
			c-0.512,0-0.838,0.233-1.04,0.59c-0.248,0.403-0.264,0.946-0.264,1.303v3.43h-1.892v-6.72H492.406z"/>
		<path fill="#FFFFFF" d="M509.821,185.729h1.893v6.719h-1.893v-0.869c-0.683,0.977-1.583,1.086-2.064,1.086
			c-2.064,0-3.43-1.614-3.43-3.585c0-1.986,1.351-3.569,3.337-3.569c0.512,0,1.52,0.093,2.156,1.086L509.821,185.729
			L509.821,185.729z M506.283,189.081c0,1.071,0.776,1.909,1.862,1.909c1.087,0,1.862-0.838,1.862-1.909
			c0-1.07-0.775-1.893-1.862-1.893C507.06,187.188,506.283,188.01,506.283,189.081z"/>
		<path fill="#FFFFFF" d="M515.411,187.343v5.105h-1.893v-5.105h-0.745v-1.614h0.745v-2.297h1.893v2.297h1.304v1.614H515.411z"/>
		<path fill="#FFFFFF" d="M518.655,181.756c0.621,0,1.133,0.512,1.133,1.133s-0.512,1.133-1.133,1.133s-1.133-0.512-1.133-1.133
			C517.522,182.268,518.034,181.756,518.655,181.756z M519.602,185.729v6.719h-1.893v-6.719H519.602z"/>
		<path fill="#FFFFFF" d="M526.463,187.777c-0.403-0.372-0.9-0.59-1.552-0.59c-1.257,0-1.893,0.915-1.893,1.893
			c0,1.102,0.822,1.909,1.955,1.909c0.42,0,0.979-0.124,1.49-0.59v1.847c-0.372,0.186-0.962,0.419-1.738,0.419
			c-1.055,0-1.986-0.403-2.591-0.978c-0.513-0.481-1.071-1.319-1.071-2.576c0-1.179,0.481-2.126,1.164-2.731
			c0.822-0.73,1.768-0.869,2.421-0.869c0.698,0,1.272,0.14,1.815,0.403L526.463,187.777L526.463,187.777z"/>
		<path fill="#FFFFFF" d="M531.555,187.327c-0.45-0.419-0.9-0.45-1.102-0.45c-0.45,0-0.729,0.217-0.729,0.543
			c0,0.17,0.077,0.435,0.604,0.605l0.45,0.14c0.528,0.171,1.319,0.435,1.707,0.962c0.202,0.279,0.342,0.683,0.342,1.117
			c0,0.605-0.202,1.21-0.745,1.707c-0.543,0.497-1.194,0.714-2.018,0.714c-1.396,0-2.187-0.668-2.606-1.117l0.993-1.148
			c0.372,0.435,0.931,0.776,1.489,0.776c0.528,0,0.932-0.264,0.932-0.729c0-0.419-0.342-0.589-0.59-0.683l-0.435-0.155
			c-0.482-0.171-1.04-0.388-1.443-0.807c-0.311-0.326-0.512-0.745-0.512-1.288c0-0.652,0.31-1.195,0.698-1.521
			c0.527-0.419,1.21-0.481,1.753-0.481c0.497,0,1.288,0.062,2.142,0.714L531.555,187.327z"/>
	</g>
	<g>
		<path fill="#FFFFFF" d="M370.31,186.908h4.748v0.124c0,0.699-0.093,2.871-1.521,4.283c-1.07,1.071-2.39,1.366-3.678,1.366
			s-2.623-0.264-3.756-1.397c-0.357-0.357-1.536-1.66-1.536-3.988c0-2.002,0.9-3.228,1.52-3.849c0.776-0.792,2.08-1.583,4.082-1.583
			c0.775,0,1.598,0.124,2.39,0.544c0.667,0.341,1.397,0.962,1.94,1.893l-1.753,0.946c-0.357-0.698-0.885-1.055-1.211-1.226
			c-0.434-0.217-0.977-0.326-1.459-0.326c-0.822,0-1.753,0.295-2.39,0.915c-0.59,0.574-1.039,1.567-1.039,2.732
			c0,1.381,0.589,2.204,1.023,2.622c0.466,0.45,1.195,0.885,2.297,0.885c0.683,0,1.459-0.186,2.033-0.621
			c0.403-0.31,0.807-0.838,0.977-1.582h-2.669v-1.738H370.31z"/>
		<path fill="#FFFFFF" d="M378.539,185.729v3.802c0,0.357,0.031,0.838,0.403,1.18c0.233,0.202,0.605,0.341,0.963,0.341
			c0.356,0,0.729-0.14,0.962-0.341c0.372-0.342,0.403-0.823,0.403-1.18v-3.802h1.894v4.112c0,0.605-0.078,1.412-0.822,2.064
			c-0.621,0.543-1.614,0.76-2.436,0.76c-0.823,0-1.816-0.217-2.436-0.76c-0.745-0.652-0.822-1.459-0.822-2.064v-4.112H378.539z"/>
		<path fill="#FFFFFF" d="M385.913,181.756c0.621,0,1.133,0.512,1.133,1.133s-0.512,1.133-1.133,1.133s-1.133-0.512-1.133-1.133
			C384.78,182.268,385.292,181.756,385.913,181.756z M386.859,185.729v6.719h-1.893v-6.719H386.859z"/>
		<path fill="#FFFFFF" d="M390.554,187.343v5.105h-1.893v-5.105h-0.745v-1.614h0.745v-2.297h1.893v2.297h1.304v1.614H390.554z"/>
		<path fill="#FFFFFF" d="M398.004,185.729h1.894v6.719h-1.894v-0.869c-0.683,0.977-1.583,1.086-2.064,1.086
			c-2.064,0-3.43-1.614-3.43-3.585c0-1.986,1.351-3.569,3.337-3.569c0.512,0,1.521,0.093,2.156,1.086L398.004,185.729
			L398.004,185.729z M394.466,189.081c0,1.071,0.776,1.909,1.862,1.909c1.087,0,1.862-0.838,1.862-1.909
			c0-1.07-0.775-1.893-1.862-1.893C395.242,187.188,394.466,188.01,394.466,189.081z"/>
		<path fill="#FFFFFF" d="M401.701,185.729h1.893v1.009c0.295-0.574,0.698-0.854,0.838-0.931c0.295-0.186,0.668-0.295,1.118-0.295
			c0.325,0,0.589,0.078,0.807,0.155l-0.248,1.769c-0.249-0.171-0.497-0.248-0.885-0.248c-0.357,0-0.885,0.078-1.257,0.543
			c-0.357,0.45-0.373,1.024-0.373,1.489v3.228h-1.893L401.701,185.729L401.701,185.729z"/>
	</g>
	<g>
		<path fill="#FFFFFF" d="M49.098,182.098c1.164,0,1.972,0.124,2.731,0.791c0.838,0.745,1.056,1.753,1.056,2.499
			c0,0.403-0.063,1.521-0.854,2.312c-0.574,0.574-1.428,0.916-2.623,0.916h-1.304v3.833h-2.017v-10.35L49.098,182.098
			L49.098,182.098z M48.104,186.877h0.823c0.388,0,0.884,0,1.318-0.326c0.373-0.295,0.559-0.76,0.559-1.21
			c0-0.574-0.279-0.962-0.574-1.179c-0.419-0.295-0.946-0.326-1.427-0.326h-0.699V186.877z"/>
		<path fill="#FFFFFF" d="M55.991,185.729v3.802c0,0.357,0.031,0.838,0.403,1.18c0.233,0.202,0.606,0.341,0.963,0.341
			c0.357,0,0.729-0.14,0.962-0.341c0.372-0.342,0.403-0.823,0.403-1.18v-3.802h1.894v4.112c0,0.605-0.078,1.412-0.822,2.064
			c-0.621,0.543-1.614,0.76-2.437,0.76s-1.816-0.217-2.437-0.76c-0.745-0.652-0.822-1.459-0.822-2.064v-4.112H55.991z"/>
		<path fill="#FFFFFF" d="M66.081,187.327c-0.45-0.419-0.9-0.45-1.102-0.45c-0.45,0-0.729,0.217-0.729,0.543
			c0,0.17,0.077,0.435,0.604,0.605l0.45,0.14c0.528,0.171,1.319,0.435,1.707,0.962c0.202,0.279,0.342,0.683,0.342,1.117
			c0,0.605-0.202,1.21-0.745,1.707s-1.194,0.714-2.018,0.714c-1.396,0-2.188-0.668-2.606-1.117l0.993-1.148
			c0.372,0.435,0.931,0.776,1.489,0.776c0.527,0,0.932-0.264,0.932-0.729c0-0.419-0.342-0.589-0.59-0.683l-0.435-0.155
			c-0.481-0.171-1.04-0.388-1.443-0.807c-0.311-0.326-0.512-0.745-0.512-1.288c0-0.652,0.31-1.195,0.698-1.521
			c0.527-0.419,1.21-0.481,1.753-0.481c0.497,0,1.288,0.062,2.142,0.714L66.081,187.327z"/>
		<path fill="#FFFFFF" d="M68.69,181.135h1.893v5.462c0.357-0.497,0.993-1.086,2.08-1.086c0.589,0,1.458,0.17,1.986,0.822
			c0.465,0.574,0.527,1.242,0.527,1.893v4.221h-1.894v-3.662c0-0.372-0.016-0.962-0.356-1.319c-0.295-0.31-0.698-0.341-0.885-0.341
			c-0.496,0-0.885,0.171-1.164,0.59c-0.279,0.435-0.295,0.916-0.295,1.303v3.43H68.69V181.135z"/>
		<path fill="#FFFFFF" d="M78.702,185.729v3.802c0,0.357,0.031,0.838,0.403,1.18c0.233,0.202,0.605,0.341,0.963,0.341
			c0.356,0,0.729-0.14,0.962-0.341c0.372-0.342,0.403-0.823,0.403-1.18v-3.802h1.894v4.112c0,0.605-0.078,1.412-0.822,2.064
			c-0.621,0.543-1.614,0.76-2.437,0.76s-1.816-0.217-2.437-0.76c-0.745-0.652-0.822-1.459-0.822-2.064v-4.112H78.702z"/>
		<path fill="#FFFFFF" d="M87.022,196.002H85.13v-10.273h1.893v0.869c0.295-0.419,0.947-1.086,2.188-1.086
			c0.59,0,1.536,0.14,2.297,0.9c0.496,0.497,1.009,1.335,1.009,2.669c0,1.521-0.668,2.343-1.056,2.716
			c-0.512,0.481-1.288,0.869-2.281,0.869c-0.466,0-1.412-0.078-2.157-1.086L87.022,196.002L87.022,196.002z M87.473,187.638
			c-0.419,0.357-0.636,0.822-0.636,1.443c0,0.621,0.248,1.133,0.62,1.459c0.248,0.217,0.652,0.45,1.242,0.45
			c0.62,0,1.023-0.249,1.272-0.481c0.403-0.372,0.589-0.931,0.589-1.428s-0.201-1.055-0.574-1.412
			c-0.341-0.31-0.838-0.481-1.287-0.481C88.202,187.188,87.814,187.327,87.473,187.638z"/>
		<path fill="#FFFFFF" d="M97.485,187.327c-0.45-0.419-0.9-0.45-1.102-0.45c-0.45,0-0.729,0.217-0.729,0.543
			c0,0.17,0.077,0.435,0.604,0.605l0.45,0.14c0.528,0.171,1.319,0.435,1.707,0.962c0.202,0.279,0.342,0.683,0.342,1.117
			c0,0.605-0.202,1.21-0.745,1.707s-1.194,0.714-2.018,0.714c-1.396,0-2.188-0.668-2.606-1.117l0.993-1.148
			c0.372,0.435,0.931,0.776,1.489,0.776c0.527,0,0.932-0.264,0.932-0.729c0-0.419-0.342-0.589-0.59-0.683l-0.435-0.155
			c-0.481-0.171-1.04-0.388-1.443-0.807c-0.311-0.326-0.512-0.745-0.512-1.288c0-0.652,0.31-1.195,0.698-1.521
			c0.527-0.419,1.21-0.481,1.753-0.481c0.497,0,1.288,0.062,2.142,0.714L97.485,187.327z"/>
	</g>
	<g>
		<g>
			<rect x="9.098" y="218.467" fill="#55606A" width="681" height="1"/>
		</g>
	</g>
	<g>
		<rect x="143.181" y="88.094" fill="#4799CF" width="66.532" height="99.95"/>
		<rect x="143.181" y="131.575" fill="#FDCE4A" width="66.532" height="56.469"/>
		<rect x="143.181" y="114.555" fill="#2279A8" width="66.532" height="24.62"/>
		<path fill="#7F492D" d="M191.431,142.64c13.488-0.698,8.493-9.682,8.493-9.682l-0.011,0.002c0-0.005,0.003-0.009,0.003-0.015
			l-5.152-8.132c-0.377-0.141-0.785-0.117-1.248,0.141c-1.774,0.992-1.813,2.207-1.813,2.207c-4.431,3.072-8.03,1.517-8.03,1.517
			c-9.102-3.624-27.188,21.188-27.188,21.188l2.216,3.496l2.216,3.496c0,0,27.483-5.247,30.508-14.229
			C191.427,142.632,191.429,142.637,191.431,142.64z M196.486,134.711c0,0,0.538,0.232,1.419-0.02
			c1.273,4.316-3.692,5.105-5.93,5.245C192.427,138.55,193.573,136.392,196.486,134.711z"/>
		<path fill="#F0927A" d="M194.764,124.814c0,0-5.989-8.353-12.381,3.544c-9.413-1.104-25.898,21.509-25.898,21.509l2.216,3.496
			l38.64-24.481L194.764,124.814z M185.066,129.01c1.084-1.966,3.909-6.093,7.257-3.12c-0.6,0.688-0.62,1.271-0.62,1.271
			C188.945,129.071,186.514,129.192,185.066,129.01z"/>
		<polygon fill="#FDCE4A" points="148.521,156.118 165.677,146.536 187.904,154.009 164.932,159.81 		"/>
		<polygon fill="#FDCE4A" points="170.297,153.106 183.598,145.679 200.828,151.472 183.019,155.968 		"/>
		<polygon fill="#CD8F06" points="209.713,151.754 185.562,151.754 149.163,153.853 143.181,151.754 143.181,188.044 
			209.713,188.044 		"/>
		<path fill="#7F492D" d="M189.844,157.798c0,0-0.02-9.976,6.255-7.916l1.094,2.507c0,0-4.142-1.566-4.515,4.47l-1.342-0.891
			L189.844,157.798z"/>
		<polygon fill="#824018" points="151.516,149.417 160.46,157.284 148.664,154.964 		"/>
	</g>
	<g>
		<path fill="#FFFFFF" d="M147.512,184.457c-0.605-0.807-1.32-0.885-1.691-0.885c-1.088,0-1.428,0.683-1.428,1.21
			c0,0.249,0.076,0.481,0.326,0.698c0.248,0.233,0.588,0.357,1.24,0.59c0.807,0.279,1.568,0.559,2.096,1.04
			c0.465,0.419,0.885,1.117,0.885,2.173c0,2.017-1.459,3.398-3.602,3.398c-1.908,0-3.025-1.164-3.568-1.956l1.318-1.257
			c0.496,1.009,1.443,1.381,2.174,1.381c0.914,0,1.598-0.559,1.598-1.428c0-0.373-0.125-0.667-0.404-0.931
			c-0.387-0.357-1.008-0.559-1.598-0.76c-0.543-0.187-1.195-0.435-1.723-0.9c-0.342-0.295-0.822-0.869-0.822-1.924
			c0-1.521,1.023-3.042,3.32-3.042c0.652,0,1.879,0.124,2.934,1.21L147.512,184.457z"/>
		<path fill="#FFFFFF" d="M153.908,192.448h-0.932l-3.414-6.719h2.111l1.768,3.879l1.801-3.879h0.869l1.801,3.879l1.768-3.879h2.111
			l-3.414,6.719h-0.932l-1.768-3.957L153.908,192.448z"/>
		<path fill="#FFFFFF" d="M163.672,181.756c0.621,0,1.133,0.512,1.133,1.133s-0.512,1.133-1.133,1.133s-1.133-0.512-1.133-1.133
			C162.539,182.268,163.051,181.756,163.672,181.756z M164.619,185.729v6.719h-1.892v-6.719H164.619z"/>
		<path fill="#FFFFFF" d="M166.42,185.729h1.893v0.76c0.715-0.9,1.6-0.978,2.002-0.978c1.412,0,1.955,0.884,2.127,1.226
			c0.326-0.528,0.992-1.226,2.156-1.226c1.041,0,1.553,0.481,1.816,0.822c0.434,0.574,0.465,1.148,0.465,1.893v4.221h-1.893v-3.662
			c0-0.792-0.172-1.148-0.311-1.319c-0.248-0.31-0.59-0.341-0.775-0.341c-0.512,0-0.838,0.233-1.041,0.59
			c-0.248,0.403-0.264,0.946-0.264,1.303v3.43h-1.893v-3.662c0-0.792-0.17-1.148-0.31-1.319c-0.248-0.31-0.59-0.341-0.775-0.341
			c-0.512,0-0.838,0.233-1.041,0.59c-0.248,0.403-0.264,0.946-0.264,1.303v3.43h-1.893v-6.72H166.42z"/>
		<path fill="#FFFFFF" d="M178.684,185.729h1.893v0.76c0.714-0.9,1.599-0.978,2.002-0.978c1.412,0,1.955,0.884,2.126,1.226
			c0.326-0.528,0.993-1.226,2.157-1.226c1.04,0,1.552,0.481,1.816,0.822c0.434,0.574,0.466,1.148,0.466,1.893v4.221h-1.894v-3.662
			c0-0.792-0.171-1.148-0.311-1.319c-0.248-0.31-0.589-0.341-0.775-0.341c-0.512,0-0.838,0.233-1.04,0.59
			c-0.248,0.403-0.264,0.946-0.264,1.303v3.43h-1.894v-3.662c0-0.792-0.17-1.148-0.31-1.319c-0.249-0.31-0.59-0.341-0.776-0.341
			c-0.512,0-0.838,0.233-1.04,0.59c-0.248,0.403-0.264,0.946-0.264,1.303v3.43h-1.893L178.684,185.729L178.684,185.729z"/>
		<path fill="#FFFFFF" d="M191.894,181.756c0.621,0,1.133,0.512,1.133,1.133s-0.512,1.133-1.133,1.133s-1.133-0.512-1.133-1.133
			C190.761,182.268,191.272,181.756,191.894,181.756z M192.84,185.729v6.719h-1.893v-6.719H192.84z"/>
		<path fill="#FFFFFF" d="M194.643,185.729h1.893v0.869c0.357-0.497,0.993-1.086,2.08-1.086c0.589,0,1.458,0.17,1.986,0.822
			c0.465,0.574,0.527,1.242,0.527,1.893v4.221h-1.894v-3.662c0-0.372-0.016-0.962-0.356-1.319c-0.295-0.31-0.698-0.341-0.885-0.341
			c-0.496,0-0.885,0.171-1.164,0.59c-0.279,0.435-0.295,0.916-0.295,1.303v3.43h-1.893v-6.72H194.643z"/>
		<path fill="#FFFFFF" d="M208.053,185.729h1.893v6.409c0,1.024-0.093,2.095-0.931,2.933c-0.466,0.465-1.272,0.947-2.654,0.947
			c-1.303,0-2.079-0.388-2.514-0.776c-0.527-0.45-0.931-1.242-1.086-2.002h2.048c0.078,0.31,0.249,0.621,0.466,0.807
			c0.373,0.342,0.885,0.357,1.148,0.357c0.543,0,0.9-0.186,1.148-0.419c0.435-0.419,0.481-0.946,0.481-1.49v-0.946
			c-0.652,0.993-1.552,1.117-2.064,1.117c-0.9,0-1.676-0.279-2.327-0.916c-0.497-0.497-1.071-1.366-1.071-2.669
			c0-1.055,0.388-2.033,1.04-2.669c0.59-0.574,1.412-0.9,2.312-0.9c1.258,0,1.847,0.683,2.111,1.086L208.053,185.729
			L208.053,185.729z M205.15,187.653c-0.311,0.279-0.605,0.729-0.605,1.427c0,0.59,0.218,1.024,0.497,1.319
			c0.403,0.435,0.915,0.59,1.365,0.59c0.466,0,0.932-0.171,1.257-0.466c0.389-0.357,0.605-0.9,0.605-1.443
			c0-0.636-0.279-1.07-0.543-1.35c-0.373-0.388-0.807-0.543-1.319-0.543C205.802,187.188,205.383,187.436,205.15,187.653z"/>
	</g>
	<path fill="#C2C6CB" d="M42.231,44.134l4.98-4.981c0.921-0.921,1.048-2.286,0.283-3.051c-0.764-0.765-2.131-0.638-3.051,0.283
		l-4.98,4.981l-4.98-4.981c-0.921-0.922-2.287-1.049-3.051-0.284c-0.766,0.765-0.639,2.131,0.281,3.051l4.982,4.981l-4.98,4.98
		c-0.922,0.92-1.049,2.286-0.283,3.051c0.764,0.765,2.13,0.638,3.051-0.283l4.98-4.98l4.98,4.98c0.92,0.921,2.286,1.049,3.051,0.283
		c0.765-0.764,0.637-2.129-0.283-3.051L42.231,44.134z"/>
	<g>
		<rect x="596.098" y="25.634" fill="#2F3C49" width="76.334" height="34.333"/>
		<g>
			<path fill="#55606A" d="M672.932,60.467h-77.334V25.134h77.334V60.467z M596.598,59.467h75.334V26.134h-75.334V59.467z"/>
		</g>
	</g>
	<g>
		<rect x="349.505" y="25.634" fill="#2F3C49" width="153.944" height="34.333"/>
		<g>
			<path fill="#55606A" d="M503.949,60.467H349.005V25.134h154.944V60.467z M350.005,59.467h152.944V26.134H350.005V59.467z"/>
		</g>
	</g>
	<g>
		<rect x="195.56" y="25.634" fill="#28333E" width="153.944" height="34.333"/>
		<g>
			<path fill="#55606A" d="M350.005,60.467H195.06V25.134h154.944v35.333H350.005z M196.06,59.467h152.944V26.134H196.06V59.467z"/>
		</g>
	</g>
	<g>
		<path fill="#FFFFFF" d="M627.454,39.995h-1.424v-1.661h3.352v9.893h-1.928V39.995z"/>
		<path fill="#FFFFFF" d="M637.582,44.815h1.157v1.542h-1.157v1.869h-1.809v-1.869h-4.835v-0.86l4.909-7.164h1.735L637.582,44.815
			L637.582,44.815z M635.773,44.815v-3.767l-2.551,3.767H635.773z"/>
		<path fill="#FFFFFF" d="M640.903,41.597c0.652,0,1.156,0.504,1.156,1.157c0,0.652-0.504,1.157-1.156,1.157
			c-0.653,0-1.157-0.504-1.157-1.157C639.746,42.101,640.25,41.597,640.903,41.597z M640.903,46.121
			c0.652,0,1.156,0.504,1.156,1.157s-0.504,1.157-1.156,1.157c-0.653,0-1.157-0.504-1.157-1.157
			C639.746,46.625,640.25,46.121,640.903,46.121z"/>
		<path fill="#FFFFFF" d="M643.157,43.273c0-3.396,1.853-5.162,3.826-5.162s3.827,1.765,3.827,5.176
			c0,3.396-1.854,5.162-3.827,5.162S643.157,46.684,643.157,43.273z M645.085,43.273c0,2.581,1.054,3.515,1.898,3.515
			c0.846,0,1.898-0.935,1.898-3.515c0-2.566-1.067-3.5-1.898-3.5C646.153,39.773,645.085,40.707,645.085,43.273z"/>
		<path fill="#FFFFFF" d="M651.579,43.273c0-3.396,1.854-5.162,3.826-5.162s3.827,1.765,3.827,5.176
			c0,3.396-1.854,5.162-3.827,5.162S651.579,46.684,651.579,43.273z M653.507,43.273c0,2.581,1.054,3.515,1.898,3.515
			c0.846,0,1.898-0.935,1.898-3.515c0-2.566-1.067-3.5-1.898-3.5C654.575,39.773,653.507,40.707,653.507,43.273z"/>
	</g>
	<g>
		<path fill="#FFFFFF" d="M380.46,45.432c-0.193,0.475-0.92,2.002-3.159,2.002c-1.039,0-1.824-0.296-2.463-0.905
			c-0.711-0.667-1.008-1.498-1.008-2.506c0-1.275,0.518-2.062,0.979-2.521c0.757-0.741,1.646-0.905,2.418-0.905
			c1.305,0,2.061,0.519,2.506,1.053c0.683,0.816,0.771,1.824,0.771,2.521v0.148h-4.806c0,0.385,0.104,0.801,0.312,1.083
			c0.193,0.267,0.594,0.608,1.291,0.608c0.682,0,1.201-0.326,1.498-0.845L380.46,45.432z M378.799,43.163
			c-0.148-0.875-0.86-1.29-1.528-1.29c-0.667,0-1.364,0.43-1.513,1.29H378.799z"/>
		<path fill="#FFFFFF" d="M382.935,40.805l1.69,3.619l1.691-3.619h2.017l-3.233,6.422h-0.949l-3.233-6.422H382.935z"/>
		<path fill="#FFFFFF" d="M395.378,45.432c-0.193,0.475-0.92,2.002-3.159,2.002c-1.039,0-1.824-0.296-2.463-0.905
			c-0.711-0.667-1.008-1.498-1.008-2.506c0-1.275,0.519-2.062,0.979-2.521c0.757-0.741,1.646-0.905,2.418-0.905
			c1.305,0,2.062,0.519,2.506,1.053c0.683,0.816,0.771,1.824,0.771,2.521v0.148h-4.806c0,0.385,0.104,0.801,0.311,1.083
			c0.193,0.267,0.594,0.608,1.291,0.608c0.682,0,1.201-0.326,1.498-0.845L395.378,45.432z M393.717,43.163
			c-0.148-0.875-0.86-1.29-1.528-1.29c-0.667,0-1.364,0.43-1.513,1.29H393.717z"/>
		<path fill="#FFFFFF" d="M396.814,40.805h1.81v0.964c0.281-0.549,0.667-0.816,0.801-0.89c0.281-0.178,0.638-0.282,1.067-0.282
			c0.311,0,0.564,0.074,0.771,0.148l-0.237,1.691c-0.237-0.163-0.475-0.237-0.846-0.237c-0.341,0-0.845,0.074-1.201,0.519
			c-0.341,0.43-0.355,0.979-0.355,1.424v3.085h-1.81L396.814,40.805L396.814,40.805z"/>
		<path fill="#FFFFFF" d="M404.822,46.263l-3.056-5.458h2.106l1.987,3.648l1.78-3.648h2.047l-5.177,9.818h-2.047L404.822,46.263z"/>
		<path fill="#FFFFFF" d="M416.344,43.919c0.178-0.208,1.335-1.527,1.691-2.062c0.267-0.4,0.578-1.008,0.578-1.587
			c0-0.89-0.638-1.498-1.469-1.498c-1.008,0-1.542,0.801-1.572,1.646h-1.987c0.089-2.017,1.513-3.308,3.471-3.308
			c2.299,0,3.485,1.572,3.485,3.145c0,1.527-1.023,2.625-1.795,3.456l-1.705,1.854h3.574v1.661h-7.179L416.344,43.919z"/>
		<path fill="#FFFFFF" d="M422.452,40.805h1.81v0.831c0.341-0.475,0.949-1.039,1.987-1.039c0.563,0,1.394,0.164,1.898,0.786
			c0.444,0.549,0.504,1.187,0.504,1.81v4.034h-1.81v-3.5c0-0.355-0.015-0.919-0.341-1.26c-0.282-0.297-0.667-0.327-0.846-0.327
			c-0.475,0-0.845,0.163-1.112,0.564c-0.267,0.415-0.281,0.875-0.281,1.246v3.278h-1.81v-6.423H422.452z"/>
		<path fill="#FFFFFF" d="M435.295,36.415h1.81v10.812h-1.81v-0.831c-0.652,0.935-1.513,1.038-1.973,1.038
			c-1.973,0-3.277-1.542-3.277-3.426c0-1.898,1.29-3.412,3.188-3.412c0.489,0,1.453,0.089,2.062,1.039V36.415z M431.913,44.008
			c0,1.023,0.742,1.824,1.78,1.824s1.779-0.801,1.779-1.824s-0.741-1.81-1.779-1.81C432.655,42.199,431.913,42.985,431.913,44.008z"
			/>
		<path fill="#FFFFFF" d="M444.117,42.347v4.879h-1.81v-4.879h-0.682v-1.542h0.682V39.04c0-0.593,0.045-1.602,0.846-2.269
			c0.386-0.327,0.92-0.534,1.587-0.534c0.4,0,0.727,0.074,1.038,0.223v1.646c-0.252-0.192-0.504-0.267-0.815-0.267
			c-0.237,0-0.475,0.059-0.652,0.326c-0.148,0.237-0.193,0.578-0.193,1.112v1.528h1.661v1.542H444.117z"/>
		<path fill="#FFFFFF" d="M446.607,40.805h1.81v0.964c0.281-0.549,0.667-0.816,0.801-0.89c0.281-0.178,0.638-0.282,1.067-0.282
			c0.311,0,0.564,0.074,0.771,0.148l-0.237,1.691c-0.237-0.163-0.475-0.237-0.846-0.237c-0.341,0-0.845,0.074-1.201,0.519
			c-0.341,0.43-0.355,0.979-0.355,1.424v3.085h-1.81L446.607,40.805L446.607,40.805z"/>
		<path fill="#FFFFFF" d="M452.851,37.008c0.594,0,1.083,0.489,1.083,1.083c0,0.593-0.489,1.083-1.083,1.083
			c-0.593,0-1.082-0.489-1.082-1.083C451.769,37.497,452.258,37.008,452.851,37.008z M453.756,40.805v6.422h-1.81v-6.422H453.756z"
			/>
		<path fill="#FFFFFF" d="M460.398,36.415h1.81v10.812h-1.81v-0.831c-0.652,0.935-1.513,1.038-1.973,1.038
			c-1.973,0-3.277-1.542-3.277-3.426c0-1.898,1.29-3.412,3.189-3.412c0.489,0,1.453,0.089,2.061,1.039V36.415z M457.017,44.008
			c0,1.023,0.742,1.824,1.78,1.824s1.779-0.801,1.779-1.824s-0.741-1.81-1.779-1.81C457.759,42.199,457.017,42.985,457.017,44.008z"
			/>
		<path fill="#FFFFFF" d="M468.851,40.805h1.81v6.422h-1.81v-0.831c-0.652,0.935-1.513,1.038-1.973,1.038
			c-1.973,0-3.277-1.542-3.277-3.426c0-1.898,1.29-3.412,3.189-3.412c0.489,0,1.453,0.089,2.061,1.039V40.805z M465.469,44.008
			c0,1.023,0.742,1.824,1.78,1.824s1.779-0.801,1.779-1.824s-0.741-1.81-1.779-1.81C466.211,42.199,465.469,42.985,465.469,44.008z"
			/>
		<path fill="#FFFFFF" d="M474.604,46.263l-3.056-5.458h2.107l1.987,3.648l1.78-3.648h2.046l-5.176,9.818h-2.047L474.604,46.263z"/>
	</g>
	<g>
		<path fill="#FFFFFF" d="M241.461,45.432c-0.193,0.475-0.92,2.002-3.159,2.002c-1.039,0-1.824-0.296-2.463-0.905
			c-0.711-0.667-1.008-1.498-1.008-2.506c0-1.275,0.518-2.062,0.979-2.521c0.757-0.741,1.646-0.905,2.418-0.905
			c1.305,0,2.062,0.519,2.506,1.053c0.683,0.816,0.771,1.824,0.771,2.521v0.148h-4.806c0,0.385,0.104,0.801,0.311,1.083
			c0.193,0.267,0.594,0.608,1.291,0.608c0.682,0,1.201-0.326,1.498-0.845L241.461,45.432z M239.8,43.163
			c-0.148-0.875-0.86-1.29-1.528-1.29c-0.667,0-1.364,0.43-1.513,1.29H239.8z"/>
		<path fill="#FFFFFF" d="M243.935,40.805l1.691,3.619l1.691-3.619h2.017l-3.233,6.422h-0.949l-3.233-6.422H243.935z"/>
		<path fill="#FFFFFF" d="M256.379,45.432c-0.193,0.475-0.92,2.002-3.159,2.002c-1.039,0-1.824-0.296-2.463-0.905
			c-0.711-0.667-1.008-1.498-1.008-2.506c0-1.275,0.519-2.062,0.978-2.521c0.757-0.741,1.647-0.905,2.418-0.905
			c1.305,0,2.062,0.519,2.506,1.053c0.683,0.816,0.771,1.824,0.771,2.521v0.148h-4.806c0,0.385,0.104,0.801,0.311,1.083
			c0.193,0.267,0.594,0.608,1.291,0.608c0.682,0,1.201-0.326,1.498-0.845L256.379,45.432z M254.718,43.163
			c-0.148-0.875-0.86-1.29-1.528-1.29c-0.667,0-1.364,0.43-1.513,1.29H254.718z"/>
		<path fill="#FFFFFF" d="M257.815,40.805h1.81v0.964c0.281-0.549,0.667-0.816,0.801-0.89c0.281-0.178,0.638-0.282,1.067-0.282
			c0.311,0,0.564,0.074,0.771,0.148l-0.237,1.691c-0.237-0.163-0.475-0.237-0.846-0.237c-0.341,0-0.845,0.074-1.201,0.519
			c-0.341,0.43-0.355,0.979-0.355,1.424v3.085h-1.81L257.815,40.805L257.815,40.805z"/>
		<path fill="#FFFFFF" d="M265.823,46.263l-3.056-5.458h2.106l1.987,3.648l1.78-3.648h2.047l-5.177,9.818h-2.047L265.823,46.263z"/>
		<path fill="#FFFFFF" d="M276.87,42.347v4.879h-1.81v-4.879h-0.682v-1.542h0.682V39.04c0-0.593,0.045-1.602,0.846-2.269
			c0.386-0.327,0.92-0.534,1.587-0.534c0.4,0,0.727,0.074,1.038,0.223v1.646c-0.252-0.192-0.504-0.267-0.815-0.267
			c-0.237,0-0.475,0.059-0.652,0.326c-0.148,0.237-0.193,0.578-0.193,1.112v1.528h1.661v1.542H276.87z"/>
		<path fill="#FFFFFF" d="M279.36,40.805h1.81v0.964c0.281-0.549,0.667-0.816,0.801-0.89c0.281-0.178,0.638-0.282,1.067-0.282
			c0.311,0,0.564,0.074,0.771,0.148l-0.237,1.691c-0.237-0.163-0.475-0.237-0.846-0.237c-0.341,0-0.845,0.074-1.201,0.519
			c-0.341,0.43-0.355,0.979-0.355,1.424v3.085h-1.81L279.36,40.805L279.36,40.805z"/>
		<path fill="#FFFFFF" d="M285.603,37.008c0.594,0,1.083,0.489,1.083,1.083c0,0.593-0.489,1.083-1.083,1.083
			c-0.593,0-1.082-0.489-1.082-1.083C284.521,37.497,285.011,37.008,285.603,37.008z M286.509,40.805v6.422h-1.81v-6.422H286.509z"
			/>
		<path fill="#FFFFFF" d="M293.151,36.415h1.809v10.812h-1.809v-0.831c-0.652,0.935-1.513,1.038-1.973,1.038
			c-1.973,0-3.277-1.542-3.277-3.426c0-1.898,1.29-3.412,3.188-3.412c0.489,0,1.453,0.089,2.062,1.039V36.415z M289.769,44.008
			c0,1.023,0.742,1.824,1.78,1.824s1.779-0.801,1.779-1.824s-0.741-1.81-1.779-1.81C290.512,42.199,289.769,42.985,289.769,44.008z"
			/>
		<path fill="#FFFFFF" d="M301.603,40.805h1.81v6.422h-1.81v-0.831c-0.652,0.935-1.513,1.038-1.973,1.038
			c-1.973,0-3.277-1.542-3.277-3.426c0-1.898,1.29-3.412,3.189-3.412c0.489,0,1.453,0.089,2.061,1.039V40.805z M298.222,44.008
			c0,1.023,0.742,1.824,1.78,1.824s1.779-0.801,1.779-1.824s-0.741-1.81-1.779-1.81C298.964,42.199,298.222,42.985,298.222,44.008z"
			/>
		<path fill="#FFFFFF" d="M307.356,46.263l-3.056-5.458h2.106l1.987,3.648l1.78-3.648h2.047l-5.177,9.818h-2.047L307.356,46.263z"/>
	</g>
	<g>
		<g>
			<path fill="#A0A0AD" d="M612.979,50.092c-4.021,0-7.292-3.271-7.292-7.292s3.272-7.292,7.292-7.292s7.292,3.271,7.292,7.292
				S616.999,50.092,612.979,50.092z M612.979,37.008c-3.193,0-5.792,2.599-5.792,5.792s2.599,5.792,5.792,5.792
				s5.792-2.599,5.792-5.792C618.771,39.606,616.172,37.008,612.979,37.008z"/>
		</g>
		<polygon fill="#A0A0AD" points="613.638,42.836 613.638,38.28 611.888,38.28 611.888,43.561 615.457,46.426 616.694,45.189 		"/>
	</g>
	<path fill="none" stroke="#000000" stroke-miterlimit="10" d="M247.897,88.094"/>
	<g>
		<path fill="#FFFFFF" d="M256.197,182.098c1.442,0,2.7,0.155,3.849,1.009c1.257,0.946,1.986,2.452,1.986,4.174
			c0,1.723-0.714,3.212-2.08,4.174c-1.21,0.854-2.343,0.993-3.786,0.993h-2.669v-10.35L256.197,182.098L256.197,182.098z
			 M255.514,190.71h0.621c0.512,0,1.63-0.031,2.529-0.683c0.822-0.59,1.288-1.645,1.288-2.747c0-1.086-0.45-2.142-1.272-2.762
			c-0.838-0.621-1.862-0.683-2.545-0.683h-0.621L255.514,190.71L255.514,190.71z"/>
		<path fill="#FFFFFF" d="M263.618,185.729h1.892v1.009c0.295-0.574,0.698-0.854,0.838-0.931c0.295-0.186,0.668-0.295,1.118-0.295
			c0.325,0,0.589,0.078,0.807,0.155l-0.248,1.769c-0.249-0.171-0.497-0.248-0.885-0.248c-0.357,0-0.885,0.078-1.257,0.543
			c-0.357,0.45-0.373,1.024-0.373,1.489v3.228h-1.892L263.618,185.729L263.618,185.729z"/>
		<path fill="#FFFFFF" d="M274.203,185.729h1.894v6.719h-1.894v-0.869c-0.683,0.977-1.583,1.086-2.064,1.086
			c-2.064,0-3.43-1.614-3.43-3.585c0-1.986,1.35-3.569,3.337-3.569c0.512,0,1.521,0.093,2.156,1.086L274.203,185.729
			L274.203,185.729z M270.665,189.081c0,1.071,0.776,1.909,1.862,1.909c1.087,0,1.862-0.838,1.862-1.909
			c0-1.07-0.775-1.893-1.862-1.893C271.441,187.188,270.665,188.01,270.665,189.081z"/>
		<path fill="#FFFFFF" d="M281.376,192.448h-0.931l-3.414-6.719h2.11l1.769,3.879l1.801-3.879h0.869l1.8,3.879l1.768-3.879h2.111
			l-3.414,6.719h-0.932l-1.769-3.957L281.376,192.448z"/>
		<path fill="#FFFFFF" d="M291.142,181.756c0.621,0,1.133,0.512,1.133,1.133s-0.512,1.133-1.133,1.133s-1.133-0.512-1.133-1.133
			C290.009,182.268,290.52,181.756,291.142,181.756z M292.088,185.729v6.719h-1.893v-6.719H292.088z"/>
		<path fill="#FFFFFF" d="M293.89,185.729h1.893v0.869c0.357-0.497,0.993-1.086,2.08-1.086c0.59,0,1.458,0.17,1.986,0.822
			c0.465,0.574,0.527,1.242,0.527,1.893v4.221h-1.894v-3.662c0-0.372-0.016-0.962-0.356-1.319c-0.295-0.31-0.698-0.341-0.885-0.341
			c-0.496,0-0.885,0.171-1.164,0.59c-0.279,0.435-0.295,0.916-0.295,1.303v3.43h-1.893v-6.72H293.89z"/>
		<path fill="#FFFFFF" d="M307.3,185.729h1.893v6.409c0,1.024-0.093,2.095-0.931,2.933c-0.466,0.465-1.272,0.947-2.654,0.947
			c-1.303,0-2.079-0.388-2.514-0.776c-0.527-0.45-0.931-1.242-1.086-2.002h2.048c0.078,0.31,0.249,0.621,0.466,0.807
			c0.373,0.342,0.885,0.357,1.148,0.357c0.543,0,0.9-0.186,1.148-0.419c0.434-0.419,0.481-0.946,0.481-1.49v-0.946
			c-0.652,0.993-1.553,1.117-2.064,1.117c-0.9,0-1.676-0.279-2.327-0.916c-0.497-0.497-1.071-1.366-1.071-2.669
			c0-1.055,0.388-2.033,1.04-2.669c0.59-0.574,1.412-0.9,2.311-0.9c1.258,0,1.847,0.683,2.111,1.086L307.3,185.729L307.3,185.729z
			 M304.397,187.653c-0.311,0.279-0.605,0.729-0.605,1.427c0,0.59,0.218,1.024,0.497,1.319c0.403,0.435,0.915,0.59,1.365,0.59
			c0.466,0,0.932-0.171,1.257-0.466c0.389-0.357,0.605-0.9,0.605-1.443c0-0.636-0.279-1.07-0.543-1.35
			c-0.373-0.388-0.807-0.543-1.319-0.543C305.049,187.188,304.63,187.436,304.397,187.653z"/>
	</g>
	<path stroke="#FFFFFF" stroke-miterlimit="10" d="M349.005,102.035"/>
</g>
</svg>
