<?xml version="1.0" encoding="utf-8"?>
<!-- Generator: Adobe Illustrator 17.0.0, SVG Export Plug-In . SVG Version: 6.00 Build 0)  -->
<!DOCTYPE svg PUBLIC "-//W3C//DTD SVG 1.1//EN" "http://www.w3.org/Graphics/SVG/1.1/DTD/svg11.dtd">
<svg version="1.1" id="Слой_1" xmlns="http://www.w3.org/2000/svg" xmlns:xlink="http://www.w3.org/1999/xlink" x="0px" y="0px"
	 width="500px" height="400px" viewBox="0 0 500 400" enable-background="new 0 0 500 400" xml:space="preserve">
<polygon opacity="0.4" fill="#2B353F" points="189.215,392.049 4.91,297.959 310.051,76.71 494.357,170.801 "/>
<g>
	<polygon fill="#914B44" points="189.492,322.781 5.182,228.687 309.773,7.838 494.084,101.93 	"/>
	<polygon fill="#BC4F46" points="97.574,161.696 150.926,187.223 449.975,133.914 494.084,101.93 309.773,7.838 	"/>
	<polygon fill="#BF7472" points="320.111,135.991 361.366,106.078 350.732,91.663 325.553,87.795 284.298,117.708 287.57,122.144 
		272.67,132.947 253.59,123.207 192.727,132.702 188.555,150.365 222.021,146.097 194.393,166.13 177.837,188.007 159.046,201.633 
		178.197,217.231 206.775,226 225.566,212.373 258.102,198.654 285.512,178.781 284.43,199.31 312.295,193.742 317.058,155.907 
		317.3,155.732 317.094,155.626 317.094,155.626 297.463,145.605 312.364,134.801 	"/>
	<polygon fill="#E9AEA4" points="350.732,91.663 333.495,104.162 333.572,104.274 333.572,104.274 347.351,111.308 336.945,116.341 
		329.222,107.261 329.241,107.247 329.24,107.246 308.287,122.439 326.195,131.581 361.366,106.078 	"/>
	<polygon fill="#432C2E" points="398.664,171.116 214.353,77.023 223.445,70.43 407.756,164.523 	"/>
	<polygon fill="#E9AEA4" points="266.443,110.23 239.994,96.728 258.684,83.177 285.132,96.68 	"/>
	<polygon fill="#E9AEA4" points="165.687,138.69 175.33,143.614 188.555,150.365 257.764,105.799 241.784,97.642 	"/>
	<polygon fill="#E9AEA4" points="335.867,145.672 362.316,159.175 381.006,145.624 354.557,132.121 	"/>
	<polygon fill="#E9AEA4" points="307.296,210.983 297.652,206.06 284.43,199.31 344.547,150.104 360.526,158.262 	"/>
	<polygon fill="#BF7472" points="241.784,97.642 257.764,105.799 247.508,112.402 230.508,103.724 	"/>
	<polygon fill="#BF7472" points="360.526,158.262 344.547,150.104 335.639,157.395 352.639,166.074 	"/>
	<polygon fill="#283647" points="137.836,296.409 57.045,255.166 124.277,214.585 159.046,201.633 178.197,217.231 206.775,226 
		191.844,249.081 	"/>
	<polygon fill="#E9AEA4" points="296.147,171.068 232.437,138.544 211.719,153.568 212.646,163.894 239.027,173.127 258.582,187.31 
		275.428,186.093 	"/>
	<path fill="#375A5A" d="M239.964,158.319c0.515-1.071,0.595-1.997,0.024-2.883c-0.832-1.304-1.878-2.353-0.434-3.615
		c0.189-0.107,0.373-0.223,0.561-0.336c0.189,0.287,0.31,0.607,0.401,0.862c0.081,0.23,0.699,0.047,0.613-0.183
		c-0.134-0.353-0.305-0.683-0.577-0.953c0.209-0.134,0.421-0.271,0.63-0.415c0.31-0.211-0.048-0.464-0.399-0.291
		c-0.25,0.123-0.482,0.248-0.7,0.37c-0.243-0.124-0.536-0.221-0.906-0.268c-0.101-0.013-0.194,0.084-0.095,0.107
		c0.277,0.064,0.496,0.194,0.679,0.354c-0.434,0.267-0.804,0.539-1.083,0.816c-1.666,0.814-3.447,1.043-5.67,1.142
		c-1.418,0.065-3.527,0.089-4.885,0.744c-2.697,1.299-1.828,3.136-0.201,4.09c-0.146,0.129-0.151,0.083-0.316,0.308
		c-0.026,0.035-0.026,0.062-0.023,0.091c-0.709,0.527-1.404,1.093-1.941,1.65c-0.16,0.167,0.186,0.29,0.375,0.133
		c0.615-0.509,1.324-1.053,1.904-1.609c1.615,0.515,3.094,1.167,4.16,2.081c0.05,0.04,0.124,0.06,0.204,0.063
		c-0.444,0.342-0.851,0.708-1.155,1.068c-0.25,0.296,0.341,0.419,0.625,0.141c0.604-0.593,1.162-1.197,1.798-1.779
		c0.148-0.137-0.128-0.197-0.288-0.104c0.033-0.04,0.074-0.075,0.105-0.121C235.616,160.245,238.97,160.392,239.964,158.319z
		 M236.082,159.64c-1.225,0.054-2.325-0.251-3.297-0.575c-1.182-0.573-2.578-1.117-4.068-1.371c-0.076-0.01-0.173,0.064-0.102,0.092
		c1.102,0.446,2.207,0.858,3.264,1.329c-0.075,0.114-0.07,0.243,0.105,0.302c0.229,0.078,0.508,0.158,0.814,0.236
		c-0.111,0.134-0.244,0.262-0.385,0.384c-0.703-0.49-1.514-0.897-2.408-1.257c-0.455-0.186-0.93-0.35-1.413-0.507
		c-0.235-0.078-0.313-0.14-0.314-0.223l0.002-0.002c0.039,0.02,0.076,0.042,0.118,0.061c0.114,0.049,0.341-0.07,0.245-0.145
		c-0.056-0.041-0.109-0.087-0.162-0.136c0.004-0.005,0.015-0.014,0.02-0.02c0.047-0.06-0.01-0.101-0.082-0.103
		c0.021-0.077-0.073-0.11-0.178-0.09c-1.331-1.256-2.322-3.415,2.52-4.079c1.361-0.188,2.703-0.188,4.041-0.268
		c1.297-0.076,2.393-0.357,3.408-0.782c-0.261,0.48-0.291,0.994-0.016,1.564c0.371,0.782,1.064,1.435,1.395,2.238
		C240.148,157.638,238.879,159.514,236.082,159.64z"/>
	<path fill="#375A5A" d="M228.939,160.669c0.076-0.078,0.141-0.158,0.17-0.231c0.029-0.079-0.066-0.129-0.171-0.114
		c0.023-0.032,0.065-0.065,0.087-0.099c0.137-0.204-0.19-0.364-0.465-0.163c-0.49,0.357-0.982,0.716-1.473,1.076
		c-0.15,0.11-0.117,0.299,0.111,0.29c0.374-0.015,0.719-0.107,1.039-0.246c0.071-0.001,0.148-0.019,0.226-0.074
		c0.134-0.093,0.267-0.189,0.4-0.282C228.945,160.77,228.957,160.715,228.939,160.669z"/>
	<polygon fill="#E9AEA4" points="207.369,196.081 225.566,212.373 206.775,226 178.197,217.231 	"/>
	<polygon fill="#914B44" points="89.589,271.779 124.907,255.872 105.293,279.796 	"/>
</g>
<g>
	<polygon fill="#FFFFFF" points="262.023,270.191 77.713,176.097 5.182,228.687 189.492,322.781 	"/>
	<g>
		<path fill="#9B9C9C" d="M188.938,313.734l-0.272-0.139L19.92,227.448l32.369-23.469l0.273,0.139l168.745,86.148L188.938,313.734z
			 M21.829,227.299l167.019,85.266l30.551-22.151L52.38,205.148L21.829,227.299z"/>
	</g>
	<polygon fill="#2F2E2E" points="133.377,259.168 133.534,257.117 115.967,259.518 116.361,254.352 113.003,254.81 112.607,259.976 
		112.578,259.98 112.42,262.035 112.451,262.029 112.449,262.046 115.809,261.588 115.81,261.571 	"/>
	<g>
		<path fill="#828282" d="M109.191,205.208l-1.655-0.846l2.124-1.54l3.896,1.99l-12.646,9.171l-2.242-1.145L109.191,205.208z"/>
		<path fill="#828282" d="M119.211,210.323l-5.347-2.729l2.124-1.54l8.863,4.525l-19.941,5.915l-0.969-1.642L119.211,210.323z"/>
		<path fill="#828282" d="M116.395,218.561c0.76,0.388,0.7,1.154-0.134,1.759c-0.834,0.606-2.064,0.773-2.824,0.386
			c-0.76-0.387-0.701-1.154,0.134-1.759C114.406,218.343,115.637,218.175,116.395,218.561z M122.179,214.368
			c0.76,0.388,0.7,1.155-0.134,1.759c-0.834,0.605-2.064,0.773-2.824,0.386c-0.759-0.387-0.7-1.154,0.134-1.759
			S121.42,213.981,122.179,214.368z"/>
		<path fill="#828282" d="M122.658,217.261c4.342-3.149,8.754-3.685,11.047-2.514c2.294,1.171,2.193,3.908-2.168,7.07
			c-4.342,3.148-8.755,3.684-11.049,2.513C118.195,223.159,118.297,220.422,122.658,217.261z M124.899,218.404
			c-3.3,2.393-3.27,3.884-2.287,4.386c0.983,0.502,3.402,0.261,6.702-2.132c3.28-2.378,3.233-3.878,2.267-4.371
			C130.616,215.794,128.18,216.026,124.899,218.404z"/>
		<path fill="#828282" d="M132.451,222.259c4.342-3.148,8.754-3.684,11.048-2.513s2.193,3.908-2.167,7.07
			c-4.343,3.148-8.756,3.684-11.05,2.513C127.988,228.159,128.09,225.422,132.451,222.259z M134.692,223.404
			c-3.3,2.393-3.269,3.884-2.286,4.386c0.982,0.501,3.401,0.261,6.701-2.132c3.28-2.378,3.233-3.878,2.268-4.371
			C140.409,220.794,137.973,221.026,134.692,223.404z"/>
		<path fill="#828282" d="M145.766,230.182l4.484,2.289l-2.123,1.54l-4.484-2.29L145.766,230.182z"/>
		<path fill="#313D49" d="M148.467,243.626l-2.104-1.073l12.553-9.102l2.104,1.073l-1.061,0.77c0.839-0.204,2.379-0.425,3.759,0.279
			c0.654,0.335,1.536,0.996,1.452,2.101c-0.055,0.722-0.51,1.754-2.141,2.937c-1.858,1.347-3.605,1.698-4.491,1.807
			c-1.156,0.137-2.493,0.04-3.597-0.523c-0.518-0.264-1.475-0.87-1.07-2.187L148.467,243.626z M159.187,236.471
			c-0.901,0.08-1.711,0.368-2.47,0.918s-1.108,1.145-1.093,1.645c0.011,0.333,0.174,0.768,0.828,1.102
			c0.691,0.353,1.443,0.362,2.004,0.296c0.902-0.101,1.793-0.49,2.399-0.93c0.607-0.44,1.064-1.05,1.087-1.577
			c0-0.469-0.344-0.901-0.844-1.157C160.549,236.487,159.946,236.39,159.187,236.471z"/>
		<path fill="#313D49" d="M170.849,239.542l-4.645,3.369c-0.436,0.316-0.988,0.76-0.993,1.274c0.013,0.31,0.256,0.646,0.652,0.848
			c0.396,0.202,0.982,0.29,1.486,0.243c0.831-0.091,1.454-0.5,1.89-0.816l4.645-3.368l2.105,1.074l-5.025,3.644
			c-0.739,0.536-1.811,1.207-3.436,1.362c-1.353,0.129-2.723-0.242-3.637-0.709c-0.914-0.467-1.752-1.222-1.779-2.056
			c-0.031-1,0.868-1.759,1.607-2.295l5.025-3.643L170.849,239.542z"/>
		<path fill="#313D49" d="M185.703,240.191l-13.822,10.023l-2.105-1.074l13.824-10.022L185.703,240.191z"/>
		<path fill="#313D49" d="M189.807,242.287l-13.822,10.023l-2.104-1.075l13.822-10.022L189.807,242.287z"/>
		<path fill="#313D49" d="M188.298,248.451l-4.646,3.368c-0.435,0.316-0.988,0.76-0.992,1.274c0.012,0.31,0.255,0.645,0.651,0.849
			c0.396,0.201,0.982,0.29,1.486,0.243c0.831-0.092,1.454-0.5,1.89-0.816l4.646-3.369l2.104,1.075l-5.025,3.644
			c-0.739,0.536-1.811,1.207-3.436,1.361c-1.354,0.13-2.723-0.242-3.637-0.709c-0.914-0.467-1.752-1.223-1.778-2.056
			c-0.032-1,0.868-1.759,1.608-2.295l5.024-3.644L188.298,248.451z"/>
		<path fill="#313D49" d="M184.986,262.271l-2.103-1.074l12.554-9.102l2.104,1.074l-1.062,0.77c0.84-0.204,2.38-0.425,3.759,0.28
			c0.655,0.334,1.537,0.995,1.452,2.1c-0.055,0.722-0.509,1.754-2.14,2.937c-1.858,1.347-3.605,1.698-4.491,1.808
			c-1.156,0.136-2.494,0.04-3.598-0.524c-0.518-0.265-1.475-0.87-1.07-2.187L184.986,262.271z M195.707,255.116
			c-0.9,0.079-1.711,0.368-2.47,0.918c-0.759,0.55-1.108,1.143-1.093,1.644c0.012,0.333,0.174,0.769,0.83,1.103
			c0.689,0.353,1.441,0.361,2.002,0.296c0.904-0.102,1.793-0.491,2.4-0.93c0.606-0.44,1.064-1.05,1.086-1.578
			c0.002-0.468-0.342-0.901-0.844-1.157C197.068,255.131,196.467,255.034,195.707,255.116z"/>
		<path fill="#313D49" d="M207.209,260.518c0.012-0.626-0.45-0.909-0.674-1.023c-0.5-0.255-1.076-0.221-1.475,0.067
			c-0.208,0.151-0.444,0.429-0.067,0.88l0.329,0.378c0.379,0.45,0.935,1.134,0.723,1.821c-0.117,0.361-0.455,0.798-0.986,1.183
			c-0.74,0.536-1.703,0.958-2.914,1.091c-1.209,0.131-2.199-0.046-3.113-0.513c-1.553-0.792-1.617-1.833-1.533-2.469l2.508-0.454
			c-0.116,0.597,0.086,1.216,0.707,1.532c0.588,0.3,1.357,0.295,1.926-0.118c0.512-0.371,0.342-0.716,0.18-0.939l-0.293-0.385
			c-0.326-0.423-0.682-0.934-0.619-1.534c0.054-0.464,0.342-0.95,1.006-1.431c0.797-0.578,1.805-0.883,2.634-0.951
			c1.098-0.072,1.934,0.26,2.537,0.569c0.552,0.281,1.355,0.786,1.507,1.847L207.209,260.518z"/>
	</g>
</g>
</svg>
