<?xml version="1.0" encoding="utf-8"?>
<!-- Generator: Adobe Illustrator 17.0.0, SVG Export Plug-In . SVG Version: 6.00 Build 0)  -->
<!DOCTYPE svg PUBLIC "-//W3C//DTD SVG 1.1//EN" "http://www.w3.org/Graphics/SVG/1.1/DTD/svg11.dtd">
<svg version="1.1" id="Слой_2" xmlns="http://www.w3.org/2000/svg" xmlns:xlink="http://www.w3.org/1999/xlink" x="0px" y="0px"
	 width="500px" height="400px" viewBox="0 0 500 400" enable-background="new 0 0 500 400" xml:space="preserve">
<polygon fill="#28343F" points="189.883,392.186 5.578,298.097 310.719,76.848 495.025,170.939 "/>
<g>
	<polygon fill="#6E8E32" points="190.158,322.915 5.859,228.827 310.449,7.976 494.75,102.064 	"/>
	<path fill="#76C1AA" d="M342.227,126.006c-25.686,18.623-65.436,24.058-88.783,12.138c-23.348-11.918-21.453-36.679,4.232-55.303
		c25.684-18.623,65.435-24.057,88.781-12.139C369.807,82.62,367.91,107.383,342.227,126.006z"/>
	<polygon fill="#336827" points="204.639,261.077 90.137,167.717 5.859,228.827 190.158,322.913 261.555,271.145 367.783,194.122 	
		"/>
	<polygon fill="#FFF2B0" points="291.217,226.231 218.326,206.511 272.637,149.251 319.803,137.512 337.18,119.572 402.482,137.239 
		321.871,220.458 	"/>
	<polygon fill="#FFFFFF" points="366.742,102.909 303.938,91.072 257.736,146.335 278.496,148.538 296.346,148.501 316.185,146.04 
		333.826,136.401 349.131,125.87 364.978,111.901 	"/>
	<path fill="#77593E" d="M382.728,146.833c-0.883,0.912-2.605,1.378-3.85,1.041l-44.348-11.834
		c-1.244-0.336-1.539-1.346-0.654-2.258l0.547-0.564c0.883-0.914,2.061-0.813,3.303-0.478l44.354,11.829
		C383.322,144.907,383.615,145.919,382.728,146.833L382.728,146.833z"/>
	<path fill="#77593E" d="M373.121,156.752c-0.885,0.912-2.609,1.377-3.853,1.042l-56.926-15.4c-1.244-0.336-1.539-1.348-0.652-2.26
		l0,0c0.883-0.916,2.605-1.377,3.85-1.042l56.93,15.4C373.713,154.827,374.004,155.841,373.121,156.752L373.121,156.752z"/>
	<path fill="#77593E" d="M363.512,166.672c-0.885,0.914-2.611,1.379-3.855,1.043l-64.652-17.494
		c-1.248-0.335-1.539-1.348-0.652-2.26l1.994,0.539c0.885-0.912,2.35-1.445,3.598-1.111l62.914,17.021
		C364.102,164.748,364.397,165.759,363.512,166.672L363.512,166.672z"/>
	<path fill="#77593E" d="M353.9,176.593c-0.883,0.913-2.607,1.378-3.85,1.04l-71.672-19.386c-1.242-0.338-1.539-1.347-0.65-2.265
		l0,0c0.881-0.91,2.607-1.374,3.85-1.04l71.668,19.39C354.49,174.669,354.787,175.681,353.9,176.593L353.9,176.593z"/>
	<path fill="#77593E" d="M344.293,186.512c-0.883,0.913-2.611,1.379-3.853,1.043l-71.668-19.389
		c-1.242-0.338-1.539-1.35-0.652-2.262l0,0c0.883-0.914,2.607-1.377,3.852-1.043l71.668,19.391
		C344.883,184.588,345.18,185.6,344.293,186.512L344.293,186.512z"/>
	<path fill="#77593E" d="M318.607,192.086c-0.883,0.911-2.395,1.434-3.377,1.171l-56.547-15.299
		c-0.98-0.265-1.061-1.219-0.178-2.133l0,0c0.887-0.913,2.395-1.434,3.379-1.17l56.547,15.298
		C319.412,190.219,319.49,191.175,318.607,192.086L318.607,192.086z"/>
	<g>
		<path fill="#77593E" d="M306.59,119.657l-9.689,6.77l-4.439-0.893l31.133-21.463l5.18,1.042l-8.5,26.014l-4.588-0.92l2.692-8.179
			L306.59,119.657z M319.49,119.453l2.455-7.483c0.557-1.698,1.242-3.209,1.898-4.684l-0.1-0.018
			c-1.674,1.312-3.422,2.646-5.27,3.96l-8.994,6.213L319.49,119.453z"/>
		<path fill="#77593E" d="M334.273,134.354c-7.201-1.447-8.971-5.877-4.615-11.086c4.389-5.249,12.596-8.04,20.385-6.471
			c2.566,0.514,0.309,2.939-2.057,2.464c-5.475-1.101-10.85,1.193-13.82,4.748c-3.299,3.943-1.779,7.088,2.955,8.039
			C339.588,132.545,337.477,135,334.273,134.354z"/>
	</g>
	<g>
		<path fill="#77593E" d="M281.355,140.795c1.459-1.744,2.609-3.187,3.631-4.615l3.764,0.762l-2.08,2.763l0.145,0.029
			c2.666-1.343,6.123-2.404,10.037-1.617c3.227,0.652,4.508,2.538,3.865,4.738l0.1,0.021c1.525-0.798,3.064-1.342,4.484-1.675
			c2.059-0.481,3.977-0.585,6.225-0.132c3.131,0.629,7.35-0.699,2.443,5.17l-3.605,0.521c2.719-3.25,0.967-2.793-2.508-3.49
			c-2.441-0.494-5.432,0.415-7.42,1.77c-0.547,0.378-1.16,0.907-1.629,1.468l-3.896,3.005l-4.885,1.621l4.311-5.16
			c2.25-2.69,2.225-4.981-1.057-5.637c-2.689-0.543-5.93,0.602-7.9,2c-0.621,0.402-1.162,0.909-1.6,1.433l-5.115,6.591l-4.209-0.845
			L281.355,140.795z"/>
	</g>
	<path fill="#714C18" d="M171.523,151.749c-0.119,0.051-0.242,0.107-0.359,0.157c-0.123,0.051-0.24,0.099-0.359,0.149
		c-20.398,8.731-37.357,17.541-45.943,23.543l4.988,6.378c11.316-2.515,30.094-9,50.492-17.729c0.121-0.053,0.236-0.102,0.357-0.153
		c0.121-0.053,0.24-0.1,0.365-0.156c20.393-8.727,37.352-17.534,45.941-23.538l-4.988-6.379
		C210.695,136.538,191.92,143.022,171.523,151.749z"/>
	<path fill="#FCD388" d="M127.48,182.889c-1.285,0.551-2.736,0.799-4.031,0.693c-1.297-0.105-2.332-0.556-2.879-1.255l-0.805-1.028
		c-1.141-1.456,0.105-3.566,2.781-4.711l1.008-0.433l4.934,6.302L127.48,182.889z"/>
	<polygon fill="#FCD388" points="231.797,138.249 226.861,131.948 223.059,133.575 227.988,139.876 	"/>
	<path fill="#714C18" d="M370.516,78.492c-12.766-21.85-54.707-27.95-93.68-13.629c-38.975,14.322-60.217,43.643-47.451,65.492
		c12.764,21.849,54.707,27.951,93.684,13.626C362.039,129.66,383.281,100.341,370.516,78.492z M240.109,126.364
		c-10.824-18.519,7.18-43.376,40.225-55.518c33.033-12.141,68.59-6.969,79.41,11.554c10.826,18.518-7.189,43.379-40.223,55.516
		C286.48,150.061,250.926,144.889,240.109,126.364z"/>
	<path fill="#FFFFFF" d="M314.895,85.345c-5.42,3.932-14.047,4.954-19.272,2.286c-5.225-2.666-5.068-8.015,0.354-11.944
		c5.422-3.932,14.053-4.956,19.277-2.287C320.478,76.065,320.316,81.414,314.895,85.345z"/>
	<polygon fill="#BBAA75" points="291.217,226.231 321.871,220.458 309.145,214.942 	"/>
	<polygon fill="#336827" points="411.654,59.642 429.49,149.379 494.75,102.064 	"/>
</g>
<g>
	<polygon fill="#FFFFFF" points="262.697,270.325 78.387,176.229 5.852,228.823 190.164,322.917 	"/>
	<g>
		<path fill="#9B9B9B" d="M189.61,313.87l-0.274-0.139L20.591,227.583l32.371-23.47l0.273,0.14l168.744,86.147L189.61,313.87z
			 M22.499,227.434l167.02,85.267l30.553-22.154L53.054,205.281L22.499,227.434z"/>
	</g>
	<polygon fill="#303030" points="134.049,259.303 134.207,257.25 116.639,259.651 117.033,254.485 113.674,254.944 113.279,260.112 
		113.25,260.116 113.092,262.168 113.121,262.163 113.121,262.182 116.48,261.723 116.48,261.702 	"/>
	<g>
		<path fill="#828282" d="M89.078,194.72l-1.656-0.846l2.125-1.541l3.898,1.99L80.789,203.5l-2.242-1.145L89.078,194.72z"/>
		<path fill="#828282" d="M92.66,198.002c2.504-1.559,5.363-1.692,7.328-0.689c2.207,1.127,2.239,2.831,0.113,4.372
			c-0.664,0.481-2.037,1.327-3.984,1.247c0.258,0.389,0.83,1.573-1.257,3.086c-2.6,1.885-5.89,2.011-8.165,0.849
			c-2.208-1.128-2.451-3.104-0.212-4.961l2.242,1.145c-0.905,0.827-0.993,1.72,0.111,2.284c1.294,0.661,2.89,0.185,3.857-0.516
			c0.93-0.675,1.456-1.695,0.058-2.408l-0.293-0.15l1.784-1.294l0.311,0.159c1.104,0.563,2.423,0.182,3.296-0.451
			c1.006-0.73,1.066-1.519,0.152-1.985c-0.794-0.405-2.105-0.371-3.238,0.387L92.66,198.002z"/>
		<path fill="#828282" d="M97.088,208.491c0.758,0.388,0.699,1.155-0.136,1.761c-0.835,0.604-2.065,0.773-2.825,0.386
			c-0.758-0.388-0.699-1.154,0.136-1.76C95.098,208.273,96.328,208.104,97.088,208.491z M102.875,204.295
			c0.758,0.388,0.699,1.155-0.136,1.76c-0.835,0.605-2.066,0.774-2.825,0.386c-0.758-0.387-0.699-1.154,0.136-1.76
			C100.885,204.076,102.115,203.908,102.875,204.295z"/>
		<path fill="#828282" d="M103.352,207.189c4.346-3.151,8.758-3.688,11.053-2.517c2.293,1.171,2.191,3.909-2.174,7.074
			c-4.345,3.15-8.759,3.686-11.052,2.516C98.885,213.09,98.987,210.352,103.352,207.189z M105.593,208.332
			c-3.302,2.394-3.273,3.887-2.289,4.388c0.982,0.502,3.403,0.26,6.704-2.134c3.283-2.38,3.236-3.88,2.271-4.374
			C111.312,205.72,108.875,205.952,105.593,208.332z"/>
		<path fill="#828282" d="M113.145,212.188c4.345-3.15,8.759-3.687,11.052-2.516c2.293,1.171,2.191,3.909-2.172,7.073
			c-4.346,3.151-8.76,3.688-11.054,2.517C108.679,218.09,108.781,215.352,113.145,212.188z M115.387,213.332
			c-3.301,2.394-3.272,3.886-2.29,4.388c0.983,0.502,3.403,0.26,6.705-2.134c3.282-2.38,3.237-3.881,2.271-4.374
			C121.107,210.719,118.67,210.952,115.387,213.332z"/>
		<path fill="#828282" d="M126.459,220.109l4.484,2.29l-2.125,1.541l-4.484-2.29L126.459,220.109z"/>
		<path fill="#2F3D4A" d="M146.605,221.462l-10.531,7.636l3.551,1.813l-2.125,1.541l-5.793-2.958l12.656-9.176L146.605,221.462z"/>
		<path fill="#2F3D4A" d="M148.367,235.163c-0.832,0.326-3.631,1.311-6.236-0.018c-1.207-0.616-1.741-1.358-1.705-2.301
			c0.026-1.042,0.744-1.988,2.035-2.924c1.631-1.183,3.24-1.605,4.363-1.758c1.828-0.238,3.07,0.138,3.967,0.596
			c1.519,0.774,1.734,1.705,1.568,2.465c-0.25,1.162-1.438,2.149-2.329,2.796l-0.189,0.138l-5.587-2.853
			c-0.494,0.358-0.904,0.805-1.023,1.19c-0.117,0.361-0.088,0.916,0.723,1.329c0.793,0.405,1.814,0.411,2.823,0.105L148.367,235.163
			z M149.338,232.071c0.947-0.899,0.65-1.708-0.125-2.104c-0.777-0.396-2.138-0.411-3.41,0.298L149.338,232.071z"/>
		<path fill="#2F3D4A" d="M161.855,234.734l2.104,1.074l-8.215,5.957l-2.104-1.074l1.063-0.771c-1.955,0.48-3.088,0.065-3.623-0.208
			c-2.293-1.171-1.837-3.376,0.573-5.124c2.429-1.761,5.864-2.398,8.071-1.271c0.568,0.29,1.576,0.945,1.068,2.186L161.855,234.734z
			 M153.825,235.699c-1.31,0.949-1.471,2.132-0.264,2.748c1.206,0.616,3.094,0.313,4.403-0.636c1.309-0.949,1.451-2.119,0.245-2.734
			C157.003,234.461,155.135,234.749,153.825,235.699z"/>
		<path fill="#2F3D4A" d="M165.959,236.829l2.103,1.074l-1.232,0.894c1.029-0.341,1.818-0.36,2.07-0.35
			c0.555,0.002,1.1,0.117,1.602,0.372c0.361,0.186,0.56,0.404,0.707,0.595l-2.44,1.428c-0.067-0.292-0.248-0.502-0.68-0.722
			c-0.396-0.203-1.077-0.434-2.061-0.232c-0.947,0.196-1.666,0.697-2.235,1.109l-3.946,2.862l-2.105-1.075L165.959,236.829z"/>
		<path fill="#2F3D4A" d="M172.166,239.998l2.103,1.074l-1.062,0.77c1.004-0.238,2.432-0.399,3.639,0.217
			c0.654,0.335,1.413,0.98,1.202,1.856c-0.185,0.773-0.931,1.4-1.728,1.978l-5.162,3.742l-2.104-1.074l4.478-3.247
			c0.456-0.33,1.159-0.861,1.216-1.372c0.052-0.442-0.358-0.698-0.564-0.804c-0.553-0.282-1.192-0.351-2.016-0.138
			c-0.842,0.227-1.447,0.645-1.922,0.988l-4.193,3.04l-2.104-1.074L172.166,239.998z"/>
		<path fill="#2F3D4A" d="M194.121,248.346l-3.863-1.972l-2.827,2.05l3.621,1.849l-2.125,1.541l-3.621-1.849l-5.579,4.045
			l-2.242-1.145l12.656-9.177l6.105,3.117L194.121,248.346z"/>
		<path fill="#2F3D4A" d="M193.064,250.666l2.104,1.074l-1.234,0.895c1.031-0.342,1.82-0.361,2.07-0.351
			c0.557,0.003,1.102,0.117,1.602,0.373c0.363,0.185,0.561,0.403,0.707,0.595l-2.437,1.428c-0.068-0.292-0.249-0.501-0.681-0.722
			c-0.396-0.202-1.077-0.433-2.061-0.231c-0.946,0.196-1.666,0.696-2.235,1.109l-3.947,2.861l-2.104-1.074L193.064,250.666z"/>
		<path fill="#2F3D4A" d="M200.318,261.685c-0.832,0.325-3.631,1.311-6.234-0.018c-1.207-0.616-1.741-1.358-1.705-2.301
			c0.025-1.042,0.743-1.988,2.033-2.924c1.633-1.183,3.241-1.605,4.363-1.759c1.83-0.237,3.072,0.139,3.969,0.597
			c1.518,0.774,1.734,1.706,1.567,2.465c-0.249,1.161-1.436,2.149-2.328,2.796l-0.189,0.138l-5.588-2.853
			c-0.493,0.357-0.903,0.805-1.022,1.19c-0.119,0.361-0.088,0.916,0.723,1.329c0.793,0.405,1.813,0.411,2.822,0.105L200.318,261.685
			z M201.291,258.594c0.947-0.899,0.65-1.708-0.127-2.103c-0.775-0.397-2.136-0.411-3.41,0.299L201.291,258.594z"/>
		<path fill="#2F3D4A" d="M207.91,258.246l2.104,1.073l-1.063,0.771c1.004-0.238,2.432-0.399,3.639,0.217
			c0.656,0.334,1.413,0.979,1.202,1.856c-0.185,0.772-0.931,1.399-1.728,1.978l-5.162,3.742l-2.104-1.074l4.478-3.247
			c0.456-0.33,1.159-0.862,1.216-1.372c0.052-0.442-0.357-0.698-0.564-0.805c-0.553-0.281-1.192-0.35-2.016-0.137
			c-0.842,0.227-1.445,0.645-1.92,0.988l-4.193,3.04l-2.105-1.073L207.91,258.246z"/>
		<path fill="#2F3D4A" d="M220.235,267.632c0.006-0.56-0.28-1.033-1.005-1.403c-1.396-0.713-3.223-0.262-4.418,0.605
			c-1.348,0.977-1.42,2.159-0.16,2.802c0.465,0.237,1.238,0.445,2.376,0.322l-2.258,1.637c-0.642-0.045-1.581-0.174-2.444-0.614
			c-1.172-0.599-1.715-1.484-1.684-2.337c0.018-0.717,0.422-1.776,1.959-2.891c1.441-1.046,3.134-1.613,4.633-1.762
			c1.807-0.18,3.027,0.233,3.752,0.603c0.777,0.396,1.245,0.846,1.525,1.387L220.235,267.632z"/>
		<path fill="#2F3D4A" d="M229.941,262.553l2.104,1.074l-6.679,4.843c1.004-0.237,2.432-0.399,3.639,0.217
			c0.656,0.335,1.412,0.979,1.202,1.857c-0.185,0.773-0.933,1.4-1.729,1.978l-5.16,3.742l-2.105-1.074l4.479-3.247
			c0.455-0.33,1.16-0.861,1.217-1.371c0.052-0.443-0.358-0.699-0.565-0.805c-0.553-0.282-1.192-0.351-2.015-0.138
			c-0.842,0.227-1.447,0.645-1.922,0.988l-4.193,3.04l-2.104-1.074L229.941,262.553z"/>
	</g>
</g>
</svg>
