<?xml version="1.0" encoding="utf-8"?>
<!-- Generator: Adobe Illustrator 17.0.0, SVG Export Plug-In . SVG Version: 6.00 Build 0)  -->
<!DOCTYPE svg PUBLIC "-//W3C//DTD SVG 1.1//EN" "http://www.w3.org/Graphics/SVG/1.1/DTD/svg11.dtd">
<svg version="1.1" id="Слой_1" xmlns="http://www.w3.org/2000/svg" xmlns:xlink="http://www.w3.org/1999/xlink" x="0px" y="0px"
	 width="500px" height="400px" viewBox="0 0 500 400" enable-background="new 0 0 500 400" xml:space="preserve">
<polygon opacity="0.4" fill="#2B353F" points="189.883,392.186 5.578,298.097 310.719,76.848 495.025,170.939 "/>
<g>
	<polygon fill="#6E8B55" points="190.158,322.915 5.859,228.827 310.449,7.976 494.75,102.064 	"/>
	<path fill="#76B9A4" d="M342.227,126.006c-25.686,18.623-65.436,24.058-88.783,12.138c-23.348-11.918-21.453-36.679,4.232-55.303
		c25.684-18.623,65.435-24.057,88.781-12.139C369.807,82.62,367.91,107.383,342.227,126.006z"/>
	<polygon fill="#476548" points="204.639,261.077 90.137,167.717 5.859,228.827 190.158,322.913 261.555,271.145 367.783,194.122 	
		"/>
	<polygon fill="#FBEEB1" points="291.217,226.231 218.326,206.511 272.637,149.251 319.803,137.512 337.18,119.572 402.482,137.239 
		321.871,220.458 	"/>
	<polygon fill="#FFFFFF" points="366.742,102.909 303.938,91.072 257.736,146.335 278.496,148.538 296.346,148.501 316.185,146.04 
		333.826,136.401 349.131,125.87 364.978,111.901 	"/>
	<path fill="#75583D" d="M382.728,146.833c-0.883,0.912-2.605,1.378-3.85,1.041L334.53,136.04c-1.244-0.336-1.539-1.346-0.654-2.258
		l0.547-0.564c0.883-0.914,2.061-0.813,3.303-0.478l44.354,11.829C383.322,144.907,383.615,145.919,382.728,146.833L382.728,146.833
		z"/>
	<path fill="#75583D" d="M373.121,156.752c-0.885,0.912-2.609,1.377-3.853,1.042l-56.926-15.4c-1.244-0.336-1.539-1.348-0.652-2.26
		l0,0c0.883-0.916,2.605-1.377,3.85-1.042l56.93,15.4C373.713,154.827,374.004,155.841,373.121,156.752L373.121,156.752z"/>
	<path fill="#75583D" d="M363.512,166.672c-0.885,0.914-2.611,1.379-3.855,1.043l-64.652-17.494
		c-1.248-0.335-1.539-1.348-0.652-2.26l1.994,0.539c0.885-0.912,2.35-1.445,3.598-1.111l62.914,17.021
		C364.102,164.748,364.397,165.759,363.512,166.672L363.512,166.672z"/>
	<path fill="#75583D" d="M353.9,176.593c-0.883,0.913-2.607,1.378-3.85,1.04l-71.672-19.386c-1.242-0.338-1.539-1.347-0.65-2.265
		l0,0c0.881-0.91,2.607-1.374,3.85-1.04l71.668,19.39C354.49,174.669,354.787,175.681,353.9,176.593L353.9,176.593z"/>
	<path fill="#75583D" d="M344.293,186.512c-0.883,0.913-2.611,1.379-3.853,1.043l-71.668-19.389
		c-1.242-0.338-1.539-1.35-0.652-2.262l0,0c0.883-0.914,2.607-1.377,3.852-1.043l71.668,19.391
		C344.883,184.588,345.18,185.6,344.293,186.512L344.293,186.512z"/>
	<path fill="#75583D" d="M318.607,192.086c-0.883,0.911-2.395,1.434-3.377,1.171l-56.547-15.299
		c-0.98-0.265-1.061-1.219-0.178-2.133l0,0c0.887-0.913,2.395-1.434,3.379-1.17l56.547,15.298
		C319.412,190.219,319.49,191.175,318.607,192.086L318.607,192.086z"/>
	<g>
		<path fill="#75583D" d="M306.59,119.657l-9.689,6.77l-4.439-0.893l31.133-21.463l5.18,1.042l-8.5,26.014l-4.588-0.92l2.692-8.179
			L306.59,119.657z M319.49,119.453l2.455-7.483c0.557-1.698,1.242-3.209,1.898-4.684l-0.1-0.018
			c-1.674,1.312-3.422,2.646-5.27,3.96l-8.994,6.213L319.49,119.453z"/>
		<path fill="#75583D" d="M334.273,134.354c-7.201-1.447-8.971-5.877-4.615-11.086c4.389-5.249,12.596-8.04,20.385-6.471
			c2.566,0.514,0.309,2.939-2.057,2.464c-5.475-1.101-10.85,1.193-13.82,4.748c-3.299,3.943-1.779,7.088,2.955,8.039
			C339.588,132.545,337.477,135,334.273,134.354z"/>
	</g>
	<g>
		<path fill="#75583D" d="M281.355,140.795c1.459-1.744,2.609-3.187,3.631-4.615l3.764,0.762l-2.08,2.763l0.145,0.029
			c2.666-1.343,6.123-2.404,10.037-1.617c3.227,0.652,4.508,2.538,3.865,4.738l0.1,0.021c1.525-0.798,3.064-1.342,4.484-1.675
			c2.059-0.481,3.977-0.585,6.225-0.132c3.131,0.629,7.35-0.699,2.443,5.17l-3.605,0.521c2.719-3.25,0.967-2.793-2.508-3.49
			c-2.441-0.494-5.432,0.415-7.42,1.77c-0.547,0.378-1.16,0.907-1.629,1.468l-3.896,3.005l-4.885,1.621l4.311-5.16
			c2.25-2.69,2.225-4.981-1.057-5.637c-2.689-0.543-5.93,0.602-7.9,2c-0.621,0.402-1.162,0.909-1.6,1.433l-5.115,6.591l-4.209-0.845
			L281.355,140.795z"/>
	</g>
	<path fill="#6C5037" d="M171.523,151.749c-0.119,0.051-0.242,0.107-0.359,0.157c-0.123,0.051-0.24,0.099-0.359,0.149
		c-20.398,8.731-37.357,17.541-45.943,23.543l4.988,6.378c11.316-2.515,30.094-9,50.492-17.729c0.121-0.053,0.236-0.102,0.357-0.153
		c0.121-0.053,0.24-0.1,0.365-0.156c20.393-8.727,37.352-17.534,45.941-23.538l-4.988-6.379
		C210.695,136.538,191.92,143.022,171.523,151.749z"/>
	<path fill="#F5D18C" d="M127.48,182.889c-1.285,0.551-2.736,0.799-4.031,0.693c-1.297-0.105-2.332-0.556-2.879-1.255l-0.805-1.028
		c-1.141-1.456,0.105-3.566,2.781-4.711l1.008-0.433l4.934,6.302L127.48,182.889z"/>
	<polygon fill="#F5D18C" points="231.797,138.249 226.861,131.948 223.059,133.575 227.988,139.876 	"/>
	<path fill="#6C5037" d="M370.516,78.492c-12.766-21.85-54.707-27.95-93.68-13.629c-38.975,14.322-60.217,43.643-47.451,65.492
		c12.764,21.849,54.707,27.951,93.684,13.626C362.039,129.66,383.281,100.341,370.516,78.492z M240.109,126.364
		c-10.824-18.519,7.18-43.376,40.225-55.518c33.033-12.141,68.59-6.969,79.41,11.554c10.826,18.518-7.189,43.379-40.223,55.516
		C286.48,150.061,250.926,144.889,240.109,126.364z"/>
	<path fill="#FFFFFF" d="M314.895,85.345c-5.42,3.932-14.047,4.954-19.272,2.286c-5.225-2.666-5.068-8.015,0.354-11.944
		c5.422-3.932,14.053-4.956,19.277-2.287C320.478,76.065,320.316,81.414,314.895,85.345z"/>
	<polygon fill="#B9A976" points="291.217,226.231 321.871,220.458 309.145,214.942 	"/>
	<polygon fill="#476548" points="411.654,59.642 429.49,149.379 494.75,102.064 	"/>
</g>
</svg>
