<?xml version="1.0" encoding="utf-8"?>
<!-- Generator: Adobe Illustrator 17.0.0, SVG Export Plug-In . SVG Version: 6.00 Build 0)  -->
<!DOCTYPE svg PUBLIC "-//W3C//DTD SVG 1.1//EN" "http://www.w3.org/Graphics/SVG/1.1/DTD/svg11.dtd">
<svg version="1.1" id="Слой_1" xmlns="http://www.w3.org/2000/svg" xmlns:xlink="http://www.w3.org/1999/xlink" x="0px" y="0px"
	 width="500px" height="400px" viewBox="0 0 500 400" enable-background="new 0 0 500 400" xml:space="preserve">
<polygon opacity="0.4" fill="#2B353F" points="189.699,392.202 5.394,298.112 310.536,76.863 494.841,170.954 "/>
<g>
	<polygon fill="#6FBBC2" points="189.977,322.935 5.667,228.842 310.259,7.991 494.569,102.084 	"/>
	<path fill="#568A8D" d="M367.605,118.563l65.796-47.706l-17.705-9.039l-64.727,46.933c-45.356-22.691-95.168-20.257-129.199,4.418
		c-20.631,14.958-25.523,28.966-28.598,32.571c0,0-7.35,12.52-41.795,20.349c0,0-0.273,0.061-0.67,0.151l-0.195-0.155
		c-14.734,3.493-43.168,10.391-69.941,23.235c-27.422,13.156-46.859,29.649-52.883,50.762l162.289,82.853l101.559-73.638
		c2.393-5.892,3.541-9.849,3.541-9.849c6.689-21.996,25.68-28.575,25.68-28.575c5.303-2.47,27.125-7.833,47.756-22.792
		C398.454,166.372,398.42,140.331,367.605,118.563z"/>
	<polygon fill="#497E67" points="189.977,322.935 5.667,228.842 184.528,99.155 368.839,193.247 	"/>
	<path fill="#2C4E47" d="M320.757,210.874c4.947-2.304,24.277-7.134,43.596-19.917l-91.767-46.85L93.724,273.794l96.254,49.141
		l101.559-73.638c2.393-5.892,3.541-9.849,3.541-9.849C301.767,217.453,320.757,210.874,320.757,210.874z"/>
	<path fill="#F4E8A8" d="M256.942,274.379c3.867-4.716,7.15-9.405,9.904-13.911l0.281-0.202
		c8.799-14.644,12.805-28.548,12.805-28.548c6.689-21.997,25.682-28.577,25.682-28.577c5.301-2.469,27.125-7.832,47.756-22.791
		c34.318-24.883,29.26-55.458-16.398-78.767c-45.658-23.311-96.027-21.032-130.346,3.853c-20.631,14.959-25.524,28.965-28.598,32.57
		c0,0-7.352,12.521-41.797,20.349c0,0-0.273,0.061-0.67,0.151l-0.195-0.154c-12.223,2.896-33.881,8.15-56.191,17.19l-61.283,44.434
		c-2.309,3.941-4.1,8.066-5.336,12.381l168.469,86.005c9.635-2.116,18.414-4.859,26.465-8.126L256.942,274.379z"/>
	<path fill="#CDB290" d="M272.591,185.267c-18.801,13.631-47.82,17.646-64.822,8.97c-16.996-8.678-15.537-26.765,3.264-40.396
		c18.801-13.632,47.826-17.648,64.822-8.971C292.854,153.548,291.392,171.635,272.591,185.267z"/>
	<path fill="#D1C178" d="M267.395,260.072c4.115-6.851,7.17-13.52,9.272-18.697l-155.815-79.546
		c-11.736,3.087-26.418,7.448-41.408,13.519l-61.283,44.434c-2.309,3.941-4.098,8.068-5.338,12.383l168.471,86.006
		c9.635-2.117,18.414-4.861,26.465-8.129l49.453-35.855c3.865-4.717,7.148-9.406,9.904-13.913L267.395,260.072z"/>
	<polygon fill="#A48D76" points="416.657,62.31 385.044,46.17 238.905,149.917 274.101,167.884 	"/>
	<path fill="#F4E8A8" d="M266.173,181.992c-14.881,10.791-37.85,13.967-51.305,7.098c-13.453-6.868-12.301-21.183,2.582-31.972
		c14.881-10.791,37.852-13.968,51.305-7.1C282.21,156.886,281.054,171.202,266.173,181.992z"/>
	<polygon fill="#CDB290" points="294.024,152.254 260.798,135.292 263.761,133.144 296.987,150.106 	"/>
	<polygon fill="#CDB290" points="303.878,144.742 271.249,128.085 274.212,125.938 306.841,142.593 	"/>
	<polygon fill="#CDB290" points="313.729,137.23 281.698,120.877 284.661,118.729 316.692,135.081 	"/>
	<polygon fill="#CDB290" points="328.837,125.813 297.554,109.841 300.517,107.694 331.8,123.665 	"/>
	<polygon fill="#CDB290" points="344.319,114.587 313.034,98.618 315.997,96.469 347.28,112.44 	"/>
	<polygon fill="#CDB290" points="359.276,103.096 329.036,87.659 332.001,85.511 362.239,100.949 	"/>
	<path fill="#2F3031" d="M264.829,181.305c-14.06,10.196-35.766,13.199-48.478,6.71c-12.713-6.491-11.617-20.016,2.443-30.212
		c14.061-10.195,35.764-13.199,48.477-6.711C279.983,157.584,278.892,171.109,264.829,181.305z"/>
	<g>
		<polygon fill="#2F3031" points="186.204,195.124 184.71,194.362 387.03,47.667 388.524,48.429 		"/>
		<polygon fill="#2F3031" points="191.278,197.716 189.784,196.953 392.102,50.257 393.597,51.019 		"/>
		<polygon fill="#2F3031" points="196.351,200.304 194.856,199.544 397.177,52.847 398.671,53.61 		"/>
		<polygon fill="#2F3031" points="201.423,202.896 199.931,202.132 402.249,55.437 403.743,56.2 		"/>
		<polygon fill="#2F3031" points="206.497,205.486 205.003,204.723 407.323,58.026 408.817,58.79 		"/>
		<polygon fill="#2F3031" points="211.569,208.076 210.077,207.313 412.395,60.616 413.89,61.38 		"/>
	</g>
	<g>
		<polygon fill="#2F3031" points="130.53,235.526 129.036,234.763 185.071,194.133 186.565,194.896 		"/>
		<polygon fill="#2F3031" points="135.602,238.116 134.108,237.355 190.145,196.723 191.638,197.486 		"/>
		<polygon fill="#2F3031" points="140.675,240.706 139.183,239.943 195.218,199.312 196.712,200.076 		"/>
		<polygon fill="#2F3031" points="145.749,243.295 144.255,242.533 200.29,201.904 201.784,202.665 		"/>
		<polygon fill="#2F3031" points="150.821,245.886 149.327,245.123 205.364,204.493 206.858,205.255 		"/>
		<polygon fill="#2F3031" points="155.895,248.476 154.401,247.712 210.436,207.083 211.931,207.846 		"/>
	</g>
	<polygon fill="#2F3031" points="163.311,252.261 121.567,230.95 111.384,238.331 153.128,259.644 	"/>
</g>
<g>
	<polygon fill="#FFFFFF" points="262.509,270.343 78.198,176.25 5.667,228.842 189.977,322.935 	"/>
	<g>
		<path fill="#9B9C9C" d="M189.424,313.889l-0.273-0.139L20.406,227.602l32.367-23.468l0.274,0.139l168.746,86.146L189.424,313.889z
			 M22.314,227.454l167.018,85.266l30.553-22.152l-167.02-85.265L22.314,227.454z"/>
	</g>
	<polygon fill="#2F2E2E" points="133.862,259.324 134.02,257.268 116.454,259.669 116.849,254.503 113.487,254.962 113.093,260.13 
		113.063,260.132 112.907,262.187 112.936,262.183 112.935,262.201 116.296,261.74 116.296,261.722 	"/>
	<g>
		<path fill="#828282" d="M112.039,206.566l-1.656-0.845l2.123-1.54l3.898,1.989l-12.648,9.171l-2.241-1.145L112.039,206.566z"/>
		<path fill="#828282" d="M118.14,218.421c-2.085,1.512-5.253,1.934-7.737,0.666c-2.482-1.268-2.35-3.239-0.265-4.751
			c1.46-1.059,3.47-1.557,5.2-1.234c-0.406-0.793-0.252-1.863,1.15-2.88c1.84-1.334,4.735-1.941,7.132-0.717
			c2.397,1.224,1.917,3.064,0.077,4.397c-1.402,1.018-3.107,1.295-4.461,1.189C120.057,216.072,119.6,217.362,118.14,218.421z
			 M116.069,217.153c1.157-0.838,1.214-1.818,0.212-2.329c-1-0.511-2.574-0.307-3.73,0.532c-1.156,0.839-1.213,1.817-0.213,2.328
			S114.912,217.991,116.069,217.153z M121.679,212.894c1.043-0.756,1.108-1.613,0.159-2.098c-0.947-0.484-2.324-0.296-3.367,0.46
			c-1.043,0.756-1.107,1.614-0.16,2.098C119.26,213.838,120.635,213.65,121.679,212.894z"/>
		<path fill="#828282" d="M120.449,220.537c0.76,0.388,0.701,1.154-0.134,1.759s-2.065,0.773-2.824,0.385
			c-0.759-0.387-0.7-1.153,0.135-1.759C118.461,220.318,119.691,220.149,120.449,220.537z M126.232,216.344
			c0.76,0.388,0.701,1.154-0.134,1.76c-0.834,0.604-2.065,0.773-2.823,0.385c-0.76-0.387-0.7-1.154,0.134-1.759
			C124.244,216.124,125.475,215.956,126.232,216.344z"/>
		<path fill="#828282" d="M130.157,217.269c2.501-1.558,5.361-1.691,7.326-0.688c2.208,1.127,2.239,2.83,0.115,4.37
			c-0.663,0.481-2.036,1.327-3.983,1.247c0.259,0.389,0.831,1.571-1.254,3.084c-2.599,1.884-5.887,2.009-8.164,0.847
			c-2.207-1.127-2.45-3.103-0.213-4.959l2.242,1.145c-0.906,0.826-0.992,1.719,0.111,2.283c1.295,0.661,2.889,0.186,3.856-0.515
			c0.929-0.673,1.454-1.694,0.058-2.407l-0.294-0.149l1.782-1.292l0.311,0.159c1.105,0.563,2.424,0.182,3.295-0.451
			c1.006-0.729,1.066-1.518,0.152-1.984c-0.793-0.405-2.104-0.371-3.237,0.386L130.157,217.269z"/>
		<path fill="#828282" d="M136.506,224.235c4.342-3.148,8.754-3.685,11.047-2.514c2.294,1.171,2.193,3.908-2.168,7.07
			c-4.342,3.148-8.756,3.684-11.049,2.513C132.043,230.134,132.144,227.398,136.506,224.235z M138.746,225.38
			c-3.299,2.392-3.27,3.883-2.287,4.385c0.984,0.501,3.403,0.261,6.703-2.131c3.279-2.379,3.233-3.879,2.267-4.372
			C144.464,222.769,142.027,223.001,138.746,225.38z"/>
		<path fill="#828282" d="M149.818,232.157l4.486,2.29l-2.124,1.54l-4.485-2.29L149.818,232.157z"/>
		<path fill="#313D49" d="M167.669,239.606l5.276,2.694l-0.151,0.11c-0.854,0.619-3.612,2.491-6.923,2.932
			c-2.499,0.341-4.324-0.145-5.756-0.876c-1.432-0.731-2.593-1.722-2.469-3.369c0.04-0.519,0.322-2.343,3.167-4.405
			c2.446-1.773,4.944-2.349,6.394-2.547c1.828-0.26,4.245-0.222,6.469,0.913c0.863,0.44,1.625,1.018,1.992,1.837
			c0.325,0.682,0.377,1.644-0.158,2.778l-3.104-0.156c0.456-0.821,0.307-1.437,0.151-1.773c-0.216-0.439-0.688-0.844-1.223-1.116
			c-0.912-0.467-2.309-0.734-3.774-0.545c-1.357,0.174-3.072,0.799-4.494,1.83c-1.688,1.224-2.036,2.287-2.065,2.905
			c-0.032,0.663,0.247,1.462,1.472,2.087c0.759,0.387,1.849,0.662,3.018,0.604c0.828-0.046,1.922-0.285,3.021-0.848l-2.967-1.514
			L167.669,239.606z"/>
		<path fill="#313D49" d="M178.248,243.226l-4.646,3.369c-0.436,0.316-0.989,0.76-0.992,1.274c0.012,0.31,0.256,0.645,0.652,0.847
			c0.396,0.203,0.98,0.291,1.486,0.244c0.831-0.091,1.453-0.5,1.889-0.816l4.646-3.368l2.104,1.074l-5.023,3.644
			c-0.74,0.536-1.813,1.207-3.436,1.361c-1.355,0.13-2.724-0.241-3.638-0.708s-1.752-1.223-1.778-2.056
			c-0.03-1.001,0.868-1.759,1.608-2.296l5.024-3.643L178.248,243.226z"/>
		<path fill="#313D49" d="M187.49,247.944l-8.211,5.953l-2.104-1.074l8.21-5.953L187.49,247.944z M191.293,243.888
			c0.689,0.352,0.633,1.096-0.125,1.646c-0.76,0.55-1.955,0.713-2.645,0.361c-0.689-0.352-0.633-1.097,0.125-1.646
			C189.407,243.698,190.602,243.535,191.293,243.888z"/>
		<path fill="#313D49" d="M189.621,251.469l-6.238,4.523l-2.104-1.074l6.238-4.523l-0.828-0.422l1.973-1.43l0.828,0.422l2.807-2.035
			l2.104,1.074l-2.807,2.035l1.449,0.74l-1.973,1.43L189.621,251.469z"/>
		<path fill="#313D49" d="M199.869,254.265l2.105,1.074l-8.211,5.954l-2.105-1.074l1.062-0.77c-1.952,0.479-3.085,0.064-3.62-0.209
			c-2.294-1.171-1.839-3.375,0.569-5.122c2.427-1.76,5.861-2.397,8.068-1.27c0.568,0.291,1.576,0.946,1.07,2.187L199.869,254.265z
			 M191.842,255.227c-1.308,0.949-1.469,2.132-0.262,2.748s3.093,0.314,4.4-0.635c1.309-0.949,1.451-2.118,0.246-2.733
			C195.018,253.99,193.15,254.278,191.842,255.227z"/>
		<path fill="#313D49" d="M203.973,256.359l2.104,1.074l-1.232,0.894c1.03-0.342,1.82-0.36,2.07-0.35
			c0.555,0.003,1.101,0.117,1.601,0.372c0.361,0.186,0.561,0.403,0.707,0.596l-2.438,1.426c-0.066-0.292-0.248-0.502-0.68-0.722
			c-0.396-0.202-1.078-0.433-2.061-0.232c-0.947,0.196-1.666,0.696-2.234,1.108l-3.944,2.86l-2.104-1.074L203.973,256.359z"/>
	</g>
</g>
</svg>
