<?xml version="1.0" encoding="utf-8"?>
<!-- Generator: Adobe Illustrator 17.0.0, SVG Export Plug-In . SVG Version: 6.00 Build 0)  -->
<!DOCTYPE svg PUBLIC "-//W3C//DTD SVG 1.1//EN" "http://www.w3.org/Graphics/SVG/1.1/DTD/svg11.dtd">
<svg version="1.1" id="Слой_1" xmlns="http://www.w3.org/2000/svg" xmlns:xlink="http://www.w3.org/1999/xlink" x="0px" y="0px"
	 width="260px" height="30px" viewBox="0 0 260 30" enable-background="new 0 0 260 30" xml:space="preserve">
<g>
	<g>
		<path fill="#9AA9B7" d="M10.5,11.675c-1.352-0.6-1.752-0.8-2.052-1.025c-0.451-0.325-0.651-0.675-0.651-1.175
			c0-0.4,0.125-0.825,0.476-1.175c0.501-0.525,1.176-0.6,1.702-0.6c0.476,0,1.627,0.125,2.628,1.35l1.652-2.1
			c-0.451-0.5-1.001-0.925-1.702-1.3c-0.651-0.325-1.302-0.525-2.052-0.575v-2.5H8.447v2.5C7.171,5.351,6.32,6.026,5.794,6.601
			c-0.801,0.9-1.126,1.95-1.126,3.05c0,1.325,0.375,2.125,1.176,2.875C6.82,13.45,8.422,14.15,9.173,14.45
			c0.35,0.15,1.527,0.675,1.802,0.975c0.275,0.3,0.576,0.75,0.576,1.375c0,0.55-0.2,1.125-0.626,1.55
			C10.375,18.875,9.674,19,9.023,19c-0.901,0-1.627-0.225-2.278-0.7c-0.551-0.375-1.101-1.025-1.427-1.5l-1.877,1.925
			c0.576,0.85,1.227,1.425,1.827,1.825c0.701,0.475,1.777,1,3.179,1.15v2.75H10.5v-2.8c1.026-0.2,2.052-0.7,2.803-1.45
			c0.826-0.8,1.502-2.125,1.502-3.725c0-1.2-0.375-2.25-1.276-3.1C12.677,12.55,11.501,12.125,10.5,11.675z M20.162,7.826h2.403
			v13.874h3.254V5.026h-5.657V7.826z M33.179,18.125c-1.101,0-1.952,0.85-1.952,1.95c0,1.1,0.851,1.95,1.952,1.95
			c1.101,0,1.952-0.85,1.952-1.95C35.131,18.975,34.28,18.125,33.179,18.125z M43.817,4.651c-1.702,0-3.329,0.35-4.756,1.9
			c-1.126,1.225-1.527,2.625-1.527,4.025c0,1.75,0.701,3.175,1.577,4C40.087,15.525,41.589,16,42.766,16
			c0.601,0,1.251-0.15,1.777-0.325l-3.98,5.2l2.628,1.275l4.906-6.549c1.176-1.55,2.102-3.175,2.102-5.199
			c0-1.875-0.726-3.15-1.627-4.05C47.196,4.976,45.594,4.651,43.817,4.651z M46.044,12.5c-0.601,0.625-1.276,0.9-2.177,0.9
			c-0.826,0-1.527-0.2-2.153-0.8c-0.576-0.55-0.926-1.3-0.926-2.3c0-1.1,0.501-1.8,0.901-2.2c0.426-0.425,1.126-0.85,2.178-0.85
			c1.001,0,1.727,0.425,2.152,0.825c0.501,0.475,0.926,1.2,0.926,2.25C46.946,11.175,46.645,11.875,46.044,12.5z M58.435,4.651
			c-1.702,0-3.329,0.35-4.755,1.9c-1.126,1.225-1.527,2.625-1.527,4.025c0,1.75,0.701,3.175,1.577,4
			C54.706,15.525,56.208,16,57.384,16c0.601,0,1.252-0.15,1.777-0.325l-3.98,5.2l2.628,1.275l4.906-6.549
			c1.176-1.55,2.103-3.175,2.103-5.199c0-1.875-0.726-3.15-1.627-4.05C61.814,4.976,60.212,4.651,58.435,4.651z M60.663,12.5
			c-0.601,0.625-1.276,0.9-2.177,0.9c-0.826,0-1.527-0.2-2.153-0.8c-0.576-0.55-0.926-1.3-0.926-2.3c0-1.1,0.501-1.8,0.901-2.2
			c0.425-0.425,1.126-0.85,2.178-0.85c1.001,0,1.727,0.425,2.152,0.825c0.501,0.475,0.926,1.2,0.926,2.25
			C61.564,11.175,61.264,11.875,60.663,12.5z M79.311,10.526c-2.052,0-3.454,0.675-4.38,1.525c-1.076,0.975-1.827,2.475-1.827,4.25
			c0,1.75,0.751,3.25,1.827,4.225c0.926,0.85,2.328,1.525,4.38,1.525c2.052,0,3.454-0.675,4.38-1.525
			c1.076-0.975,1.827-2.475,1.827-4.225c0-1.775-0.751-3.275-1.827-4.25C82.765,11.2,81.364,10.526,79.311,10.526z M79.311,19.35
			c-1.777,0-3.054-1.4-3.054-3.05c0-1.7,1.302-3.075,3.054-3.075c1.752,0,3.054,1.375,3.054,3.075
			C82.365,17.95,81.088,19.35,79.311,19.35z M94.681,10.526c-1.752,0-2.778,0.95-3.354,1.75v-1.4h-3.054v10.824h3.054v-5.524
			c0-0.625,0.025-1.4,0.476-2.1c0.451-0.675,1.076-0.95,1.877-0.95c0.3,0,0.951,0.05,1.427,0.55
			c0.551,0.575,0.576,1.525,0.576,2.125v5.899h3.054V14.9c0-1.05-0.1-2.125-0.851-3.05C97.033,10.8,95.632,10.526,94.681,10.526z
			 M111.327,7.176h-3.054v3.7h-1.201v2.6h1.201v8.224h3.054v-8.224h2.103v-2.6h-2.103V7.176z M121.84,10.526
			c-1.752,0-2.778,0.95-3.354,1.75V3.476h-3.054v18.223h3.054v-5.524c0-0.625,0.025-1.4,0.476-2.1
			c0.451-0.675,1.076-0.95,1.877-0.95c0.3,0,0.951,0.05,1.427,0.55c0.551,0.575,0.576,1.525,0.576,2.125v5.899h3.054V14.9
			c0-1.05-0.1-2.125-0.851-3.05C124.192,10.8,122.791,10.526,121.84,10.526z M134.106,10.526c-1.302,0-2.803,0.275-4.08,1.525
			c-0.776,0.775-1.652,2.1-1.652,4.25c0,1.7,0.501,3.1,1.702,4.225c1.076,1.025,2.403,1.525,4.155,1.525
			c3.779,0,5.006-2.575,5.331-3.375l-2.803-0.45c-0.501,0.875-1.377,1.425-2.528,1.425c-1.176,0-1.852-0.575-2.177-1.025
			c-0.35-0.475-0.526-1.175-0.526-1.825h8.109v-0.25c0-1.175-0.15-2.875-1.302-4.25C137.585,11.4,136.308,10.526,134.106,10.526z
			 M131.628,14.85c0.25-1.45,1.427-2.175,2.553-2.175c1.126,0,2.328,0.7,2.578,2.175H131.628z M154.406,5.026l-7.183,16.673h3.529
			l1.477-3.5h6.733l1.477,3.5h3.504l-6.983-16.673H154.406z M153.254,15.55l2.378-5.999l2.378,5.999H153.254z M172.428,10.526
			c-2.002,0-3.054,1.075-3.529,1.75v-1.4h-3.054v16.548h3.054v-7.124c1.201,1.625,2.728,1.75,3.479,1.75
			c1.602,0,2.853-0.625,3.679-1.4c0.626-0.6,1.702-1.925,1.702-4.375c0-2.15-0.826-3.5-1.627-4.3
			C174.906,10.75,173.38,10.526,172.428,10.526z M173.655,18.575c-0.401,0.375-1.051,0.775-2.052,0.775
			c-0.951,0-1.602-0.375-2.002-0.725c-0.601-0.525-1.001-1.35-1.001-2.35c0-1,0.351-1.75,1.026-2.325
			c0.551-0.5,1.176-0.725,1.977-0.725c0.726,0,1.527,0.275,2.077,0.775c0.601,0.575,0.926,1.475,0.926,2.275
			C174.606,17.075,174.306,17.975,173.655,18.575z M187.097,10.526c-2.002,0-3.054,1.075-3.529,1.75v-1.4h-3.054v16.548h3.054
			v-7.124c1.201,1.625,2.728,1.75,3.479,1.75c1.602,0,2.853-0.625,3.679-1.4c0.626-0.6,1.702-1.925,1.702-4.375
			c0-2.15-0.826-3.5-1.627-4.3C189.575,10.75,188.048,10.526,187.097,10.526z M188.323,18.575c-0.4,0.375-1.051,0.775-2.052,0.775
			c-0.951,0-1.602-0.375-2.002-0.725c-0.601-0.525-1.001-1.35-1.001-2.35c0-1,0.35-1.75,1.026-2.325
			c0.551-0.5,1.176-0.725,1.977-0.725c0.726,0,1.527,0.275,2.078,0.775c0.601,0.575,0.926,1.475,0.926,2.275
			C189.274,17.075,188.974,17.975,188.323,18.575z M210.951,13.1c-0.851-0.775-2.077-1.225-3.379-1.675
			c-1.051-0.375-1.602-0.575-2.002-0.95c-0.4-0.35-0.526-0.725-0.526-1.125c0-0.85,0.551-1.95,2.303-1.95
			c0.601,0,1.752,0.125,2.728,1.425l1.702-2.225c-1.702-1.75-3.679-1.95-4.731-1.95c-3.704,0-5.356,2.45-5.356,4.9
			c0,1.7,0.776,2.625,1.326,3.1c0.851,0.75,1.902,1.15,2.778,1.45c0.951,0.325,1.952,0.65,2.578,1.225
			c0.451,0.425,0.651,0.9,0.651,1.5c0,1.4-1.101,2.3-2.578,2.3c-1.176,0-2.703-0.6-3.504-2.225l-2.128,2.025
			c0.876,1.275,2.678,3.15,5.757,3.15c3.454,0,5.807-2.225,5.807-5.474C212.378,14.9,211.702,13.775,210.951,13.1z M218.236,7.176
			h-3.054v3.7h-1.201v2.6h1.201v8.224h3.054v-8.224h2.102v-2.6h-2.102V7.176z M227.998,10.526c-2.052,0-3.454,0.675-4.38,1.525
			c-1.076,0.975-1.827,2.475-1.827,4.25c0,1.75,0.751,3.25,1.827,4.225c0.926,0.85,2.328,1.525,4.38,1.525
			c2.052,0,3.454-0.675,4.38-1.525c1.076-0.975,1.827-2.475,1.827-4.225c0-1.775-0.751-3.275-1.827-4.25
			C231.452,11.2,230.051,10.526,227.998,10.526z M227.998,19.35c-1.777,0-3.054-1.4-3.054-3.05c0-1.7,1.302-3.075,3.054-3.075
			c1.752,0,3.054,1.375,3.054,3.075C231.052,17.95,229.775,19.35,227.998,19.35z M241.365,11c-0.225,0.125-0.876,0.575-1.352,1.5
			v-1.625h-3.053v10.824h3.053v-5.2c0-0.75,0.025-1.675,0.601-2.4c0.601-0.75,1.452-0.875,2.027-0.875
			c0.626,0,1.026,0.125,1.427,0.4l0.401-2.85c-0.351-0.125-0.776-0.25-1.302-0.25C242.441,10.526,241.841,10.7,241.365,11z
			 M256.559,16.55c0-1.175-0.15-2.875-1.302-4.25c-0.751-0.9-2.027-1.775-4.23-1.775c-1.302,0-2.803,0.275-4.08,1.525
			c-0.776,0.775-1.652,2.1-1.652,4.25c0,1.7,0.501,3.1,1.702,4.225c1.076,1.025,2.403,1.525,4.155,1.525
			c3.779,0,5.006-2.575,5.331-3.375l-2.803-0.45c-0.501,0.875-1.377,1.425-2.528,1.425c-1.176,0-1.852-0.575-2.178-1.025
			c-0.35-0.475-0.526-1.175-0.526-1.825h8.109V16.55z M248.549,14.85c0.25-1.45,1.427-2.175,2.553-2.175
			c1.126,0,2.328,0.7,2.578,2.175H248.549z"/>
	</g>
</g>
</svg>
