<?xml version="1.0" encoding="utf-8"?>
<!-- Generator: Adobe Illustrator 17.0.0, SVG Export Plug-In . SVG Version: 6.00 Build 0)  -->
<!DOCTYPE svg PUBLIC "-//W3C//DTD SVG 1.1//EN" "http://www.w3.org/Graphics/SVG/1.1/DTD/svg11.dtd">
<svg version="1.1" id="Слой_2" xmlns="http://www.w3.org/2000/svg" xmlns:xlink="http://www.w3.org/1999/xlink" x="0px" y="0px"
	 width="180px" height="180px" viewBox="0 0 180 180" enable-background="new 0 0 180 180" xml:space="preserve">
<path fill="#44515C" d="M90,0C40.294,0,0,40.295,0,90c0,49.706,40.294,90,90,90c49.705,0,90-40.294,90-90C180,40.295,139.705,0,90,0
	z M90.001,142.605c-29.054,0-52.606-23.552-52.606-52.606c0-29.053,23.552-52.605,52.606-52.605
	c29.053,0,52.605,23.552,52.605,52.605C142.606,119.053,119.054,142.605,90.001,142.605z"/>
<circle fill="#354452" cx="90.001" cy="90" r="52.605"/>
<g>
	<polygon fill="#FDD57A" points="90.183,63.4 89.975,107.43 103.067,102.279 118.594,102.352 	"/>
	<polygon fill="#C88347" points="90.183,63.4 89.975,107.43 76.931,102.155 61.406,102.082 	"/>
	<polygon fill="#010101" points="100.61,77.697 90.183,63.4 79.623,77.597 	"/>
</g>
</svg>
