<?xml version="1.0" encoding="utf-8"?>
<!-- Generator: Adobe Illustrator 17.0.0, SVG Export Plug-In . SVG Version: 6.00 Build 0)  -->
<!DOCTYPE svg PUBLIC "-//W3C//DTD SVG 1.1//EN" "http://www.w3.org/Graphics/SVG/1.1/DTD/svg11.dtd">
<svg version="1.1" id="Слой_1" xmlns="http://www.w3.org/2000/svg" xmlns:xlink="http://www.w3.org/1999/xlink" x="0px" y="0px"
	 width="180px" height="180px" viewBox="0 0 180 180" enable-background="new 0 0 180 180" xml:space="preserve">
<path fill="#E29244" d="M90.026,1.386c-49.206,0-89.096,39.89-89.096,89.096c0,49.206,39.89,89.096,89.096,89.096
	c49.206,0,89.096-39.89,89.096-89.096C179.122,41.275,139.232,1.386,90.026,1.386z M90.027,142.558
	c-28.762,0-52.077-23.315-52.077-52.077c0-28.761,23.315-52.076,52.077-52.076c28.761,0,52.076,23.315,52.076,52.076
	C142.104,119.242,118.788,142.558,90.027,142.558z"/>
<circle fill="#354351" cx="90.027" cy="90.481" r="52.077"/>
<path display="none" fill="#E29244" d="M142.104,90.48c0,28.762-23.315,52.077-52.076,52.077c-28.762,0-52.077-23.315-52.077-52.077
	c0-16.221,7.418-30.707,19.045-40.258H10.527C4.392,62.315,0.931,75.993,0.931,90.481c0,49.206,39.89,89.096,89.096,89.096
	c49.206,0,89.096-39.89,89.096-89.096c0-14.488-3.461-28.166-9.597-40.259H123.06C134.686,59.773,142.104,74.26,142.104,90.48z"/>
<g>
	<polygon fill="#F6D380" points="90.208,64.148 90.002,107.736 102.962,102.637 118.333,102.709 	"/>
	<polygon fill="#C2824B" points="90.208,64.148 90.002,107.736 77.089,102.515 61.72,102.442 	"/>
	<polygon fill="#0E0F10" points="100.53,78.302 90.208,64.148 79.754,78.203 	"/>
</g>
</svg>
