<?xml version="1.0" encoding="utf-8"?>
<!-- Generator: Adobe Illustrator 17.0.0, SVG Export Plug-In . SVG Version: 6.00 Build 0)  -->
<!DOCTYPE svg PUBLIC "-//W3C//DTD SVG 1.1//EN" "http://www.w3.org/Graphics/SVG/1.1/DTD/svg11.dtd">
<svg version="1.1" id="Слой_1" xmlns="http://www.w3.org/2000/svg" xmlns:xlink="http://www.w3.org/1999/xlink" x="0px" y="0px"
	 width="150px" height="30px" viewBox="0 0 150 30" enable-background="new 0 0 150 30" xml:space="preserve">
<g>
	<g>
		<path fill="#FFFFFF" d="M17.423,6.636c-2.943-2.485-6.272-2.73-8.62-2.73H4.037v23.343h4.731c4.17,0,6.413-0.875,8.55-2.695
			c1.682-1.435,4.1-4.06,4.1-8.959C21.417,11.395,19.56,8.42,17.423,6.636z M15.6,22.699c-2.278,1.89-4.836,2.1-6.693,2.1H6.63
			V6.356h2.278c5.922,0,9.847,3.64,9.847,9.239C18.754,18.92,17.353,21.23,15.6,22.699z M32.913,12.375
			c-4.45,0-7.709,3.255-7.709,7.664c0,4.41,3.294,7.629,7.709,7.629c4.415,0,7.709-3.22,7.709-7.629
			C40.622,15.63,37.363,12.375,32.913,12.375z M32.913,25.429c-2.593,0-5.116-1.82-5.116-5.39c0-3.535,2.453-5.425,5.116-5.425
			s5.116,1.855,5.116,5.425C38.029,23.574,35.541,25.429,32.913,25.429z M59.125,22.594l-4.521-10.989l-4.555,10.989l-4.31-9.869
			h-2.803l7.149,15.539l4.485-10.849l4.485,10.849l7.219-15.539H63.47L59.125,22.594z M76.192,12.375
			c-2.418,0-3.714,1.435-4.17,2.03v-1.68h-2.523v14.524h2.523v-7.594c0-1.05,0.07-2.765,1.051-3.92
			c0.736-0.875,1.682-1.12,2.558-1.12c1.121,0,1.892,0.42,2.383,1.05c0.596,0.77,0.666,1.785,0.666,2.66v8.924h2.523v-8.994
			c0-1.61-0.105-2.8-0.841-3.885C79.486,13.075,77.909,12.375,76.192,12.375z M86.53,27.249h2.523V1.736H86.53V27.249z
			 M101.178,12.375c-4.45,0-7.709,3.255-7.709,7.664c0,4.41,3.294,7.629,7.709,7.629c4.415,0,7.709-3.22,7.709-7.629
			C108.887,15.63,105.628,12.375,101.178,12.375z M101.178,25.429c-2.593,0-5.116-1.82-5.116-5.39c0-3.535,2.453-5.425,5.116-5.425
			s5.116,1.855,5.116,5.425C106.294,23.574,103.806,25.429,101.178,25.429z M124.447,14.79c-0.666-0.875-2.173-2.415-4.976-2.415
			c-3.714,0-7.078,2.59-7.078,7.594c0,5.11,3.399,7.699,7.078,7.699c2.558,0,4.135-1.365,4.976-2.45v2.03h2.523V12.725h-2.523V14.79
			z M119.751,25.429c-3.014,0-4.766-2.345-4.766-5.46c0-3.535,2.278-5.355,4.766-5.355c2.243,0,4.836,1.645,4.836,5.39
			C124.587,22.874,122.835,25.429,119.751,25.429z M143.44,1.736V14.79c-0.666-0.875-2.173-2.415-4.976-2.415
			c-3.714,0-7.078,2.59-7.078,7.594c0,5.11,3.399,7.699,7.078,7.699c2.558,0,4.135-1.365,4.976-2.45v2.03h2.523V1.736H143.44z
			 M138.745,25.429c-3.014,0-4.766-2.345-4.766-5.46c0-3.535,2.278-5.355,4.766-5.355c2.243,0,4.836,1.645,4.836,5.39
			C143.581,22.874,141.829,25.429,138.745,25.429z"/>
	</g>
</g>
</svg>
