<?xml version="1.0" encoding="utf-8"?>
<!-- Generator: Adobe Illustrator 17.0.0, SVG Export Plug-In . SVG Version: 6.00 Build 0)  -->
<!DOCTYPE svg PUBLIC "-//W3C//DTD SVG 1.1//EN" "http://www.w3.org/Graphics/SVG/1.1/DTD/svg11.dtd">
<svg version="1.1" id="Слой_2" xmlns="http://www.w3.org/2000/svg" xmlns:xlink="http://www.w3.org/1999/xlink" x="0px" y="0px"
	 width="70px" height="110px" viewBox="0 0 70 110" enable-background="new 0 0 70 110" xml:space="preserve">
<polygon fill="#FFFFFF" points="13.173,50.951 9.155,50.951 9.155,46.934 6.155,46.934 6.155,50.951 2.138,50.951 2.138,53.951 
	6.155,53.951 6.155,57.968 9.155,57.968 9.155,53.951 13.173,53.951 "/>
<g>
	<rect x="1.897" y="1.094" fill="#D75F60" width="66.53" height="85.347"/>
	<rect x="1.897" y="34.276" fill="#7C4B69" width="66.53" height="66.767"/>
	<polygon fill="#F9E2B9" points="1.897,1.094 32.569,1.094 61.173,101.043 54.021,101.043 48.757,82.21 1.897,91.745 1.897,86.44 	
		"/>
	<polygon fill="#54714D" points="34.132,27.955 47.313,75.773 1.897,83.698 1.897,27.955 	"/>
	<polygon fill="#499ABC" points="27.04,1.094 1.897,1.094 1.897,52.663 39.588,47.749 	"/>
	<polygon fill="#E1C381" points="47.222,76.073 41.096,72.251 36.12,54.634 39.016,48.472 42.178,49.5 49.577,54.912 51.141,61.439 
		53.23,69.632 68.428,82.193 68.428,87.943 	"/>
	<path fill="#232A2B" d="M37.919,51.273l-7.361-13.217l-0.785-3.779l2.971,2.188l7.076,13.003
		C39.819,49.468,39.347,49.937,37.919,51.273z"/>
	<polygon fill="#A1906F" points="48.264,68.89 41.507,66.844 41.854,62.272 38.726,54.017 40.233,50.179 43.798,56.292 
		46.769,57.849 40.421,48.928 39.332,48.574 39.818,49.466 37.919,51.273 37.82,51.017 36.12,54.634 41.096,72.251 47.082,76.11 
		68.428,101.043 68.428,90.181 68.428,87.943 	"/>
	<polygon fill="#FFFFFF" points="30.36,37.104 32.007,35.923 29.772,34.276 	"/>
	<path fill="#FFFFFF" d="M13.151,37.608l14.525-2.611c0,0-1.718-4.774-4.733-3.356c0,0-1.822-3.133-5.473-1.865
		c0,0-2.234,0.668-2.682,3.765c0,0-3.352-0.366-3.724,2.149C11.066,35.69,10.843,37.608,13.151,37.608z"/>
	<path fill="#FFFFFF" d="M1.994,29.474l12.65-1.182c0,0-1.398-5.234-4.733-3.998c0,0-1.656-3.498-5.655-2.479
		c0,0-1.279,0.274-2.271,1.66L1.994,29.474z"/>
	<polygon opacity="0.3" fill="#17181A" points="28.744,35.69 26.178,38.453 19.719,48.204 11.27,54.349 1.911,67.481 1.897,80.719 
		10.345,66.844 17.82,60.083 20.413,51.689 27.5,39.548 	"/>
</g>
<rect x="1.897" y="0.813" opacity="0.7" fill="#0D0F0F" width="66.853" height="100.23"/>
<g>
	<path fill="#FFFFFF" d="M10.197,95.098c1.442,0,2.7,0.155,3.849,1.009c1.257,0.946,1.986,2.452,1.986,4.174
		c0,1.723-0.714,3.212-2.08,4.174c-1.21,0.854-2.343,0.993-3.786,0.993H7.497V95.098H10.197z M9.514,103.71h0.621
		c0.512,0,1.63-0.031,2.529-0.683c0.822-0.59,1.288-1.645,1.288-2.746c0-1.087-0.45-2.142-1.272-2.762
		c-0.838-0.621-1.862-0.683-2.545-0.683H9.514V103.71z"/>
	<path fill="#FFFFFF" d="M17.618,98.729h1.892v1.009c0.295-0.574,0.698-0.854,0.838-0.931c0.295-0.187,0.668-0.295,1.118-0.295
		c0.325,0,0.589,0.078,0.807,0.155l-0.248,1.769c-0.249-0.171-0.497-0.248-0.885-0.248c-0.357,0-0.885,0.078-1.257,0.543
		c-0.357,0.45-0.373,1.024-0.373,1.489v3.228h-1.892V98.729z"/>
	<path fill="#FFFFFF" d="M28.203,98.729h1.894v6.719h-1.894v-0.869c-0.683,0.977-1.583,1.086-2.063,1.086
		c-2.064,0-3.43-1.614-3.43-3.585c0-1.986,1.35-3.569,3.337-3.569c0.512,0,1.521,0.093,2.156,1.086V98.729z M24.665,102.081
		c0,1.071,0.776,1.909,1.862,1.909c1.087,0,1.862-0.838,1.862-1.909c0-1.07-0.775-1.893-1.862-1.893
		C25.441,100.188,24.665,101.01,24.665,102.081z"/>
	<path fill="#FFFFFF" d="M35.376,105.448h-0.931l-3.414-6.719h2.11l1.769,3.879l1.801-3.879h0.869l1.8,3.879l1.769-3.879h2.111
		l-3.414,6.719h-0.932l-1.769-3.957L35.376,105.448z"/>
	<path fill="#FFFFFF" d="M45.142,94.756c0.621,0,1.133,0.512,1.133,1.133c0,0.621-0.512,1.133-1.133,1.133s-1.133-0.512-1.133-1.133
		C44.009,95.268,44.52,94.756,45.142,94.756z M46.088,98.729v6.719h-1.893v-6.719H46.088z"/>
	<path fill="#FFFFFF" d="M47.89,98.729h1.893v0.869c0.357-0.497,0.993-1.086,2.08-1.086c0.59,0,1.458,0.17,1.986,0.822
		c0.465,0.574,0.527,1.242,0.527,1.893v4.221h-1.894v-3.662c0-0.372-0.016-0.962-0.356-1.319c-0.295-0.31-0.698-0.341-0.885-0.341
		c-0.496,0-0.885,0.171-1.164,0.59c-0.279,0.435-0.295,0.916-0.295,1.303v3.43H47.89V98.729z"/>
	<path fill="#FFFFFF" d="M61.3,98.729h1.893v6.409c0,1.024-0.093,2.095-0.931,2.933c-0.466,0.465-1.272,0.947-2.654,0.947
		c-1.303,0-2.079-0.388-2.514-0.776c-0.527-0.45-0.931-1.242-1.086-2.002h2.048c0.078,0.31,0.249,0.621,0.466,0.807
		c0.373,0.342,0.885,0.357,1.148,0.357c0.543,0,0.9-0.186,1.148-0.419c0.435-0.419,0.481-0.946,0.481-1.49v-0.946
		c-0.652,0.993-1.553,1.117-2.064,1.117c-0.9,0-1.676-0.279-2.327-0.916c-0.497-0.497-1.071-1.366-1.071-2.669
		c0-1.055,0.388-2.033,1.04-2.669c0.59-0.574,1.412-0.9,2.311-0.9c1.258,0,1.847,0.683,2.111,1.086V98.729z M58.397,100.653
		c-0.311,0.279-0.605,0.729-0.605,1.427c0,0.59,0.218,1.024,0.497,1.319c0.403,0.435,0.915,0.59,1.365,0.59
		c0.466,0,0.932-0.171,1.257-0.466c0.389-0.357,0.605-0.9,0.605-1.443c0-0.636-0.279-1.07-0.543-1.35
		c-0.373-0.388-0.807-0.543-1.319-0.543C59.049,100.188,58.63,100.436,58.397,100.653z"/>
</g>
</svg>
