<?xml version="1.0" encoding="utf-8"?>
<!-- Generator: Adobe Illustrator 17.0.0, SVG Export Plug-In . SVG Version: 6.00 Build 0)  -->
<!DOCTYPE svg PUBLIC "-//W3C//DTD SVG 1.1//EN" "http://www.w3.org/Graphics/SVG/1.1/DTD/svg11.dtd">
<svg version="1.1" id="Слой_1" xmlns="http://www.w3.org/2000/svg" xmlns:xlink="http://www.w3.org/1999/xlink" x="0px" y="0px"
	 width="95px" height="18px" viewBox="0 0 95 18" enable-background="new 0 0 95 18" xml:space="preserve">
<g>
	<g>
		<path fill="#9AA9B7" d="M4.726,14.152h1.111V9.202h3.334v-1.05H5.838V5.198h3.454v-1.05H4.726V14.152z M11.68,14.152h1.231
			l1.201-2.82h4.265l1.171,2.82h1.231l-4.49-10.483L11.68,14.152z M14.549,10.282l1.712-4.004l1.682,4.004H14.549z M23.44,9.187
			c0,2.894,2.207,5.144,5.181,5.144c0.751,0,1.907-0.18,3.018-0.975v-1.38c-0.18,0.18-0.586,0.555-1.156,0.84
			c-0.526,0.27-1.186,0.465-1.862,0.465c-1.832,0-4.039-1.365-4.039-4.079c0-2.31,1.712-4.169,4.025-4.169
			c0.586,0,1.201,0.15,1.727,0.39c0.511,0.24,0.991,0.615,1.306,0.93v-1.38c-1.201-0.915-2.358-0.99-2.958-0.99
			C25.678,3.983,23.44,6.203,23.44,9.187z M35.786,14.152h5.196v-1.05h-4.085V9.217h3.964v-1.05h-3.964v-2.97h4.085v-1.05h-5.196
			V14.152z M49.137,8.813c0.886-0.6,0.991-1.47,0.991-1.965c0-1.215-0.586-1.83-0.901-2.07c-0.736-0.585-1.742-0.63-2.298-0.63
			h-1.802v10.003h2.493c0.691,0,1.607-0.03,2.403-0.66c0.541-0.42,1.021-1.2,1.021-2.16S50.534,9.157,49.137,8.813z M46.239,5.198
			h0.871c0.315,0,1.937,0.03,1.937,1.68c0,1.545-1.382,1.665-1.967,1.665h-0.841V5.198z M49.272,12.682
			c-0.481,0.375-1.111,0.42-1.757,0.42h-1.276V9.532h1.141c0.796,0,1.321,0.09,1.697,0.3c0.39,0.21,0.856,0.675,0.856,1.47
			C49.933,11.902,49.663,12.397,49.272,12.682z M59.861,3.983c-2.883,0-5.211,2.19-5.211,5.174c0,2.97,2.313,5.174,5.211,5.174
			s5.211-2.205,5.211-5.174C65.071,6.173,62.744,3.983,59.861,3.983z M59.861,13.282c-2.253,0-4.07-1.83-4.07-4.124
			c0-2.295,1.817-4.124,4.07-4.124s4.069,1.83,4.069,4.124C63.93,11.452,62.113,13.282,59.861,13.282z M73.888,3.983
			c-2.883,0-5.211,2.19-5.211,5.174c0,2.97,2.313,5.174,5.211,5.174s5.211-2.205,5.211-5.174
			C79.099,6.173,76.771,3.983,73.888,3.983z M73.888,13.282c-2.253,0-4.07-1.83-4.07-4.124c0-2.295,1.817-4.124,4.07-4.124
			s4.07,1.83,4.07,4.124C77.958,11.452,76.141,13.282,73.888,13.282z M85.438,8.813l4.685-4.664h-1.502l-4.265,4.289V4.148h-1.111
			v10.003h1.111V9.847l0.285-0.285l4.099,4.589h1.532L85.438,8.813z"/>
	</g>
</g>
</svg>
