<?xml version="1.0" encoding="utf-8"?>
<!-- Generator: Adobe Illustrator 17.0.0, SVG Export Plug-In . SVG Version: 6.00 Build 0)  -->
<!DOCTYPE svg PUBLIC "-//W3C//DTD SVG 1.1//EN" "http://www.w3.org/Graphics/SVG/1.1/DTD/svg11.dtd">
<svg version="1.1" id="Слой_2" xmlns="http://www.w3.org/2000/svg" xmlns:xlink="http://www.w3.org/1999/xlink" x="0px" y="0px"
	 width="95px" height="18px" viewBox="0 0 95 18" enable-background="new 0 0 95 18" xml:space="preserve">
<g>
	<path fill="#9BABBA" d="M9.081,5.173H5.609v2.974H8.96v1.057H5.609v4.982H4.491V4.116h4.59V5.173z"/>
	<path fill="#9BABBA" d="M18.217,11.348H13.93l-1.208,2.838h-1.238l4.635-10.553l4.514,10.553h-1.238L18.217,11.348z M17.78,10.291
		L16.089,6.26l-1.721,4.031H17.78z"/>
	<path fill="#9BABBA" d="M31.552,6.336c-0.317-0.317-0.8-0.694-1.314-0.936c-0.528-0.242-1.147-0.393-1.736-0.393
		c-2.325,0-4.046,1.872-4.046,4.197c0,2.732,2.219,4.107,4.061,4.107c0.679,0,1.344-0.197,1.872-0.468
		c0.574-0.287,0.981-0.665,1.163-0.846v1.389c-1.117,0.8-2.28,0.981-3.035,0.981c-2.99,0-5.209-2.264-5.209-5.178
		c0-3.004,2.249-5.238,5.269-5.238c0.604,0,1.767,0.075,2.974,0.996V6.336z"/>
	<path fill="#9BABBA" d="M40.946,5.173H36.84v2.989h3.986v1.057H36.84v3.91h4.106v1.057h-5.224V4.116h5.224V5.173z"/>
	<path fill="#9BABBA" d="M46.927,4.116c0.559,0,1.57,0.045,2.31,0.634c0.317,0.242,0.906,0.861,0.906,2.084
		c0,0.498-0.106,1.374-0.997,1.977c1.404,0.348,1.917,1.571,1.917,2.537s-0.483,1.751-1.027,2.174
		c-0.8,0.634-1.721,0.664-2.416,0.664h-2.506V4.116H46.927z M46.233,8.54h0.845c0.589,0,1.978-0.121,1.978-1.676
		c0-1.661-1.631-1.691-1.948-1.691h-0.876V8.54z M46.233,13.129h1.283c0.649,0,1.284-0.044,1.767-0.422
		c0.393-0.287,0.665-0.785,0.665-1.389c0-0.8-0.468-1.268-0.861-1.48c-0.377-0.211-0.906-0.302-1.706-0.302h-1.147V13.129z"/>
	<path fill="#9BABBA" d="M54.691,9.159c0-3.005,2.34-5.209,5.238-5.209c2.899,0,5.238,2.204,5.238,5.209
		c0,2.989-2.325,5.208-5.238,5.208C57.016,14.367,54.691,12.148,54.691,9.159z M55.838,9.159c0,2.309,1.826,4.152,4.091,4.152
		c2.264,0,4.091-1.842,4.091-4.152c0-2.31-1.827-4.152-4.091-4.152C57.665,5.007,55.838,6.849,55.838,9.159z"/>
	<path fill="#9BABBA" d="M68.795,9.159c0-3.005,2.34-5.209,5.238-5.209s5.238,2.204,5.238,5.209c0,2.989-2.325,5.208-5.238,5.208
		S68.795,12.148,68.795,9.159z M69.942,9.159c0,2.309,1.827,4.152,4.091,4.152c2.265,0,4.091-1.842,4.091-4.152
		c0-2.31-1.826-4.152-4.091-4.152C71.77,5.007,69.942,6.849,69.942,9.159z"/>
	<path fill="#9BABBA" d="M84.561,8.434l4.287-4.318h1.51l-4.711,4.695l4.861,5.375H88.97l-4.122-4.62l-0.287,0.287v4.333h-1.117
		V4.116h1.117V8.434z"/>
</g>
</svg>
