<?xml version="1.0" encoding="utf-8"?>
<!-- Generator: Adobe Illustrator 17.0.0, SVG Export Plug-In . SVG Version: 6.00 Build 0)  -->
<!DOCTYPE svg PUBLIC "-//W3C//DTD SVG 1.1//EN" "http://www.w3.org/Graphics/SVG/1.1/DTD/svg11.dtd">
<svg version="1.1" id="Слой_1" xmlns="http://www.w3.org/2000/svg" xmlns:xlink="http://www.w3.org/1999/xlink" x="0px" y="0px"
	 width="55px" height="55px" viewBox="0 0 55 55" enable-background="new 0 0 55 55" xml:space="preserve">
<g>
	<rect y="0.012" fill="#4F9594" width="55" height="54.988"/>
	<polygon fill="#FFFFFF" points="14.916,10.119 7.704,17.454 12.758,19.834 9.714,28.066 13.195,26.149 12.106,34.135 
		14.916,33.364 40.872,36.517 40.872,39.145 48.628,39.232 52.052,33.364 48.519,23.844 46.834,12.01 40.872,3.055 31.97,6.859 
		33.046,0.99 26.578,6.641 27.432,0.99 19.908,7.129 17.871,6.859 	"/>
	<polygon fill="#E9AA7F" points="18.255,12.01 14.916,16.558 14.916,32.684 17.23,42.166 22.267,50.154 28.317,50.154 
		40.872,39.145 40.872,17.726 35.849,12.378 25.138,11.015 	"/>
	<polygon fill="#CC8D6B" points="24.9,11.015 18.255,12.01 14.916,16.558 14.916,32.684 17.23,42.166 22.267,50.154 24.9,50.154 	
		"/>
	<polygon fill="#FFFFFF" points="19.024,39.232 32.883,39.232 32.883,35.918 29.296,34.668 22.122,34.668 19.024,35.809 	"/>
	<polygon fill="#82563E" points="20.274,39.232 24.513,46.35 32.883,39.232 	"/>
	<polygon fill="#D55845" points="21.959,39.232 29.948,39.232 26.252,47.872 23.073,47.872 	"/>
	<rect x="16.958" y="19.182" fill="#2D2020" width="4.13" height="1.304"/>
	<rect x="28.752" y="19.182" fill="#2D2020" width="4.131" height="1.304"/>
	<rect x="28.752" y="27.414" fill="#CC8D6B" width="4.131" height="1.304"/>
	<circle fill="#FFFFFF" cx="19.024" cy="24.996" r="2.229"/>
	<circle fill="#272727" cx="19.024" cy="24.996" r="1.153"/>
	<circle fill="#FFFFFF" cx="30.817" cy="24.996" r="2.229"/>
	<circle fill="#272727" cx="30.817" cy="24.996" r="1.153"/>
	<polygon fill="#CC8D6B" points="35.259,29.94 35.259,43.961 36.44,42.925 36.44,31.244 	"/>
	<polygon fill="#CC8D6B" points="37.665,33.364 37.665,41.952 38.846,40.917 38.846,34.668 	"/>
	<polygon fill="#CC8D6B" points="40.872,28.066 44.948,26.149 42.91,36.517 40.872,36.517 	"/>
	<path fill="#AF5045" d="M28.588,34.668l-1.082-2.377c-0.574-1.493-0.974-2.397-1.378-3.175l1.373-5.369h-3.585l0.985,1.685
		l-2.427,5.173c-0.272,0.534-0.464,1.049-0.513,1.443c-0.202,1.627,0.53,2.771,2.038,2.958c0.659,0.082,1.933,0.129,2.579-0.337
		H28.588z"/>
	<polygon fill="#5B5B5B" points="24.008,55 28.317,50.154 40.872,39.145 52.052,39.145 38.846,55 	"/>
	<polygon fill="#FFFFFF" points="39.268,13.27 37.665,29.94 40.872,28.066 40.872,16.53 	"/>
	<polygon fill="#5B5B5B" points="19.868,46.35 8.193,55 21.959,55 24.008,50.154 22.267,50.154 	"/>
	<polygon fill="#241D1D" points="24.008,50.154 28.317,50.154 24.008,55 21.959,55 	"/>
</g>
</svg>
