<?xml version="1.0" encoding="utf-8"?>
<!-- Generator: Adobe Illustrator 17.0.0, SVG Export Plug-In . SVG Version: 6.00 Build 0)  -->
<!DOCTYPE svg PUBLIC "-//W3C//DTD SVG 1.1//EN" "http://www.w3.org/Graphics/SVG/1.1/DTD/svg11.dtd">
<svg version="1.1" id="Слой_2" xmlns="http://www.w3.org/2000/svg" xmlns:xlink="http://www.w3.org/1999/xlink" x="0px" y="0px"
	 width="55px" height="55px" viewBox="0 0 55 55" enable-background="new 0 0 55 55" xml:space="preserve">
<g>
	<rect fill="#2E999B" width="55" height="55"/>
	<polygon fill="#FFFFFF" points="14.916,10.109 7.704,17.446 12.758,19.826 9.714,28.06 13.195,26.142 12.106,34.131 14.916,33.359 
		40.872,36.513 40.872,39.141 48.628,39.229 52.052,33.359 48.519,23.837 46.834,12 40.872,3.044 31.97,6.848 33.046,0.978 
		26.578,6.631 27.432,0.978 19.908,7.119 17.871,6.848 	"/>
	<polygon fill="#FFAD77" points="18.255,12 14.916,16.55 14.916,32.679 17.23,42.163 22.267,50.153 28.317,50.153 40.872,39.141 
		40.872,17.718 35.849,12.368 25.138,11.005 	"/>
	<polygon fill="#D18E69" points="24.9,11.005 18.255,12 14.916,16.55 14.916,32.679 17.23,42.163 22.267,50.153 24.9,50.153 	"/>
	<polygon fill="#FFFFFF" points="19.024,39.229 32.883,39.229 32.883,35.914 29.296,34.663 22.122,34.663 19.024,35.805 	"/>
	<polygon fill="#84563D" points="20.274,39.229 24.513,46.348 32.883,39.229 	"/>
	<polygon fill="#FF4100" points="21.959,39.229 29.948,39.229 26.252,47.87 23.073,47.87 	"/>
	<rect x="16.958" y="19.174" fill="#361200" width="4.13" height="1.304"/>
	<rect x="28.752" y="19.174" fill="#361200" width="4.131" height="1.304"/>
	<rect x="28.752" y="27.408" fill="#D18E69" width="4.131" height="1.304"/>
	<circle fill="#FFFFFF" cx="19.024" cy="24.99" r="2.229"/>
	<circle fill="#2A2A2A" cx="19.024" cy="24.99" r="1.153"/>
	<circle fill="#FFFFFF" cx="30.817" cy="24.99" r="2.229"/>
	<circle fill="#2A2A2A" cx="30.817" cy="24.99" r="1.153"/>
	<polygon fill="#D18E69" points="35.259,29.935 35.259,43.958 36.44,42.922 36.44,31.239 	"/>
	<polygon fill="#D18E69" points="37.665,33.359 37.665,41.949 38.846,40.914 38.846,34.663 	"/>
	<polygon fill="#D18E69" points="40.872,28.06 44.948,26.142 42.91,36.513 40.872,36.513 	"/>
	<path fill="#BA4219" d="M28.588,34.663l-1.082-2.378c-0.574-1.493-0.974-2.398-1.378-3.176l1.373-5.37h-3.585l0.985,1.685
		l-2.427,5.174c-0.272,0.534-0.464,1.049-0.513,1.443c-0.202,1.627,0.53,2.772,2.038,2.959c0.659,0.082,1.933,0.129,2.579-0.338
		H28.588z"/>
	<polygon fill="#5B5B5B" points="24.008,55 28.317,50.153 40.872,39.141 52.052,39.141 38.846,55 	"/>
	<polygon fill="#FFFFFF" points="39.268,13.261 37.665,29.935 40.872,28.06 40.872,16.522 	"/>
	<polygon fill="#5B5B5B" points="19.868,46.348 8.193,55 21.959,55 24.008,50.153 22.267,50.153 	"/>
	<polygon fill="#262020" points="24.008,50.153 28.317,50.153 24.008,55 21.959,55 	"/>
</g>
</svg>
