<?xml version="1.0" encoding="utf-8"?>
<!-- Generator: Adobe Illustrator 17.0.0, SVG Export Plug-In . SVG Version: 6.00 Build 0)  -->
<!DOCTYPE svg PUBLIC "-//W3C//DTD SVG 1.1//EN" "http://www.w3.org/Graphics/SVG/1.1/DTD/svg11.dtd">
<svg version="1.1" id="Слой_1" xmlns="http://www.w3.org/2000/svg" xmlns:xlink="http://www.w3.org/1999/xlink" x="0px" y="0px"
	 width="55px" height="55px" viewBox="0 0 55 55" enable-background="new 0 0 55 55" xml:space="preserve">
<g>
	<rect fill="#D98945" width="55" height="55"/>
	<polygon fill="#8A744C" points="0,53.191 9.109,44.217 11.518,43.079 19.327,36.461 40.72,46.014 55,51.724 55,55 0,55 	"/>
	<path fill="#74635C" d="M37.48,5.586l-2.765-2.23l-9.993-0.446l-9.635,7.584l-3.212,9.725c0,0-5.977,2.587-4.103,7.405
		c0,0-3.301,2.172-1.16,5.279c0,0-5.799,7.122,1.517,10.78l0.981,0.535l2.409-1.138c0,0,7.809,1.054,7.809-6.619L37.48,5.586z"/>
	<polyline fill="#E9AA7F" points="29.523,5.681 37.285,5.681 42.505,11.435 44.378,19.465 44.378,35.925 36.951,45.159 
		32.961,49.71 19.327,36.461 19.327,34.052 15.739,31.108 21.36,22.811 21.36,8.893 28.854,5.681 	"/>
	<path fill="#CC8D6B" d="M25.326,22.776l1.16-4.729l7.315-0.01l1.384,0.768l-2.766,3.97C32.419,22.776,28.895,27.951,25.326,22.776z
		"/>
	<path fill="#CC8D6B" d="M39.004,18.805c0,0,3.861-1.982,5.374,0.66v4.515v11.945l-3.152,3.918c0,0-3.933-12.593-3.265-16.281
		l-0.457-1.59"/>
	<path fill="#FFFFFF" d="M30.046,20.695c-0.934,0-1.72,0.582-1.96,1.375c0.24,0.793,1.026,1.375,1.96,1.375
		c0.934,0,1.72-0.582,1.96-1.375C31.766,21.277,30.981,20.695,30.046,20.695z"/>
	<path fill="#FFFFFF" d="M40.72,21.559c-0.836,0-1.54,0.522-1.755,1.231c0.215,0.71,0.918,1.231,1.755,1.231
		c0.837,0,1.54-0.522,1.755-1.231C42.26,22.08,41.557,21.559,40.72,21.559z"/>
	<path fill="#AF5045" d="M33.356,29.857l5.219,0.658c0,0,2.141-0.468,0-4.818l-1.071-3.725l1.499-3.167H35.43L33.356,29.857z"/>
	<circle fill="#241D1D" cx="29.782" cy="21.611" r="1.408"/>
	<circle fill="#241D1D" cx="40.446" cy="22.334" r="1.261"/>
	<path fill="#9D6F59" d="M25.739,21.096c0,0,1.917-3.256,4.808-3.004l-4.06-0.045L25.739,21.096z"/>
	<path fill="#9D6F59" d="M38.075,20.768c0,0,4.032-3.053,6.303-1.303c0,0-0.887-2.712-5.374-0.66L38.075,20.768z"/>
	<polygon fill="#CC8D6B" points="38.174,33.883 37.014,34.642 35.141,33.527 31.838,34.127 32.062,33.214 30.059,35.4 
		31.775,34.384 31.793,34.312 34.46,34.642 37.103,35.757 40.047,34.954 	"/>
	<polygon fill="#74635C" points="43.215,14.48 47.823,24.022 52.225,29.244 47.932,39.387 48.258,44.217 42.955,40.257 
		44.378,35.925 44.378,19.465 	"/>
	<polygon fill="#CC8D6B" points="44.378,35.925 40.72,46.014 36.441,50.21 32.961,49.71 	"/>
	<path fill="#CC8D6B" d="M28.086,22.07c0,0,2.217-2.597,3.92,0l0.634-0.458l-2.037-2.476l-2.955,1.067L28.086,22.07z"/>
	<path fill="#CC8D6B" d="M38.878,22.872c0,0,2.072-2.408,3.598-0.082l0.48-0.328l-1.824-2.217l-2.646,0.956L38.878,22.872z"/>
	<polygon fill="#CC8D6B" points="21.36,22.811 19.327,34.052 15.739,31.108 	"/>
	<polygon fill="#FFFFFF" points="19.327,36.461 32.961,49.71 36.441,50.21 40.72,46.014 37.48,54.269 30.256,53.734 	"/>
	<polygon fill="#FFFFFF" points="29.782,55 30.256,53.734 41.226,51.235 42.215,55 	"/>
	<ellipse fill="#E29182" cx="27.147" cy="29.349" rx="3.399" ry="3.422"/>
</g>
</svg>
