<?xml version="1.0" encoding="utf-8"?>
<!-- Generator: Adobe Illustrator 17.0.0, SVG Export Plug-In . SVG Version: 6.00 Build 0)  -->
<!DOCTYPE svg PUBLIC "-//W3C//DTD SVG 1.1//EN" "http://www.w3.org/Graphics/SVG/1.1/DTD/svg11.dtd">
<svg version="1.1" id="Слой_1" xmlns="http://www.w3.org/2000/svg" xmlns:xlink="http://www.w3.org/1999/xlink" x="0px" y="0px"
	 width="55px" height="55px" viewBox="0 0 55 55" enable-background="new 0 0 55 55" xml:space="preserve">
<g>
	<rect fill="#F7DC48" width="55" height="55"/>
	<path fill="#E9AA7F" d="M47.063,32.708l-1.479-10.854l-0.004-0.001c0.221-1,0.342-2.03,0.342-3.085
		c0-9.14-8.687-16.549-19.402-16.549c-6.175,0-11.672,2.463-15.225,6.298L11.29,8.515l0.004,0.003
		c-2.613,2.819-4.177,6.378-4.177,10.251c0,7.343,5.609,13.565,13.37,15.729v5.409l4.324,2.386l7.578,4.181h9.293l4.641-5.612
		l-0.74-5.543L47.063,32.708z"/>
	<path fill="#CC8D6B" d="M11.295,8.517L11.29,8.515L11.295,8.517c-2.613,2.82-4.177,6.379-4.177,10.251
		c0,7.343,5.609,13.565,13.37,15.729v5.409l4.324,2.386l1.708,0.943V2.219C20.345,2.219,14.848,4.683,11.295,8.517z"/>
	<path fill="#CC8D6B" d="M34.144,25.466l2.06,2.609l0.345,0.942L26.52,35.738c0,0-2.546-1.705-4.115-7.826l6.773-1.989
		L34.144,25.466z"/>
	<polygon fill="#C4C4C4" points="51.956,28.89 48.247,22.668 45.922,18.768 45.58,21.854 47.063,32.708 45.584,35.317 
		46.324,40.861 	"/>
	<polygon fill="#FFFFFF" points="51.956,35.085 51.956,28.89 45.922,18.768 45.58,21.854 47.063,32.708 45.584,35.317 
		46.324,40.861 41.683,46.473 32.389,46.473 20.487,39.906 20.487,34.497 18.043,33.618 21.793,18.129 11.073,7.286 5.326,16.661 
		5.326,35.738 1.576,39.977 1.25,47.219 0,48.069 0,55 55,55 55,40.215 	"/>
	<path fill="#FFFFFF" d="M27.948,45.218c0,0,1.972-4.263,5.429-7.034l7.935-0.217c0,0,2.614,3.216,3.837,6.966l-1.019-0.693
		c0,0-5.209-5.621-14.144,0.71L27.948,45.218z"/>
	<polygon fill="#CC8D6B" points="38.921,25.466 38.921,27.531 39.494,30.032 44.389,31.77 46.172,26.184 	"/>
	<path fill="#FFFFFF" d="M30.888,42.612c0,0,9.62-3.179,13.777,0.571l-1.386,2.609l-8.397,2.717l-6.848-2.717L30.888,42.612z"/>
	<polygon fill="#C4C4C4" points="32.04,43.727 35.041,42.096 41.097,41.904 43.544,43.727 40.749,42.815 35.097,42.815 	"/>
	<path fill="#74635C" d="M25.519,27.229c0,0,4.021,4.022,7.717,0l-0.543-1.739h-3.696L25.519,27.229z"/>
	<path fill="#74635C" d="M38.921,25.466L37.226,28.1c0,0,5.157,1.959,7.439-0.759v-1.685L38.921,25.466z"/>
	<path fill="#AF5045" d="M38.921,27.531l2.391,10.435c0,0-1.413,4.13-5.217,1.195l-2.717-0.978c0,0-1.522-3.478,3.152-3.478
		l-0.326-6.631l-2.174-2.609h4.891V27.531z"/>
	<ellipse fill="#241D1D" cx="30.054" cy="26.865" rx="1.655" ry="1.301"/>
	<ellipse fill="#241D1D" cx="41.75" cy="26.865" rx="1.655" ry="1.301"/>
	<polygon fill="#FFFFFF" points="38.921,25.466 42.391,23.129 47.717,24.352 49.348,26.499 	"/>
	<polygon fill="#FFFFFF" points="22.405,27.911 29.688,23.02 34.796,23.998 34.144,25.466 29.177,25.922 	"/>
	<polygon fill="#C4C4C4" points="26.52,43.234 20.487,39.906 20.487,34.497 18.043,33.618 21.793,18.129 11.073,7.286 5.326,16.661 
		5.326,35.738 1.576,39.977 1.25,47.219 0,47.721 0,55 26.52,55 	"/>
</g>
</svg>
