<?xml version="1.0" encoding="utf-8"?>
<!-- Generator: Adobe Illustrator 17.0.0, SVG Export Plug-In . SVG Version: 6.00 Build 0)  -->
<!DOCTYPE svg PUBLIC "-//W3C//DTD SVG 1.1//EN" "http://www.w3.org/Graphics/SVG/1.1/DTD/svg11.dtd">
<svg version="1.1" id="Слой_2" xmlns="http://www.w3.org/2000/svg" xmlns:xlink="http://www.w3.org/1999/xlink" x="0px" y="0px"
	 width="180px" height="180px" viewBox="0 0 180 180" enable-background="new 0 0 180 180" xml:space="preserve">
<path fill="#44515C" d="M90,0C40.295,0,0,40.295,0,90c0,49.706,40.295,90,90,90c49.706,0,90-40.294,90-90C180,40.295,139.706,0,90,0
	z M90.001,142.605c-29.054,0-52.606-23.552-52.606-52.606c0-29.053,23.552-52.605,52.606-52.605
	c29.053,0,52.605,23.552,52.605,52.605C142.606,119.053,119.054,142.605,90.001,142.605z"/>
<circle fill="#354452" cx="90.001" cy="90" r="52.605"/>
<g>
	<polygon fill="#E4323C" points="89.999,113.717 89.999,75.769 80.513,66.283 80.513,66.283 80.513,66.283 61.539,85.257 	"/>
	<polygon fill="#E75588" points="89.999,113.717 89.999,75.769 99.485,66.283 99.488,66.283 99.488,66.283 118.462,85.257 	"/>
</g>
</svg>
