<?xml version="1.0" encoding="utf-8"?>
<!-- Generator: Adobe Illustrator 17.0.0, SVG Export Plug-In . SVG Version: 6.00 Build 0)  -->
<!DOCTYPE svg PUBLIC "-//W3C//DTD SVG 1.1//EN" "http://www.w3.org/Graphics/SVG/1.1/DTD/svg11.dtd">
<svg version="1.1" id="Слой_1" xmlns="http://www.w3.org/2000/svg" xmlns:xlink="http://www.w3.org/1999/xlink" x="0px" y="0px"
	 width="180px" height="180px" viewBox="0 0 180 180" enable-background="new 0 0 180 180" xml:space="preserve">
<path fill="#43505B" d="M89.67,1.204c-49.206,0-89.096,39.89-89.096,89.096c0,49.206,39.89,89.096,89.096,89.096
	c49.206,0,89.096-39.89,89.096-89.096C178.766,41.094,138.876,1.204,89.67,1.204z M89.671,142.376
	c-28.762,0-52.077-23.316-52.077-52.077c0-28.761,23.315-52.076,52.077-52.076c28.761,0,52.076,23.315,52.076,52.076
	C141.747,119.061,118.432,142.376,89.671,142.376z"/>
<circle fill="#354351" cx="89.671" cy="90.299" r="52.077"/>
<g>
	<polygon fill="#D24A4A" points="89.669,113.778 89.669,76.212 80.278,66.821 80.278,66.821 80.278,66.821 61.495,85.604 	"/>
	<polygon fill="#D75E87" points="89.669,113.778 89.669,76.212 99.06,66.821 99.062,66.821 99.062,66.821 117.846,85.604 	"/>
</g>
<path display="none" fill="#CE6AA3" d="M125.649,127.929c-9.351,8.943-22.019,14.447-35.979,14.447
	c-13.961,0-26.628-5.504-35.979-14.447H8.894c14.185,30.398,45.018,51.467,80.775,51.467s66.591-21.068,80.775-51.467H125.649z"/>
</svg>
