<?xml version="1.0" encoding="utf-8"?>
<!-- Generator: Adobe Illustrator 17.0.0, SVG Export Plug-In . SVG Version: 6.00 Build 0)  -->
<!DOCTYPE svg PUBLIC "-//W3C//DTD SVG 1.1//EN" "http://www.w3.org/Graphics/SVG/1.1/DTD/svg11.dtd">
<svg version="1.1" id="Слой_1" xmlns="http://www.w3.org/2000/svg" xmlns:xlink="http://www.w3.org/1999/xlink" x="0px" y="0px"
	 width="130px" height="130px" viewBox="0 0 130 130" enable-background="new 0 0 130 130" xml:space="preserve">
<g>
	<defs>
		<path id="SVGID_1_" d="M115.057,46.41c0-0.915-0.005-2.162-0.017-3.678c-0.019-1.598-0.026-2.248-0.041-3.003
			c-0.045-2.248-0.19-4.521-0.57-6.547c-0.414-2.219-0.982-4.226-2-6.238c-1.032-2.046-2.453-3.808-3.99-5.382
			c-1.577-1.535-3.341-2.956-5.382-3.99c-2.012-1.021-4.022-1.584-6.236-2.002c-2.029-0.38-4.304-0.525-6.547-0.568
			c-0.758-0.015-1.408-0.024-3.006-0.039c-1.519-0.015-2.763-0.019-3.68-0.019c-4.655,0-32.52,0-37.175,0
			c-0.917,0-2.162,0.005-3.68,0.019c-1.598,0.014-2.248,0.024-3.004,0.039c-2.246,0.043-4.518,0.188-6.546,0.568
			c-2.217,0.418-4.226,0.982-6.238,2.002c-2.041,1.035-3.805,2.455-5.379,3.99c-1.541,1.574-2.961,3.336-3.993,5.382
			c-1.018,2.012-1.584,4.02-2,6.238c-0.38,2.026-0.524,4.299-0.568,6.547c-0.014,0.755-0.026,1.405-0.043,3.003
			c-0.009,1.516-0.017,2.763-0.017,3.678v37.175c0,0.92,0.007,2.161,0.017,3.678c0.017,1.598,0.029,2.248,0.043,3.009
			c0.043,2.243,0.188,4.515,0.568,6.546c0.417,2.215,0.982,4.227,2,6.239c1.032,2.041,2.452,3.803,3.993,5.381
			c1.574,1.536,3.338,2.956,5.379,3.986c2.012,1.021,4.021,1.588,6.238,2.002c2.029,0.381,4.301,0.524,6.546,0.568
			c0.756,0.02,1.406,0.028,3.004,0.038c1.519,0.015,2.763,0.024,3.68,0.024c4.655,0,32.52,0,37.175,0c0.917,0,2.161-0.01,3.68-0.024
			c1.598-0.01,2.248-0.019,3.006-0.038c2.243-0.044,4.518-0.188,6.547-0.568c2.214-0.414,4.224-0.981,6.236-2.002
			c2.041-1.03,3.805-2.45,5.382-3.986c1.538-1.578,2.958-3.34,3.99-5.381c1.018-2.013,1.586-4.024,2-6.239
			c0.38-2.031,0.525-4.303,0.57-6.546c0.015-0.761,0.022-1.411,0.041-3.009c0.012-1.517,0.017-2.758,0.017-3.678V46.41z"/>
	</defs>
	<use xlink:href="#SVGID_1_"  overflow="visible" fill="#DEE0E4"/>
	<clipPath id="SVGID_2_">
		<use xlink:href="#SVGID_1_"  overflow="visible"/>
	</clipPath>
	<g clip-path="url(#SVGID_2_)">
		<g>
			<polygon fill="#971E00" points="65.231,46.511 49.864,60.394 -17.209,-0.682 12.623,-0.682 			"/>
			<polygon fill="#FF3000" points="80.466,60.394 65.106,46.511 117.394,-0.682 143.963,-0.682 148.805,-0.682 			"/>
			<polygon fill="#FF3000" points="49.864,60.394 34.496,46.511 65.161,18.808 80.533,32.686 			"/>
			<polygon fill="#971E00" points="80.466,60.394 95.834,46.511 65.161,18.808 49.799,32.686 			"/>
		</g>
		<path fill="#FFE565" d="M65.224,59.556v48.604c13.418,0,24.299-10.884,24.299-24.3C89.523,70.435,78.642,59.556,65.224,59.556z"/>
		<path fill="#C18434" d="M40.925,83.86c0,13.416,10.881,24.3,24.299,24.3V59.556C51.806,59.556,40.925,70.435,40.925,83.86z"/>
		<g>
			<path fill="#C18434" d="M65.106,103.225c-10.684,0-19.37-8.688-19.37-19.365c0-10.682,8.686-19.37,19.37-19.37
				c10.674,0,19.365,8.688,19.365,19.37C84.471,94.536,75.78,103.225,65.106,103.225z M65.106,67.662
				c-8.939,0-16.2,7.264-16.2,16.197c0,8.93,7.261,16.198,16.2,16.198c8.927,0,16.193-7.269,16.193-16.198
				C81.299,74.926,74.033,67.662,65.106,67.662z"/>
		</g>
	</g>
</g>
</svg>
