<?xml version="1.0" encoding="utf-8"?>
<!-- Generator: Adobe Illustrator 17.0.0, SVG Export Plug-In . SVG Version: 6.00 Build 0)  -->
<!DOCTYPE svg PUBLIC "-//W3C//DTD SVG 1.1//EN" "http://www.w3.org/Graphics/SVG/1.1/DTD/svg11.dtd">
<svg version="1.1" id="Слой_1" xmlns="http://www.w3.org/2000/svg" xmlns:xlink="http://www.w3.org/1999/xlink" x="0px" y="0px"
	 width="170px" height="30px" viewBox="0 0 170 30" enable-background="new 0 0 170 30" xml:space="preserve">
<g>
	<g>
		<path fill="#DEA978" d="M21.113,18.164L17.275,6.666h-1.794l-4.062,11.498L7.705,6.816H4.266l5.782,16.672h2.442l3.813-10.573
			l3.639,10.573h2.442L28.54,6.816h-3.439L21.113,18.164z M42.551,6.441c-5.234,0-8.872,3.649-8.872,8.724
			c0,5.074,3.639,8.699,8.872,8.699s8.872-3.624,8.872-8.699C51.423,10.09,47.784,6.441,42.551,6.441z M42.551,20.914
			c-3.24,0-5.533-2.375-5.533-5.749c0-3.374,2.293-5.774,5.533-5.774c3.24,0,5.533,2.4,5.533,5.774
			C48.083,18.539,45.791,20.914,42.551,20.914z M67.152,15.74c1.296-0.875,1.944-2.3,1.944-3.924c0-1.25-0.374-2.675-1.645-3.749
			c-0.773-0.65-1.944-1.25-4.237-1.25h-4.81v16.672h3.24v-6.699h0.399l4.436,6.699h4.037l-5.184-7.024
			C66.131,16.314,66.729,16.039,67.152,15.74z M62.567,14.49h-0.922V9.466h0.972c0.598,0,3.14,0.025,3.14,2.5
			C65.757,14.415,63.19,14.49,62.567,14.49z M90.133,6.816h-4.087l-6.106,7.049V6.816H76.7v16.672h3.24v-7.099l0.374-0.375
			l5.907,7.474h4.287l-7.402-8.973L90.133,6.816z M103.569,6.441c-5.234,0-8.872,3.649-8.872,8.724c0,5.074,3.639,8.699,8.872,8.699
			c5.234,0,8.872-3.624,8.872-8.699C112.441,10.09,108.803,6.441,103.569,6.441z M103.569,20.914c-3.24,0-5.533-2.375-5.533-5.749
			c0-3.374,2.293-5.774,5.533-5.774c3.24,0,5.533,2.4,5.533,5.774C109.102,18.539,106.809,20.914,103.569,20.914z M129.542,17.289
			c0,1.275-0.424,2.05-0.797,2.475c-0.474,0.575-1.346,1.15-2.642,1.15c-1.296,0-2.168-0.575-2.642-1.15
			c-0.374-0.425-0.797-1.2-0.797-2.475V6.816h-3.24v10.198c0,1.575,0.249,3.174,1.246,4.449c1.196,1.575,3.29,2.4,5.433,2.4
			s4.237-0.825,5.433-2.4c0.997-1.275,1.246-2.875,1.246-4.449V6.816h-3.24V17.289z M138.816,9.615h3.738v13.873h3.24V9.615h3.738
			V6.816h-10.716V9.615z M163.914,14.89c-0.847-0.775-2.068-1.225-3.365-1.675c-1.047-0.375-1.595-0.575-1.994-0.95
			c-0.399-0.35-0.523-0.725-0.523-1.125c0-0.85,0.548-1.95,2.293-1.95c0.598,0,1.745,0.125,2.716,1.425l1.695-2.225
			c-1.695-1.75-3.664-1.95-4.71-1.95c-3.688,0-5.333,2.45-5.333,4.899c0,1.7,0.773,2.624,1.321,3.099
			c0.847,0.75,1.894,1.15,2.766,1.45c0.947,0.325,1.944,0.65,2.567,1.225c0.449,0.425,0.648,0.9,0.648,1.5
			c0,1.4-1.097,2.3-2.567,2.3c-1.171,0-2.692-0.6-3.489-2.225l-2.118,2.025c0.872,1.275,2.667,3.15,5.732,3.15
			c3.439,0,5.782-2.225,5.782-5.474C165.335,16.689,164.662,15.565,163.914,14.89z"/>
	</g>
</g>
</svg>
