<?xml version="1.0" encoding="utf-8"?>
<!-- Generator: Adobe Illustrator 17.0.0, SVG Export Plug-In . SVG Version: 6.00 Build 0)  -->
<!DOCTYPE svg PUBLIC "-//W3C//DTD SVG 1.1//EN" "http://www.w3.org/Graphics/SVG/1.1/DTD/svg11.dtd">
<svg version="1.1" id="Слой_2" xmlns="http://www.w3.org/2000/svg" xmlns:xlink="http://www.w3.org/1999/xlink" x="0px" y="0px"
	 width="170px" height="30px" viewBox="0 0 170 30" enable-background="new 0 0 170 30" xml:space="preserve">
<g>
	<path fill="#E4AA75" d="M12.277,23.36H9.82L4.004,6.639h3.459l3.735,11.381l4.086-11.532h1.805l3.861,11.532l4.011-11.381h3.46
		L22.23,23.36h-2.457l-3.66-10.604L12.277,23.36z"/>
	<path fill="#E4AA75" d="M51.435,15.012c0,5.09-3.66,8.725-8.925,8.725c-5.265,0-8.925-3.635-8.925-8.725
		c0-5.089,3.66-8.749,8.925-8.749C47.774,6.263,51.435,9.923,51.435,15.012z M48.075,15.012c0-3.384-2.307-5.791-5.566-5.791
		c-3.259,0-5.565,2.407-5.565,5.791c0,3.385,2.307,5.766,5.565,5.766C45.769,20.778,48.075,18.397,48.075,15.012z"/>
	<path fill="#E4AA75" d="M63.291,6.639c2.307,0,3.485,0.602,4.262,1.253c1.278,1.078,1.655,2.508,1.655,3.761
		c0,1.63-0.652,3.059-1.956,3.937c-0.426,0.301-1.028,0.576-1.83,0.727l5.214,7.044h-4.062l-4.462-6.718h-0.401v6.718h-3.259V6.639
		H63.291z M61.711,14.335h0.928c0.626,0,3.209-0.075,3.209-2.532c0-2.481-2.558-2.507-3.159-2.507h-0.978V14.335z"/>
	<path fill="#E4AA75" d="M80.112,13.708l6.142-7.069h4.111l-7.07,7.722l7.447,9h-4.313l-5.941-7.496l-0.376,0.376v7.12h-3.259V6.639
		h3.259V13.708z"/>
	<path fill="#E4AA75" d="M112.802,15.012c0,5.09-3.66,8.725-8.925,8.725s-8.925-3.635-8.925-8.725c0-5.089,3.66-8.749,8.925-8.749
		S112.802,9.923,112.802,15.012z M109.442,15.012c0-3.384-2.306-5.791-5.565-5.791c-3.259,0-5.565,2.407-5.565,5.791
		c0,3.385,2.307,5.766,5.565,5.766C107.137,20.778,109.442,18.397,109.442,15.012z"/>
	<path fill="#E4AA75" d="M123.079,6.639v10.504c0,1.279,0.427,2.055,0.803,2.482c0.477,0.576,1.354,1.152,2.657,1.152
		s2.182-0.576,2.657-1.152c0.376-0.428,0.803-1.203,0.803-2.482V6.639h3.259v10.229c0,1.578-0.251,3.184-1.253,4.463
		c-1.204,1.578-3.31,2.406-5.466,2.406s-4.262-0.828-5.465-2.406c-1.003-1.279-1.254-2.885-1.254-4.463V6.639H123.079z"/>
	<path fill="#E4AA75" d="M146.343,9.447V23.36h-3.259V9.447h-3.761V6.639h10.78v2.808H146.343z"/>
	<path fill="#E4AA75" d="M163.689,10.449c-0.978-1.304-2.131-1.429-2.732-1.429c-1.755,0-2.307,1.103-2.307,1.955
		c0,0.401,0.126,0.777,0.526,1.128c0.401,0.376,0.953,0.577,2.006,0.953c1.304,0.451,2.532,0.902,3.385,1.68
		c0.752,0.677,1.429,1.805,1.429,3.51c0,3.258-2.356,5.49-5.816,5.49c-3.083,0-4.889-1.881-5.766-3.16l2.131-2.029
		c0.802,1.629,2.331,2.23,3.51,2.23c1.479,0,2.582-0.902,2.582-2.307c0-0.602-0.2-1.078-0.651-1.504
		c-0.627-0.577-1.63-0.903-2.582-1.228c-0.878-0.301-1.931-0.702-2.783-1.454c-0.552-0.477-1.329-1.404-1.329-3.109
		c0-2.456,1.655-4.913,5.365-4.913c1.053,0,3.033,0.2,4.738,1.955L163.689,10.449z"/>
</g>
</svg>
