<?xml version="1.0" encoding="utf-8"?>
<!-- Generator: Adobe Illustrator 17.0.0, SVG Export Plug-In . SVG Version: 6.00 Build 0)  -->
<!DOCTYPE svg PUBLIC "-//W3C//DTD SVG 1.1//EN" "http://www.w3.org/Graphics/SVG/1.1/DTD/svg11.dtd">
<svg version="1.1" id="Слой_1" xmlns="http://www.w3.org/2000/svg" xmlns:xlink="http://www.w3.org/1999/xlink" x="0px" y="0px"
	 width="960px" height="460px" viewBox="0 0 960 460" enable-background="new 0 0 960 460" xml:space="preserve">
<g>
	<path fill="#4C5762" d="M948.994,310.011h-2.021V71.156c0-30.605-29.131-59.736-65.066-59.736h-65.289V9.448
		c0-2.131-1.734-3.866-3.865-3.866h-33.52c-2.131,0-3.865,1.734-3.865,3.866v1.971h-45.502V9.448c0-2.131-1.734-3.866-3.867-3.866
		h-27.014c-2.133,0-3.867,1.734-3.867,3.866v1.971h-43.727V9.448c0-2.131-1.734-3.866-3.865-3.866h-27.014
		c-2.133,0-3.867,1.734-3.867,3.866v1.971H72.746c-35.934,0-65.065,29.131-65.065,65.066V391.21
		c0,35.936,29.131,65.065,65.065,65.065h809.16c35.935,0,65.066-29.13,65.066-70.393v-1.892h2.021c2.131,0,3.865-1.734,3.865-3.866
		v-66.249C952.859,311.745,951.125,310.011,948.994,310.011z M778.367,9.448c0-0.477,0.388-0.866,0.865-0.866h33.52
		c0.477,0,0.865,0.388,0.865,0.866V10.5h-35.25V9.448z M698.117,9.448c0-0.477,0.389-0.866,0.867-0.866h27.014
		c0.479,0,0.867,0.388,0.867,0.866V10.5h-28.748V9.448z M619.644,9.448c0-0.477,0.389-0.866,0.867-0.866h27.014
		c0.477,0,0.865,0.388,0.865,0.866V10.5h-28.746V9.448z M942.973,385.883c0,37.85-26.253,66.393-61.066,66.393H72.746
		c-33.671,0-61.065-27.394-61.065-61.065V76.485c0-33.672,27.394-61.066,61.065-61.066h809.16c16.073,0,31.438,6.144,43.264,17.301
		c11.314,10.673,17.803,24.683,17.803,38.436V385.883z M949.859,380.126c0,0.477-0.388,0.866-0.865,0.866h-1.648v-67.98h1.648
		c0.478,0,0.865,0.388,0.865,0.866V380.126z"/>
	<path fill="#4C5762" d="M75.105,192.687c-23.186,0-42.048,18.863-42.048,42.05c0,23.185,18.863,42.048,42.048,42.048
		c23.187,0,42.049-18.863,42.049-42.048C117.154,211.55,98.292,192.687,75.105,192.687z M75.105,273.785
		c-21.531,0-39.049-17.517-39.049-39.048c0-21.532,17.518-39.05,39.049-39.05c21.532,0,39.049,17.518,39.049,39.05
		C114.154,256.268,96.638,273.785,75.105,273.785z"/>
	<path fill="#4C5762" d="M865.322,192.746c-5.72,0-10.373,4.652-10.373,10.371v62.704c0,5.719,4.653,10.373,10.373,10.373
		c5.72,0,10.373-4.653,10.373-10.373v-62.704C875.695,197.398,871.042,192.746,865.322,192.746z M872.695,265.821
		c0,4.065-3.308,7.373-7.373,7.373c-4.066,0-7.373-3.307-7.373-7.373v-62.704c0-4.064,3.308-7.371,7.373-7.371
		c4.065,0,7.373,3.307,7.373,7.371V265.821z"/>
	<path fill="#4C5762" d="M82.043,217.844H67.455c-5.444,0-9.873,4.429-9.873,9.873v14.589c0,5.444,4.429,9.873,9.873,9.873h14.588
		c5.445,0,9.875-4.429,9.875-9.873v-14.589C91.918,222.273,87.488,217.844,82.043,217.844z M89.918,242.306
		c0,4.341-3.533,7.873-7.875,7.873H67.455c-4.342,0-7.873-3.532-7.873-7.873v-14.589c0-4.341,3.531-7.873,7.873-7.873h14.588
		c4.342,0,7.875,3.532,7.875,7.873V242.306z"/>
	<path fill="#4C5762" d="M900.685,224.637c-5.392,0-9.779,4.388-9.779,9.781c0,5.393,4.387,9.782,9.779,9.782
		c5.395,0,9.783-4.388,9.783-9.782C910.469,229.025,906.08,224.637,900.685,224.637z M900.685,241.2
		c-3.738,0-6.779-3.043-6.779-6.782c0-3.739,3.041-6.781,6.779-6.781c3.74,0,6.783,3.042,6.783,6.781
		C907.469,238.157,904.426,241.2,900.685,241.2z"/>
</g>
</svg>
