<?xml version="1.0" encoding="utf-8"?>
<!-- Generator: Adobe Illustrator 17.0.0, SVG Export Plug-In . SVG Version: 6.00 Build 0)  -->
<!DOCTYPE svg PUBLIC "-//W3C//DTD SVG 1.1//EN" "http://www.w3.org/Graphics/SVG/1.1/DTD/svg11.dtd">
<svg version="1.1" id="Слой_1" xmlns="http://www.w3.org/2000/svg" xmlns:xlink="http://www.w3.org/1999/xlink" x="0px" y="0px"
	 width="320px" height="30px" viewBox="0 0 320 30" enable-background="new 0 0 320 30" xml:space="preserve">
<circle fill="#80878E" cx="9.396" cy="9.269" r="4.177"/>
<circle fill="#FFFFFF" cx="19.236" cy="9.269" r="4.177"/>
<circle fill="#FFFFFF" cx="9.396" cy="18.831" r="4.177"/>
<circle fill="#FFFFFF" cx="19.236" cy="18.831" r="4.177"/>
<g>
	<path fill="#EAEBED" d="M134.408,9.826V21.25h-2.676V9.826h-3.087V7.521h8.851v2.305H134.408z"/>
	<path fill="#EAEBED" d="M152.582,14.396c0,4.179-3.005,7.163-7.328,7.163c-4.323,0-7.328-2.984-7.328-7.163
		s3.005-7.184,7.328-7.184C149.577,7.211,152.582,10.217,152.582,14.396z M149.824,14.396c0-2.779-1.894-4.755-4.569-4.755
		c-2.676,0-4.57,1.976-4.57,4.755c0,2.779,1.894,4.734,4.57,4.734C147.93,19.13,149.824,17.175,149.824,14.396z"/>
	<path fill="#EAEBED" d="M158.631,7.521c1.915,0,3.582,0.206,5.105,1.338c1.667,1.255,2.635,3.252,2.635,5.537
		c0,2.285-0.947,4.261-2.759,5.537c-1.605,1.132-3.107,1.317-5.022,1.317h-3.541V7.521H158.631z M157.725,18.944h0.823
		c0.68,0,2.161-0.041,3.355-0.905c1.091-0.782,1.708-2.182,1.708-3.644c0-1.441-0.597-2.841-1.688-3.664
		c-1.111-0.823-2.47-0.906-3.376-0.906h-0.823V18.944z"/>
	<path fill="#EAEBED" d="M176.537,18.368H171l-1.215,2.882h-2.902l5.908-13.729h2.1l5.742,13.729h-2.882L176.537,18.368z
		 M175.755,16.187l-1.956-4.94l-1.955,4.94H175.755z"/>
	<path fill="#EAEBED" d="M183.843,14.972l-4.714-7.451h3.17l2.943,4.775l2.943-4.775h3.17l-4.837,7.451v6.278h-2.676V14.972z"/>
</g>
<rect x="305.529" y="5.322" fill="#EAEBED" width="1.557" height="17.129"/>
<rect x="297.743" y="13.109" fill="#EAEBED" width="17.129" height="1.557"/>
</svg>
