<?xml version="1.0" encoding="utf-8"?>
<!-- Generator: Adobe Illustrator 17.0.0, SVG Export Plug-In . SVG Version: 6.00 Build 0)  -->
<!DOCTYPE svg PUBLIC "-//W3C//DTD SVG 1.1//EN" "http://www.w3.org/Graphics/SVG/1.1/DTD/svg11.dtd">
<svg version="1.1" id="Слой_1" xmlns="http://www.w3.org/2000/svg" xmlns:xlink="http://www.w3.org/1999/xlink" x="0px" y="0px"
	 width="460px" height="960px" viewBox="0 0 460 960" enable-background="new 0 0 460 960" xml:space="preserve">
<g>
	<path fill="#4C5762" d="M309.352,11.205v2.021H70.497c-30.606,0-59.736,29.131-59.736,65.066v65.289H8.789
		c-2.131,0-3.866,1.734-3.866,3.865v33.52c0,2.131,1.734,3.865,3.866,3.865h1.971v45.502H8.789c-2.131,0-3.866,1.734-3.866,3.867
		v27.014c0,2.133,1.734,3.867,3.866,3.867h1.971v43.727H8.789c-2.131,0-3.866,1.734-3.866,3.865v27.014
		c0,2.133,1.734,3.867,3.866,3.867h1.971v543.898c0,35.934,29.131,65.065,65.066,65.065h314.725
		c35.936,0,65.065-29.131,65.065-65.065V78.293c0-35.935-29.13-65.066-70.393-65.066h-1.892v-2.021c0-2.131-1.734-3.865-3.866-3.865
		h-66.249C311.086,7.34,309.352,9.075,309.352,11.205z M8.789,181.832c-0.477,0-0.866-0.388-0.866-0.865v-33.52
		c0-0.478,0.388-0.865,0.866-0.865h1.052v35.25H8.789z M8.789,262.082c-0.477,0-0.866-0.389-0.866-0.867v-27.014
		c0-0.479,0.388-0.867,0.866-0.867h1.052v28.748H8.789z M8.789,340.555c-0.477,0-0.866-0.389-0.866-0.867v-27.014
		c0-0.478,0.388-0.865,0.866-0.865h1.052v28.746H8.789z M385.224,17.227c37.85,0,66.393,26.253,66.393,61.066v809.16
		c0,33.671-27.394,61.065-61.065,61.065H75.826c-33.672,0-61.066-27.394-61.066-61.065V78.293c0-16.073,6.144-31.438,17.301-43.264
		c10.673-11.315,24.683-17.803,38.436-17.803H385.224z M379.467,10.34c0.477,0,0.866,0.388,0.866,0.865v1.648h-67.981v-1.648
		c0-0.478,0.388-0.865,0.866-0.865H379.467z"/>
	<path fill="#4C5762" d="M192.028,885.094c0,23.186,18.863,42.048,42.05,42.048c23.185,0,42.048-18.863,42.048-42.048
		c0-23.186-18.863-42.049-42.048-42.049C210.891,843.045,192.028,861.908,192.028,885.094z M273.126,885.094
		c0,21.531-17.517,39.049-39.048,39.049c-21.532,0-39.05-17.518-39.05-39.049c0-21.532,17.518-39.049,39.05-39.049
		C255.609,846.045,273.126,863.562,273.126,885.094z"/>
	<path fill="#4C5762" d="M192.087,94.877c0,5.72,4.652,10.373,10.371,10.373h62.704c5.719,0,10.373-4.653,10.373-10.373
		c0-5.72-4.653-10.373-10.373-10.373h-62.704C196.739,84.504,192.087,89.158,192.087,94.877z M265.162,87.504
		c4.065,0,7.373,3.308,7.373,7.373c0,4.066-3.307,7.373-7.373,7.373h-62.704c-4.064,0-7.371-3.308-7.371-7.373
		c0-4.065,3.307-7.373,7.371-7.373H265.162z"/>
	<path fill="#4C5762" d="M217.185,878.156v14.588c0,5.444,4.429,9.873,9.873,9.873h14.589c5.444,0,9.873-4.429,9.873-9.873v-14.588
		c0-5.445-4.429-9.875-9.873-9.875h-14.589C221.614,868.281,217.185,872.711,217.185,878.156z M241.647,870.281
		c4.341,0,7.873,3.533,7.873,7.875v14.588c0,4.342-3.532,7.873-7.873,7.873h-14.589c-4.341,0-7.873-3.531-7.873-7.873v-14.588
		c0-4.342,3.532-7.875,7.873-7.875H241.647z"/>
	<path fill="#4C5762" d="M223.978,59.514c0,5.393,4.388,9.779,9.781,9.779c5.394,0,9.782-4.387,9.782-9.779
		c0-5.395-4.388-9.783-9.782-9.783C228.366,49.731,223.978,54.119,223.978,59.514z M240.541,59.514c0,3.738-3.042,6.779-6.782,6.779
		c-3.739,0-6.781-3.041-6.781-6.779c0-3.74,3.042-6.783,6.781-6.783C237.498,52.731,240.541,55.774,240.541,59.514z"/>
</g>
</svg>
