<?xml version="1.0" encoding="utf-8"?>
<!-- Generator: Adobe Illustrator 17.0.0, SVG Export Plug-In . SVG Version: 6.00 Build 0)  -->
<!DOCTYPE svg PUBLIC "-//W3C//DTD SVG 1.1//EN" "http://www.w3.org/Graphics/SVG/1.1/DTD/svg11.dtd">
<svg version="1.1" id="Слой_1" xmlns="http://www.w3.org/2000/svg" xmlns:xlink="http://www.w3.org/1999/xlink" x="0px" y="0px"
	 width="82px" height="18px" viewBox="0 0 82 18" enable-background="new 0 0 82 18" xml:space="preserve">
<g>
	<g>
		<path fill="#9AA9B7" d="M5.661,3.991H3.844v10.003h1.111V9.645h0.976c2.283,0,3.169-1.395,3.169-2.805
			c0-0.63-0.18-1.515-0.916-2.145C7.508,4.111,6.667,3.991,5.661,3.991z M5.871,8.595H4.955V5.041h0.826
			c0.721,0,2.207,0.15,2.207,1.74C7.988,7.935,7.192,8.595,5.871,8.595z M17.93,6.765c0-1.065-0.511-1.83-1.096-2.22
			c-0.751-0.51-1.757-0.555-2.433-0.555h-1.607v10.003h1.111V9.615h0.285l3.048,4.379h1.352l-3.183-4.469
			C16.924,9.42,17.93,8.295,17.93,6.765z M13.906,8.625V5.041h0.676c0.481,0,0.991,0.03,1.442,0.285
			c0.631,0.36,0.796,0.915,0.796,1.47c0,1.17-0.826,1.83-2.207,1.83H13.906z M22.437,13.994h5.196v-1.05h-4.085V9.06h3.964V8.01
			h-3.964V5.041h4.085v-1.05h-5.196V13.994z M35.248,8.34l-0.961-0.42c-0.375-0.165-0.751-0.33-1.051-0.63
			c-0.27-0.255-0.375-0.48-0.375-0.87c0-0.93,0.691-1.545,1.682-1.545c0.571,0,0.931,0.195,1.126,0.345
			c0.225,0.18,0.451,0.48,0.586,0.75l0.886-0.585c-0.225-0.435-0.571-0.84-0.976-1.11c-0.495-0.33-0.991-0.45-1.607-0.45
			c-1.622,0-2.808,1.035-2.808,2.58c0,0.75,0.255,1.215,0.691,1.635c0.451,0.435,0.946,0.645,1.336,0.825l0.901,0.42
			c0.526,0.24,0.916,0.42,1.201,0.69c0.36,0.33,0.496,0.72,0.496,1.17c0,1.005-0.646,1.98-2.012,1.98
			c-0.511,0-1.006-0.12-1.442-0.555c-0.285-0.3-0.526-0.75-0.601-1.275l-1.081,0.3c0.135,0.6,0.436,1.29,0.931,1.77
			c0.691,0.675,1.517,0.81,2.177,0.81c1.802,0,3.168-1.23,3.168-3.074c0-0.72-0.21-1.305-0.721-1.815
			C36.374,8.865,35.833,8.595,35.248,8.34z M44.815,8.34l-0.961-0.42c-0.376-0.165-0.751-0.33-1.051-0.63
			c-0.27-0.255-0.375-0.48-0.375-0.87c0-0.93,0.691-1.545,1.682-1.545c0.571,0,0.931,0.195,1.126,0.345
			c0.225,0.18,0.451,0.48,0.586,0.75l0.886-0.585c-0.225-0.435-0.571-0.84-0.976-1.11c-0.495-0.33-0.991-0.45-1.607-0.45
			c-1.622,0-2.808,1.035-2.808,2.58c0,0.75,0.255,1.215,0.691,1.635c0.451,0.435,0.946,0.645,1.336,0.825l0.901,0.42
			c0.526,0.24,0.916,0.42,1.201,0.69c0.36,0.33,0.496,0.72,0.496,1.17c0,1.005-0.646,1.98-2.012,1.98
			c-0.51,0-1.006-0.12-1.441-0.555c-0.285-0.3-0.526-0.75-0.601-1.275l-1.081,0.3c0.135,0.6,0.435,1.29,0.931,1.77
			c0.691,0.675,1.517,0.81,2.177,0.81c1.802,0,3.168-1.23,3.168-3.074c0-0.72-0.21-1.305-0.721-1.815
			C45.941,8.865,45.401,8.595,44.815,8.34z M63.708,3.991h-1.502L57.942,8.28V3.991H56.83v10.003h1.111V9.69l0.285-0.285
			l4.099,4.589h1.532l-4.835-5.339L63.708,3.991z M67.464,13.994h1.111V3.991h-1.111V13.994z M72.18,3.991v1.05h2.433v8.953h1.111
			V5.041h2.433v-1.05H72.18z"/>
	</g>
</g>
</svg>
