<?xml version="1.0" encoding="utf-8"?>
<!-- Generator: Adobe Illustrator 17.0.0, SVG Export Plug-In . SVG Version: 6.00 Build 0)  -->
<!DOCTYPE svg PUBLIC "-//W3C//DTD SVG 1.1//EN" "http://www.w3.org/Graphics/SVG/1.1/DTD/svg11.dtd">
<svg version="1.1" id="Слой_2" xmlns="http://www.w3.org/2000/svg" xmlns:xlink="http://www.w3.org/1999/xlink" x="0px" y="0px"
	 width="82px" height="18px" viewBox="0 0 82 18" enable-background="new 0 0 82 18" xml:space="preserve">
<g>
	<path fill="#9BABBA" d="M5.42,3.949c1.013,0,1.86,0.121,2.54,0.711c0.741,0.635,0.922,1.527,0.922,2.162
		c0,1.422-0.892,2.827-3.19,2.827H4.71v4.385H3.591V3.949H5.42z M4.71,8.591h0.922c1.331,0,2.132-0.665,2.132-1.83
		c0-1.603-1.497-1.754-2.223-1.754H4.71V8.591z"/>
	<path fill="#9BABBA" d="M14.221,3.949c0.68,0,1.694,0.045,2.449,0.56c0.59,0.393,1.104,1.164,1.104,2.237
		c0,1.543-1.013,2.676-2.54,2.782l3.206,4.506h-1.361L14.009,9.62h-0.287v4.415h-1.119V3.949H14.221z M13.722,8.622h0.711
		c1.391,0,2.223-0.666,2.223-1.845c0-0.56-0.167-1.119-0.802-1.482c-0.454-0.257-0.968-0.287-1.452-0.287h-0.681V8.622z"/>
	<path fill="#9BABBA" d="M27.542,5.008h-4.113v2.994h3.992V9.06h-3.992v3.917h4.113v1.058H22.31V3.949h5.232V5.008z"/>
	<path fill="#9BABBA" d="M36.222,5.945c-0.136-0.272-0.363-0.575-0.59-0.756c-0.197-0.151-0.56-0.348-1.134-0.348
		c-0.998,0-1.694,0.62-1.694,1.557c0,0.393,0.106,0.62,0.378,0.877c0.302,0.302,0.681,0.469,1.059,0.635l0.968,0.423
		c0.59,0.257,1.134,0.53,1.557,0.952c0.514,0.514,0.726,1.104,0.726,1.83c0,1.86-1.376,3.1-3.19,3.1
		c-0.665,0-1.497-0.137-2.193-0.817c-0.499-0.484-0.802-1.179-0.937-1.784l1.089-0.302c0.075,0.529,0.317,0.983,0.605,1.284
		c0.438,0.439,0.937,0.56,1.452,0.56c1.376,0,2.026-0.983,2.026-1.995c0-0.454-0.136-0.847-0.499-1.18
		c-0.287-0.271-0.68-0.453-1.21-0.695l-0.907-0.423c-0.393-0.182-0.892-0.393-1.345-0.832c-0.439-0.423-0.696-0.892-0.696-1.648
		c0-1.557,1.194-2.6,2.827-2.6c0.62,0,1.119,0.121,1.618,0.453c0.408,0.272,0.756,0.681,0.983,1.119L36.222,5.945z"/>
	<path fill="#9BABBA" d="M45.853,5.945c-0.136-0.272-0.363-0.575-0.589-0.756c-0.197-0.151-0.56-0.348-1.134-0.348
		c-0.998,0-1.694,0.62-1.694,1.557c0,0.393,0.105,0.62,0.378,0.877c0.302,0.302,0.681,0.469,1.058,0.635l0.968,0.423
		c0.59,0.257,1.134,0.53,1.558,0.952c0.514,0.514,0.726,1.104,0.726,1.83c0,1.86-1.376,3.1-3.19,3.1
		c-0.666,0-1.497-0.137-2.193-0.817c-0.499-0.484-0.802-1.179-0.938-1.784l1.089-0.302c0.076,0.529,0.318,0.983,0.605,1.284
		c0.439,0.439,0.937,0.56,1.452,0.56c1.376,0,2.026-0.983,2.026-1.995c0-0.454-0.136-0.847-0.499-1.18
		c-0.287-0.271-0.681-0.453-1.21-0.695l-0.908-0.423c-0.392-0.182-0.892-0.393-1.345-0.832c-0.439-0.423-0.696-0.892-0.696-1.648
		c0-1.557,1.194-2.6,2.828-2.6c0.62,0,1.119,0.121,1.618,0.453c0.408,0.272,0.756,0.681,0.983,1.119L45.853,5.945z"/>
	<path fill="#9BABBA" d="M58.056,8.274l4.295-4.324h1.512l-4.718,4.702l4.869,5.383h-1.543l-4.128-4.627l-0.287,0.287v4.34h-1.119
		V3.949h1.119V8.274z"/>
	<path fill="#9BABBA" d="M68.761,3.949v10.085h-1.119V3.949H68.761z"/>
	<path fill="#9BABBA" d="M75.959,5.008v9.027H74.84V5.008h-2.45V3.949h6.019v1.058H75.959z"/>
</g>
</svg>
