<?xml version="1.0" encoding="utf-8"?>
<!-- Generator: Adobe Illustrator 17.0.0, SVG Export Plug-In . SVG Version: 6.00 Build 0)  -->
<!DOCTYPE svg PUBLIC "-//W3C//DTD SVG 1.1//EN" "http://www.w3.org/Graphics/SVG/1.1/DTD/svg11.dtd">
<svg version="1.1" id="Слой_2" xmlns="http://www.w3.org/2000/svg" xmlns:xlink="http://www.w3.org/1999/xlink" x="0px" y="0px"
	 width="380px" height="280px" viewBox="0 0 380 280" enable-background="new 0 0 380 280" xml:space="preserve">
<g>
	<polygon fill="#DC8B00" points="273.259,280 303.945,206.089 334.631,216.153 315.328,280 	"/>
	<polygon fill="#FFFFFF" points="310.529,208.248 314.337,196.356 337.105,209.224 334.631,216.153 	"/>
	<path fill="#1E1E1E" d="M370.824,194.213c-1.118,3.124-4.557,4.751-7.681,3.634l-57.19-20.455
		c-1.501-0.537-2.727-1.648-3.409-3.088c-0.681-1.441-0.762-3.093-0.226-4.593l8.825-24.671c1.118-3.124,4.557-4.751,7.681-3.634
		l57.189,20.458c3.124,1.118,4.751,4.557,3.634,7.681L370.824,194.213z"/>
	
		<rect x="315.988" y="156.017" transform="matrix(0.9416 0.3368 -0.3368 0.9416 77.0569 -104.9374)" fill="#67EBFF" width="49.99" height="27.221"/>
	<path fill="#FFC187" d="M314.337,196.356l-3.808-17.326l30.454,11.832l3.866-5.398c0,0-4.775-12.868,5.618-15.838l7.919,18.414
		l-21.282,21.185L314.337,196.356z"/>
	<path fill="#FFC187" d="M369.361,159.421c0,0-2.146-9.191-10.312-3.712l-3.789,5.808l8.077,4.423L369.361,159.421z"/>
	<path fill="#FFC187" d="M356.078,154.72c0,0-2.393-9.273-10.56-3.793l-4.535,7.339l8.119,3.972L356.078,154.72z"/>
	<path fill="#FFC187" d="M343.674,149.87c0,0-2.37-8.823-10.536-3.344l-2.958,4.779l6.926,3.656L343.674,149.87z"/>
	<path fill="#FFC187" d="M331.56,145.961c0,0-0.816-8.119-9.059-3.24L331.56,145.961z"/>
	<circle fill="#686868" cx="369.648" cy="180.498" r="3.674"/>
</g>
</svg>
