<?xml version="1.0" encoding="utf-8"?>
<!-- Generator: Adobe Illustrator 17.0.0, SVG Export Plug-In . SVG Version: 6.00 Build 0)  -->
<!DOCTYPE svg PUBLIC "-//W3C//DTD SVG 1.1//EN" "http://www.w3.org/Graphics/SVG/1.1/DTD/svg11.dtd">
<svg version="1.1" id="Слой_1" xmlns="http://www.w3.org/2000/svg" xmlns:xlink="http://www.w3.org/1999/xlink" x="0px" y="0px"
	 width="380px" height="280px" viewBox="0 0 380 280" enable-background="new 0 0 380 280" xml:space="preserve">
<polygon fill="#D48D46" points="273.088,276.17 302.984,204.159 332.881,213.965 314.075,276.17 "/>
<polygon fill="#FFFFFF" points="309.4,206.263 313.11,194.677 335.292,207.214 332.881,213.965 "/>
<path fill="#1C1C1C" d="M368.144,192.589c-1.089,3.044-4.44,4.629-7.484,3.54L304.941,176.2c-1.462-0.523-2.657-1.605-3.321-3.008
	c-0.663-1.404-0.743-3.013-0.22-4.475l8.598-24.036c1.089-3.044,4.44-4.629,7.483-3.54l55.719,19.932
	c3.044,1.089,4.629,4.44,3.54,7.483L368.144,192.589z"/>
<rect x="314.718" y="155.376" transform="matrix(0.9416 0.3368 -0.3368 0.9416 76.6112 -104.3511)" fill="#78C2DB" width="48.705" height="26.521"/>
<path fill="#EFBE8E" d="M313.11,194.677l-3.71-16.881l29.671,11.528l3.767-5.26c0,0-4.652-12.537,5.474-15.43l7.716,17.94
	l-20.735,20.64L313.11,194.677z"/>
<path fill="#EFBE8E" d="M366.718,158.692c0,0-2.091-8.955-10.047-3.616l-3.692,5.659l7.87,4.31L366.718,158.692z"/>
<path fill="#EFBE8E" d="M353.777,154.111c0,0-2.331-9.034-10.288-3.696l-4.419,7.15l7.911,3.869L353.777,154.111z"/>
<path fill="#EFBE8E" d="M341.692,149.387c0,0-2.309-8.597-10.265-3.258l-2.882,4.656l6.748,3.562L341.692,149.387z"/>
<path fill="#EFBE8E" d="M329.89,145.578c0,0-0.795-7.911-8.826-3.156L329.89,145.578z"/>
<circle fill="#686868" cx="366.998" cy="179.227" r="3.58"/>
</svg>
