<?xml version="1.0" encoding="utf-8"?>
<!-- Generator: Adobe Illustrator 17.0.0, SVG Export Plug-In . SVG Version: 6.00 Build 0)  -->
<!DOCTYPE svg PUBLIC "-//W3C//DTD SVG 1.1//EN" "http://www.w3.org/Graphics/SVG/1.1/DTD/svg11.dtd">
<svg version="1.1" id="Слой_1" xmlns="http://www.w3.org/2000/svg" xmlns:xlink="http://www.w3.org/1999/xlink" x="0px" y="0px"
	 width="380px" height="280px" viewBox="0 0 380 280" enable-background="new 0 0 380 280" xml:space="preserve">
<polygon fill="#FAF4B9" points="58.837,128.547 14.511,116.954 42.47,144.912 "/>
<polygon fill="#F1BF44" points="58.837,128.547 70.429,172.872 42.47,144.912 "/>
<path fill="#44A9D7" d="M245.602,276.17V61.106h-31.826l-13.502,126.338c0,0-96.441,54.971-111.872-49.185H59.47
	c0,0-7.715,70.403,72.331,102.228v35.683H245.602z"/>
<path fill="#4A7FC1" d="M200.274,187.444c0,0-7.071,4.025-17.679,7.834v80.892h63.007V61.106h-31.826L200.274,187.444z"/>
<path fill="#D45443" d="M149.482,200.945c5.457,22.144,24.832,28.25,44.845,33.536c13.794-16.7,1.365-25.478-3.216-39.805
	l9.818-12.195c9,17.04,18.472,40.104-6.924,55.213c0,0-56.739-6.209-59.312-38.358L149.482,200.945z"/>
<path fill="#EFBE8E" d="M156.295,201.494c0,0-14.771-52.306-16.7-61.308l-3.454-5.039l5.144-3.055c0,0,15.915-24.431,44.203-38.577
	l-5.142,8.68l11.412-4.502l-2.573,13.826l6.912-5.467l-0.644,10.506l13.344-10.667c0,0-2.413,62.265-8.522,81.553
	C200.274,187.444,198.025,213.965,156.295,201.494z"/>
<path fill="#EFBE8E" d="M216.877,61.132c0,0-7.073-15.431-14.789-19.93l6.429-7.074l3.215-20.573l33.433,7.071l-1.285,40.505
	H216.877z"/>
<path fill="#CD9D76" d="M196.477,105.209l-7.293,6.871l2.573-14.387l-8.68,3.424l3.797-7.602c-2.449,0.768-2.527,0.846-4.803,1.809
	l1.168,108.835c15.878-3.184,17.035-16.715,17.035-16.715c6.109-19.288,8.028-82.115,8.028-82.115l-12.85,11.228L196.477,105.209z"
	/>
<path fill="#DB7758" d="M144.459,163.16c0,0-7.353,3.549-3.979,11.265c0,0,1.447,5.304,8.68,4.34L144.459,163.16z"/>
<path fill="#DB7758" d="M206.694,148.547c0,0,5.786,1.96,4.671,7.795c0,0-0.965,5.545-6.268,5.063L206.694,148.547z"/>
<circle fill="#F5CB63" cx="200.953" cy="243.485" r="17.049"/>
<path fill="#EFBE8E" d="M59.47,138.259h25.075l15.43-22.664l-4.339-7.715l-16.878,1.929c-3.857-1.929-3.857-15.431-3.857-15.431
	l-23.146,22.664l9.403,20.777L59.47,138.259z"/>
<polygon fill="#CD9D76" points="70.186,116.926 81.591,138.3 84.545,138.259 99.975,115.595 97.082,110.392 "/>
<path fill="#FAF4B9" d="M135.157,51.955l-64.971,64.971c0,0,2.682-44.962,43.83-86.109L135.157,51.955z"/>
<path fill="#F1BF44" d="M135.157,51.955l-64.971,64.971c0,0,44.964-2.68,86.109-43.829L135.157,51.955z"/>
<polygon fill="#DB7758" points="166.441,166.57 183.077,161.507 168.439,140.186 "/>
<path fill="#84493F" d="M166.832,173.942c0,0,7.403,1.446,17.047-5.305c0,0,3.376,15.913-4.34,17.842
	C179.539,186.479,170.035,188.499,166.832,173.942z"/>
<path fill="#84493F" d="M193.241,150.48c-2.799-5.534-7.422-4.412-7.422-4.412c-3.882,0.501-5.24,4.024-5.312,7.157
	C183.197,146.627,190.129,147.311,193.241,150.48z"/>
<path fill="#84493F" d="M164.732,155.38c-2.558-4.806-7.446-4.337-7.446-4.337c-3.969,0.416-5.496,4.016-5.568,6.61
	C152.481,155.434,157.286,150.815,164.732,155.38z"/>
<path fill="#F1BF44" d="M114.016,30.818l-12.274-12.276c0,0-31.803,26.209-20.769,60.015l0.006-0.004
	C87.43,64.068,97.684,47.147,114.016,30.818z"/>
<path fill="#DBAB48" d="M156.295,73.097l12.052,12.496c0,0-25.308,31.807-58.91,20.159l0,0
	C123.452,99.483,139.672,89.13,156.295,73.097z"/>
<polygon fill="#44A9D7" points="213.776,61.106 209.357,102.758 245.683,126.949 245.602,61.106 "/>
<path fill="#DBAB48" d="M195.727,231.607c-0.228,0.111-0.441,0.243-0.659,0.367l11.652,23.583c0.232-0.1,0.466-0.186,0.693-0.299
	c6.531-3.229,9.211-11.138,5.982-17.669C210.169,231.057,202.259,228.379,195.727,231.607z"/>
<path fill="#766151" d="M197.381,113.504l3.857-16.715l-10.929,12.858l3.858-14.787l-10.289,5.143l6.431-9.645
	c-32.79,10.286-50.149,39.863-50.149,39.863l-7.071,3.216l5.142,7.715c0.697,3.252,3.251,12.036,6.223,21.922l4.705,4.46
	l-5.142-26.118c0,0,8.599-23.79,53.604-17.04l3.331,36.166l5.729-12.077c2.596-23.323,4.201-47.176,4.201-47.176L197.381,113.504z"
	/>
<path fill="#766151" d="M153.741,126.546c0,0,13.743,7.234,21.94,3.617c0,0-7.474-0.965-9.403-7.957L153.741,126.546z"/>
<path fill="#EBEAEA" d="M166.832,173.942c0,0,6.679,1.344,17.047-5.305l0.603,2.996c0,0-6.269,6.148-17.118,4.942L166.832,173.942z"
	/>
<polygon fill="#DBAB48" points="36.674,68.441 39.217,63.137 47.897,73.097 "/>
<polygon fill="#DBAB48" points="67.825,11.924 72.16,9.999 73.879,19.898 "/>
<polygon fill="#DBAB48" points="128.267,2.219 131.801,2.219 128.267,13.556 "/>
<polygon fill="#DBAB48" points="174.759,25.365 178.737,28.9 170.942,33.722 "/>
<polygon fill="#DBAB48" points="193.241,66.511 186.874,70.049 194.487,70.049 "/>
<path fill="#CD9D76" d="M214.098,42.081c0,0,7.716-7.395,6.429-12.537l3.1,10.286l20.858,2.25l-0.605,19.025
	C243.88,61.106,230.815,45.295,214.098,42.081z"/>
</svg>
