<?xml version="1.0" encoding="utf-8"?>
<!-- Generator: Adobe Illustrator 17.0.0, SVG Export Plug-In . SVG Version: 6.00 Build 0)  -->
<!DOCTYPE svg PUBLIC "-//W3C//DTD SVG 1.1//EN" "http://www.w3.org/Graphics/SVG/1.1/DTD/svg11.dtd">
<svg version="1.1" id="Слой_2" xmlns="http://www.w3.org/2000/svg" xmlns:xlink="http://www.w3.org/1999/xlink" x="0px" y="0px"
	 width="380px" height="280px" viewBox="0 0 380 280" enable-background="new 0 0 380 280" xml:space="preserve">
<g>
	<polygon fill="#FFF8B8" points="60.607,132.021 16.174,120.399 44.201,148.425 	"/>
	<polygon fill="#FFC217" points="60.607,132.021 72.227,176.453 44.201,148.425 	"/>
	<path fill="#00B2EB" d="M247.823,280V64.416H215.92L202.386,191.06c0,0-96.674,55.104-112.142-49.304H61.241
		c0,0-7.733,70.573,72.506,102.475V280H247.823z"/>
	<path fill="#0080E0" d="M202.386,191.06c0,0-7.088,4.035-17.722,7.853V280h63.159V64.416H215.92L202.386,191.06z"/>
	<path fill="#F23E00" d="M151.472,204.593c5.47,22.198,24.892,28.319,44.954,33.618c13.827-16.74,1.369-25.54-3.223-39.901
		l9.842-12.224c9.021,17.081,18.517,40.201-6.941,55.346c0,0-56.876-6.224-59.455-38.45L151.472,204.593z"/>
	<path fill="#FFC187" d="M158.301,205.143c0,0-14.807-52.433-16.74-61.456l-3.463-5.051l5.156-3.062c0,0,15.953-24.49,44.31-38.67
		l-5.155,8.701l11.439-4.513l-2.579,13.859l6.929-5.48l-0.646,10.531l13.376-10.693c0,0-2.419,62.415-8.542,81.75
		C202.386,191.06,200.132,217.645,158.301,205.143z"/>
	<path fill="#FFC187" d="M219.029,64.442c0,0-7.09-15.468-14.824-19.978l6.445-7.091l3.223-20.622l33.514,7.089l-1.288,40.603
		H219.029z"/>
	<path fill="#D19D74" d="M198.579,108.626l-7.311,6.888l2.579-14.422l-8.701,3.433l3.806-7.621c-2.455,0.77-2.534,0.848-4.814,1.813
		l1.171,109.098c15.917-3.191,17.076-16.756,17.076-16.756c6.123-19.335,8.047-82.313,8.047-82.313l-12.881,11.255L198.579,108.626z
		"/>
	<path fill="#FF7140" d="M146.436,166.717c0,0-7.371,3.558-3.988,11.292c0,0,1.451,5.317,8.701,4.35L146.436,166.717z"/>
	<path fill="#FF7140" d="M208.821,152.068c0,0,5.8,1.964,4.682,7.814c0,0-0.967,5.558-6.284,5.075L208.821,152.068z"/>
	<circle fill="#FFCF57" cx="203.067" cy="247.236" r="17.09"/>
	<path fill="#FFC187" d="M61.241,141.755h25.136l15.468-22.719l-4.35-7.733l-16.918,1.934c-3.867-1.934-3.867-15.468-3.867-15.468
		l-23.202,22.719l9.426,20.827L61.241,141.755z"/>
	<polygon fill="#D19D74" points="71.983,120.371 83.416,141.797 86.377,141.755 101.845,119.037 98.945,113.822 	"/>
	<path fill="#FFF8B8" d="M137.112,55.243l-65.128,65.128c0,0,2.689-45.07,43.936-86.317L137.112,55.243z"/>
	<path fill="#FFC217" d="M137.112,55.243l-65.128,65.128c0,0,45.073-2.686,86.318-43.935L137.112,55.243z"/>
	<polygon fill="#FF7140" points="168.471,170.135 185.147,165.059 170.474,143.688 	"/>
	<path fill="#913200" d="M168.863,177.525c0,0,7.421,1.45,17.088-5.317c0,0,3.384,15.951-4.351,17.885
		C181.601,190.093,172.074,192.117,168.863,177.525z"/>
	<path fill="#913200" d="M195.336,154.006c-2.806-5.548-7.44-4.422-7.44-4.422c-3.892,0.502-5.253,4.033-5.325,7.175
		C185.268,150.144,192.216,150.83,195.336,154.006z"/>
	<path fill="#913200" d="M166.758,158.918c-2.564-4.817-7.464-4.347-7.464-4.347c-3.979,0.417-5.51,4.025-5.581,6.626
		C154.478,158.972,159.294,154.342,166.758,158.918z"/>
	<path fill="#FFC217" d="M115.919,34.055l-12.304-12.306c0,0-31.879,26.272-20.819,60.16l0.006-0.004
		C89.27,67.386,99.549,50.423,115.919,34.055z"/>
	<path fill="#E2AC00" d="M158.301,76.436l12.081,12.526c0,0-25.369,31.884-59.053,20.208l0,0
		C125.379,102.886,141.638,92.508,158.301,76.436z"/>
	<polygon fill="#00B2EB" points="215.92,64.416 211.491,106.169 247.905,130.419 247.823,64.416 	"/>
	<path fill="#E2AC00" d="M197.828,235.33c-0.229,0.111-0.442,0.244-0.661,0.368l11.68,23.64c0.233-0.1,0.467-0.187,0.695-0.299
		c6.547-3.236,9.233-11.165,5.997-17.711C212.305,234.778,204.376,232.093,197.828,235.33z"/>
	<path fill="#776251" d="M199.486,116.941l3.867-16.756l-10.955,12.889l3.867-14.823l-10.314,5.156l6.446-9.668
		c-32.869,10.311-50.27,39.959-50.27,39.959l-7.089,3.223l5.155,7.733c0.699,3.26,3.259,12.065,6.238,21.975l4.717,4.471
		l-5.155-26.181c0,0,8.62-23.847,53.734-17.081l3.339,36.253l5.743-12.106c2.602-23.38,4.211-47.29,4.211-47.29L199.486,116.941z"/>
	<path fill="#776251" d="M155.741,130.014c0,0,13.776,7.251,21.993,3.626c0,0-7.492-0.967-9.426-7.977L155.741,130.014z"/>
	<path fill="#EAEAEA" d="M168.863,177.525c0,0,6.696,1.347,17.088-5.317l0.605,3.003c0,0-6.284,6.163-17.16,4.954L168.863,177.525z"
		/>
	<polygon fill="#E2AC00" points="38.391,71.769 40.94,66.452 49.641,76.436 	"/>
	<polygon fill="#E2AC00" points="69.617,15.116 73.962,13.186 75.686,23.108 	"/>
	<polygon fill="#E2AC00" points="130.205,5.387 133.747,5.387 130.205,16.751 	"/>
	<polygon fill="#E2AC00" points="176.809,28.588 180.797,32.132 172.984,36.966 	"/>
	<polygon fill="#E2AC00" points="195.336,69.835 188.953,73.381 196.585,73.381 	"/>
	<path fill="#D19D74" d="M216.243,45.345c0,0,7.734-7.413,6.445-12.567l3.107,10.311l20.908,2.256l-0.606,19.071
		C246.097,64.416,233.001,48.567,216.243,45.345z"/>
</g>
</svg>
