<?xml version="1.0" encoding="utf-8"?>
<!-- Generator: Adobe Illustrator 17.0.0, SVG Export Plug-In . SVG Version: 6.00 Build 0)  -->
<!DOCTYPE svg PUBLIC "-//W3C//DTD SVG 1.1//EN" "http://www.w3.org/Graphics/SVG/1.1/DTD/svg11.dtd">
<svg version="1.1" id="Слой_1" xmlns="http://www.w3.org/2000/svg" xmlns:xlink="http://www.w3.org/1999/xlink" x="0px" y="0px"
	 width="400px" height="300px" viewBox="0 0 400 300" enable-background="new 0 0 400 300" xml:space="preserve">
<path fill="#B2B2B2" d="M84.539,205.543L81.57,65.401c0,0-0.359-14.421,10.55-17.381l78.601-18.659
	c4.436-1.053,8.939,1.468,10.361,5.799l3.512,10.694l3.666,165.235l-89.114,36.789L84.539,205.543z"/>
<path fill="#0E0F10" d="M103.951,204.802L93.228,76.122c0,0-3.697-17.008,8.135-20.336l72.846-18.676c0,0,11.09-2.4,11.09,15.717
	l7.029,161.634l-2.404,18.72l-80.703,24.404L103.951,204.802z"/>
<polygon fill="#595959" points="99.144,74.276 179.385,54.309 185.299,211.831 113.193,235.122 "/>
<rect x="113.768" y="141.503" transform="matrix(0.9991 -0.0419 0.0419 0.9991 -6.1676 5.0002)" fill="#5AAE62" width="4.991" height="16.417"/>
<rect x="124.645" y="130.043" transform="matrix(0.9991 -0.0417 0.0417 0.9991 -5.8106 5.4224)" fill="#5AAE62" width="4.991" height="24.049"/>
<rect x="135.463" y="115.699" transform="matrix(0.9991 -0.042 0.042 0.9991 -5.4688 5.9175)" fill="#5AAE62" width="4.993" height="34.568"/>
<rect x="146.366" y="105.627" transform="matrix(0.9991 -0.0417 0.0417 0.9991 -5.1215 6.3112)" fill="#5AAE62" width="4.993" height="40.813"/>
<circle fill="#DB7758" cx="249.269" cy="77.78" r="4.445"/>
<rect x="157.224" y="93.221" transform="matrix(0.9991 -0.0417 0.0417 0.9991 -4.7758 6.7593)" fill="#5AAE62" width="4.991" height="49.393"/>
<rect x="168.082" y="80.867" transform="matrix(0.9991 -0.0421 0.0421 0.9991 -4.4703 7.2749)" fill="#5AAE62" width="4.991" height="57.921"/>
<polygon opacity="0.4" fill="#0E0F10" points="107.937,174.941 181.078,99.418 185.299,211.831 111.9,235.122 "/>
<polygon fill="#A26745" points="70.949,193.8 56.807,225.138 76.496,235.122 "/>
<path fill="#A44E45" d="M76.496,217.096c0,0-19.689,13.034-25.236,18.858l11.371,25.791c0,0,11.369-11.925,18.58-14.976
	L76.496,217.096z"/>
<path fill="#44A9D7" d="M179.385,120.031c0,0,29.396-9.984,40.768-20.523l6.654,7.211l19.691-14.422
	c0,0,31.061,17.472,42.154,23.296c0,0-11.326,16.735-20.246,30.783l-3.883,16.917l11.094,78.206l5.547,12.757l-4.715,3.328
	l-10.262-11.647l-21.353-50.196l-13.035-1.941l-14.143,47.423l-7.766-4.437c0,0,1.387-76.82,3.051-99.838
	c0,0-26.623-1.941-33.834-4.992C179.107,131.956,177.721,124.468,179.385,120.031z"/>
<path fill="#8C62A5" d="M209.891,236.786l7.766,4.437l14.143-47.423l13.035,1.941l21.353,50.196l10.262,11.647l4.715-3.328
	l-5.547-12.757l-9.772-68.898l-54.422-5.332C210.514,196.959,209.891,236.786,209.891,236.786z"/>
<path fill="#EFBE8E" d="M220.152,99.509c0,0-1.203-37.994-1.02-43.354c0,0,6.604-9.713,15.293-15.63l0.609,5.001l7.209-3.883
	l-0.832,6.24L250.287,44l-0.416,7.626l5.824-2.496c0,0-7.166,15.899-9.197,43.168l-19.691,14.422L220.152,99.509z"/>
<path fill="#54975F" d="M155.348,257.585l14.053,4.16l0.723,9.623h43.213l-2.521-21.084l13.684-5.179l-12.203-19.595l-14.42-1.482
	c0,0-6.076,13.407-19.309,3.189l-10.643,2.357L155.348,257.585z"/>
<polygon fill="#A44E45" points="325.25,193.85 337.855,223.21 326.752,247.97 317.633,240.177 "/>
<path fill="#D39A6B" d="M178.566,227.218v-3.189c0,0-11.939-19.967-9.443-33.557c0,0,18.027-6.378,27.732-8.319
	c0,0,2.219,17.749,0,34.943l1.02,6.933l-3.238,9.152h-12.756L178.566,227.218z"/>
<polygon fill="#BA8A61" points="299.189,158.579 299.189,179.475 307.141,183.543 "/>
<polygon fill="#EFBE8E" points="158.117,258.404 154.326,271.368 170.123,271.368 169.4,261.745 "/>
<polygon fill="#EFBE8E" points="222.695,245.786 233.609,267.292 230.314,271.368 213.336,271.368 210.814,250.284 "/>
<polygon fill="#D45443" points="325.812,195.928 321.746,235.122 335.019,271.368 295.703,271.368 298.451,204.434 309.545,192.231 
	"/>
<polygon fill="#D8685B" points="302.518,193.8 294.385,202.215 294.385,267.66 305.107,267.66 305.107,205.911 309.545,196.296 "/>
<path fill="#EEB762" d="M306.217,143.422c0,0-15.162,5.546-5.918,22.923c9.246,17.381-1.109,21.818-5.914,22.559
	c0,0,34.017,36.976,54.355-11.834c0,0-10.355,0.979-16.271-15.898C329.848,153.691,322.853,139.999,306.217,143.422z"/>
<polygon fill="#EFBE8E" points="179.385,120.031 167.182,110.047 163.299,113.098 168.014,120.031 168.846,129.183 179.107,131.956 
	"/>
<path fill="#FFFFFF" d="M224.689,71.915c0,2.457-1.99,4.445-4.447,4.445c-2.451,0-4.443-1.988-4.443-4.445
	c0-2.453,1.992-4.444,4.443-4.444C222.699,67.471,224.689,69.462,224.689,71.915z"/>
<polygon fill="#CD9D76" points="226.807,106.72 235.736,58.844 241.68,61.229 243.066,80.681 249.092,74.307 246.498,92.298 "/>
<circle fill="#FFFFFF" cx="233.608" cy="71.915" r="4.444"/>
<circle fill="#757575" cx="87.773" cy="80.113" r="3.752"/>
<circle fill="#757575" cx="88.931" cy="95.667" r="3.751"/>
<polygon fill="#757575" points="166.697,36.696 146.258,40.524 145.693,37.526 166.133,33.697 "/>
<path fill="#D48D46" d="M152.762,195.186l-3.328-8.319l-4.992,1.108l0.832,15.809c0,0-10.539,9.706-19.967,9.429l-12.203-11.925
	l-23.018-12.48l-0.277-5.823l7.209-7.211c0,0-6.377-18.026-5.822-23.572l-1.387-9.152l-3.605,0.277l-0.277-4.159l-5.824,1.941
	v-8.875c0,0-18.025,9.43-21.076,17.472c0,0,14.838,59.36,19.533,114.697h39.172c0.34-11.761,0.35-23.836-0.467-32.608l12.201,4.992
	c0,0,22.188-15.531,29.951-31.615v-12.203L152.762,195.186z"/>
<path fill="#766151" d="M251.295,49.208l1.59-9.013l-9.445,5.686l1.662-8.875l-9.15,6.472v-6.472
	c-8.691,5.917-16.826,19.043-16.826,19.043l3.984,1.401l8.586,3.778l0.566-3.778l9.418,3.778l1.387,19.452l6.025-6.374l0.01-0.018
	c3.762-17.397,9.773-28.593,9.773-28.593L251.295,49.208z"/>
<polygon fill="#FFFFFF" points="92.682,66.325 81.568,60.035 86.967,50.678 98.078,56.967 "/>
<path fill="#B2B2B2" d="M196.855,182.152c-9.705,1.941-27.732,8.319-27.732,8.319c-2.496,13.59,9.443,33.557,9.443,33.557
	l11.357,3.189l-1.664-6.309h9.156l-0.561-3.813C199.074,199.901,196.855,182.152,196.855,182.152z"/>
<polygon fill="#D39A6B" points="168.014,261.336 165.74,271.368 170.123,271.368 169.4,261.745 "/>
<path fill="#4986C4" d="M294.617,271.361c1.242-0.992,2.74-1.636,4.549-1.636c0.172,0,0.346,0.006,0.521,0.018
	c2.848-0.209,5.229,0.481,7.205,1.618h1.795c-2.689-1.984-5.701-2.861-9.002-2.616c-2.83-0.184-4.994,0.946-6.645,2.616H294.617z"/>
<polygon fill="#D39A6B" points="213.81,249.15 220.613,264.614 218.697,271.368 213.336,271.368 210.814,250.284 "/>
<polygon fill="#5DAF61" points="167.924,229.575 178.566,227.218 181.266,232.071 165.432,235.122 "/>
<polygon fill="#5DAF61" points="197.875,224.028 196.133,228.951 215.545,230.73 212.295,225.511 "/>
<path fill="#E2E1E2" d="M168.521,190.661l0.42,6.838l28.664-6.069l-0.75-9.277C196.855,182.152,178.228,186.313,168.521,190.661z"/>
<rect x="294.385" y="267.66" fill="#EFBE8E" width="10.535" height="3.708"/>
<path fill="#F6E646" d="M89.809,143.049l-3.605,0.277l-0.277-4.159l-5.824,1.941v-8.875c0,0-18.025,9.43-21.076,17.472
	c0,0,3.262,13.052,7.209,32.612l0,0l15.334,2.333l-5.072-22.741l10.076,1.48l4.123-14.486L89.809,143.049z"/>
<path fill="#E2E1E2" d="M67.719,189.826l22.367-1.019l23.018,12.48l-7.859,17.751l12.02,12.755c0,0,2.299,20.964,0.547,29.526
	l-40.373-8.515C77.437,252.806,69.484,197.046,67.719,189.826z"/>
<path fill="#4C7DA5" d="M265.846,172.602l-1.322-9.308l3.883-16.917c8.92-14.048,20.246-30.783,20.246-30.783
	c-11.094-5.824-42.154-23.296-42.154-23.296l-19.691,14.422l23.316,64.342L265.846,172.602z"/>
<polygon fill="#CD9D76" points="264.523,163.294 268.406,146.377 256.527,140.477 255.141,144.915 260.271,149.476 "/>
<polygon fill="#715592" points="250.123,171.061 271.492,212.429 265.846,172.602 "/>
<polygon fill="#405075" points="259.301,117.919 260.809,131.956 265.799,122.236 "/>
<rect x="217.82" y="65.909" fill="#766151" width="5.572" height="2.127"/>
<rect x="230.82" y="65.909" fill="#766151" width="5.574" height="2.127"/>
<rect x="217.312" y="70.112" fill="#766151" width="3.606" height="3.605"/>
<rect x="230.82" y="70.112" fill="#766151" width="3.605" height="3.605"/>
<polygon fill="#84493F" points="239.002,82.964 234.426,91.098 227.824,91.098 "/>
<polygon fill="#DB7758" points="227.824,70.112 216.793,85.46 224.689,85.46 "/>
<path fill="#B85055" d="M117.492,271.368c0.129-3.293,0.24-6.665,0.318-10.048l-40.373-8.515c0.67,6.218,1.217,12.428,1.637,18.563
	H117.492z"/>
</svg>
