<?xml version="1.0" encoding="utf-8"?>
<!-- Generator: Adobe Illustrator 17.0.0, SVG Export Plug-In . SVG Version: 6.00 Build 0)  -->
<!DOCTYPE svg PUBLIC "-//W3C//DTD SVG 1.1//EN" "http://www.w3.org/Graphics/SVG/1.1/DTD/svg11.dtd">
<svg version="1.1" id="Слой_1" xmlns="http://www.w3.org/2000/svg" xmlns:xlink="http://www.w3.org/1999/xlink" x="0px" y="0px"
	 width="320px" height="580px" viewBox="0 0 320 580" enable-background="new 0 0 320 580" xml:space="preserve">
<g>
	<circle fill="#50BE64" cx="298.256" cy="117.47" r="5.449"/>
	<circle fill="#50BE64" cx="40.079" cy="54.648" r="5.449"/>
	<circle fill="#B6423E" cx="224.126" cy="114.726" r="5.449"/>
	<circle fill="#B6423E" cx="242.36" cy="86.632" r="5.449"/>
	<circle fill="#4C76C9" cx="247.809" cy="92.08" r="5.449"/>
	<circle fill="#B6423E" cx="269.265" cy="65.546" r="5.449"/>
	<circle fill="#B6423E" cx="258.706" cy="54.648" r="5.449"/>
	<circle fill="#B1D92A" cx="123.039" cy="81.183" r="5.449"/>
	<circle fill="#B1D92A" cx="236.911" cy="17.15" r="5.449"/>
	<circle fill="#FF50B4" cx="175.905" cy="151.416" r="5.449"/>
	<circle fill="#B6423E" cx="184.487" cy="178.594" r="5.449"/>
	<circle fill="#B1D92A" cx="153.362" cy="187.176" r="5.449"/>
	<circle fill="#50BE64" cx="147.913" cy="192.625" r="5.449"/>
	<circle fill="#50BE64" cx="153.362" cy="156.864" r="5.449"/>
	<circle fill="#B1D92A" cx="117.59" cy="162.313" r="5.449"/>
	<circle fill="#B6423E" cx="108.675" cy="145.967" r="5.449"/>
	<circle fill="#50BE64" cx="77.683" cy="128.368" r="5.449"/>
	<circle fill="#B1D92A" cx="34.63" cy="128.368" r="5.449"/>
	<circle fill="#B1D92A" cx="23.733" cy="128.368" r="5.449"/>
	<circle fill="#B32AD9" cx="20.571" cy="181.727" r="5.449"/>
	<circle fill="#B1D92A" cx="40.079" cy="176.278" r="5.449"/>
	<circle fill="#B1D92A" cx="77.683" cy="181.727" r="5.449"/>
	<circle fill="#B1D92A" cx="83.132" cy="243.144" r="5.449"/>
	<circle fill="#B1D92A" cx="58.611" cy="229.612" r="5.449"/>
	<circle fill="#B6423E" cx="114.124" cy="218.714" r="5.449"/>
	<circle fill="#B6423E" cx="192.593" cy="207.817" r="5.449"/>
	<circle fill="#B1D92A" cx="198.042" cy="198.074" r="5.449"/>
	<circle fill="#B1D92A" cx="244.769" cy="221.437" r="5.449"/>
	<circle fill="#50BE64" cx="253.258" cy="187.176" r="5.449"/>
	<circle fill="#B1D92A" cx="187.144" cy="310.542" r="5.449"/>
	<circle fill="#B1D92A" cx="153.362" cy="267.756" r="5.449"/>
	<circle fill="#B6423E" cx="47.713" cy="273.205" r="5.449"/>
	<circle fill="#B1D92A" cx="42.264" cy="283.957" r="5.449"/>
	<circle fill="#B1D92A" cx="31.469" cy="289.406" r="5.449"/>
	<circle fill="#B6423E" cx="54.832" cy="305.093" r="5.449"/>
	<circle fill="#E960A8" cx="119.573" cy="324.724" r="5.449"/>
	<circle fill="#4C76C9" cx="171.137" cy="335.505" r="5.449"/>
	<circle fill="#4C76C9" cx="213.572" cy="299.644" r="5.449"/>
	<circle fill="#B6423E" cx="247.809" cy="278.509" r="5.449"/>
	<circle fill="#4C76C9" cx="272.9" cy="294.855" r="5.449"/>
	<circle fill="#B1D92A" cx="272.9" cy="310.542" r="5.449"/>
	<circle fill="#B6423E" cx="267.451" cy="345.823" r="5.449"/>
	<circle fill="#4C76C9" cx="269.804" cy="356.721" r="5.449"/>
	<circle fill="#B6423E" cx="242.36" cy="359.342" r="5.449"/>
	<circle fill="#B6423E" cx="160.986" cy="561.662" r="5.449"/>
	<circle fill="#B6423E" cx="262.003" cy="385.924" r="5.449"/>
	<circle fill="#B6423E" cx="258.706" cy="419.857" r="5.449"/>
	<circle fill="#B1D92A" cx="216.91" cy="385.924" r="5.449"/>
	<circle fill="#B1D92A" cx="202.675" cy="380.475" r="5.449"/>
	<circle fill="#B1D92A" cx="197.226" cy="396.822" r="5.449"/>
	<circle fill="#B32AD9" cx="182.034" cy="419.857" r="5.449"/>
	<circle fill="#E960A8" cx="181.695" cy="407.719" r="5.449"/>
	<circle fill="#B1D92A" cx="160.239" cy="425.306" r="5.449"/>
	<circle fill="#FF50B4" cx="139.191" cy="413.168" r="5.449"/>
	<circle fill="#4C76C9" cx="137.76" cy="385.924" r="5.449"/>
	<circle fill="#B6423E" cx="119.573" cy="387.911" r="5.449"/>
	<circle fill="#B32AD9" cx="144.639" cy="364.791" r="5.449"/>
	<circle fill="#B32AD9" cx="119.573" cy="356.721" r="5.449"/>
	<circle fill="#4C76C9" cx="65.73" cy="345.823" r="5.449"/>
	<circle fill="#B6423E" cx="67.193" cy="353.893" r="5.449"/>
	<circle fill="#B6423E" cx="42.264" cy="345.823" r="5.449"/>
	<circle fill="#E960A8" cx="40.015" cy="362.169" r="5.449"/>
	<circle fill="#4C76C9" cx="61.744" cy="382.463" r="5.449"/>
	<circle fill="#FF50B4" cx="42.264" cy="404.471" r="5.449"/>
	<circle fill="#B1D92A" cx="42.264" cy="418.617" r="5.449"/>
	<circle fill="#50BE64" cx="56.295" cy="442.744" r="5.449"/>
	<circle fill="#4C76C9" cx="71.179" cy="439.725" r="5.449"/>
	<circle fill="#B1D92A" cx="76.628" cy="448.193" r="5.449"/>
	<circle fill="#B32AD9" cx="82.076" cy="439.725" r="5.449"/>
	<circle fill="#50BE64" cx="104.963" cy="434.276" r="5.449"/>
	<circle fill="#B32AD9" cx="114.124" cy="428.827" r="5.449"/>
	<circle fill="#B1D92A" cx="119.573" cy="439.725" r="5.449"/>
	<circle fill="#B1D92A" cx="94.065" cy="425.306" r="5.449"/>
	<circle fill="#4C76C9" cx="139.191" cy="445.174" r="5.449"/>
	<circle fill="#4C76C9" cx="122.026" cy="453.642" r="5.449"/>
	<circle fill="#B32AD9" cx="87.525" cy="461.816" r="5.449"/>
	<circle fill="#B1D92A" cx="72.642" cy="461.816" r="5.449"/>
	<circle fill="#B32AD9" cx="133.742" cy="488.994" r="5.449"/>
	<circle fill="#50BE64" cx="143.209" cy="499.892" r="5.449"/>
	<circle fill="#B6423E" cx="119.573" cy="497.46" r="5.449"/>
	<circle fill="#B1D92A" cx="110.412" cy="505.341" r="5.449"/>
	<circle fill="#50BE64" cx="99.514" cy="523.459" r="5.449"/>
	<circle fill="#E960A8" cx="110.412" cy="528.908" r="5.449"/>
	<circle fill="#4C76C9" cx="127.474" cy="543.827" r="5.449"/>
	<circle fill="#B1D92A" cx="132.311" cy="528.908" r="5.449"/>
	<circle fill="#B32AD9" cx="160.239" cy="550.765" r="5.449"/>
	<circle fill="#B1D92A" cx="155.537" cy="539.806" r="5.449"/>
	<circle fill="#50BE64" cx="176.247" cy="539.806" r="5.449"/>
	<circle fill="#4C76C9" cx="176.585" cy="525.231" r="5.449"/>
	<circle fill="#B6423E" cx="165.688" cy="528.908" r="5.449"/>
	<circle fill="#B6423E" cx="143.209" cy="525.231" r="5.449"/>
	<circle fill="#B1D92A" cx="154.79" cy="519.783" r="5.449"/>
	<circle fill="#FF50B4" cx="160.986" cy="534.357" r="5.449"/>
	<circle fill="#B32AD9" cx="170.798" cy="510.789" r="5.449"/>
	<circle fill="#B1D92A" cx="160.239" cy="494.443" r="5.449"/>
	<circle fill="#FF50B4" cx="176.247" cy="488.994" r="5.449"/>
	<circle fill="#50BE64" cx="170.798" cy="467.265" r="5.449"/>
	<circle fill="#B1D92A" cx="166.435" cy="456.367" r="5.449"/>
	<circle fill="#B1D92A" cx="153.362" cy="461.816" r="5.449"/>
	<circle fill="#4C76C9" cx="187.483" cy="483.545" r="5.449"/>
	<circle fill="#B6423E" cx="187.483" cy="497.46" r="5.449"/>
	<circle fill="#FF50B4" cx="222.359" cy="494.443" r="5.449"/>
	<circle fill="#50BE64" cx="213.572" cy="476.509" r="5.449"/>
	<circle fill="#B1D92A" cx="197.226" cy="492.011" r="5.449"/>
	<circle fill="#B1D92A" cx="233.256" cy="442.744" r="5.449"/>
	<circle fill="#E960A8" cx="216.91" cy="428.827" r="5.449"/>
	<circle fill="#B1D92A" cx="267.451" cy="176.278" r="5.449"/>
	<circle fill="#B32AD9" cx="224.126" cy="117.47" r="5.449"/>
	<circle fill="#B6423E" cx="95.325" cy="81.183" r="5.449"/>
</g>
</svg>
