<?xml version="1.0" encoding="utf-8"?>
<!-- Generator: Adobe Illustrator 17.0.0, SVG Export Plug-In . SVG Version: 6.00 Build 0)  -->
<!DOCTYPE svg PUBLIC "-//W3C//DTD SVG 1.1//EN" "http://www.w3.org/Graphics/SVG/1.1/DTD/svg11.dtd">
<svg version="1.1" id="Слой_2" xmlns="http://www.w3.org/2000/svg" xmlns:xlink="http://www.w3.org/1999/xlink" x="0px" y="0px"
	 width="240px" height="360px" viewBox="0 0 240 360" enable-background="new 0 0 240 360" xml:space="preserve">
<g>
	<rect fill="#348375" width="240" height="360"/>
	<polygon fill="#29AD92" points="0,275.89 127.902,275.89 240,73.868 240,0 0,0 	"/>
	<rect x="70.949" y="155.61" fill="#222222" width="95.411" height="73.238"/>
	<polygon fill="#464646" points="224.544,155.61 118.654,210.865 12.765,155.61 118.654,100.355 	"/>
	<polygon fill="#222222" points="158.479,262.603 189.32,262.603 176.892,241.183 176.892,180.157 119.948,152.915 117.361,158.304 
		170.907,183.92 170.907,241.183 	"/>
	<polygon fill="#666666" points="56.41,178.384 146.278,114.769 118.654,100.355 12.765,155.61 	"/>
</g>
<g>
	<rect y="274.274" fill="#FFFFFF" width="240" height="85.726"/>
	<g>
		<path fill="#9B9B9B" d="M229.891,351.578H10.109v-38.179h219.783V351.578z M11.106,350.582h217.788v-36.187H11.106V350.582z"/>
	</g>
	<polygon fill="#303030" points="130.082,326.554 128.038,324.513 117.145,335.389 112.002,330.254 109.918,332.334 115.062,337.47 
		115.043,337.487 117.088,339.528 117.105,339.51 117.123,339.528 119.207,337.447 119.189,337.43 	"/>
</g>
<g>
	<path fill="#AFAFAF" d="M27.944,286.629h-2.075v-2.417h4.884v14.391h-2.809V286.629z"/>
	<path fill="#AFAFAF" d="M33.909,287.967c0.259-2.612,2.225-4.078,4.687-4.078c2.765,0,4.517,1.554,4.517,3.969
		c0,0.756-0.152,2.18-1.664,3.021c0.583,0.237,2.203,1.057,2.203,3.43c0,2.955-2.291,4.616-5.142,4.616
		c-2.767,0-4.949-1.703-5.185-4.465h2.808c0.173,1.187,1.015,2.05,2.399,2.05c1.62,0,2.312-1.187,2.312-2.288
		c0-1.057-0.649-2.244-2.399-2.244H38.08v-2.028h0.388c1.384,0,1.967-0.971,1.967-1.962c0-1.144-0.756-1.899-1.901-1.899
		c-0.995,0-1.924,0.647-1.989,1.877H33.909z"/>
	<path fill="#AFAFAF" d="M47.803,288.959c0.951,0,1.686,0.733,1.686,1.683c0,0.95-0.735,1.683-1.686,1.683
		c-0.951,0-1.685-0.732-1.685-1.683C46.118,289.692,46.853,288.959,47.803,288.959z M47.803,295.539
		c0.951,0,1.686,0.734,1.686,1.683c0,0.948-0.735,1.682-1.686,1.682c-0.951,0-1.685-0.733-1.685-1.682
		C46.118,296.273,46.853,295.539,47.803,295.539z"/>
	<path fill="#AFAFAF" d="M51.089,291.396c0-4.941,2.699-7.507,5.574-7.507c2.874,0,5.575,2.567,5.575,7.529
		c0,4.941-2.701,7.507-5.575,7.507C53.788,298.925,51.089,296.359,51.089,291.396z M53.897,291.396c0,3.754,1.534,5.114,2.766,5.114
		c1.232,0,2.767-1.36,2.767-5.114c0-3.732-1.557-5.091-2.767-5.091C55.453,286.305,53.897,287.664,53.897,291.396z"/>
	<path fill="#AFAFAF" d="M63.363,291.396c0-4.941,2.7-7.507,5.574-7.507c2.875,0,5.575,2.567,5.575,7.529
		c0,4.941-2.7,7.507-5.575,7.507C66.063,298.925,63.363,296.359,63.363,291.396z M66.172,291.396c0,3.754,1.533,5.114,2.765,5.114
		c1.233,0,2.766-1.36,2.766-5.114c0-3.732-1.556-5.091-2.766-5.091C67.727,286.305,66.172,287.664,66.172,291.396z"/>
	<path fill="#AFAFAF" d="M81.19,292.432h5.618v2.417H81.19V292.432z"/>
	<path fill="#2F3D4A" d="M97.375,284.212v11.974h4.452v2.417h-7.26v-14.391H97.375z"/>
	<path fill="#2F3D4A" d="M112.565,295.992c-0.28,0.691-1.339,2.912-4.602,2.912c-1.513,0-2.658-0.431-3.587-1.315
		c-1.036-0.972-1.47-2.18-1.47-3.646c0-1.855,0.757-2.999,1.427-3.668c1.101-1.079,2.397-1.316,3.521-1.316
		c1.901,0,3.003,0.755,3.652,1.532c0.994,1.187,1.123,2.653,1.123,3.668v0.215h-7.001c0,0.561,0.151,1.166,0.454,1.575
		c0.281,0.389,0.864,0.885,1.88,0.885c0.994,0,1.75-0.474,2.183-1.229L112.565,295.992z M110.146,292.691
		c-0.217-1.273-1.255-1.877-2.226-1.877c-0.973,0-1.988,0.626-2.204,1.877H110.146z"/>
	<path fill="#2F3D4A" d="M122.053,289.26h2.636v9.343h-2.636v-1.209c-0.952,1.36-2.205,1.51-2.875,1.51
		c-2.874,0-4.776-2.243-4.776-4.983c0-2.762,1.881-4.962,4.648-4.962c0.712,0,2.117,0.129,3.003,1.51V289.26z M117.125,293.921
		c0,1.488,1.08,2.653,2.593,2.653c1.514,0,2.593-1.165,2.593-2.653c0-1.489-1.079-2.632-2.593-2.632
		C118.205,291.289,117.125,292.432,117.125,293.921z"/>
	<path fill="#2F3D4A" d="M127.196,289.26h2.636v1.403c0.41-0.798,0.971-1.187,1.166-1.294c0.411-0.259,0.93-0.41,1.557-0.41
		c0.454,0,0.82,0.108,1.123,0.215l-0.346,2.459c-0.346-0.237-0.691-0.345-1.231-0.345c-0.497,0-1.231,0.108-1.752,0.755
		c-0.497,0.625-0.517,1.424-0.517,2.071v4.488h-2.636V289.26z"/>
	<path fill="#2F3D4A" d="M134.976,289.26h2.636v1.209c0.497-0.69,1.381-1.51,2.894-1.51c0.821,0,2.031,0.237,2.766,1.143
		c0.648,0.799,0.734,1.726,0.734,2.633v5.868h-2.636v-5.092c0-0.517-0.022-1.337-0.498-1.833c-0.41-0.431-0.972-0.475-1.23-0.475
		c-0.692,0-1.232,0.237-1.621,0.82c-0.389,0.604-0.41,1.273-0.41,1.812v4.768h-2.636V289.26z"/>
	<path fill="#2F3D4A" d="M159.934,286.629h-5.186v3.214h4.97v2.417h-4.97v3.927h5.186v2.417h-7.996v-14.391h7.996V286.629z"/>
	<path fill="#2F3D4A" d="M162.267,289.26h2.637v1.209c0.497-0.69,1.383-1.51,2.895-1.51c0.821,0,2.031,0.237,2.766,1.143
		c0.648,0.799,0.734,1.726,0.734,2.633v5.868h-2.636v-5.092c0-0.517-0.021-1.337-0.498-1.833c-0.41-0.431-0.972-0.475-1.231-0.475
		c-0.692,0-1.232,0.237-1.621,0.82c-0.389,0.604-0.41,1.273-0.41,1.812v4.768h-2.637V289.26z"/>
	<path fill="#2F3D4A" d="M180.938,289.26h2.636v8.91c0,1.425-0.13,2.913-1.297,4.078c-0.649,0.647-1.772,1.317-3.694,1.317
		c-1.816,0-2.896-0.54-3.502-1.08c-0.734-0.626-1.296-1.726-1.512-2.783h2.852c0.107,0.432,0.346,0.863,0.649,1.122
		c0.518,0.475,1.23,0.497,1.598,0.497c0.756,0,1.254-0.259,1.6-0.584c0.604-0.582,0.669-1.315,0.669-2.071v-1.315
		c-0.908,1.381-2.161,1.552-2.874,1.552c-1.253,0-2.333-0.387-3.241-1.272c-0.692-0.691-1.491-1.899-1.491-3.711
		c0-1.468,0.541-2.826,1.448-3.711c0.82-0.799,1.965-1.252,3.219-1.252c1.75,0,2.571,0.949,2.938,1.51V289.26z M176.896,291.936
		c-0.431,0.388-0.842,1.014-0.842,1.985c0,0.82,0.302,1.424,0.691,1.833c0.562,0.605,1.276,0.82,1.902,0.82
		c0.649,0,1.297-0.237,1.751-0.648c0.541-0.496,0.843-1.251,0.843-2.006c0-0.885-0.389-1.489-0.756-1.877
		c-0.519-0.54-1.123-0.755-1.837-0.755C177.804,291.289,177.221,291.633,176.896,291.936z"/>
	<path fill="#2F3D4A" d="M188.717,282.875v15.728h-2.637v-15.728H188.717z"/>
	<path fill="#2F3D4A" d="M192.543,283.738c0.864,0,1.576,0.712,1.576,1.575c0,0.863-0.712,1.575-1.576,1.575
		c-0.864,0-1.576-0.712-1.576-1.575C190.967,284.449,191.679,283.738,192.543,283.738z M193.861,289.26v9.343h-2.636v-9.343H193.861
		z"/>
	<path fill="#2F3D4A" d="M201.468,291.483c-0.628-0.583-1.254-0.625-1.535-0.625c-0.626,0-1.015,0.302-1.015,0.756
		c0,0.236,0.108,0.603,0.843,0.84l0.625,0.195c0.736,0.237,1.838,0.604,2.378,1.338c0.281,0.387,0.475,0.948,0.475,1.553
		c0,0.841-0.281,1.683-1.037,2.373c-0.756,0.691-1.663,0.992-2.809,0.992c-1.943,0-3.046-0.927-3.63-1.552l1.384-1.597
		c0.516,0.605,1.296,1.079,2.073,1.079c0.735,0,1.296-0.367,1.296-1.013c0-0.583-0.474-0.82-0.82-0.949l-0.605-0.216
		c-0.669-0.237-1.448-0.539-2.01-1.122c-0.431-0.453-0.712-1.035-0.712-1.79c0-0.907,0.431-1.662,0.971-2.115
		c0.735-0.582,1.686-0.668,2.442-0.668c0.691,0,1.793,0.086,2.982,0.992L201.468,291.483z"/>
	<path fill="#2F3D4A" d="M205.098,282.875h2.637v7.593c0.497-0.69,1.381-1.51,2.894-1.51c0.822,0,2.031,0.237,2.765,1.143
		c0.648,0.799,0.736,1.726,0.736,2.633v5.868h-2.638v-5.092c0-0.517-0.021-1.337-0.497-1.833c-0.41-0.431-0.972-0.475-1.231-0.475
		c-0.692,0-1.232,0.237-1.62,0.82c-0.39,0.604-0.41,1.273-0.41,1.812v4.768h-2.637V282.875z"/>
</g>
</svg>
