<?xml version="1.0" encoding="utf-8"?>
<!-- Generator: Adobe Illustrator 17.0.0, SVG Export Plug-In . SVG Version: 6.00 Build 0)  -->
<!DOCTYPE svg PUBLIC "-//W3C//DTD SVG 1.1//EN" "http://www.w3.org/Graphics/SVG/1.1/DTD/svg11.dtd">
<svg version="1.1" id="Слой_1" xmlns="http://www.w3.org/2000/svg" xmlns:xlink="http://www.w3.org/1999/xlink" x="0px" y="0px"
	 width="240px" height="360px" viewBox="0 0 240 360" enable-background="new 0 0 240 360" xml:space="preserve">
<g>
	<rect fill="#D75F60" width="240" height="307.406"/>
	<rect y="119.52" fill="#7C4B69" width="240" height="240.48"/>
	<polygon fill="#F9E2B9" points="0,0 110.643,0 213.827,360 188.03,360 169.041,292.169 0,326.513 0,307.406 	"/>
	<polygon fill="#54714D" points="116.283,96.75 163.831,268.982 0,292.941 0,96.75 	"/>
	<polygon fill="#499ABC" points="90.701,0 0,0 0,185.744 135.965,168.042 	"/>
	<polygon fill="#E1C381" points="163.504,270.061 141.403,256.296 123.453,192.841 133.9,170.645 145.307,174.351 171.998,193.845 
		177.64,217.351 185.176,246.863 240,292.106 240,312.817 	"/>
	<path fill="#232A2B" d="M129.945,180.738l-26.557-47.608l-2.833-13.61l10.717,7.88l25.524,46.834
		C136.797,174.235,135.092,175.921,129.945,180.738z"/>
	<polygon fill="#A1906F" points="167.26,244.19 142.885,236.82 144.14,220.353 132.854,190.621 138.291,176.796 151.152,198.814 
		161.865,204.422 138.967,172.29 135.042,171.016 136.794,174.23 129.945,180.738 129.588,179.812 123.453,192.841 141.403,256.296 
		162.999,270.199 240,360 240,320.876 240,312.817 	"/>
	<polygon fill="#FFFFFF" points="102.675,129.701 108.615,125.449 100.555,119.52 	"/>
	<path fill="#FFFFFF" d="M40.6,131.519l52.398-9.402c0,0-6.197-17.194-17.073-12.089c0,0-6.573-11.284-19.742-6.717
		c0,0-8.06,2.403-9.673,13.558c0,0-12.091-1.316-13.435,7.741C33.076,124.61,32.269,131.519,40.6,131.519z"/>
	<path fill="#FFFFFF" d="M0.351,102.222l45.634-4.259c0,0-5.044-18.853-17.075-14.402c0,0-5.977-12.599-20.4-8.926
		c0,0-4.615,0.983-8.194,5.979L0.351,102.222z"/>
	<polygon opacity="0.3" fill="#17181A" points="96.848,124.61 87.59,134.561 64.289,169.685 33.812,191.815 0.05,239.116 0,286.796 
		30.473,236.82 57.44,212.471 66.792,182.234 92.359,138.503 	"/>
</g>
<g>
	<rect y="274.274" fill="#FFFFFF" width="240" height="85.726"/>
	<g>
		<path fill="#9B9C9C" d="M229.892,351.578H10.108v-38.179h219.785V351.578z M11.105,350.582h217.79v-36.187H11.105V350.582z"/>
	</g>
	<polygon fill="#2F2E2E" points="130.081,326.555 128.038,324.513 117.145,335.389 112.001,330.253 109.919,332.334 115.062,337.47 
		115.043,337.487 117.088,339.529 117.106,339.51 117.123,339.528 119.206,337.447 119.189,337.43 	"/>
</g>
<g>
	<g>
		<rect x="14.514" y="13.653" opacity="0.3" fill="#0D0F0F" width="50.873" height="44.072"/>
		<rect x="72.369" y="13.653" opacity="0.3" fill="#0D0F0F" width="49.425" height="44.072"/>
		<rect x="124.214" y="13.653" opacity="0.3" fill="#0D0F0F" width="49.425" height="44.072"/>
		<rect x="176.061" y="13.653" opacity="0.3" fill="#0D0F0F" width="49.425" height="44.072"/>
	</g>
	<polygon fill="#FFFFFF" points="37.082,30.585 37.082,36.436 37.082,42.287 45.312,36.436 	"/>
	<g>
		<path fill="#FFFFFF" d="M88.162,29.283c0-4.391,2.402-6.674,4.956-6.674c2.554,0,4.956,2.283,4.956,6.693
			c0,4.392-2.402,6.675-4.956,6.675C90.564,35.977,88.162,33.695,88.162,29.283z M90.659,29.283c0,3.337,1.364,4.546,2.459,4.546
			c1.095,0,2.459-1.209,2.459-4.546c0-3.318-1.383-4.526-2.459-4.526C92.042,24.757,90.659,25.965,90.659,29.283z"/>
		<path fill="#FFFFFF" d="M99.076,29.283c0-4.391,2.401-6.674,4.956-6.674c2.554,0,4.955,2.283,4.955,6.693
			c0,4.392-2.401,6.675-4.955,6.675C101.477,35.977,99.076,33.695,99.076,29.283z M101.573,29.283c0,3.337,1.364,4.546,2.459,4.546
			c1.095,0,2.459-1.209,2.459-4.546c0-3.318-1.383-4.526-2.459-4.526C102.957,24.757,101.573,25.965,101.573,29.283z"/>
	</g>
	<g>
		<path fill="#FFFFFF" d="M94.523,38.274h1.839v5.301c0.348-0.482,0.966-1.054,2.022-1.054c0.573,0,1.417,0.166,1.931,0.799
			c0.452,0.557,0.512,1.205,0.512,1.837v4.097h-1.84v-3.555c0-0.362-0.015-0.934-0.347-1.28c-0.287-0.301-0.679-0.331-0.86-0.331
			c-0.483,0-0.859,0.165-1.131,0.572c-0.272,0.422-0.287,0.888-0.287,1.265v3.329h-1.839V38.274z"/>
	</g>
	<g>
		<path fill="#FFFFFF" d="M145.062,42.732h1.841v0.737c0.694-0.872,1.553-0.948,1.945-0.948c1.373,0,1.901,0.858,2.066,1.19
			c0.318-0.512,0.966-1.19,2.097-1.19c1.01,0,1.509,0.467,1.764,0.799c0.423,0.557,0.453,1.114,0.453,1.837v4.097h-1.84v-3.555
			c0-0.768-0.166-1.114-0.302-1.28c-0.242-0.301-0.573-0.331-0.754-0.331c-0.498,0-0.814,0.226-1.011,0.572
			c-0.241,0.392-0.255,0.919-0.255,1.265v3.329h-1.841v-3.555c0-0.768-0.166-1.114-0.302-1.28c-0.241-0.301-0.573-0.331-0.754-0.331
			c-0.497,0-0.814,0.226-1.01,0.572c-0.242,0.392-0.256,0.919-0.256,1.265v3.329h-1.841V42.732z"/>
	</g>
	<g>
		<path fill="#FFFFFF" d="M201.325,44.283c-0.437-0.407-0.875-0.437-1.071-0.437c-0.438,0-0.709,0.212-0.709,0.527
			c0,0.166,0.075,0.422,0.588,0.588l0.436,0.135c0.513,0.165,1.283,0.422,1.66,0.934c0.197,0.271,0.331,0.662,0.331,1.084
			c0,0.588-0.195,1.175-0.723,1.657c-0.528,0.482-1.162,0.693-1.962,0.693c-1.357,0-2.127-0.648-2.534-1.085l0.965-1.115
			c0.362,0.422,0.905,0.753,1.448,0.753c0.513,0,0.906-0.256,0.906-0.708c0-0.407-0.332-0.572-0.574-0.663l-0.422-0.15
			c-0.468-0.165-1.011-0.377-1.403-0.783c-0.302-0.316-0.499-0.723-0.499-1.25c0-0.633,0.302-1.16,0.68-1.476
			c0.512-0.407,1.176-0.467,1.704-0.467c0.482,0,1.252,0.06,2.082,0.693L201.325,44.283z"/>
	</g>
	<g>
		<path fill="#FFFFFF" d="M190.406,29.283c0-4.391,2.402-6.674,4.956-6.674c2.554,0,4.956,2.283,4.956,6.693
			c0,4.392-2.402,6.675-4.956,6.675C192.808,35.977,190.406,33.695,190.406,29.283z M192.904,29.283
			c0,3.337,1.364,4.546,2.459,4.546c1.095,0,2.459-1.209,2.459-4.546c0-3.318-1.383-4.526-2.459-4.526
			C194.287,24.757,192.904,25.965,192.904,29.283z"/>
		<path fill="#FFFFFF" d="M201.32,29.283c0-4.391,2.401-6.674,4.956-6.674c2.554,0,4.955,2.283,4.955,6.693
			c0,4.392-2.401,6.675-4.955,6.675C203.722,35.977,201.32,33.695,201.32,29.283z M203.818,29.283c0,3.337,1.364,4.546,2.459,4.546
			c1.095,0,2.459-1.209,2.459-4.546c0-3.318-1.383-4.526-2.459-4.526C205.201,24.757,203.818,25.965,203.818,29.283z"/>
	</g>
	<g>
		<path fill="#FFFFFF" d="M142.148,31.412c0.23-0.268,1.728-1.975,2.19-2.666c0.345-0.518,0.749-1.304,0.749-2.052
			c0-1.151-0.826-1.937-1.902-1.937c-1.305,0-1.997,1.035-2.036,2.128h-2.574c0.115-2.608,1.96-4.277,4.495-4.277
			c2.977,0,4.514,2.033,4.514,4.066c0,1.975-1.325,3.395-2.324,4.469l-2.209,2.398h4.63v2.148h-9.297L142.148,31.412z"/>
		<path fill="#FFFFFF" d="M149.45,29.283c0-4.391,2.401-6.674,4.956-6.674c2.554,0,4.955,2.283,4.955,6.693
			c0,4.392-2.401,6.675-4.955,6.675C151.851,35.977,149.45,33.695,149.45,29.283z M151.947,29.283c0,3.337,1.364,4.546,2.459,4.546
			c1.095,0,2.459-1.209,2.459-4.546c0-3.318-1.383-4.526-2.459-4.526C153.331,24.757,151.947,25.965,151.947,29.283z"/>
	</g>
</g>
<g>
	<path fill="#AFAFAF" d="M21.189,286.38h-2.074v-2.417H24v14.391h-2.81V286.38z"/>
	<path fill="#AFAFAF" d="M35.517,284.676l-3.5,4.551c0.433-0.193,0.951-0.345,1.578-0.345c1.058,0,2.333,0.411,3.175,1.229
		c0.758,0.712,1.361,1.942,1.361,3.452c0,1.209-0.345,2.417-1.317,3.473c-1.231,1.338-2.636,1.64-4.106,1.64
		c-1.533,0-2.917-0.28-4.104-1.467c-0.777-0.777-1.405-1.877-1.405-3.495c0-1.747,0.799-3.15,1.815-4.488l4.235-5.652
		L35.517,284.676z M34.544,295.701c0.347-0.345,0.778-0.95,0.778-1.899c0-0.863-0.303-1.51-0.8-1.984
		c-0.54-0.518-1.146-0.691-1.858-0.691c-0.843,0-1.405,0.281-1.881,0.777c-0.517,0.54-0.776,1.079-0.776,1.877
		c0,0.799,0.259,1.445,0.799,1.942c0.367,0.345,0.995,0.712,1.859,0.712C33.573,296.434,34.177,296.067,34.544,295.701z"/>
	<path fill="#AFAFAF" d="M41.548,288.71c0.95,0,1.685,0.733,1.685,1.682c0,0.95-0.735,1.684-1.685,1.684
		c-0.951,0-1.686-0.733-1.686-1.684C39.861,289.443,40.597,288.71,41.548,288.71z M41.548,295.29c0.95,0,1.685,0.733,1.685,1.683
		c0,0.949-0.735,1.683-1.685,1.683c-0.951,0-1.686-0.734-1.686-1.683C39.861,296.024,40.597,295.29,41.548,295.29z"/>
	<path fill="#AFAFAF" d="M45.373,287.719c0.258-2.612,2.224-4.078,4.687-4.078c2.766,0,4.518,1.553,4.518,3.969
		c0,0.756-0.152,2.18-1.665,3.021c0.584,0.237,2.204,1.057,2.204,3.431c0,2.956-2.291,4.617-5.142,4.617
		c-2.766,0-4.949-1.704-5.186-4.465h2.808c0.174,1.187,1.016,2.049,2.4,2.049c1.619,0,2.311-1.187,2.311-2.287
		c0-1.057-0.648-2.244-2.398-2.244h-0.366v-2.028h0.388c1.384,0,1.967-0.971,1.967-1.963c0-1.143-0.757-1.898-1.9-1.898
		c-0.995,0-1.925,0.647-1.989,1.877H45.373z"/>
	<path fill="#AFAFAF" d="M57.106,291.149c0-4.942,2.701-7.509,5.575-7.509c2.874,0,5.574,2.567,5.574,7.53
		c0,4.94-2.7,7.507-5.574,7.507C59.808,298.677,57.106,296.11,57.106,291.149z M59.916,291.149c0,3.753,1.534,5.112,2.766,5.112
		c1.231,0,2.766-1.359,2.766-5.112c0-3.734-1.558-5.092-2.766-5.092C61.47,286.057,59.916,287.415,59.916,291.149z"/>
	<path fill="#AFAFAF" d="M74.933,292.183h5.619v2.417h-5.619V292.183z"/>
	<path fill="#313D49" d="M92.07,283.963c2.009,0,3.759,0.216,5.359,1.404c1.75,1.316,2.766,3.408,2.766,5.804
		c0,2.394-0.996,4.465-2.897,5.803c-1.684,1.187-3.262,1.381-5.271,1.381H88.31v-14.391H92.07z M91.119,295.938h0.864
		c0.712,0,2.269-0.043,3.521-0.95c1.146-0.819,1.793-2.287,1.793-3.818c0-1.511-0.627-2.978-1.772-3.841
		c-1.167-0.863-2.592-0.949-3.543-0.949h-0.864V295.938z"/>
	<path fill="#313D49" d="M102.399,289.012h2.637v1.403c0.41-0.798,0.97-1.187,1.166-1.295c0.41-0.259,0.929-0.41,1.557-0.41
		c0.453,0,0.82,0.108,1.122,0.216l-0.345,2.459c-0.346-0.236-0.692-0.345-1.231-0.345c-0.497,0-1.232,0.109-1.752,0.756
		c-0.496,0.625-0.516,1.423-0.516,2.071v4.488h-2.637V289.012z"/>
	<path fill="#313D49" d="M117.135,289.012h2.637v9.342h-2.637v-1.208c-0.95,1.359-2.202,1.51-2.873,1.51
		c-2.874,0-4.775-2.244-4.775-4.984c0-2.761,1.879-4.962,4.646-4.962c0.714,0,2.118,0.13,3.002,1.51V289.012z M112.211,293.672
		c0,1.489,1.079,2.654,2.592,2.654c1.511,0,2.592-1.165,2.592-2.654c0-1.489-1.081-2.632-2.592-2.632
		C113.29,291.04,112.211,292.183,112.211,293.672z"/>
	<path fill="#313D49" d="M127.12,298.354h-1.297l-4.753-9.342h2.937l2.464,5.394l2.508-5.394h1.209l2.506,5.394l2.463-5.394h2.939
		l-4.754,9.342h-1.296l-2.465-5.502L127.12,298.354z"/>
	<path fill="#313D49" d="M140.713,283.49c0.864,0,1.577,0.711,1.577,1.575c0,0.863-0.713,1.575-1.577,1.575
		c-0.864,0-1.577-0.711-1.577-1.575C139.136,284.201,139.849,283.49,140.713,283.49z M142.031,289.012v9.342h-2.636v-9.342H142.031z
		"/>
	<path fill="#313D49" d="M144.537,289.012h2.637v1.208c0.497-0.691,1.382-1.51,2.894-1.51c0.821,0,2.032,0.237,2.767,1.143
		c0.648,0.799,0.734,1.726,0.734,2.632v5.869h-2.637v-5.092c0-0.518-0.021-1.338-0.497-1.834c-0.41-0.431-0.971-0.475-1.23-0.475
		c-0.692,0-1.232,0.237-1.621,0.82c-0.389,0.604-0.41,1.273-0.41,1.812v4.768h-2.637V289.012z"/>
	<path fill="#313D49" d="M163.207,289.012h2.637v8.91c0,1.424-0.131,2.913-1.297,4.077c-0.65,0.648-1.772,1.316-3.696,1.316
		c-1.815,0-2.894-0.539-3.499-1.079c-0.735-0.626-1.298-1.725-1.514-2.783h2.852c0.109,0.432,0.346,0.863,0.649,1.122
		c0.518,0.474,1.232,0.496,1.6,0.496c0.756,0,1.253-0.259,1.598-0.583c0.606-0.582,0.67-1.315,0.67-2.071v-1.316
		c-0.907,1.381-2.161,1.554-2.874,1.554c-1.254,0-2.334-0.389-3.241-1.273c-0.691-0.691-1.491-1.899-1.491-3.712
		c0-1.467,0.541-2.827,1.449-3.711c0.82-0.798,1.966-1.251,3.218-1.251c1.751,0,2.573,0.949,2.939,1.51V289.012z M159.168,291.687
		c-0.433,0.389-0.844,1.014-0.844,1.985c0,0.82,0.304,1.424,0.692,1.834c0.563,0.604,1.275,0.82,1.901,0.82
		c0.649,0,1.297-0.237,1.751-0.648c0.54-0.496,0.843-1.251,0.843-2.007c0-0.884-0.389-1.489-0.756-1.876
		c-0.519-0.54-1.124-0.756-1.837-0.756C160.076,291.04,159.491,291.385,159.168,291.687z"/>
	<path fill="#313D49" d="M176.023,282.626v15.728h-2.636v-15.728H176.023z"/>
	<path fill="#313D49" d="M187.712,295.744c-0.281,0.69-1.338,2.913-4.601,2.913c-1.514,0-2.658-0.432-3.588-1.316
		c-1.037-0.971-1.47-2.179-1.47-3.646c0-1.855,0.758-2.998,1.427-3.667c1.101-1.08,2.398-1.316,3.521-1.316
		c1.901,0,3.003,0.755,3.653,1.532c0.994,1.186,1.122,2.653,1.122,3.668v0.215h-7.001c0,0.561,0.152,1.165,0.454,1.575
		c0.281,0.389,0.864,0.885,1.881,0.885c0.994,0,1.75-0.475,2.182-1.23L187.712,295.744z M185.293,292.443
		c-0.216-1.272-1.254-1.877-2.226-1.877c-0.973,0-1.987,0.625-2.203,1.877H185.293z"/>
	<path fill="#313D49" d="M194.909,291.234c-0.625-0.582-1.253-0.626-1.533-0.626c-0.627,0-1.017,0.302-1.017,0.756
		c0,0.237,0.109,0.604,0.844,0.841l0.627,0.194c0.734,0.237,1.836,0.604,2.376,1.338c0.281,0.388,0.475,0.949,0.475,1.553
		c0,0.841-0.282,1.683-1.037,2.373c-0.757,0.691-1.664,0.993-2.809,0.993c-1.944,0-3.047-0.928-3.631-1.554l1.383-1.596
		c0.519,0.604,1.297,1.079,2.075,1.079c0.735,0,1.296-0.367,1.296-1.014c0-0.583-0.474-0.82-0.821-0.949l-0.604-0.215
		c-0.671-0.238-1.449-0.54-2.01-1.122c-0.433-0.453-0.713-1.036-0.713-1.791c0-0.906,0.432-1.662,0.972-2.114
		c0.734-0.583,1.685-0.669,2.441-0.669c0.692,0,1.794,0.086,2.982,0.992L194.909,291.234z"/>
	<path fill="#313D49" d="M203.208,291.234c-0.627-0.582-1.255-0.626-1.535-0.626c-0.627,0-1.015,0.302-1.015,0.756
		c0,0.237,0.107,0.604,0.842,0.841l0.627,0.194c0.734,0.237,1.837,0.604,2.377,1.338c0.281,0.388,0.475,0.949,0.475,1.553
		c0,0.841-0.281,1.683-1.037,2.373c-0.756,0.691-1.664,0.993-2.809,0.993c-1.945,0-3.047-0.928-3.631-1.554l1.382-1.596
		c0.519,0.604,1.296,1.079,2.075,1.079c0.734,0,1.297-0.367,1.297-1.014c0-0.583-0.475-0.82-0.82-0.949l-0.606-0.215
		c-0.67-0.238-1.448-0.54-2.01-1.122c-0.433-0.453-0.713-1.036-0.713-1.791c0-0.906,0.433-1.662,0.973-2.114
		c0.734-0.583,1.684-0.669,2.441-0.669c0.692,0,1.792,0.086,2.982,0.992L203.208,291.234z"/>
	<path fill="#313D49" d="M208.308,295.269c0.951,0,1.684,0.733,1.684,1.683c0,0.949-0.734,1.683-1.684,1.683
		c-0.951,0-1.685-0.733-1.685-1.683C206.622,296.003,207.357,295.269,208.308,295.269z"/>
	<path fill="#313D49" d="M213.753,295.269c0.951,0,1.686,0.733,1.686,1.683c0,0.949-0.735,1.683-1.686,1.683
		c-0.951,0-1.685-0.733-1.685-1.683C212.068,296.003,212.802,295.269,213.753,295.269z"/>
	<path fill="#313D49" d="M219.198,295.269c0.951,0,1.686,0.733,1.686,1.683c0,0.949-0.735,1.683-1.686,1.683
		c-0.951,0-1.686-0.733-1.686-1.683C217.512,296.003,218.248,295.269,219.198,295.269z"/>
</g>
</svg>
