<?xml version="1.0" encoding="utf-8"?>
<!-- Generator: Adobe Illustrator 17.0.0, SVG Export Plug-In . SVG Version: 6.00 Build 0)  -->
<!DOCTYPE svg PUBLIC "-//W3C//DTD SVG 1.1//EN" "http://www.w3.org/Graphics/SVG/1.1/DTD/svg11.dtd">
<svg version="1.1" id="Слой_1" xmlns="http://www.w3.org/2000/svg" xmlns:xlink="http://www.w3.org/1999/xlink" x="0px" y="0px"
	 width="240px" height="360px" viewBox="0 0 240 360" enable-background="new 0 0 240 360" xml:space="preserve">
<g>
	<rect fill="#161717" width="240" height="359.999"/>
	<rect fill="#415977" width="240" height="248.548"/>
	<rect y="248.548" fill="#509598" width="240" height="111.451"/>
	<rect x="78.719" y="262.447" fill="#4D8685" width="161.281" height="11.691"/>
	<rect y="309.63" fill="#426F5C" width="240" height="50.369"/>
	<path fill="#333335" d="M132.156,92.565c-48.597,0-87.997,39.338-87.997,87.865c0,48.524,39.4,87.862,87.997,87.862
		c48.601,0,87.999-39.338,87.999-87.862C220.155,131.903,180.757,92.565,132.156,92.565z M132.156,252.387
		c-39.801,0-72.068-32.217-72.068-71.957c0-39.742,32.267-71.96,72.068-71.96c39.805,0,72.07,32.218,72.07,71.96
		C204.226,220.17,171.961,252.387,132.156,252.387z"/>
	<path opacity="0.5" fill="#BCBBBC" d="M60.719,189.853l71.437-9.385l-27.805-66.386c-14.946,6.233-27.89,17.503-36.005,32.943
		C61.16,160.699,58.833,175.626,60.719,189.853z"/>
	<path opacity="0.5" fill="#BCBBBC" d="M189.556,223.228L131.64,180.43l-26.187,67.038c15.085,5.885,32.238,6.754,48.819,1.278
		C168.955,243.896,181.013,234.772,189.556,223.228z"/>
	<path fill="#BCBBBA" d="M240,156.991H132.156c-12.962,0-23.471,10.494-23.471,23.439c0,12.943,10.509,23.437,23.471,23.437H240
		v-3.874h-94.919c6.356-4.194,10.552-11.388,10.552-19.563s-4.195-15.369-10.55-19.563H240V156.991z"/>
	<path fill="#333335" d="M148.662,180.43c0,9.1-7.388,16.477-16.506,16.477c-9.114,0-16.502-7.377-16.502-16.477
		c0-9.102,7.388-16.479,16.502-16.479C141.274,163.951,148.662,171.328,148.662,180.43z"/>
	<polygon fill="#8C8B8B" points="236.324,145.039 189.273,19.066 195.679,16.68 230.761,110.609 	"/>
	<path fill="#E9C347" d="M240,69.941h-22.876l-3.673-9.833l-9.097,3.387l3.973,10.64l-72.66,94.507
		c-1.113-0.33-2.289-0.514-3.51-0.514c-6.801,0-12.317,5.508-12.317,12.303c0,6.792,5.516,12.3,12.317,12.3
		c5.081,0,9.441-3.072,11.327-7.455H240v-9.692h-96.518c-0.396-0.922-0.911-1.778-1.511-2.568l69.517-90.417L240,158.929v-27.737
		l-19.257-51.559H240V69.941z"/>
	<polygon fill="#333335" points="229.027,7.466 152.021,7.466 163.451,31.494 189.583,19.896 193.805,31.195 200.065,28.42 
		196.776,19.479 229.027,19.479 	"/>
	<polygon fill="#4B84B1" points="200.065,0 161.388,0 159.841,7.466 183.906,14.674 240,44.853 240,0 	"/>
	<path fill="#45ACD2" d="M240,37.201V0h-43.212C210.766,11.892,227.33,26.209,240,37.201z"/>
	<polygon fill="#F9DF76" points="217.122,69.941 218.932,74.786 240,74.786 240,69.941 	"/>
</g>
<g>
	<rect y="274.274" fill="#FFFFFF" width="240" height="85.726"/>
	<g>
		<path fill="#9B9C9C" d="M229.892,351.578H10.108v-38.18h219.785V351.578z M11.105,350.582h217.79v-36.188H11.105V350.582z"/>
	</g>
	<polygon fill="#2F2E2E" points="130.081,326.554 128.038,324.513 117.145,335.389 112.001,330.253 109.919,332.334 115.062,337.47 
		115.043,337.487 117.088,339.529 117.106,339.51 117.123,339.528 119.206,337.447 119.189,337.43 	"/>
</g>
<g>
	<path fill="#AFAFAF" d="M69.283,286.561h-2.075v-2.416h4.883v14.39h-2.808V286.561z"/>
	<path fill="#AFAFAF" d="M84.041,293.572h1.685v2.244h-1.685v2.719h-2.636v-2.719h-7.043v-1.251l7.151-10.421h2.528V293.572z
		 M81.405,293.572v-5.479l-3.715,5.479H81.405z"/>
	<path fill="#AFAFAF" d="M88.882,288.891c0.951,0,1.686,0.733,1.686,1.683c0,0.95-0.735,1.684-1.686,1.684
		c-0.951,0-1.685-0.734-1.685-1.684C87.197,289.625,87.932,288.891,88.882,288.891z M88.882,295.472
		c0.951,0,1.686,0.734,1.686,1.682c0,0.949-0.735,1.684-1.686,1.684c-0.951,0-1.685-0.734-1.685-1.684
		C87.197,296.205,87.932,295.472,88.882,295.472z"/>
	<path fill="#AFAFAF" d="M92.708,287.899c0.259-2.611,2.226-4.078,4.689-4.078c2.766,0,4.515,1.553,4.515,3.97
		c0,0.755-0.15,2.18-1.663,3.02c0.583,0.237,2.202,1.057,2.202,3.43c0,2.956-2.289,4.618-5.141,4.618
		c-2.765,0-4.948-1.705-5.186-4.466h2.809c0.172,1.188,1.016,2.05,2.397,2.05c1.622,0,2.313-1.187,2.313-2.288
		c0-1.057-0.648-2.244-2.398-2.244h-0.367v-2.027h0.39c1.382,0,1.965-0.971,1.965-1.963c0-1.144-0.755-1.899-1.902-1.899
		c-0.993,0-1.922,0.647-1.987,1.877H92.708z"/>
	<path fill="#AFAFAF" d="M104.441,291.33c0-4.941,2.701-7.509,5.576-7.509c2.875,0,5.574,2.568,5.574,7.53
		c0,4.94-2.699,7.508-5.574,7.508C107.143,298.859,104.441,296.291,104.441,291.33z M107.251,291.33
		c0,3.754,1.534,5.113,2.766,5.113c1.231,0,2.766-1.359,2.766-5.113c0-3.733-1.556-5.091-2.766-5.091
		C108.806,286.238,107.251,287.597,107.251,291.33z"/>
	<path fill="#AFAFAF" d="M122.27,292.364h5.619v2.417h-5.619V292.364z"/>
	<path fill="#313D49" d="M139.212,284.145c0.798,0,2.355,0,3.52,0.906c0.844,0.647,1.34,1.769,1.34,2.978
		c0,1.855-1.232,2.611-1.621,2.827c0.951,0.15,1.514,0.561,1.88,0.906c0.865,0.819,1.037,1.942,1.037,2.696
		c0,0.842-0.238,2.028-1.232,2.913c-1.079,0.95-2.398,1.165-3.651,1.165h-4.841v-14.39H139.212z M138.454,290.121h0.801
		c0.432,0,2.182-0.043,2.182-1.877c0-1.316-1.015-1.813-2.162-1.813h-0.821V290.121z M138.454,296.248h1.212
		c0.517,0,1.296-0.022,1.922-0.389c0.692-0.408,0.886-1.099,0.886-1.661c0-0.452-0.152-1.228-1.06-1.639
		c-0.604-0.28-1.318-0.28-1.923-0.28h-1.038V296.248z"/>
	<path fill="#313D49" d="M148.893,283.67c0.864,0,1.577,0.712,1.577,1.575c0,0.863-0.713,1.575-1.577,1.575
		c-0.865,0-1.578-0.712-1.578-1.575C147.315,284.382,148.028,283.67,148.893,283.67z M150.211,289.194v9.341h-2.637v-9.341H150.211z
		"/>
	<path fill="#313D49" d="M155.353,282.807v9.795l3.5-3.408h3.414l-4.386,4.099l4.731,5.242h-3.501l-3.479-3.991l-0.281,0.259v3.732
		h-2.636v-15.728H155.353z"/>
	<path fill="#313D49" d="M172.727,295.924c-0.281,0.691-1.339,2.913-4.603,2.913c-1.512,0-2.657-0.432-3.586-1.316
		c-1.038-0.972-1.47-2.18-1.47-3.646c0-1.855,0.757-2.999,1.427-3.668c1.101-1.079,2.398-1.316,3.521-1.316
		c1.902,0,3.003,0.754,3.651,1.532c0.995,1.187,1.124,2.653,1.124,3.668v0.216h-7.001c0,0.56,0.152,1.165,0.453,1.574
		c0.283,0.389,0.865,0.885,1.88,0.885c0.995,0,1.751-0.475,2.183-1.229L172.727,295.924z M170.307,292.623
		c-0.217-1.272-1.254-1.876-2.226-1.876c-0.972,0-1.988,0.625-2.204,1.876H170.307z"/>
</g>
</svg>
