<?xml version="1.0" encoding="utf-8"?>
<!-- Generator: Adobe Illustrator 17.0.0, SVG Export Plug-In . SVG Version: 6.00 Build 0)  -->
<!DOCTYPE svg PUBLIC "-//W3C//DTD SVG 1.1//EN" "http://www.w3.org/Graphics/SVG/1.1/DTD/svg11.dtd">
<svg version="1.1" id="Слой_1" xmlns="http://www.w3.org/2000/svg" xmlns:xlink="http://www.w3.org/1999/xlink" x="0px" y="0px"
	 width="240px" height="360px" viewBox="0 0 240 360" enable-background="new 0 0 240 360" xml:space="preserve">
<g>
	<rect x="0" fill="#D87C6A" width="240.362" height="359.999"/>
	<rect x="0" y="219.405" fill="#A1584E" width="240.362" height="140.595"/>
	<rect x="29.318" y="235.868" fill="#693E3E" width="211.045" height="19.265"/>
	<polygon fill="#924B45" points="153.742,175.81 138.852,127.524 121.941,105.228 108.961,100.873 102.35,124.401 118.24,175.905 
		118.095,201.406 113.885,229.228 93.972,231.558 76.537,241.608 76.537,245.429 129.207,245.429 129.207,231.763 145.496,201.406 	
		"/>
	<polygon fill="#ECE2BE" points="126.324,86.138 153.745,93.659 196.949,117.806 240.363,134.124 240.363,179.096 195.308,171.412 
		159.38,171.412 118.291,161.333 100.788,106.462 	"/>
	<polygon fill="#87B0C6" points="239.966,179.542 239.966,152.377 101.184,109.394 117.895,161.778 158.984,171.859 
		194.912,171.859 	"/>
	<polygon fill="#E49A9C" points="119.777,104.091 119.777,93.659 90.393,95.519 76.633,79.03 49.527,76.223 35.161,92.745 
		35.161,116.972 67.85,139.004 72.7,132.426 93.268,136.86 93.142,123.245 109.213,123.317 117.701,150.449 119.777,150.449 	"/>
	<polygon fill="#E49A9C" points="175.62,171.412 140.711,171.412 125.247,115.614 125.247,91.499 151.654,98.732 159.275,118.409 	
		"/>
	<polygon fill="#A54E48" points="127.903,125.198 166.908,143.164 175.62,171.412 148.639,232.919 148.686,247.836 90.868,247.836 
		90.868,243.644 110.009,232.611 131.867,230.052 140.711,171.412 	"/>
	<polygon fill="#A54E48" points="40.066,120.278 67.85,139.004 72.7,132.426 93.268,136.86 93.142,123.245 109.213,123.317 
		117.701,150.449 119.777,150.449 119.777,115.153 90.933,115.093 76.537,107.709 50.065,107.709 35.161,114.975 	"/>
	<polygon fill="#824E3E" points="90.868,95.488 75.126,76.223 49.527,76.223 35.161,76.223 35.161,119.021 38.992,121.628 
		50.065,107.709 76.537,107.709 	"/>
</g>
<g>
	<rect x="-0.008" y="274.275" fill="#FFFFFF" width="240.378" height="85.725"/>
	<g>
		<path fill="#9B9C9C" d="M230.246,351.579H10.117v-38.18h220.129V351.579z M11.116,350.583h218.131v-36.188H11.116V350.583z"/>
	</g>
	<polygon fill="#2F2E2E" points="130.279,326.555 128.232,324.515 117.322,335.39 112.171,330.255 110.084,332.335 115.235,337.47 
		115.217,337.487 117.265,339.53 117.282,339.511 117.3,339.528 119.387,337.448 119.369,337.432 	"/>
</g>
<g>
	<path fill="#AFAFAF" d="M51.885,286.529h-2.077v-2.417h4.891v14.391h-2.814V286.529z"/>
	<path fill="#AFAFAF" d="M60.196,286.529h-2.077v-2.417h4.891v14.391h-2.814V286.529z"/>
	<path fill="#AFAFAF" d="M70.283,288.859c0.952,0,1.688,0.733,1.688,1.683s-0.736,1.683-1.688,1.683s-1.688-0.733-1.688-1.683
		S69.33,288.859,70.283,288.859z M70.283,295.439c0.952,0,1.688,0.733,1.688,1.683c0,0.949-0.736,1.683-1.688,1.683
		s-1.688-0.733-1.688-1.683C68.595,296.172,69.33,295.439,70.283,295.439z"/>
	<path fill="#AFAFAF" d="M73.573,291.297c0-4.941,2.705-7.509,5.584-7.509c2.878,0,5.584,2.568,5.584,7.53
		c0,4.941-2.705,7.508-5.584,7.508C76.278,298.826,73.573,296.259,73.573,291.297z M76.386,291.297c0,3.754,1.537,5.113,2.77,5.113
		c1.233,0,2.77-1.359,2.77-5.113c0-3.732-1.558-5.091-2.77-5.091C77.945,286.205,76.386,287.564,76.386,291.297z"/>
	<path fill="#AFAFAF" d="M85.866,291.297c0-4.941,2.705-7.509,5.584-7.509c2.878,0,5.584,2.568,5.584,7.53
		c0,4.941-2.705,7.508-5.584,7.508C88.571,298.826,85.866,296.259,85.866,291.297z M88.68,291.297c0,3.754,1.537,5.113,2.77,5.113
		c1.233,0,2.77-1.359,2.77-5.113c0-3.732-1.558-5.091-2.77-5.091C90.238,286.205,88.68,287.564,88.68,291.297z"/>
	<path fill="#AFAFAF" d="M103.722,292.332h5.626v2.417h-5.626V292.332z"/>
	<path fill="#313D49" d="M121.318,284.112c1.622,0,2.748,0.173,3.809,1.101c1.169,1.036,1.471,2.438,1.471,3.473
		c0,0.561-0.087,2.114-1.19,3.215c-0.8,0.799-1.991,1.273-3.657,1.273h-1.819v5.329h-2.814v-14.391H121.318z M119.932,290.757h1.147
		c0.541,0,1.233,0,1.839-0.452c0.519-0.41,0.78-1.057,0.78-1.683c0-0.799-0.389-1.338-0.801-1.639
		c-0.584-0.409-1.32-0.453-1.991-0.453h-0.974V290.757z"/>
	<path fill="#313D49" d="M130.927,289.161v5.286c0,0.496,0.044,1.165,0.563,1.64c0.325,0.281,0.844,0.475,1.342,0.475
		c0.499,0,1.018-0.194,1.343-0.475c0.519-0.475,0.562-1.143,0.562-1.64v-5.286h2.64v5.717c0,0.841-0.108,1.964-1.146,2.87
		c-0.866,0.755-2.251,1.057-3.398,1.057c-1.146,0-2.532-0.302-3.397-1.057c-1.039-0.906-1.147-2.028-1.147-2.87v-5.717H130.927z"/>
	<path fill="#313D49" d="M144.996,291.383c-0.628-0.582-1.256-0.626-1.537-0.626c-0.628,0-1.017,0.302-1.017,0.756
		c0,0.237,0.107,0.604,0.843,0.841l0.627,0.195c0.737,0.237,1.84,0.604,2.381,1.337c0.281,0.389,0.476,0.949,0.476,1.553
		c0,0.841-0.281,1.683-1.038,2.373c-0.758,0.691-1.666,0.992-2.814,0.992c-1.947,0-3.052-0.928-3.635-1.553l1.384-1.596
		c0.519,0.604,1.299,1.079,2.078,1.079c0.736,0,1.298-0.367,1.298-1.014c0-0.583-0.476-0.82-0.822-0.948l-0.607-0.216
		c-0.67-0.237-1.45-0.539-2.012-1.122c-0.433-0.453-0.715-1.036-0.715-1.791c0-0.906,0.433-1.661,0.975-2.114
		c0.736-0.582,1.688-0.669,2.445-0.669c0.693,0,1.797,0.087,2.986,0.992L144.996,291.383z"/>
	<path fill="#313D49" d="M148.632,282.775h2.64v7.594c0.498-0.691,1.385-1.51,2.9-1.51c0.823,0,2.034,0.237,2.77,1.143
		c0.65,0.798,0.737,1.726,0.737,2.632v5.869h-2.64v-5.091c0-0.518-0.022-1.339-0.499-1.835c-0.411-0.431-0.973-0.475-1.233-0.475
		c-0.692,0-1.234,0.237-1.622,0.82c-0.39,0.605-0.412,1.273-0.412,1.813v4.768h-2.64V282.775z"/>
	<path fill="#313D49" d="M162.592,289.161v5.286c0,0.496,0.044,1.165,0.563,1.64c0.325,0.281,0.844,0.475,1.342,0.475
		c0.498,0,1.018-0.194,1.342-0.475c0.52-0.475,0.563-1.143,0.563-1.64v-5.286h2.64v5.717c0,0.841-0.108,1.964-1.146,2.87
		c-0.866,0.755-2.251,1.057-3.398,1.057c-1.146,0-2.532-0.302-3.397-1.057c-1.039-0.906-1.147-2.028-1.147-2.87v-5.717H162.592z"/>
	<path fill="#313D49" d="M174.193,303.443h-2.64v-14.282h2.64v1.209c0.411-0.582,1.32-1.51,3.051-1.51
		c0.822,0,2.143,0.194,3.203,1.251c0.693,0.691,1.407,1.856,1.407,3.711c0,2.115-0.931,3.258-1.471,3.776
		c-0.714,0.669-1.796,1.208-3.182,1.208c-0.65,0-1.97-0.108-3.008-1.51V303.443z M174.821,291.814
		c-0.584,0.496-0.887,1.144-0.887,2.006c0,0.863,0.345,1.575,0.865,2.029c0.345,0.302,0.908,0.626,1.731,0.626
		c0.866,0,1.428-0.346,1.775-0.669c0.563-0.517,0.822-1.295,0.822-1.985c0-0.69-0.281-1.467-0.801-1.963
		c-0.476-0.431-1.168-0.668-1.796-0.668C175.837,291.189,175.297,291.383,174.821,291.814z"/>
	<path fill="#313D49" d="M188.78,291.383c-0.627-0.582-1.255-0.626-1.537-0.626c-0.627,0-1.017,0.302-1.017,0.756
		c0,0.237,0.108,0.604,0.844,0.841l0.627,0.195c0.736,0.237,1.84,0.604,2.381,1.337c0.281,0.389,0.476,0.949,0.476,1.553
		c0,0.841-0.282,1.683-1.039,2.373c-0.757,0.691-1.666,0.992-2.813,0.992c-1.948,0-3.052-0.928-3.636-1.553l1.385-1.596
		c0.519,0.604,1.299,1.079,2.077,1.079c0.736,0,1.299-0.367,1.299-1.014c0-0.583-0.476-0.82-0.822-0.948l-0.606-0.216
		c-0.671-0.237-1.45-0.539-2.012-1.122c-0.433-0.453-0.715-1.036-0.715-1.791c0-0.906,0.433-1.661,0.975-2.114
		c0.736-0.582,1.688-0.669,2.445-0.669c0.693,0,1.796,0.087,2.986,0.992L188.78,291.383z"/>
</g>
<g>
	<g>
		<rect x="14.529" y="13.488" opacity="0.3" fill="#0D0F0F" width="50.953" height="44.072"/>
		<rect x="72.475" y="13.488" opacity="0.3" fill="#0D0F0F" width="49.504" height="44.072"/>
		<rect x="124.402" y="13.488" opacity="0.3" fill="#0D0F0F" width="49.503" height="44.072"/>
		<rect x="176.33" y="13.488" opacity="0.3" fill="#0D0F0F" width="49.503" height="44.072"/>
	</g>
	<polygon fill="#FFFFFF" points="37.133,30.419 37.133,36.271 37.133,42.122 45.375,36.271 	"/>
	<g>
		<path fill="#FFFFFF" d="M88.293,29.118c0-4.392,2.405-6.674,4.964-6.674c2.558,0,4.963,2.282,4.963,6.693
			c0,4.393-2.405,6.675-4.963,6.675C90.698,35.812,88.293,33.529,88.293,29.118z M90.795,29.118c0,3.337,1.366,4.546,2.463,4.546
			c1.097,0,2.463-1.209,2.463-4.546c0-3.318-1.386-4.526-2.463-4.526S90.795,25.8,90.795,29.118z"/>
		<path fill="#FFFFFF" d="M99.225,29.118c0-4.392,2.405-6.674,4.963-6.674c2.559,0,4.964,2.282,4.964,6.693
			c0,4.393-2.405,6.675-4.964,6.675C101.63,35.812,99.225,33.529,99.225,29.118z M101.725,29.118c0,3.337,1.366,4.546,2.463,4.546
			c1.097,0,2.463-1.209,2.463-4.546c0-3.318-1.385-4.526-2.463-4.526C103.111,24.592,101.725,25.8,101.725,29.118z"/>
	</g>
	<g>
		<path fill="#FFFFFF" d="M94.664,38.108h1.843v5.301c0.348-0.481,0.967-1.054,2.025-1.054c0.575,0,1.421,0.166,1.934,0.798
			c0.454,0.557,0.514,1.205,0.514,1.837v4.097h-1.843v-3.555c0-0.361-0.016-0.934-0.347-1.28c-0.288-0.301-0.68-0.331-0.861-0.331
			c-0.484,0-0.862,0.165-1.133,0.572c-0.272,0.422-0.288,0.889-0.288,1.265v3.328h-1.843V38.108z"/>
	</g>
	<g>
		<path fill="#FFFFFF" d="M145.285,42.566h1.843v0.738c0.696-0.873,1.556-0.949,1.949-0.949c1.375,0,1.904,0.858,2.069,1.19
			c0.317-0.512,0.967-1.19,2.101-1.19c1.012,0,1.51,0.467,1.767,0.798c0.423,0.557,0.454,1.115,0.454,1.837v4.097h-1.843v-3.555
			c0-0.768-0.167-1.114-0.303-1.28c-0.242-0.301-0.574-0.331-0.755-0.331c-0.499,0-0.816,0.225-1.013,0.572
			c-0.241,0.392-0.257,0.919-0.257,1.265v3.328h-1.843v-3.555c0-0.768-0.166-1.114-0.302-1.28c-0.241-0.301-0.574-0.331-0.755-0.331
			c-0.499,0-0.816,0.225-1.012,0.572c-0.242,0.392-0.258,0.919-0.258,1.265v3.328h-1.843V42.566z"/>
	</g>
	<g>
		<path fill="#FFFFFF" d="M201.635,44.117c-0.438-0.406-0.876-0.436-1.073-0.436c-0.438,0-0.71,0.211-0.71,0.527
			c0,0.166,0.076,0.422,0.589,0.588l0.438,0.136c0.514,0.165,1.285,0.422,1.663,0.934c0.196,0.271,0.332,0.662,0.332,1.084
			c0,0.587-0.196,1.175-0.725,1.657c-0.529,0.482-1.163,0.693-1.964,0.693c-1.359,0-2.13-0.648-2.538-1.084l0.967-1.115
			c0.362,0.422,0.906,0.753,1.45,0.753c0.514,0,0.906-0.256,0.906-0.708c0-0.407-0.332-0.572-0.574-0.663l-0.423-0.15
			c-0.468-0.166-1.012-0.377-1.405-0.783c-0.301-0.317-0.499-0.723-0.499-1.25c0-0.633,0.303-1.16,0.68-1.476
			c0.514-0.407,1.179-0.467,1.707-0.467c0.483,0,1.254,0.06,2.085,0.693L201.635,44.117z"/>
	</g>
	<g>
		<path fill="#FFFFFF" d="M190.699,29.118c0-4.392,2.405-6.674,4.964-6.674c2.558,0,4.963,2.282,4.963,6.693
			c0,4.393-2.405,6.675-4.963,6.675C193.104,35.812,190.699,33.529,190.699,29.118z M193.2,29.118c0,3.337,1.366,4.546,2.463,4.546
			c1.097,0,2.463-1.209,2.463-4.546c0-3.318-1.386-4.526-2.463-4.526S193.2,25.8,193.2,29.118z"/>
		<path fill="#FFFFFF" d="M201.63,29.118c0-4.392,2.405-6.674,4.963-6.674c2.559,0,4.964,2.282,4.964,6.693
			c0,4.393-2.405,6.675-4.964,6.675C204.035,35.812,201.63,33.529,201.63,29.118z M204.13,29.118c0,3.337,1.366,4.546,2.463,4.546
			c1.097,0,2.463-1.209,2.463-4.546c0-3.318-1.385-4.526-2.463-4.526C205.516,24.592,204.13,25.8,204.13,29.118z"/>
	</g>
	<g>
		<path fill="#FFFFFF" d="M142.364,31.246c0.23-0.269,1.731-1.975,2.192-2.666c0.346-0.517,0.751-1.304,0.751-2.052
			c0-1.151-0.827-1.937-1.905-1.937c-1.308,0-2,1.035-2.039,2.129h-2.578c0.115-2.608,1.962-4.277,4.502-4.277
			c2.982,0,4.521,2.033,4.521,4.066c0,1.975-1.328,3.395-2.328,4.469l-2.213,2.398h4.637v2.148h-9.312L142.364,31.246z"/>
		<path fill="#FFFFFF" d="M149.678,29.118c0-4.392,2.405-6.674,4.963-6.674c2.559,0,4.964,2.282,4.964,6.693
			c0,4.393-2.405,6.675-4.964,6.675C152.083,35.812,149.678,33.529,149.678,29.118z M152.179,29.118
			c0,3.337,1.366,4.546,2.463,4.546c1.097,0,2.463-1.209,2.463-4.546c0-3.318-1.385-4.526-2.463-4.526
			C153.564,24.592,152.179,25.8,152.179,29.118z"/>
	</g>
</g>
</svg>
