<?xml version="1.0" encoding="utf-8"?>
<!-- Generator: Adobe Illustrator 17.0.0, SVG Export Plug-In . SVG Version: 6.00 Build 0)  -->
<!DOCTYPE svg PUBLIC "-//W3C//DTD SVG 1.1//EN" "http://www.w3.org/Graphics/SVG/1.1/DTD/svg11.dtd">
<svg version="1.1" id="Слой_1" xmlns="http://www.w3.org/2000/svg" xmlns:xlink="http://www.w3.org/1999/xlink" x="0px" y="0px"
	 width="240px" height="360px" viewBox="0 0 240 360" enable-background="new 0 0 240 360" xml:space="preserve">
<g>
	<rect y="1.254" fill="#A75C45" width="240" height="358.746"/>
	<g>
		<path fill="#D9824A" d="M148.443,88.702l36.122,91.925H240v-44.898c0,0-15.879-36.401-31.038-71.326L148.443,88.702z"/>
		<path fill="#D9824A" d="M201.112,46.297C190.377,21.51,181.67,1.254,181.883,1.254h-67.802l26.813,68.235L201.112,46.297z"/>
		<polygon fill="#D9824A" points="240,113.241 240,51.941 219.069,60.345 		"/>
		<polygon fill="#D9824A" points="195.687,1.254 211.87,42.153 240,31.319 240,1.254 		"/>
	</g>
	<path fill="#D6EAED" d="M208.947,214.586c-1.807-1.813-4.297-2.732-7.401-2.732h-9.179c0.059-0.5,0.1-1.007,0.1-1.525v-8.964
		H47.532v8.964c0,6.57,4.927,11.897,11.005,11.897h122.926c5.277,0,9.682-4.019,10.751-9.379h9.331c2.826,0,5.075,0.819,6.687,2.432
		c2.734,2.739,2.739,6.902,2.739,6.947v21.08h0.997v-21.075C211.972,222.044,211.973,217.624,208.947,214.586z"/>
	<path fill="#252525" d="M181.463,105.251H58.537c-6.077,0-11.005,5.327-11.005,11.897v0.609v83.61h144.934v-83.61v-0.609
		C192.467,110.578,187.54,105.251,181.463,105.251z"/>
	<rect x="58.116" y="114.996" fill="#436E6C" width="123.767" height="75.767"/>
	<rect x="97.13" y="222.226" fill="#BDD5D8" width="45.74" height="18.33"/>
	<rect x="82.87" y="240.32" fill="#BDD5D8" width="74.261" height="2.986"/>
	<ellipse fill="#252525" cx="120" cy="212.602" rx="5.919" ry="5.889"/>
	<polygon opacity="0.6" fill="#FFFFFF" points="134.26,190.762 93.901,190.762 123.498,114.996 163.857,114.996 	"/>
	<rect y="243.306" fill="#252525" width="240" height="116.694"/>
</g>
<g>
	<rect y="274.573" fill="#FFFFFF" width="240" height="85.427"/>
	<g>
		<path fill="#9B9C9C" d="M229.892,351.607H10.108v-38.046h219.783V351.607z M11.106,350.615h217.788v-36.061H11.106V350.615z"/>
	</g>
	<polygon fill="#2F2E2E" points="130.082,326.671 128.038,324.637 117.146,335.475 112.002,330.356 109.919,332.431 
		115.062,337.548 115.043,337.566 117.088,339.6 117.106,339.582 117.123,339.599 119.207,337.526 119.189,337.509 	"/>
</g>
<g>
	<path fill="#AFAFAF" d="M62.735,286.784h-2.074v-2.408h4.883v14.34h-2.809V286.784z"/>
	<path fill="#AFAFAF" d="M77.493,293.771h1.685v2.236h-1.685v2.709h-2.636v-2.709h-7.044v-1.247l7.152-10.384h2.528V293.771z
		 M74.857,293.771v-5.461l-3.716,5.461H74.857z"/>
	<path fill="#AFAFAF" d="M82.335,289.106c0.951,0,1.686,0.73,1.686,1.676c0,0.946-0.735,1.677-1.686,1.677
		c-0.951,0-1.685-0.731-1.685-1.677C80.65,289.836,81.384,289.106,82.335,289.106z M82.335,295.663c0.951,0,1.686,0.731,1.686,1.677
		s-0.735,1.677-1.686,1.677c-0.951,0-1.685-0.731-1.685-1.677S81.384,295.663,82.335,295.663z"/>
	<path fill="#AFAFAF" d="M85.62,291.535c0-4.923,2.701-7.483,5.575-7.483s5.575,2.559,5.575,7.504c0,4.924-2.701,7.482-5.575,7.482
		S85.62,296.48,85.62,291.535z M88.429,291.535c0,3.741,1.534,5.095,2.766,5.095c1.231,0,2.766-1.354,2.766-5.095
		c0-3.72-1.556-5.074-2.766-5.074S88.429,287.815,88.429,291.535z"/>
	<path fill="#AFAFAF" d="M97.894,291.535c0-4.923,2.702-7.483,5.576-7.483c2.873,0,5.574,2.559,5.574,7.504
		c0,4.924-2.701,7.482-5.574,7.482C100.596,299.038,97.894,296.48,97.894,291.535z M100.704,291.535
		c0,3.741,1.533,5.095,2.766,5.095c1.23,0,2.764-1.354,2.764-5.095c0-3.72-1.555-5.074-2.764-5.074
		C102.259,286.462,100.704,287.815,100.704,291.535z"/>
	<path fill="#AFAFAF" d="M115.722,292.567h5.617v2.408h-5.617V292.567z"/>
	<path fill="#313D49" d="M134.629,298.716h-2.118l-5.013-14.34h2.983l3.218,9.76l3.521-9.889h1.557l3.328,9.889l3.457-9.76h2.983
		l-5.338,14.34h-2.117l-3.155-9.094L134.629,298.716z"/>
	<path fill="#313D49" d="M158.054,290.418c0.929,0.838,1.578,2.128,1.578,3.656c0,1.504-0.649,2.794-1.578,3.632
		c-0.8,0.731-2.01,1.311-3.781,1.311c-1.772,0-2.982-0.58-3.782-1.311c-0.929-0.838-1.577-2.128-1.577-3.632
		c0-1.527,0.648-2.818,1.577-3.656c0.8-0.731,2.01-1.311,3.782-1.311C156.044,289.106,157.254,289.686,158.054,290.418z
		 M156.909,294.073c0-1.463-1.124-2.646-2.636-2.646c-1.513,0-2.636,1.182-2.636,2.646c0,1.418,1.102,2.622,2.636,2.622
		S156.909,295.491,156.909,294.073z"/>
	<path fill="#313D49" d="M161.663,289.407h2.637v1.398c0.41-0.796,0.972-1.182,1.167-1.29c0.41-0.258,0.929-0.408,1.555-0.408
		c0.454,0,0.822,0.108,1.125,0.215l-0.346,2.451c-0.346-0.237-0.693-0.344-1.233-0.344c-0.496,0-1.231,0.108-1.75,0.753
		c-0.497,0.623-0.518,1.418-0.518,2.063v4.473h-2.637V289.407z"/>
	<path fill="#313D49" d="M172.079,283.043v9.76l3.501-3.397h3.412l-4.387,4.085l4.733,5.225h-3.5l-3.479-3.978l-0.281,0.258v3.72
		h-2.636v-15.673H172.079z"/>
</g>
<g>
	<g>
		<rect x="14.514" y="14.859" opacity="0.3" fill="#0D0F0F" width="50.873" height="43.919"/>
		<rect x="72.369" y="14.859" opacity="0.3" fill="#0D0F0F" width="49.426" height="43.919"/>
		<rect x="124.215" y="14.859" opacity="0.3" fill="#0D0F0F" width="49.425" height="43.919"/>
		<rect x="176.061" y="14.859" opacity="0.3" fill="#0D0F0F" width="49.425" height="43.919"/>
	</g>
	<polygon fill="#FFFFFF" points="37.082,31.732 37.082,37.563 37.082,43.394 45.312,37.563 	"/>
	<g>
		<path fill="#FFFFFF" d="M88.163,30.435c0-4.377,2.401-6.651,4.955-6.651c2.554,0,4.956,2.274,4.956,6.67
			c0,4.377-2.402,6.652-4.956,6.652C90.565,37.105,88.163,34.831,88.163,30.435z M90.66,30.435c0,3.326,1.364,4.53,2.459,4.53
			c1.095,0,2.459-1.204,2.459-4.53c0-3.307-1.383-4.51-2.459-4.51C92.043,25.924,90.66,27.128,90.66,30.435z"/>
		<path fill="#FFFFFF" d="M101.632,26.211h-1.844V24.07h4.341v12.748h-2.497V26.211z"/>
	</g>
	<g>
		<path fill="#FFFFFF" d="M94.523,39.394h1.839v5.283c0.348-0.48,0.966-1.051,2.022-1.051c0.573,0,1.417,0.165,1.931,0.795
			c0.452,0.555,0.512,1.201,0.512,1.83v4.083h-1.84v-3.542c0-0.36-0.015-0.93-0.347-1.275c-0.287-0.301-0.679-0.33-0.86-0.33
			c-0.483,0-0.859,0.164-1.131,0.57c-0.272,0.42-0.287,0.886-0.287,1.261v3.316h-1.839V39.394z"/>
	</g>
	<g>
		<path fill="#FFFFFF" d="M145.063,43.837h1.841v0.735c0.694-0.87,1.553-0.945,1.945-0.945c1.373,0,1.901,0.855,2.066,1.186
			c0.318-0.51,0.966-1.186,2.097-1.186c1.01,0,1.509,0.465,1.764,0.795c0.423,0.555,0.453,1.111,0.453,1.83v4.083h-1.84v-3.542
			c0-0.765-0.166-1.11-0.302-1.275c-0.241-0.301-0.573-0.33-0.754-0.33c-0.498,0-0.814,0.224-1.011,0.57
			c-0.241,0.39-0.255,0.915-0.255,1.261v3.316h-1.841v-3.542c0-0.765-0.166-1.11-0.302-1.275c-0.241-0.301-0.573-0.33-0.754-0.33
			c-0.497,0-0.814,0.224-1.01,0.57c-0.242,0.39-0.256,0.915-0.256,1.261v3.316h-1.841V43.837z"/>
	</g>
	<g>
		<path fill="#FFFFFF" d="M201.325,45.382c-0.437-0.405-0.875-0.435-1.071-0.435c-0.438,0-0.709,0.21-0.709,0.526
			c0,0.165,0.075,0.42,0.588,0.585l0.436,0.135c0.513,0.165,1.283,0.42,1.66,0.93c0.197,0.27,0.331,0.66,0.331,1.08
			c0,0.585-0.195,1.171-0.723,1.651c-0.528,0.48-1.162,0.691-1.962,0.691c-1.357,0-2.126-0.646-2.534-1.08l0.965-1.111
			c0.362,0.42,0.905,0.751,1.448,0.751c0.513,0,0.906-0.255,0.906-0.706c0-0.405-0.332-0.57-0.574-0.66l-0.422-0.15
			c-0.468-0.165-1.011-0.376-1.403-0.781c-0.302-0.315-0.499-0.72-0.499-1.245c0-0.631,0.302-1.156,0.68-1.471
			c0.512-0.405,1.176-0.465,1.704-0.465c0.482,0,1.252,0.06,2.082,0.691L201.325,45.382z"/>
	</g>
	<g>
		<path fill="#FFFFFF" d="M190.406,30.435c0-4.377,2.402-6.651,4.956-6.651s4.956,2.274,4.956,6.67c0,4.377-2.402,6.652-4.956,6.652
			S190.406,34.831,190.406,30.435z M192.904,30.435c0,3.326,1.364,4.53,2.459,4.53s2.459-1.204,2.459-4.53
			c0-3.307-1.383-4.51-2.459-4.51C194.287,25.924,192.904,27.128,192.904,30.435z"/>
		<path fill="#FFFFFF" d="M203.76,36.188l3.055-3.975c-0.403,0.134-0.903,0.248-1.364,0.248c-0.903,0-2.055-0.362-2.804-1.089
			c-0.673-0.63-1.211-1.72-1.211-3.058c0-1.07,0.308-2.141,1.173-3.077c1.095-1.185,2.343-1.452,3.649-1.452
			c1.364,0,2.593,0.248,3.649,1.299c0.692,0.688,1.249,1.663,1.249,3.096c0,1.548-0.711,2.79-1.613,3.976l-3.765,5.007
			L203.76,36.188z M204.625,26.421c-0.308,0.306-0.692,0.841-0.692,1.683c0,0.764,0.269,1.338,0.711,1.758
			c0.479,0.459,1.017,0.612,1.652,0.612c0.691,0,1.21-0.211,1.671-0.689c0.461-0.477,0.691-1.013,0.691-1.663
			c0-0.803-0.325-1.357-0.71-1.72c-0.326-0.305-0.883-0.631-1.651-0.631C205.489,25.771,204.951,26.096,204.625,26.421z"/>
	</g>
	<g>
		<path fill="#FFFFFF" d="M142.148,32.556c0.23-0.267,1.728-1.969,2.19-2.656c0.345-0.516,0.749-1.3,0.749-2.045
			c0-1.147-0.826-1.93-1.902-1.93c-1.305,0-1.997,1.032-2.036,2.121h-2.574c0.115-2.598,1.96-4.262,4.495-4.262
			c2.977,0,4.514,2.026,4.514,4.051c0,1.969-1.325,3.383-2.324,4.454l-2.209,2.389h4.63v2.14h-9.297L142.148,32.556z"/>
		<path fill="#FFFFFF" d="M149.45,30.435c0-4.377,2.401-6.651,4.956-6.651c2.554,0,4.955,2.274,4.955,6.67
			c0,4.377-2.401,6.652-4.955,6.652C151.852,37.105,149.45,34.831,149.45,30.435z M151.948,30.435c0,3.326,1.364,4.53,2.459,4.53
			c1.095,0,2.459-1.204,2.459-4.53c0-3.307-1.383-4.51-2.459-4.51S151.948,27.128,151.948,30.435z"/>
	</g>
</g>
</svg>
