<?xml version="1.0" encoding="utf-8"?>
<!-- Generator: Adobe Illustrator 17.0.0, SVG Export Plug-In . SVG Version: 6.00 Build 0)  -->
<!DOCTYPE svg PUBLIC "-//W3C//DTD SVG 1.1//EN" "http://www.w3.org/Graphics/SVG/1.1/DTD/svg11.dtd">
<svg version="1.1" id="Слой_2" xmlns="http://www.w3.org/2000/svg" xmlns:xlink="http://www.w3.org/1999/xlink" x="0px" y="0px"
	 width="240px" height="360px" viewBox="0 0 240 360" enable-background="new 0 0 240 360" xml:space="preserve">
<g>
	<rect fill="#AE571A" width="240" height="360"/>
	<g>
		<path fill="#E28141" d="M148.443,87.754L184.566,180H240v-45.055c0,0-15.879-36.528-31.038-71.575L148.443,87.754z"/>
		<path fill="#E28141" d="M201.112,45.2C190.377,20.327,181.67,0,181.883,0h-67.802l26.813,68.474L201.112,45.2z"/>
		<polygon fill="#E28141" points="240,112.378 240,50.864 219.069,59.298 		"/>
		<polygon fill="#E28141" points="195.687,0 211.87,41.042 240,30.17 240,0 		"/>
	</g>
	<path fill="#D7ECEF" d="M208.947,214.078c-1.807-1.819-4.297-2.741-7.401-2.741h-9.179c0.059-0.502,0.1-1.011,0.1-1.53v-8.995
		H47.532v8.995c0,6.593,4.927,11.938,11.005,11.938h122.926c5.277,0,9.682-4.033,10.751-9.412h9.331
		c2.826,0,5.075,0.821,6.687,2.441c2.734,2.749,2.739,6.926,2.739,6.971v21.153h0.997v-21.149
		C211.972,221.562,211.973,217.126,208.947,214.078z"/>
	<path fill="#282828" d="M181.463,104.361H58.537c-6.077,0-11.005,5.346-11.005,11.938v0.611v83.902h144.934V116.91v-0.611
		C192.467,109.707,187.54,104.361,181.463,104.361z"/>
	<rect x="58.116" y="114.139" fill="#146E70" width="123.767" height="76.032"/>
	<rect x="97.13" y="221.745" fill="#BED8DB" width="45.74" height="18.394"/>
	<rect x="82.87" y="239.902" fill="#BED8DB" width="74.261" height="2.996"/>
	<ellipse fill="#282828" cx="120" cy="212.087" rx="5.919" ry="5.91"/>
	<polygon opacity="0.6" fill="#FFFFFF" points="134.26,190.171 93.901,190.171 123.498,114.139 163.857,114.139 	"/>
	<rect y="242.898" fill="#282828" width="240" height="117.102"/>
</g>
<g>
	<rect y="274.274" fill="#FFFFFF" width="240" height="85.726"/>
	<g>
		<path fill="#9B9B9B" d="M229.892,351.578H10.108v-38.179h219.783V351.578z M11.106,350.582h217.788v-36.187H11.106V350.582z"/>
	</g>
	<polygon fill="#303030" points="130.082,326.555 128.038,324.513 117.146,335.389 112.002,330.253 109.919,332.334 115.062,337.47 
		115.043,337.487 117.088,339.528 117.106,339.51 117.123,339.528 119.207,337.448 119.189,337.43 	"/>
</g>
<g>
	<path fill="#AFAFAF" d="M62.735,286.528h-2.074v-2.416h4.883v14.39h-2.809V286.528z"/>
	<path fill="#AFAFAF" d="M77.493,293.54h1.685v2.244h-1.685v2.719h-2.636v-2.719h-7.044v-1.252l7.152-10.42h2.528V293.54z
		 M74.857,293.54v-5.48l-3.716,5.48H74.857z"/>
	<path fill="#AFAFAF" d="M82.335,288.858c0.951,0,1.686,0.732,1.686,1.682c0,0.95-0.735,1.683-1.686,1.683
		c-0.951,0-1.685-0.733-1.685-1.683C80.65,289.591,81.384,288.858,82.335,288.858z M82.335,295.438c0.951,0,1.686,0.733,1.686,1.683
		s-0.735,1.683-1.686,1.683c-0.951,0-1.685-0.733-1.685-1.683S81.384,295.438,82.335,295.438z"/>
	<path fill="#AFAFAF" d="M85.62,291.296c0-4.941,2.701-7.509,5.575-7.509s5.575,2.568,5.575,7.53c0,4.941-2.701,7.508-5.575,7.508
		S85.62,296.258,85.62,291.296z M88.429,291.296c0,3.754,1.534,5.113,2.766,5.113c1.231,0,2.766-1.359,2.766-5.113
		c0-3.733-1.556-5.091-2.766-5.091S88.429,287.563,88.429,291.296z"/>
	<path fill="#AFAFAF" d="M97.894,291.296c0-4.941,2.702-7.509,5.576-7.509c2.873,0,5.574,2.568,5.574,7.53
		c0,4.941-2.701,7.508-5.574,7.508C100.596,298.825,97.894,296.258,97.894,291.296z M100.704,291.296
		c0,3.754,1.533,5.113,2.766,5.113c1.23,0,2.764-1.359,2.764-5.113c0-3.733-1.555-5.091-2.764-5.091
		C102.259,286.205,100.704,287.563,100.704,291.296z"/>
	<path fill="#AFAFAF" d="M115.722,292.331h5.617v2.417h-5.617V292.331z"/>
	<path fill="#2F3D4A" d="M134.629,298.502h-2.118l-5.013-14.39h2.983l3.218,9.794l3.521-9.924h1.557l3.328,9.924l3.457-9.794h2.983
		l-5.338,14.39h-2.117l-3.155-9.126L134.629,298.502z"/>
	<path fill="#2F3D4A" d="M158.054,290.174c0.929,0.841,1.578,2.135,1.578,3.668c0,1.509-0.649,2.804-1.578,3.645
		c-0.8,0.734-2.01,1.316-3.781,1.316c-1.772,0-2.982-0.582-3.782-1.316c-0.929-0.841-1.577-2.136-1.577-3.645
		c0-1.533,0.648-2.827,1.577-3.668c0.8-0.734,2.01-1.316,3.782-1.316C156.044,288.858,157.254,289.441,158.054,290.174z
		 M156.909,293.843c0-1.468-1.124-2.655-2.636-2.655c-1.513,0-2.636,1.187-2.636,2.655c0,1.423,1.102,2.631,2.636,2.631
		S156.909,295.266,156.909,293.843z"/>
	<path fill="#2F3D4A" d="M161.663,289.16h2.637v1.403c0.41-0.799,0.972-1.186,1.167-1.295c0.41-0.259,0.929-0.41,1.555-0.41
		c0.454,0,0.822,0.108,1.125,0.215l-0.346,2.459c-0.346-0.237-0.693-0.345-1.233-0.345c-0.496,0-1.231,0.108-1.75,0.756
		c-0.497,0.625-0.518,1.423-0.518,2.07v4.489h-2.637V289.16z"/>
	<path fill="#2F3D4A" d="M172.079,282.774v9.794l3.501-3.409h3.412l-4.387,4.099l4.733,5.243h-3.5l-3.479-3.992l-0.281,0.259v3.733
		h-2.636v-15.728H172.079z"/>
</g>
<g>
	<g>
		<rect x="14.514" y="13.653" opacity="0.3" width="50.873" height="44.072"/>
		<rect x="72.369" y="13.653" opacity="0.3" width="49.426" height="44.072"/>
		<rect x="124.215" y="13.653" opacity="0.3" width="49.425" height="44.072"/>
		<rect x="176.061" y="13.653" opacity="0.3" width="49.425" height="44.072"/>
	</g>
	<polygon fill="#FFFFFF" points="37.082,30.585 37.082,36.436 37.082,42.287 45.312,36.436 	"/>
	<g>
		<path fill="#FFFFFF" d="M88.163,29.283c0-4.392,2.401-6.674,4.955-6.674c2.554,0,4.956,2.282,4.956,6.693
			c0,4.392-2.402,6.675-4.956,6.675C90.565,35.977,88.163,33.695,88.163,29.283z M90.66,29.283c0,3.337,1.364,4.546,2.459,4.546
			c1.095,0,2.459-1.208,2.459-4.546c0-3.318-1.383-4.526-2.459-4.526C92.043,24.757,90.66,25.965,90.66,29.283z"/>
		<path fill="#FFFFFF" d="M101.632,25.044h-1.844v-2.148h4.341v12.793h-2.497V25.044z"/>
	</g>
	<g>
		<path fill="#FFFFFF" d="M94.523,38.274h1.839v5.301c0.348-0.481,0.966-1.054,2.022-1.054c0.573,0,1.417,0.166,1.931,0.798
			c0.452,0.557,0.512,1.205,0.512,1.837v4.097h-1.84v-3.555c0-0.361-0.015-0.934-0.347-1.28c-0.287-0.302-0.679-0.331-0.86-0.331
			c-0.483,0-0.859,0.165-1.131,0.572c-0.272,0.422-0.287,0.889-0.287,1.265v3.328h-1.839V38.274z"/>
	</g>
	<g>
		<path fill="#FFFFFF" d="M145.063,42.732h1.841v0.738c0.694-0.873,1.553-0.949,1.945-0.949c1.373,0,1.901,0.858,2.066,1.19
			c0.318-0.512,0.966-1.19,2.097-1.19c1.01,0,1.509,0.467,1.764,0.798c0.423,0.557,0.453,1.115,0.453,1.837v4.097h-1.84v-3.555
			c0-0.768-0.166-1.114-0.302-1.28c-0.241-0.302-0.573-0.331-0.754-0.331c-0.498,0-0.814,0.225-1.011,0.572
			c-0.241,0.391-0.255,0.919-0.255,1.265v3.328h-1.841v-3.555c0-0.768-0.166-1.114-0.302-1.28c-0.241-0.302-0.573-0.331-0.754-0.331
			c-0.497,0-0.814,0.225-1.01,0.572c-0.242,0.391-0.256,0.919-0.256,1.265v3.328h-1.841V42.732z"/>
	</g>
	<g>
		<path fill="#FFFFFF" d="M201.325,44.282c-0.437-0.406-0.875-0.436-1.071-0.436c-0.438,0-0.709,0.211-0.709,0.528
			c0,0.165,0.075,0.421,0.588,0.587l0.436,0.136c0.513,0.165,1.283,0.422,1.66,0.934c0.197,0.271,0.331,0.662,0.331,1.084
			c0,0.588-0.195,1.175-0.723,1.657c-0.528,0.482-1.162,0.693-1.962,0.693c-1.357,0-2.126-0.648-2.534-1.084l0.965-1.115
			c0.362,0.422,0.905,0.753,1.448,0.753c0.513,0,0.906-0.256,0.906-0.708c0-0.407-0.332-0.572-0.574-0.662l-0.422-0.151
			c-0.468-0.166-1.011-0.377-1.403-0.783c-0.302-0.316-0.499-0.723-0.499-1.249c0-0.633,0.302-1.16,0.68-1.477
			c0.512-0.407,1.176-0.467,1.704-0.467c0.482,0,1.252,0.06,2.082,0.693L201.325,44.282z"/>
	</g>
	<g>
		<path fill="#FFFFFF" d="M190.406,29.283c0-4.392,2.402-6.674,4.956-6.674s4.956,2.282,4.956,6.693
			c0,4.392-2.402,6.675-4.956,6.675S190.406,33.695,190.406,29.283z M192.904,29.283c0,3.337,1.364,4.546,2.459,4.546
			s2.459-1.208,2.459-4.546c0-3.318-1.383-4.526-2.459-4.526C194.287,24.757,192.904,25.965,192.904,29.283z"/>
		<path fill="#FFFFFF" d="M203.76,35.056l3.055-3.989c-0.403,0.134-0.903,0.249-1.364,0.249c-0.903,0-2.055-0.364-2.804-1.093
			c-0.673-0.632-1.211-1.726-1.211-3.069c0-1.074,0.308-2.148,1.173-3.088c1.095-1.189,2.343-1.458,3.649-1.458
			c1.364,0,2.593,0.249,3.649,1.304c0.692,0.691,1.249,1.669,1.249,3.107c0,1.554-0.711,2.8-1.613,3.99l-3.765,5.025L203.76,35.056z
			 M204.625,25.255c-0.308,0.307-0.692,0.844-0.692,1.688c0,0.767,0.269,1.342,0.711,1.764c0.479,0.46,1.017,0.614,1.652,0.614
			c0.691,0,1.21-0.212,1.671-0.691c0.461-0.479,0.691-1.016,0.691-1.669c0-0.805-0.325-1.362-0.71-1.726
			c-0.326-0.306-0.883-0.633-1.651-0.633C205.489,24.603,204.951,24.93,204.625,25.255z"/>
	</g>
	<g>
		<path fill="#FFFFFF" d="M142.148,31.412c0.23-0.268,1.728-1.975,2.19-2.666c0.345-0.517,0.749-1.304,0.749-2.052
			c0-1.151-0.826-1.937-1.902-1.937c-1.305,0-1.997,1.035-2.036,2.129h-2.574c0.115-2.608,1.96-4.277,4.495-4.277
			c2.977,0,4.514,2.033,4.514,4.066c0,1.975-1.325,3.395-2.324,4.469l-2.209,2.398h4.63v2.148h-9.297L142.148,31.412z"/>
		<path fill="#FFFFFF" d="M149.45,29.283c0-4.392,2.401-6.674,4.956-6.674c2.554,0,4.955,2.282,4.955,6.693
			c0,4.392-2.401,6.675-4.955,6.675C151.852,35.977,149.45,33.695,149.45,29.283z M151.948,29.283c0,3.337,1.364,4.546,2.459,4.546
			c1.095,0,2.459-1.208,2.459-4.546c0-3.318-1.383-4.526-2.459-4.526S151.948,25.965,151.948,29.283z"/>
	</g>
</g>
</svg>
