<?xml version="1.0" encoding="utf-8"?>
<!-- Generator: Adobe Illustrator 17.0.0, SVG Export Plug-In . SVG Version: 6.00 Build 0)  -->
<!DOCTYPE svg PUBLIC "-//W3C//DTD SVG 1.1//EN" "http://www.w3.org/Graphics/SVG/1.1/DTD/svg11.dtd">
<svg version="1.1" id="Слой_2" xmlns="http://www.w3.org/2000/svg" xmlns:xlink="http://www.w3.org/1999/xlink" x="0px" y="0px"
	 width="240px" height="360px" viewBox="0 0 240 360" enable-background="new 0 0 240 360" xml:space="preserve">
<g>
	<rect x="0.008" y="0" fill="#E27A66" width="239.984" height="359.999"/>
	<rect x="0.008" y="219.405" fill="#A5574C" width="239.984" height="140.595"/>
	<rect x="29.279" y="235.868" fill="#73241C" width="210.713" height="19.265"/>
	<polygon fill="#9D312C" points="153.508,175.81 138.641,127.524 121.757,105.228 108.797,100.873 102.196,124.401 118.062,175.905 
		117.917,201.406 113.713,229.228 93.832,231.558 76.424,241.608 76.424,245.429 129.011,245.429 129.011,231.763 145.275,201.406 	
		"/>
	<polygon fill="#EFE5BE" points="126.133,86.138 153.51,93.659 196.647,117.806 239.992,134.124 239.992,179.096 195.008,171.412 
		159.137,171.412 118.113,161.333 100.637,106.462 	"/>
	<polygon fill="#88B5CD" points="239.597,179.542 239.597,152.377 101.032,109.394 117.717,161.778 158.741,171.859 
		194.613,171.859 	"/>
	<polygon fill="#F09A9C" points="119.596,104.091 119.596,93.659 90.258,95.519 76.52,79.03 49.456,76.223 35.113,92.745 
		35.113,116.972 67.751,139.004 72.594,132.426 93.129,136.86 93.004,123.245 109.049,123.317 117.523,150.449 119.596,150.449 	"/>
	<polygon fill="#F09A9C" points="175.351,171.412 140.497,171.412 125.057,115.614 125.057,91.499 151.423,98.732 159.032,118.409 	
		"/>
	<polygon fill="#AC4444" points="127.71,125.198 166.653,143.164 175.351,171.412 148.413,232.919 148.46,247.836 90.733,247.836 
		90.733,243.644 109.843,232.611 131.668,230.052 140.497,171.412 	"/>
	<polygon fill="#AC4444" points="40.01,120.278 67.751,139.004 72.594,132.426 93.129,136.86 93.004,123.245 109.049,123.317 
		117.523,150.449 119.596,150.449 119.596,115.153 90.798,115.093 76.424,107.709 49.994,107.709 35.113,114.975 	"/>
	<polygon fill="#874A31" points="90.733,95.488 75.015,76.223 49.456,76.223 35.113,76.223 35.113,119.021 38.939,121.628 
		49.994,107.709 76.424,107.709 	"/>
</g>
<g>
	<rect y="274.275" fill="#FFFFFF" width="240" height="85.725"/>
	<g>
		<path fill="#9B9B9B" d="M229.892,351.579H10.108v-38.18h219.783V351.579z M11.106,350.583h217.788v-36.188H11.106V350.583z"/>
	</g>
	<polygon fill="#303030" points="130.082,326.555 128.038,324.515 117.145,335.39 112.002,330.255 109.918,332.335 115.062,337.47 
		115.043,337.487 117.088,339.53 117.105,339.511 117.123,339.528 119.207,337.448 119.189,337.432 	"/>
</g>
<g>
	<path fill="#AFAFAF" d="M51.811,286.529h-2.074v-2.417h4.883v14.391h-2.809V286.529z"/>
	<path fill="#AFAFAF" d="M60.109,286.529h-2.074v-2.417h4.883v14.391h-2.809V286.529z"/>
	<path fill="#AFAFAF" d="M70.18,288.859c0.951,0,1.685,0.733,1.685,1.683s-0.735,1.683-1.685,1.683s-1.685-0.733-1.685-1.683
		S69.229,288.859,70.18,288.859z M70.18,295.439c0.951,0,1.685,0.733,1.685,1.683c0,0.949-0.735,1.683-1.685,1.683
		s-1.685-0.733-1.685-1.683C68.495,296.172,69.229,295.439,70.18,295.439z"/>
	<path fill="#AFAFAF" d="M73.465,291.297c0-4.941,2.701-7.509,5.575-7.509c2.874,0,5.575,2.568,5.575,7.53
		c0,4.941-2.701,7.508-5.575,7.508C76.166,298.826,73.465,296.259,73.465,291.297z M76.274,291.297c0,3.754,1.534,5.113,2.766,5.113
		c1.231,0,2.765-1.359,2.765-5.113c0-3.732-1.556-5.091-2.765-5.091C77.83,286.205,76.274,287.564,76.274,291.297z"/>
	<path fill="#AFAFAF" d="M85.739,291.297c0-4.941,2.701-7.509,5.575-7.509c2.874,0,5.575,2.568,5.575,7.53
		c0,4.941-2.701,7.508-5.575,7.508C88.44,298.826,85.739,296.259,85.739,291.297z M88.548,291.297c0,3.754,1.534,5.113,2.765,5.113
		c1.231,0,2.766-1.359,2.766-5.113c0-3.732-1.556-5.091-2.766-5.091C90.104,286.205,88.548,287.564,88.548,291.297z"/>
	<path fill="#AFAFAF" d="M103.567,292.332h5.617v2.417h-5.617V292.332z"/>
	<path fill="#2F3D4A" d="M121.134,284.112c1.62,0,2.744,0.173,3.803,1.101c1.167,1.036,1.469,2.438,1.469,3.473
		c0,0.561-0.087,2.114-1.188,3.215c-0.799,0.799-1.988,1.273-3.651,1.273h-1.816v5.329h-2.809v-14.391H121.134z M119.751,290.757
		h1.146c0.541,0,1.231,0,1.836-0.452c0.518-0.41,0.778-1.057,0.778-1.683c0-0.799-0.389-1.338-0.8-1.639
		c-0.584-0.409-1.318-0.453-1.988-0.453h-0.972V290.757z"/>
	<path fill="#2F3D4A" d="M130.729,289.161v5.286c0,0.496,0.044,1.165,0.562,1.64c0.324,0.281,0.843,0.475,1.339,0.475
		c0.498,0,1.016-0.194,1.34-0.475c0.518-0.475,0.561-1.143,0.561-1.64v-5.286h2.636v5.717c0,0.841-0.108,1.964-1.145,2.87
		c-0.865,0.755-2.247,1.057-3.393,1.057c-1.145,0-2.528-0.302-3.392-1.057c-1.037-0.906-1.146-2.028-1.146-2.87v-5.717H130.729z"/>
	<path fill="#2F3D4A" d="M144.775,291.383c-0.627-0.582-1.254-0.626-1.534-0.626c-0.627,0-1.015,0.302-1.015,0.756
		c0,0.237,0.107,0.604,0.842,0.841l0.626,0.195c0.735,0.237,1.837,0.604,2.377,1.337c0.281,0.389,0.475,0.949,0.475,1.553
		c0,0.841-0.281,1.683-1.036,2.373c-0.757,0.691-1.664,0.992-2.809,0.992c-1.944,0-3.047-0.928-3.63-1.553l1.382-1.596
		c0.518,0.604,1.297,1.079,2.075,1.079c0.734,0,1.296-0.367,1.296-1.014c0-0.583-0.475-0.82-0.82-0.948l-0.606-0.216
		c-0.669-0.237-1.448-0.539-2.009-1.122c-0.433-0.453-0.714-1.036-0.714-1.791c0-0.906,0.433-1.661,0.973-2.114
		c0.734-0.582,1.685-0.669,2.441-0.669c0.692,0,1.794,0.087,2.982,0.992L144.775,291.383z"/>
	<path fill="#2F3D4A" d="M148.406,282.775h2.636v7.594c0.497-0.691,1.383-1.51,2.895-1.51c0.821,0,2.031,0.237,2.766,1.143
		c0.649,0.798,0.735,1.726,0.735,2.632v5.869h-2.636v-5.091c0-0.518-0.022-1.339-0.498-1.835c-0.41-0.431-0.971-0.475-1.231-0.475
		c-0.691,0-1.232,0.237-1.62,0.82c-0.39,0.605-0.411,1.273-0.411,1.813v4.768h-2.636V282.775z"/>
	<path fill="#2F3D4A" d="M162.344,289.161v5.286c0,0.496,0.044,1.165,0.562,1.64c0.324,0.281,0.843,0.475,1.339,0.475
		c0.497,0,1.016-0.194,1.339-0.475c0.519-0.475,0.562-1.143,0.562-1.64v-5.286h2.636v5.717c0,0.841-0.108,1.964-1.145,2.87
		c-0.865,0.755-2.247,1.057-3.393,1.057c-1.145,0-2.528-0.302-3.392-1.057c-1.037-0.906-1.146-2.028-1.146-2.87v-5.717H162.344z"/>
	<path fill="#2F3D4A" d="M173.927,303.443h-2.636v-14.282h2.636v1.209c0.41-0.582,1.318-1.51,3.046-1.51
		c0.821,0,2.139,0.194,3.198,1.251c0.692,0.691,1.405,1.856,1.405,3.711c0,2.115-0.929,3.258-1.469,3.776
		c-0.713,0.669-1.793,1.208-3.177,1.208c-0.649,0-1.967-0.108-3.003-1.51V303.443z M174.553,291.814
		c-0.584,0.496-0.885,1.144-0.885,2.006c0,0.863,0.345,1.575,0.864,2.029c0.345,0.302,0.907,0.626,1.728,0.626
		c0.865,0,1.426-0.346,1.772-0.669c0.562-0.517,0.821-1.295,0.821-1.985c0-0.69-0.281-1.467-0.8-1.963
		c-0.475-0.431-1.166-0.668-1.793-0.668C175.569,291.189,175.029,291.383,174.553,291.814z"/>
	<path fill="#2F3D4A" d="M188.491,291.383c-0.626-0.582-1.253-0.626-1.534-0.626c-0.626,0-1.015,0.302-1.015,0.756
		c0,0.237,0.108,0.604,0.843,0.841l0.626,0.195c0.735,0.237,1.837,0.604,2.377,1.337c0.281,0.389,0.475,0.949,0.475,1.553
		c0,0.841-0.282,1.683-1.037,2.373c-0.756,0.691-1.664,0.992-2.808,0.992c-1.945,0-3.047-0.928-3.631-1.553l1.383-1.596
		c0.518,0.604,1.297,1.079,2.074,1.079c0.734,0,1.297-0.367,1.297-1.014c0-0.583-0.475-0.82-0.821-0.948l-0.605-0.216
		c-0.67-0.237-1.447-0.539-2.009-1.122c-0.433-0.453-0.714-1.036-0.714-1.791c0-0.906,0.433-1.661,0.973-2.114
		c0.735-0.582,1.685-0.669,2.441-0.669c0.692,0,1.793,0.087,2.982,0.992L188.491,291.383z"/>
</g>
<g>
	<g>
		<rect x="14.513" y="13.488" opacity="0.3" width="50.873" height="44.072"/>
		<rect x="72.369" y="13.488" opacity="0.3" width="49.426" height="44.072"/>
		<rect x="124.215" y="13.488" opacity="0.3" width="49.425" height="44.072"/>
		<rect x="176.06" y="13.488" opacity="0.3" width="49.425" height="44.072"/>
	</g>
	<polygon fill="#FFFFFF" points="37.082,30.419 37.082,36.271 37.082,42.122 45.311,36.271 	"/>
	<g>
		<path fill="#FFFFFF" d="M88.162,29.118c0-4.392,2.401-6.674,4.956-6.674c2.554,0,4.955,2.282,4.955,6.693
			c0,4.393-2.401,6.675-4.955,6.675C90.563,35.812,88.162,33.529,88.162,29.118z M90.66,29.118c0,3.337,1.364,4.546,2.459,4.546
			c1.095,0,2.459-1.209,2.459-4.546c0-3.318-1.383-4.526-2.459-4.526S90.66,25.8,90.66,29.118z"/>
		<path fill="#FFFFFF" d="M99.076,29.118c0-4.392,2.401-6.674,4.955-6.674c2.555,0,4.956,2.282,4.956,6.693
			c0,4.393-2.401,6.675-4.956,6.675C101.477,35.812,99.076,33.529,99.076,29.118z M101.573,29.118c0,3.337,1.364,4.546,2.459,4.546
			c1.095,0,2.459-1.209,2.459-4.546c0-3.318-1.382-4.526-2.459-4.526C102.956,24.592,101.573,25.8,101.573,29.118z"/>
	</g>
	<g>
		<path fill="#FFFFFF" d="M94.523,38.108h1.84v5.301c0.348-0.481,0.965-1.054,2.021-1.054c0.574,0,1.418,0.166,1.931,0.798
			c0.453,0.557,0.513,1.205,0.513,1.837v4.097h-1.84v-3.555c0-0.361-0.016-0.934-0.347-1.28c-0.287-0.301-0.679-0.331-0.86-0.331
			c-0.483,0-0.86,0.165-1.131,0.572c-0.272,0.422-0.287,0.889-0.287,1.265v3.328h-1.84V38.108z"/>
	</g>
	<g>
		<path fill="#FFFFFF" d="M145.064,42.566h1.84v0.738c0.695-0.873,1.554-0.949,1.946-0.949c1.373,0,1.901,0.858,2.066,1.19
			c0.317-0.512,0.965-1.19,2.097-1.19c1.01,0,1.508,0.467,1.764,0.798c0.423,0.557,0.453,1.115,0.453,1.837v4.097h-1.84v-3.555
			c0-0.768-0.167-1.114-0.302-1.28c-0.242-0.301-0.573-0.331-0.754-0.331c-0.498,0-0.814,0.225-1.011,0.572
			c-0.241,0.392-0.256,0.919-0.256,1.265v3.328h-1.84v-3.555c0-0.768-0.166-1.114-0.302-1.28c-0.241-0.301-0.573-0.331-0.754-0.331
			c-0.498,0-0.814,0.225-1.01,0.572c-0.242,0.392-0.257,0.919-0.257,1.265v3.328h-1.84V42.566z"/>
	</g>
	<g>
		<path fill="#FFFFFF" d="M201.325,44.117c-0.437-0.406-0.875-0.436-1.072-0.436c-0.437,0-0.709,0.211-0.709,0.527
			c0,0.166,0.076,0.422,0.588,0.588l0.437,0.136c0.513,0.165,1.283,0.422,1.66,0.934c0.196,0.271,0.331,0.662,0.331,1.084
			c0,0.587-0.196,1.175-0.724,1.657c-0.528,0.482-1.161,0.693-1.961,0.693c-1.357,0-2.126-0.648-2.534-1.084l0.965-1.115
			c0.361,0.422,0.905,0.753,1.448,0.753c0.513,0,0.905-0.256,0.905-0.708c0-0.407-0.331-0.572-0.573-0.663l-0.423-0.15
			c-0.468-0.166-1.01-0.377-1.403-0.783c-0.301-0.317-0.498-0.723-0.498-1.25c0-0.633,0.302-1.16,0.679-1.476
			c0.513-0.407,1.177-0.467,1.705-0.467c0.482,0,1.252,0.06,2.082,0.693L201.325,44.117z"/>
	</g>
	<g>
		<path fill="#FFFFFF" d="M190.406,29.118c0-4.392,2.401-6.674,4.956-6.674c2.554,0,4.955,2.282,4.955,6.693
			c0,4.393-2.401,6.675-4.955,6.675C192.808,35.812,190.406,33.529,190.406,29.118z M192.904,29.118
			c0,3.337,1.364,4.546,2.459,4.546c1.095,0,2.459-1.209,2.459-4.546c0-3.318-1.383-4.526-2.459-4.526S192.904,25.8,192.904,29.118z
			"/>
		<path fill="#FFFFFF" d="M201.32,29.118c0-4.392,2.401-6.674,4.955-6.674c2.555,0,4.956,2.282,4.956,6.693
			c0,4.393-2.401,6.675-4.956,6.675C203.722,35.812,201.32,33.529,201.32,29.118z M203.817,29.118c0,3.337,1.364,4.546,2.459,4.546
			c1.095,0,2.459-1.209,2.459-4.546c0-3.318-1.382-4.526-2.459-4.526C205.2,24.592,203.817,25.8,203.817,29.118z"/>
	</g>
	<g>
		<path fill="#FFFFFF" d="M142.148,31.246c0.23-0.269,1.728-1.975,2.189-2.666c0.346-0.517,0.75-1.304,0.75-2.052
			c0-1.151-0.826-1.937-1.902-1.937c-1.306,0-1.997,1.035-2.036,2.129h-2.574c0.115-2.608,1.959-4.277,4.495-4.277
			c2.977,0,4.514,2.033,4.514,4.066c0,1.975-1.326,3.395-2.324,4.469l-2.209,2.398h4.63v2.148h-9.297L142.148,31.246z"/>
		<path fill="#FFFFFF" d="M149.45,29.118c0-4.392,2.401-6.674,4.955-6.674c2.555,0,4.956,2.282,4.956,6.693
			c0,4.393-2.401,6.675-4.956,6.675C151.851,35.812,149.45,33.529,149.45,29.118z M151.947,29.118c0,3.337,1.364,4.546,2.459,4.546
			c1.095,0,2.459-1.209,2.459-4.546c0-3.318-1.382-4.526-2.459-4.526C153.33,24.592,151.947,25.8,151.947,29.118z"/>
	</g>
</g>
</svg>
