<?xml version="1.0" encoding="utf-8"?>
<!-- Generator: Adobe Illustrator 17.0.0, SVG Export Plug-In . SVG Version: 6.00 Build 0)  -->
<!DOCTYPE svg PUBLIC "-//W3C//DTD SVG 1.1//EN" "http://www.w3.org/Graphics/SVG/1.1/DTD/svg11.dtd">
<svg version="1.1" id="Слой_1" xmlns="http://www.w3.org/2000/svg" xmlns:xlink="http://www.w3.org/1999/xlink" x="0px" y="0px"
	 width="260px" height="30px" viewBox="0 0 260 30" enable-background="new 0 0 260 30" xml:space="preserve">
<g>
	<g>
		<path fill="#9BABBA" d="M41.08,12.037c-0.884-0.806-2.157-1.274-3.509-1.742c-1.092-0.39-1.664-0.598-2.079-0.988
			c-0.416-0.364-0.546-0.754-0.546-1.17c0-0.884,0.572-2.027,2.391-2.027c0.624,0,1.819,0.13,2.833,1.482l1.768-2.313
			c-1.768-1.819-3.821-2.027-4.913-2.027c-3.847,0-5.562,2.547-5.562,5.095c0,1.768,0.806,2.729,1.378,3.223
			c0.884,0.78,1.976,1.196,2.885,1.508c0.988,0.338,2.027,0.676,2.677,1.274c0.468,0.442,0.676,0.936,0.676,1.56
			c0,1.456-1.144,2.391-2.677,2.391c-1.222,0-2.807-0.624-3.639-2.313l-2.209,2.105c0.91,1.326,2.781,3.275,5.978,3.275
			c3.587,0,6.03-2.313,6.03-5.692C42.562,13.908,41.86,12.739,41.08,12.037z M50.935,9.36c-2.131,0-3.587,0.702-4.549,1.586
			c-1.118,1.014-1.898,2.573-1.898,4.419c0,1.82,0.78,3.379,1.898,4.393c0.962,0.884,2.417,1.586,4.549,1.586
			c2.131,0,3.587-0.702,4.549-1.586c1.118-1.014,1.898-2.573,1.898-4.393c0-1.846-0.78-3.405-1.898-4.419
			C54.522,10.061,53.067,9.36,50.935,9.36z M50.935,18.535c-1.845,0-3.171-1.456-3.171-3.171c0-1.768,1.352-3.197,3.171-3.197
			c1.819,0,3.171,1.43,3.171,3.197C54.107,17.079,52.781,18.535,50.935,18.535z M65.703,9.36c-2.131,0-3.587,0.702-4.549,1.586
			c-1.118,1.014-1.898,2.573-1.898,4.419c0,1.82,0.78,3.379,1.898,4.393c0.962,0.884,2.417,1.586,4.549,1.586
			s3.587-0.702,4.549-1.586c1.118-1.014,1.897-2.573,1.897-4.393c0-1.846-0.78-3.405-1.897-4.419
			C69.29,10.061,67.835,9.36,65.703,9.36z M65.703,18.535c-1.846,0-3.171-1.456-3.171-3.171c0-1.768,1.352-3.197,3.171-3.197
			c1.819,0,3.171,1.43,3.171,3.197C68.874,17.079,67.549,18.535,65.703,18.535z M81.251,9.36c-1.82,0-2.885,0.988-3.483,1.819V9.724
			h-3.171v11.255h3.171v-5.744c0-0.65,0.026-1.456,0.494-2.183c0.468-0.702,1.118-0.988,1.949-0.988
			c0.312,0,0.988,0.052,1.482,0.572c0.572,0.598,0.598,1.586,0.598,2.209v6.134h3.171v-7.07c0-1.092-0.104-2.209-0.884-3.171
			C83.694,9.646,82.239,9.36,81.251,9.36z M96.124,3.069c-1.04,0-1.898,0.858-1.898,1.898s0.858,1.898,1.898,1.898
			c1.04,0,1.898-0.858,1.898-1.898S97.164,3.069,96.124,3.069z M94.538,20.978h3.171V9.724h-3.171V20.978z M107.38,9.36
			c-1.82,0-2.885,0.988-3.483,1.819V9.724h-3.171v11.255h3.171v-5.744c0-0.65,0.026-1.456,0.494-2.183
			c0.468-0.702,1.118-0.988,1.95-0.988c0.312,0,0.988,0.052,1.481,0.572c0.572,0.598,0.598,1.586,0.598,2.209v6.134h3.171v-7.07
			c0-1.092-0.104-2.209-0.884-3.171C109.823,9.646,108.368,9.36,107.38,9.36z M126.672,3.641l-7.46,17.337h3.665l1.534-3.639h6.992
			l1.534,3.639h3.639l-7.252-17.337H126.672z M125.476,14.584l2.469-6.238l2.469,6.238H125.476z M144.976,9.36
			c-2.079,0-3.171,1.118-3.665,1.819V9.724h-3.171v17.207h3.171v-7.408c1.248,1.69,2.833,1.82,3.613,1.82
			c1.664,0,2.963-0.65,3.821-1.456c0.65-0.624,1.768-2.001,1.768-4.549c0-2.235-0.858-3.639-1.69-4.471
			C147.549,9.594,145.963,9.36,144.976,9.36z M146.249,17.729c-0.416,0.39-1.092,0.806-2.131,0.806c-0.988,0-1.664-0.39-2.079-0.754
			c-0.624-0.546-1.04-1.404-1.04-2.443c0-1.04,0.364-1.82,1.066-2.417c0.572-0.52,1.222-0.754,2.053-0.754
			c0.754,0,1.586,0.286,2.157,0.806c0.624,0.598,0.962,1.534,0.962,2.365S146.925,17.105,146.249,17.729z M159.795,9.36
			c-2.08,0-3.171,1.118-3.665,1.819V9.724h-3.171v17.207h3.171v-7.408c1.248,1.69,2.833,1.82,3.613,1.82
			c1.664,0,2.963-0.65,3.821-1.456c0.65-0.624,1.767-2.001,1.767-4.549c0-2.235-0.858-3.639-1.689-4.471
			C162.369,9.594,160.783,9.36,159.795,9.36z M161.069,17.729c-0.416,0.39-1.092,0.806-2.131,0.806c-0.988,0-1.664-0.39-2.079-0.754
			c-0.624-0.546-1.04-1.404-1.04-2.443c0-1.04,0.364-1.82,1.066-2.417c0.572-0.52,1.222-0.754,2.053-0.754
			c0.754,0,1.586,0.286,2.157,0.806c0.624,0.598,0.962,1.534,0.962,2.365S161.745,17.105,161.069,17.729z M183.74,12.037
			c-0.884-0.806-2.157-1.274-3.509-1.742c-1.092-0.39-1.664-0.598-2.079-0.988c-0.416-0.364-0.546-0.754-0.546-1.17
			c0-0.884,0.572-2.027,2.391-2.027c0.624,0,1.82,0.13,2.833,1.482l1.768-2.313c-1.768-1.819-3.821-2.027-4.913-2.027
			c-3.847,0-5.563,2.547-5.563,5.095c0,1.768,0.806,2.729,1.378,3.223c0.884,0.78,1.976,1.196,2.885,1.508
			c0.988,0.338,2.027,0.676,2.677,1.274c0.468,0.442,0.676,0.936,0.676,1.56c0,1.456-1.144,2.391-2.677,2.391
			c-1.222,0-2.807-0.624-3.639-2.313l-2.209,2.105c0.91,1.326,2.781,3.275,5.978,3.275c3.587,0,6.03-2.313,6.03-5.692
			C185.221,13.908,184.52,12.739,183.74,12.037z M190.892,5.877h-3.171v3.847h-1.248v2.703h1.248v8.552h3.171v-8.552h2.183V9.724
			h-2.183V5.877z M200.615,9.36c-2.131,0-3.587,0.702-4.549,1.586c-1.118,1.014-1.898,2.573-1.898,4.419
			c0,1.82,0.78,3.379,1.898,4.393c0.962,0.884,2.417,1.586,4.549,1.586c2.131,0,3.587-0.702,4.549-1.586
			c1.118-1.014,1.898-2.573,1.898-4.393c0-1.846-0.78-3.405-1.898-4.419C204.202,10.061,202.746,9.36,200.615,9.36z M200.615,18.535
			c-1.845,0-3.171-1.456-3.171-3.171c0-1.768,1.352-3.197,3.171-3.197c1.82,0,3.171,1.43,3.171,3.197
			C203.786,17.079,202.46,18.535,200.615,18.535z M214.083,9.853c-0.234,0.13-0.91,0.598-1.404,1.56v-1.69h-3.171v11.255h3.171
			v-5.406c0-0.78,0.026-1.741,0.624-2.495c0.624-0.78,1.508-0.91,2.105-0.91c0.65,0,1.066,0.13,1.482,0.416l0.416-2.963
			c-0.364-0.13-0.806-0.26-1.352-0.26C215.201,9.36,214.577,9.542,214.083,9.853z M229.447,15.624c0-1.222-0.156-2.989-1.352-4.419
			c-0.78-0.936-2.105-1.845-4.393-1.845c-1.352,0-2.911,0.286-4.237,1.586c-0.806,0.806-1.716,2.183-1.716,4.419
			c0,1.768,0.52,3.223,1.768,4.393c1.118,1.066,2.495,1.586,4.315,1.586c3.925,0,5.198-2.677,5.536-3.509l-2.911-0.468
			c-0.52,0.91-1.43,1.482-2.625,1.482c-1.222,0-1.924-0.598-2.261-1.066c-0.364-0.494-0.546-1.222-0.546-1.897h8.422V15.624z
			 M221.129,13.856c0.26-1.508,1.482-2.261,2.651-2.261c1.17,0,2.417,0.728,2.677,2.261H221.129z"/>
	</g>
</g>
</svg>
