<?xml version="1.0" encoding="utf-8"?>
<!-- Generator: Adobe Illustrator 17.0.0, SVG Export Plug-In . SVG Version: 6.00 Build 0)  -->
<!DOCTYPE svg PUBLIC "-//W3C//DTD SVG 1.1//EN" "http://www.w3.org/Graphics/SVG/1.1/DTD/svg11.dtd">
<svg version="1.1" id="Слой_2" xmlns="http://www.w3.org/2000/svg" xmlns:xlink="http://www.w3.org/1999/xlink" x="0px" y="0px"
	 width="110px" height="18px" viewBox="0 0 110 18" enable-background="new 0 0 110 18" xml:space="preserve">
<g>
	<path fill="#9BABBA" d="M6.236,4.072l2.597,7.378l3.084-7.879l2.921,7.879l2.877-7.378h1.21L14.794,14.43l-2.892-7.879L8.803,14.43
		L5.026,4.072H6.236z"/>
	<path fill="#9BABBA" d="M23.964,4.072c0.664,0,1.653,0.044,2.391,0.546c0.575,0.384,1.077,1.136,1.077,2.184
		c0,1.505-0.989,2.611-2.479,2.715l3.128,4.397h-1.328l-2.996-4.309h-0.28v4.309h-1.092V4.072H23.964z M23.477,8.631h0.693
		c1.357,0,2.169-0.649,2.169-1.8c0-0.546-0.162-1.092-0.782-1.446c-0.443-0.251-0.944-0.281-1.417-0.281h-0.664V8.631z"/>
	<path fill="#9BABBA" d="M32.954,4.072v9.842h-1.092V4.072H32.954z"/>
	<path fill="#9BABBA" d="M39.98,5.104v8.809h-1.092V5.104h-2.391V4.072h5.873v1.033H39.98z"/>
	<path fill="#9BABBA" d="M51.02,5.104h-4.013v2.922h3.896v1.033h-3.896v3.821h4.013v1.033h-5.105V4.072h5.105V5.104z"/>
	<path fill="#9BABBA" d="M63.023,5.104v8.809h-1.092V5.104h-2.391V4.072h5.873v1.033H63.023z"/>
	<path fill="#9BABBA" d="M67.91,9c0-2.936,2.287-5.09,5.12-5.09S78.15,6.064,78.15,9c0,2.921-2.271,5.09-5.12,5.09
		C70.182,14.09,67.91,11.921,67.91,9z M69.032,9c0,2.257,1.785,4.058,3.998,4.058c2.214,0,3.999-1.801,3.999-4.058
		s-1.785-4.058-3.999-4.058C70.817,4.942,69.032,6.742,69.032,9z"/>
	<path fill="#9BABBA" d="M88.827,10.107c0,0.826,0,1.727,0.782,2.391c0.398,0.339,1.077,0.561,1.623,0.561s1.225-0.222,1.623-0.561
		c0.782-0.664,0.782-1.564,0.782-2.391V4.072h1.092v6.33c0,0.826-0.088,1.623-0.619,2.36c-0.591,0.812-1.623,1.328-2.878,1.328
		c-1.254,0-2.287-0.517-2.877-1.328c-0.531-0.737-0.62-1.534-0.62-2.36v-6.33h1.092V10.107z"/>
	<path fill="#9BABBA" d="M103.735,6.019c-0.133-0.266-0.354-0.561-0.575-0.738c-0.192-0.147-0.546-0.339-1.106-0.339
		c-0.975,0-1.653,0.605-1.653,1.52c0,0.383,0.104,0.604,0.369,0.855c0.295,0.295,0.664,0.458,1.033,0.62l0.944,0.414
		c0.575,0.25,1.106,0.516,1.52,0.929c0.502,0.501,0.708,1.077,0.708,1.786c0,1.814-1.343,3.024-3.113,3.024
		c-0.649,0-1.461-0.133-2.14-0.797c-0.486-0.472-0.782-1.15-0.915-1.741l1.063-0.295c0.074,0.517,0.311,0.959,0.591,1.255
		c0.428,0.428,0.914,0.546,1.416,0.546c1.343,0,1.978-0.959,1.978-1.948c0-0.442-0.133-0.826-0.487-1.151
		c-0.28-0.266-0.664-0.442-1.18-0.678L101.3,8.867c-0.384-0.177-0.87-0.383-1.313-0.812c-0.428-0.413-0.679-0.871-0.679-1.608
		c0-1.52,1.166-2.538,2.76-2.538c0.604,0,1.092,0.118,1.578,0.442c0.398,0.266,0.738,0.664,0.959,1.092L103.735,6.019z"/>
</g>
</svg>
