<?xml version="1.0" encoding="utf-8"?>
<!-- Generator: Adobe Illustrator 17.0.0, SVG Export Plug-In . SVG Version: 6.00 Build 0)  -->
<!DOCTYPE svg PUBLIC "-//W3C//DTD SVG 1.1//EN" "http://www.w3.org/Graphics/SVG/1.1/DTD/svg11.dtd">
<svg version="1.1" id="Слой_1" xmlns="http://www.w3.org/2000/svg" xmlns:xlink="http://www.w3.org/1999/xlink" x="0px" y="0px"
	 width="110px" height="18px" viewBox="0 0 110 18" enable-background="new 0 0 110 18" xml:space="preserve">
<g>
	<g>
		<path fill="#9AA9B7" d="M14.14,11.49l-2.973-8.009L8.028,11.49L5.385,3.991H4.154l3.844,10.528l3.154-8.009l2.943,8.009
			l4.205-10.528h-1.231L14.14,11.49z M26.952,6.765c0-1.065-0.51-1.83-1.096-2.22c-0.751-0.51-1.757-0.555-2.433-0.555h-1.607
			v10.003h1.111V9.615h0.285l3.048,4.379h1.352l-3.183-4.469C25.946,9.42,26.952,8.295,26.952,6.765z M22.927,8.625V5.041h0.676
			c0.481,0,0.991,0.03,1.442,0.285c0.631,0.36,0.796,0.915,0.796,1.47c0,1.17-0.826,1.83-2.207,1.83H22.927z M31.458,13.994h1.111
			V3.991h-1.111V13.994z M36.174,5.041h2.433v8.953h1.111V5.041h2.433v-1.05h-5.977V5.041z M45.756,13.994h5.196v-1.05h-4.085V9.06
			h3.964V8.01h-3.964V5.041h4.085v-1.05h-5.196V13.994z M59.619,5.041h2.433v8.953h1.111V5.041h2.433v-1.05h-5.977V5.041z
			 M73.345,3.826c-2.883,0-5.211,2.19-5.211,5.174c0,2.969,2.313,5.174,5.211,5.174S78.556,11.969,78.556,9
			C78.556,6.016,76.228,3.826,73.345,3.826z M73.345,13.124c-2.253,0-4.069-1.83-4.069-4.124c0-2.295,1.817-4.124,4.069-4.124
			c2.252,0,4.069,1.83,4.069,4.124C77.415,11.295,75.598,13.124,73.345,13.124z M94.311,10.125c0,0.84,0,1.755-0.796,2.43
			c-0.405,0.345-1.096,0.57-1.652,0.57s-1.246-0.225-1.652-0.57c-0.796-0.675-0.796-1.59-0.796-2.43V3.991h-1.111v6.434
			c0,0.84,0.09,1.65,0.631,2.4c0.601,0.825,1.652,1.35,2.928,1.35c1.276,0,2.328-0.525,2.928-1.35c0.541-0.75,0.631-1.56,0.631-2.4
			V3.991h-1.111V10.125z M105.125,9.285c-0.421-0.42-0.961-0.69-1.547-0.945l-0.961-0.42c-0.375-0.165-0.751-0.33-1.051-0.63
			c-0.27-0.255-0.375-0.48-0.375-0.87c0-0.93,0.691-1.545,1.682-1.545c0.571,0,0.931,0.195,1.126,0.345
			c0.225,0.18,0.451,0.48,0.586,0.75l0.886-0.585c-0.225-0.435-0.571-0.84-0.976-1.11c-0.496-0.33-0.991-0.45-1.607-0.45
			c-1.622,0-2.808,1.035-2.808,2.58c0,0.75,0.255,1.215,0.691,1.635c0.451,0.435,0.946,0.645,1.336,0.825l0.901,0.42
			c0.526,0.24,0.916,0.42,1.201,0.69c0.36,0.33,0.495,0.72,0.495,1.17c0,1.005-0.646,1.98-2.012,1.98
			c-0.51,0-1.006-0.12-1.442-0.555c-0.285-0.3-0.526-0.75-0.601-1.275l-1.081,0.3c0.135,0.6,0.435,1.29,0.931,1.77
			c0.691,0.675,1.517,0.81,2.177,0.81c1.802,0,3.168-1.23,3.168-3.074C105.846,10.38,105.636,9.795,105.125,9.285z"/>
	</g>
</g>
</svg>
